%TF.GenerationSoftware,KiCad,Pcbnew,10.0.6*%
%TF.CreationDate,2026-10-03T08:50:12+09:00*%
%TF.ProjectId,HMT500(ED260313A),484d5435-3030-4284-9544-323630333133,A5-R3*%
%TF.SameCoordinates,Original*%
%TF.FileFunction,Paste,Bot*%
%TF.FilePolarity,Positive*%
%FSLAX46Y46*%
G04 Gerber Fmt 4.6, Leading zero omitted, Abs format (unit mm)*
G04 Created by KiCad (PCBNEW 10.0.6) date 2026-10-03 08:50:12*
%MOMM*%
%LPD*%
G01*
G04 APERTURE LIST*
G04 Aperture macros list*
%AMRoundRect*
0 Rectangle with rounded corners*
0 $1 Rounding radius*
0 $2 $3 $4 $5 $6 $7 $8 $9 X,Y pos of 4 corners*
0 Add a 4 corners polygon primitive as box body*
4,1,4,$2,$3,$4,$5,$6,$7,$8,$9,$2,$3,0*
0 Add four circle primitives for the rounded corners*
1,1,$1+$1,$2,$3*
1,1,$1+$1,$4,$5*
1,1,$1+$1,$6,$7*
1,1,$1+$1,$8,$9*
0 Add four rect primitives between the rounded corners*
20,1,$1+$1,$2,$3,$4,$5,0*
20,1,$1+$1,$4,$5,$6,$7,0*
20,1,$1+$1,$6,$7,$8,$9,0*
20,1,$1+$1,$8,$9,$2,$3,0*%
G04 Aperture macros list end*
%ADD10RoundRect,0.140000X0.170000X-0.140000X0.170000X0.140000X-0.170000X0.140000X-0.170000X-0.140000X0*%
%ADD11RoundRect,0.135000X-0.135000X-0.185000X0.135000X-0.185000X0.135000X0.185000X-0.135000X0.185000X0*%
%ADD12RoundRect,0.135000X0.135000X0.185000X-0.135000X0.185000X-0.135000X-0.185000X0.135000X-0.185000X0*%
%ADD13RoundRect,0.125000X-0.537500X-0.125000X0.537500X-0.125000X0.537500X0.125000X-0.537500X0.125000X0*%
%ADD14RoundRect,0.250000X0.250000X0.475000X-0.250000X0.475000X-0.250000X-0.475000X0.250000X-0.475000X0*%
%ADD15RoundRect,0.249999X-0.420001X0.395001X-0.420001X-0.395001X0.420001X-0.395001X0.420001X0.395001X0*%
%ADD16RoundRect,0.100000X-0.100000X0.675000X-0.100000X-0.675000X0.100000X-0.675000X0.100000X0.675000X0*%
%ADD17RoundRect,0.249999X0.420001X-0.395001X0.420001X0.395001X-0.420001X0.395001X-0.420001X-0.395001X0*%
%ADD18RoundRect,0.100000X0.100000X-0.675000X0.100000X0.675000X-0.100000X0.675000X-0.100000X-0.675000X0*%
%ADD19RoundRect,0.225000X-0.250000X0.225000X-0.250000X-0.225000X0.250000X-0.225000X0.250000X0.225000X0*%
%ADD20RoundRect,0.140000X0.140000X0.170000X-0.140000X0.170000X-0.140000X-0.170000X0.140000X-0.170000X0*%
%ADD21RoundRect,0.250000X0.475000X-0.250000X0.475000X0.250000X-0.475000X0.250000X-0.475000X-0.250000X0*%
%ADD22RoundRect,0.140000X-0.170000X0.140000X-0.170000X-0.140000X0.170000X-0.140000X0.170000X0.140000X0*%
%ADD23RoundRect,0.140000X-0.140000X-0.170000X0.140000X-0.170000X0.140000X0.170000X-0.140000X0.170000X0*%
%ADD24R,0.950000X3.300000*%
%ADD25R,3.300000X0.950000*%
%ADD26RoundRect,0.135000X-0.185000X0.135000X-0.185000X-0.135000X0.185000X-0.135000X0.185000X0.135000X0*%
%ADD27RoundRect,0.050600X-0.311900X0.064400X-0.311900X-0.064400X0.311900X-0.064400X0.311900X0.064400X0*%
%ADD28RoundRect,0.050920X-0.724080X0.619080X-0.724080X-0.619080X0.724080X-0.619080X0.724080X0.619080X0*%
%ADD29RoundRect,0.049600X-0.105400X0.250400X-0.105400X-0.250400X0.105400X-0.250400X0.105400X0.250400X0*%
%ADD30RoundRect,0.250000X-0.325000X-1.100000X0.325000X-1.100000X0.325000X1.100000X-0.325000X1.100000X0*%
%ADD31RoundRect,0.150000X-0.150000X0.512500X-0.150000X-0.512500X0.150000X-0.512500X0.150000X0.512500X0*%
%ADD32RoundRect,0.150000X0.150000X-0.512500X0.150000X0.512500X-0.150000X0.512500X-0.150000X-0.512500X0*%
%ADD33RoundRect,0.125000X0.537500X0.125000X-0.537500X0.125000X-0.537500X-0.125000X0.537500X-0.125000X0*%
%ADD34RoundRect,0.150000X-0.512500X-0.150000X0.512500X-0.150000X0.512500X0.150000X-0.512500X0.150000X0*%
%ADD35RoundRect,0.250000X-0.250000X-0.475000X0.250000X-0.475000X0.250000X0.475000X-0.250000X0.475000X0*%
%ADD36RoundRect,0.250000X-1.425000X0.362500X-1.425000X-0.362500X1.425000X-0.362500X1.425000X0.362500X0*%
%ADD37RoundRect,0.225000X0.250000X-0.225000X0.250000X0.225000X-0.250000X0.225000X-0.250000X-0.225000X0*%
%ADD38RoundRect,0.200000X0.275000X-0.200000X0.275000X0.200000X-0.275000X0.200000X-0.275000X-0.200000X0*%
%ADD39RoundRect,0.250000X0.650000X-0.325000X0.650000X0.325000X-0.650000X0.325000X-0.650000X-0.325000X0*%
%ADD40RoundRect,0.250000X-0.475000X0.250000X-0.475000X-0.250000X0.475000X-0.250000X0.475000X0.250000X0*%
%ADD41RoundRect,0.232500X-0.757500X-0.232500X0.757500X-0.232500X0.757500X0.232500X-0.757500X0.232500X0*%
%ADD42RoundRect,0.100000X-0.687500X-0.100000X0.687500X-0.100000X0.687500X0.100000X-0.687500X0.100000X0*%
%ADD43RoundRect,0.050600X-0.064400X-0.311900X0.064400X-0.311900X0.064400X0.311900X-0.064400X0.311900X0*%
%ADD44RoundRect,0.050920X-0.619080X-0.724080X0.619080X-0.724080X0.619080X0.724080X-0.619080X0.724080X0*%
%ADD45RoundRect,0.049600X-0.250400X-0.105400X0.250400X-0.105400X0.250400X0.105400X-0.250400X0.105400X0*%
%ADD46RoundRect,0.250000X0.325000X0.650000X-0.325000X0.650000X-0.325000X-0.650000X0.325000X-0.650000X0*%
%ADD47RoundRect,0.200000X0.200000X0.275000X-0.200000X0.275000X-0.200000X-0.275000X0.200000X-0.275000X0*%
%ADD48RoundRect,0.225000X0.225000X0.250000X-0.225000X0.250000X-0.225000X-0.250000X0.225000X-0.250000X0*%
%ADD49R,1.300000X5.600000*%
%ADD50RoundRect,0.250000X0.300000X-0.300000X0.300000X0.300000X-0.300000X0.300000X-0.300000X-0.300000X0*%
%ADD51RoundRect,0.250000X-1.000000X1.400000X-1.000000X-1.400000X1.000000X-1.400000X1.000000X1.400000X0*%
%ADD52RoundRect,0.200000X-0.275000X0.200000X-0.275000X-0.200000X0.275000X-0.200000X0.275000X0.200000X0*%
%ADD53RoundRect,0.135000X0.185000X-0.135000X0.185000X0.135000X-0.185000X0.135000X-0.185000X-0.135000X0*%
%ADD54RoundRect,0.200000X-0.200000X-0.275000X0.200000X-0.275000X0.200000X0.275000X-0.200000X0.275000X0*%
%ADD55RoundRect,0.250000X-0.325000X-0.650000X0.325000X-0.650000X0.325000X0.650000X-0.325000X0.650000X0*%
%ADD56R,1.200000X2.000000*%
G04 APERTURE END LIST*
D10*
%TO.C,C14*%
X123400000Y-98330000D03*
X123400000Y-97370000D03*
%TD*%
D11*
%TO.C,R44*%
X129540000Y-97425000D03*
X130560000Y-97425000D03*
%TD*%
D12*
%TO.C,R31*%
X137360000Y-102375000D03*
X136340000Y-102375000D03*
%TD*%
D13*
%TO.C,U9*%
X133062499Y-106175000D03*
X133062499Y-105525000D03*
X133062499Y-104875000D03*
X133062499Y-104225000D03*
X135337499Y-104225000D03*
X135337499Y-104875000D03*
X135337499Y-105525000D03*
X135337499Y-106175000D03*
%TD*%
D14*
%TO.C,C16*%
X112125000Y-107075000D03*
X110225000Y-107075000D03*
%TD*%
D12*
%TO.C,R52*%
X139985000Y-107125000D03*
X138965000Y-107125000D03*
%TD*%
D15*
%TO.C,U8*%
X136370000Y-92100000D03*
X134700000Y-92100000D03*
X133030000Y-92100000D03*
X136370000Y-93700000D03*
X134700000Y-93700000D03*
X133030000Y-93700000D03*
D16*
X131125000Y-90025000D03*
X131775000Y-90025000D03*
X132425000Y-90025000D03*
X133075000Y-90025000D03*
X133725000Y-90025000D03*
X134375000Y-90025000D03*
X135025000Y-90025000D03*
X135675000Y-90025000D03*
X136325000Y-90025000D03*
X136975000Y-90025000D03*
X137625000Y-90025000D03*
X138275000Y-90025000D03*
X138275000Y-95775000D03*
X137625000Y-95775000D03*
X136975000Y-95775000D03*
X136325000Y-95775000D03*
X135675000Y-95775000D03*
X135025000Y-95775000D03*
X134375000Y-95775000D03*
X133725000Y-95775000D03*
X133075000Y-95775000D03*
X132425000Y-95775000D03*
X131775000Y-95775000D03*
X131125000Y-95775000D03*
%TD*%
D17*
%TO.C,U7*%
X126130000Y-107900000D03*
X127800000Y-107900000D03*
X129470000Y-107900000D03*
X126130000Y-106300000D03*
X127800000Y-106300000D03*
X129470000Y-106300000D03*
D18*
X131375000Y-109975000D03*
X130725000Y-109975000D03*
X130075000Y-109975000D03*
X129425000Y-109975000D03*
X128775000Y-109975000D03*
X128125000Y-109975000D03*
X127475000Y-109975000D03*
X126825000Y-109975000D03*
X126175000Y-109975000D03*
X125525000Y-109975000D03*
X124875000Y-109975000D03*
X124225000Y-109975000D03*
X124225000Y-104225000D03*
X124875000Y-104225000D03*
X125525000Y-104225000D03*
X126175000Y-104225000D03*
X126825000Y-104225000D03*
X127475000Y-104225000D03*
X128125000Y-104225000D03*
X128775000Y-104225000D03*
X129425000Y-104225000D03*
X130075000Y-104225000D03*
X130725000Y-104225000D03*
X131375000Y-104225000D03*
%TD*%
D19*
%TO.C,C46*%
X135350000Y-107800000D03*
X135350000Y-109350000D03*
%TD*%
D11*
%TO.C,R12*%
X120115000Y-108775000D03*
X121135000Y-108775000D03*
%TD*%
%TO.C,R60*%
X113490000Y-106175000D03*
X114510000Y-106175000D03*
%TD*%
D20*
%TO.C,C4*%
X115505000Y-102250000D03*
X114545000Y-102250000D03*
%TD*%
D21*
%TO.C,C18*%
X124150000Y-96000000D03*
X124150000Y-94100000D03*
%TD*%
D22*
%TO.C,C44*%
X132600000Y-109820000D03*
X132600000Y-110780000D03*
%TD*%
%TO.C,C8*%
X108000000Y-102620000D03*
X108000000Y-103580000D03*
%TD*%
D11*
%TO.C,R51*%
X138965000Y-108225000D03*
X139985000Y-108225000D03*
%TD*%
D23*
%TO.C,C40*%
X125170000Y-102550000D03*
X126130000Y-102550000D03*
%TD*%
D24*
%TO.C,L2*%
X107725000Y-106450000D03*
X104675000Y-106450000D03*
%TD*%
D25*
%TO.C,L3*%
X146600000Y-105825000D03*
X146600000Y-102775000D03*
%TD*%
D12*
%TO.C,R34*%
X132385000Y-102525000D03*
X131365000Y-102525000D03*
%TD*%
D26*
%TO.C,R14*%
X133699999Y-107640000D03*
X133699999Y-108660000D03*
%TD*%
D27*
%TO.C,D2*%
X152337000Y-104375000D03*
X149663000Y-104375000D03*
D28*
X151000000Y-104700000D03*
D27*
X152337000Y-105025000D03*
X149663000Y-105025000D03*
D29*
X150025000Y-103300000D03*
X150675000Y-103300000D03*
X151325000Y-103300000D03*
X151975000Y-103300000D03*
X151975000Y-106100000D03*
X151325000Y-106100000D03*
X150675000Y-106100000D03*
X150025000Y-106100000D03*
%TD*%
D30*
%TO.C,C2*%
X117575000Y-100825000D03*
X120525000Y-100825000D03*
%TD*%
D22*
%TO.C,C30*%
X133699999Y-109695000D03*
X133699999Y-110655000D03*
%TD*%
D26*
%TO.C,R11*%
X139200000Y-109290000D03*
X139200000Y-110310000D03*
%TD*%
D31*
%TO.C,U2*%
X109400000Y-102712500D03*
X110350000Y-102712500D03*
X111300000Y-102712500D03*
X111300000Y-104987500D03*
X110350000Y-104987500D03*
X109400000Y-104987500D03*
%TD*%
D20*
%TO.C,C21*%
X124130000Y-102550000D03*
X123170000Y-102550000D03*
%TD*%
%TO.C,C50*%
X137705000Y-97410000D03*
X136745000Y-97410000D03*
%TD*%
D32*
%TO.C,U15*%
X143400000Y-108112500D03*
X142450000Y-108112500D03*
X141500000Y-108112500D03*
X141500000Y-105837500D03*
X142450000Y-105837500D03*
X143400000Y-105837500D03*
%TD*%
D20*
%TO.C,C57*%
X135730000Y-97410000D03*
X134770000Y-97410000D03*
%TD*%
D33*
%TO.C,U10*%
X129437500Y-93625000D03*
X129437500Y-94275000D03*
X129437500Y-94925000D03*
X129437500Y-95575000D03*
X127162500Y-95575000D03*
X127162500Y-94925000D03*
X127162500Y-94275000D03*
X127162500Y-93625000D03*
%TD*%
D34*
%TO.C,U12*%
X137362500Y-105700000D03*
X137362500Y-104750000D03*
X137362500Y-103800000D03*
X139637500Y-103800000D03*
X139637500Y-105700000D03*
%TD*%
D35*
%TO.C,C55*%
X141500000Y-103525000D03*
X143400000Y-103525000D03*
%TD*%
D20*
%TO.C,C54*%
X129929999Y-89825000D03*
X128969999Y-89825000D03*
%TD*%
D36*
%TO.C,R1*%
X121050000Y-89737500D03*
X121050000Y-95662500D03*
%TD*%
D37*
%TO.C,C56*%
X126025000Y-92000000D03*
X126025000Y-90450000D03*
%TD*%
D26*
%TO.C,R10*%
X149525000Y-107265000D03*
X149525000Y-108285000D03*
%TD*%
D38*
%TO.C,R32*%
X123125000Y-101250000D03*
X123125000Y-99600000D03*
%TD*%
D30*
%TO.C,C6*%
X104625000Y-99600000D03*
X107575000Y-99600000D03*
%TD*%
D39*
%TO.C,C65*%
X141150000Y-101525000D03*
X141150000Y-98575000D03*
%TD*%
D40*
%TO.C,C42*%
X122475000Y-104225000D03*
X122475000Y-106125000D03*
%TD*%
D41*
%TO.C,U1*%
X112650000Y-98270000D03*
X112650000Y-99430000D03*
D42*
X109787500Y-101125000D03*
X109787500Y-100475000D03*
X109787500Y-99825000D03*
X109787500Y-99175000D03*
X109787500Y-98525000D03*
X109787500Y-97875000D03*
X109787500Y-97225000D03*
X109787500Y-96575000D03*
X115512500Y-96575000D03*
X115512500Y-97225000D03*
X115512500Y-97875000D03*
X115512500Y-98525000D03*
X115512500Y-99175000D03*
X115512500Y-99825000D03*
X115512500Y-100475000D03*
X115512500Y-101125000D03*
%TD*%
D43*
%TO.C,D61*%
X118100000Y-103238000D03*
X118100000Y-105912000D03*
D44*
X118425000Y-104575000D03*
D43*
X118750000Y-103238000D03*
X118750000Y-105912000D03*
D45*
X117025000Y-105550000D03*
X117025000Y-104900000D03*
X117025000Y-104250000D03*
X117025000Y-103600000D03*
X119825000Y-103600000D03*
X119825000Y-104250000D03*
X119825000Y-104900000D03*
X119825000Y-105550000D03*
%TD*%
D46*
%TO.C,C64*%
X146275000Y-100700000D03*
X143325000Y-100700000D03*
%TD*%
D21*
%TO.C,C1*%
X148275000Y-101100000D03*
X148275000Y-99200000D03*
%TD*%
D47*
%TO.C,R6*%
X114550000Y-104775000D03*
X112900000Y-104775000D03*
%TD*%
D35*
%TO.C,C61*%
X146200000Y-107725000D03*
X148100000Y-107725000D03*
%TD*%
D48*
%TO.C,C62*%
X142450000Y-109950000D03*
X140900000Y-109950000D03*
%TD*%
D20*
%TO.C,C48*%
X128130000Y-102550000D03*
X127170000Y-102550000D03*
%TD*%
D49*
%TO.C,GDT1*%
X113225000Y-92475000D03*
X117225000Y-92475000D03*
%TD*%
D50*
%TO.C,D3*%
X154300000Y-106350000D03*
X154300000Y-103550000D03*
%TD*%
D51*
%TO.C,D1*%
X140550000Y-94200000D03*
X147350000Y-94200000D03*
%TD*%
D34*
%TO.C,U13*%
X136387500Y-100670000D03*
X136387500Y-99720000D03*
X136387500Y-98770000D03*
X138662500Y-98770000D03*
X138662500Y-100670000D03*
%TD*%
D11*
%TO.C,R33*%
X126040000Y-96975000D03*
X127060000Y-96975000D03*
%TD*%
D40*
%TO.C,C45*%
X137400000Y-107550000D03*
X137400000Y-109450000D03*
%TD*%
D10*
%TO.C,C15*%
X124500000Y-98755000D03*
X124500000Y-97795000D03*
%TD*%
D38*
%TO.C,R4*%
X111025000Y-95250000D03*
X111025000Y-93600000D03*
%TD*%
D52*
%TO.C,R42*%
X132975000Y-98950000D03*
X132975000Y-100600000D03*
%TD*%
D22*
%TO.C,C20*%
X124500000Y-99795000D03*
X124500000Y-100755000D03*
%TD*%
D26*
%TO.C,R41*%
X134800000Y-98640000D03*
X134800000Y-99660000D03*
%TD*%
D10*
%TO.C,C63*%
X144800000Y-108130000D03*
X144800000Y-107170000D03*
%TD*%
D53*
%TO.C,R9*%
X112725000Y-103235000D03*
X112725000Y-102215000D03*
%TD*%
D14*
%TO.C,C52*%
X129600000Y-91725000D03*
X127700000Y-91725000D03*
%TD*%
D54*
%TO.C,R5*%
X109450000Y-92025000D03*
X111100000Y-92025000D03*
%TD*%
D12*
%TO.C,R8*%
X114835000Y-103375000D03*
X113815000Y-103375000D03*
%TD*%
D20*
%TO.C,C47*%
X130130000Y-102550000D03*
X129170000Y-102550000D03*
%TD*%
D55*
%TO.C,C5*%
X117575000Y-97875000D03*
X120525000Y-97875000D03*
%TD*%
D52*
%TO.C,R3*%
X109375000Y-93600000D03*
X109375000Y-95250000D03*
%TD*%
D56*
%TO.C,L1*%
X151430000Y-93800000D03*
X153970000Y-93800000D03*
X153970000Y-101300000D03*
X151430000Y-101300000D03*
%TD*%
D27*
%TO.C,D60*%
X118887000Y-108350000D03*
X116213000Y-108350000D03*
D28*
X117550000Y-108675000D03*
D27*
X118887000Y-109000000D03*
X116213000Y-109000000D03*
D29*
X116575000Y-107275000D03*
X117225000Y-107275000D03*
X117875000Y-107275000D03*
X118525000Y-107275000D03*
X118525000Y-110075000D03*
X117875000Y-110075000D03*
X117225000Y-110075000D03*
X116575000Y-110075000D03*
%TD*%
D20*
%TO.C,C58*%
X132730000Y-97410000D03*
X131770000Y-97410000D03*
%TD*%
M02*
