%TF.GenerationSoftware,KiCad,Pcbnew,10.0.6*%
%TF.CreationDate,2026-10-03T08:50:12+09:00*%
%TF.ProjectId,HMT500(ED260313A),484d5435-3030-4284-9544-323630333133,A5-R3*%
%TF.SameCoordinates,Original*%
%TF.FileFunction,Copper,L3,Inr*%
%TF.FilePolarity,Positive*%
%FSLAX46Y46*%
G04 Gerber Fmt 4.6, Leading zero omitted, Abs format (unit mm)*
G04 Created by KiCad (PCBNEW 10.0.6) date 2026-10-03 08:50:12*
%MOMM*%
%LPD*%
G01*
G04 APERTURE LIST*
%TA.AperFunction,ComponentPad*%
%ADD10C,1.600000*%
%TD*%
%TA.AperFunction,HeatsinkPad*%
%ADD11C,0.500000*%
%TD*%
%TA.AperFunction,ViaPad*%
%ADD12C,0.400000*%
%TD*%
%TA.AperFunction,ViaPad*%
%ADD13C,0.450000*%
%TD*%
%TA.AperFunction,ViaPad*%
%ADD14C,0.350000*%
%TD*%
%TA.AperFunction,ViaPad*%
%ADD15C,0.700000*%
%TD*%
%TA.AperFunction,ViaPad*%
%ADD16C,0.300000*%
%TD*%
%TA.AperFunction,Conductor*%
%ADD17C,0.350000*%
%TD*%
%TA.AperFunction,Conductor*%
%ADD18C,0.150000*%
%TD*%
%TA.AperFunction,Conductor*%
%ADD19C,0.200000*%
%TD*%
%TA.AperFunction,Conductor*%
%ADD20C,0.500000*%
%TD*%
%TA.AperFunction,Conductor*%
%ADD21C,0.100000*%
%TD*%
%TA.AperFunction,Conductor*%
%ADD22C,0.250000*%
%TD*%
G04 APERTURE END LIST*
D10*
%TO.N,CHASSIS*%
%TO.C,J5*%
X105300000Y-92600000D03*
%TD*%
D11*
%TO.N,EF_RTN*%
%TO.C,U1*%
X111900000Y-97350000D03*
X111900000Y-98850000D03*
X111900000Y-100350000D03*
X113400000Y-97350000D03*
X113400000Y-98850000D03*
X113400000Y-100350000D03*
%TD*%
D12*
%TO.N,+5V*%
X142937500Y-92325000D03*
D13*
X115362400Y-103902400D03*
X104675000Y-103249800D03*
D14*
%TO.N,GND*%
X115975000Y-106475000D03*
D12*
X134273000Y-104114000D03*
D14*
X128750000Y-90850000D03*
D13*
X136299999Y-93500000D03*
D14*
X128550000Y-101700000D03*
D12*
X131275000Y-97400000D03*
X130725000Y-105250000D03*
D13*
X129000000Y-108300000D03*
X134700000Y-91500000D03*
X133500000Y-93900000D03*
X134299999Y-93500000D03*
X125237500Y-100250000D03*
X129800000Y-105899999D03*
D14*
X133650000Y-97700000D03*
D12*
X120380000Y-103588000D03*
X123099000Y-95318000D03*
X103844000Y-96756000D03*
D14*
X133600000Y-100900000D03*
D13*
X129800000Y-107100000D03*
X128600000Y-107500000D03*
X135500000Y-91500000D03*
D12*
X128449998Y-110944000D03*
D13*
X135899999Y-92300000D03*
D12*
X132199998Y-108800000D03*
X140395000Y-105046000D03*
D14*
X128550000Y-98550000D03*
D12*
X141400000Y-109200000D03*
D13*
X133100000Y-93100000D03*
D14*
X137100000Y-104450000D03*
D12*
X129163000Y-89038000D03*
X137250000Y-99900000D03*
D13*
X129800000Y-108300000D03*
D14*
X115744000Y-89400000D03*
D12*
X143344000Y-100178000D03*
X115475000Y-93950000D03*
X122116000Y-109811000D03*
X112434000Y-109533000D03*
D14*
X137500000Y-89050000D03*
D12*
%TO.N,+3V3*%
X130725000Y-110975000D03*
X120450000Y-108250000D03*
D13*
X140167500Y-91147000D03*
D12*
X123875000Y-108525000D03*
D14*
X130625000Y-110075000D03*
D12*
X106850000Y-102375000D03*
D13*
X140532700Y-108863000D03*
D12*
X111950000Y-102250000D03*
X131775000Y-89025000D03*
D13*
X150229400Y-107543700D03*
X104987500Y-103920300D03*
D12*
X131250000Y-91550000D03*
X116100000Y-107750000D03*
D13*
X125637500Y-99750000D03*
D12*
X119250000Y-103075000D03*
X119125000Y-101100000D03*
X131050000Y-92625000D03*
D13*
X125237500Y-98750000D03*
X125237500Y-99250000D03*
D12*
%TO.N,RS485_B_EXT*%
X116100000Y-105437500D03*
D13*
X142380500Y-103125000D03*
D12*
%TO.N,RS485_A_EXT*%
X131625000Y-107700000D03*
X138875000Y-102000000D03*
X122700000Y-109550000D03*
X116975000Y-106250000D03*
%TO.N,OUT1_EXT*%
X134074998Y-106375000D03*
D13*
X138419900Y-103499000D03*
X132181300Y-107868800D03*
D12*
%TO.N,OUT2_EXT*%
X134250000Y-99500000D03*
D13*
X131735400Y-93235400D03*
X142213200Y-99375000D03*
%TO.N,GND_IN*%
X149757600Y-95166100D03*
%TO.N,VIN_EXT*%
X149757600Y-93232700D03*
D12*
%TO.N,DAC2_AVDD*%
X128550000Y-93100000D03*
%TO.N,DAC2_OUT*%
X133074998Y-96750000D03*
X134100000Y-98500000D03*
%TO.N,OUT1_P*%
X135350000Y-103750000D03*
X134500000Y-107600000D03*
X130650000Y-108325000D03*
%TO.N,VIN_SENSE*%
X134199998Y-108300000D03*
%TO.N,PT_SP_F*%
X124025000Y-105350000D03*
X115655000Y-110360000D03*
X120425000Y-106575000D03*
D13*
%TO.N,OUT2_P*%
X125290100Y-94226900D03*
D15*
%TO.N,CHASSIS*%
X113575000Y-89250000D03*
X112875000Y-89250000D03*
D13*
%TO.N,+3V3A*%
X137737500Y-92968800D03*
D12*
X114650000Y-107800000D03*
D13*
X115243200Y-95137500D03*
D12*
X117750000Y-110900000D03*
X120425000Y-107625000D03*
D13*
X125381600Y-93082300D03*
D16*
%TO.N,NRST*%
X127525000Y-101150000D03*
X107300000Y-97900000D03*
X121700000Y-100000000D03*
X122725000Y-97475000D03*
X125600000Y-101875000D03*
X128975000Y-98850000D03*
D14*
%TO.N,OUT1_SGOOD*%
X135425000Y-107000000D03*
X122550000Y-102275000D03*
D16*
%TO.N,RS485_DE*%
X122037500Y-102750000D03*
X113733500Y-107004900D03*
%TO.N,RS485_TX*%
X113100000Y-108950000D03*
X121700000Y-100900000D03*
X123675000Y-104475000D03*
X115975000Y-105925000D03*
X123650000Y-103200000D03*
%TO.N,RS485_RX*%
X119575000Y-100075000D03*
X128925000Y-97700000D03*
X123800000Y-96800000D03*
X115200000Y-107450000D03*
X126625000Y-98925000D03*
X128875000Y-99450000D03*
X126050000Y-100862500D03*
%TO.N,OUT2_SGOOD*%
X126550000Y-101825000D03*
%TO.N,SPI_SCK*%
X131100000Y-107225000D03*
X134150000Y-105775000D03*
X123200900Y-109710700D03*
X127050000Y-100862500D03*
X132050000Y-104550000D03*
D14*
%TO.N,SPI_MISO*%
X120100000Y-109675000D03*
D16*
X127550000Y-101862500D03*
%TO.N,SPI_MOSI*%
X120425000Y-110225000D03*
X121850000Y-107300000D03*
%TO.N,CS_ADC*%
X129050000Y-100862500D03*
X122421500Y-108701500D03*
%TO.N,ADC_DRDY*%
X129550000Y-101862500D03*
X120575000Y-109400000D03*
%TO.N,DAC1_LATCH*%
X139950000Y-110875000D03*
X127475000Y-110975000D03*
X130050000Y-100862500D03*
%TO.N,DAC2_LATCH*%
X129600000Y-99100000D03*
X135025000Y-89025000D03*
X137700000Y-93950000D03*
X130550000Y-101862500D03*
X138600000Y-110250000D03*
D14*
X128750000Y-92300000D03*
D16*
%TO.N,DAC_SCK*%
X133562500Y-102750000D03*
X136300000Y-107850000D03*
%TO.N,DAC_MISO*%
X136975000Y-89025000D03*
X133962500Y-102250000D03*
X125525000Y-110975000D03*
X134175000Y-96850000D03*
X138525000Y-99800000D03*
%TO.N,DAC_MOSI*%
X136325000Y-89025000D03*
D14*
X128199998Y-100500000D03*
D16*
X123275000Y-107275000D03*
X133562500Y-101750000D03*
X126175000Y-110975000D03*
%TO.N,SWDIO*%
X130050000Y-98075000D03*
X121175000Y-96575000D03*
X104871300Y-102363700D03*
D14*
%TO.N,SWCLK*%
X133949998Y-97250000D03*
X119050000Y-89050000D03*
X107850000Y-97000000D03*
X130800000Y-93100000D03*
D16*
%TO.N,CS_CDC*%
X119025000Y-96000000D03*
X131050000Y-98037500D03*
X122889500Y-94461400D03*
X116725200Y-95962000D03*
%TO.N,CDC_MISO*%
X119700000Y-96650000D03*
X128050000Y-99300000D03*
%TO.N,CDC_MOSI*%
X122700000Y-93550000D03*
X124247200Y-94982500D03*
%TO.N,DAC_ALARM*%
X139900000Y-109250000D03*
X139775000Y-99975000D03*
X130000000Y-93025000D03*
X127050000Y-99300000D03*
X134325000Y-110875000D03*
X124650000Y-95200000D03*
X130074998Y-110975000D03*
%TO.N,PWR_FLT*%
X122245100Y-98393700D03*
X116550000Y-99625000D03*
X119066500Y-99534100D03*
X126550000Y-98500000D03*
D12*
%TO.N,SENS_C1*%
X119600000Y-97250000D03*
X118550000Y-91550000D03*
%TO.N,SENS_C2*%
X118775000Y-96500000D03*
X115550000Y-91700000D03*
%TO.N,REF_N*%
X116850000Y-110800000D03*
X123425000Y-105125000D03*
D16*
%TO.N,DAC2_SCLK*%
X141575000Y-99825000D03*
X139950000Y-110175000D03*
X134925000Y-111025000D03*
X135500000Y-110200000D03*
%TO.N,DAC1_SCLK*%
X140100000Y-109625000D03*
X126825000Y-110975000D03*
D12*
%TO.N,DAC1_AVDD*%
X128550000Y-101100000D03*
X122575000Y-104925000D03*
X133800000Y-103625000D03*
X137400000Y-106350000D03*
X131800000Y-104050000D03*
%TO.N,DAC1_OUT*%
X134100000Y-104900000D03*
X129625000Y-101300000D03*
%TO.N,VAO*%
X144625000Y-102775000D03*
X136375000Y-104300000D03*
D13*
X130632100Y-99338100D03*
D12*
X137000000Y-108425000D03*
D13*
X127658200Y-90481200D03*
X137774100Y-108439900D03*
%TO.N,VIN_P*%
X115338800Y-104652000D03*
X134530900Y-106887300D03*
D12*
X116600000Y-101025000D03*
X118500000Y-101750000D03*
D13*
X118584200Y-98363000D03*
D14*
X122025000Y-99600000D03*
X130650000Y-106850000D03*
D13*
X140810000Y-106256900D03*
D12*
%TO.N,DAC2_SENSE*%
X135350000Y-100650000D03*
X132425000Y-96750000D03*
%TO.N,DAC1_SENSE*%
X121400000Y-106200000D03*
X136500000Y-105750000D03*
%TO.N,EF_DVDT*%
X116725000Y-99100000D03*
X115365000Y-102760000D03*
%TO.N,EF_RTN*%
X111200000Y-96150000D03*
D14*
X111650000Y-96050000D03*
D12*
X114050000Y-102600000D03*
D14*
X117575000Y-89000000D03*
D16*
X111400000Y-91150000D03*
D12*
X112900000Y-104100000D03*
D13*
%TO.N,VIN_F*%
X144641300Y-103653900D03*
X123043800Y-96346000D03*
%TO.N,VIN_D*%
X153545800Y-107104200D03*
D12*
X112200000Y-108150000D03*
X108000000Y-101525000D03*
X108000000Y-94275000D03*
X121400000Y-104000000D03*
D13*
X123758900Y-106438500D03*
D12*
%TO.N,VIN_L*%
X121050000Y-90550000D03*
D13*
X138905800Y-94200000D03*
D12*
%TO.N,UV_DIV*%
X111225000Y-94675000D03*
D16*
X108500000Y-99825000D03*
D12*
%TO.N,EF_ILIM*%
X116650000Y-98150000D03*
X114550000Y-105450000D03*
%TO.N,OUT2_SNS*%
X137725000Y-99600000D03*
X133900000Y-99050000D03*
%TD*%
%TO.N,+5V*%
D17*
X115362400Y-103902400D02*
X115308300Y-103902400D01*
X140232400Y-89619400D02*
X126725400Y-89619400D01*
X142938000Y-92325000D02*
X140232400Y-89619400D01*
X117286000Y-91529000D02*
X117286000Y-101978800D01*
X106615200Y-104767800D02*
X105097200Y-103249800D01*
X105097200Y-103249800D02*
X104675000Y-103249800D01*
X119446200Y-89368800D02*
X117286000Y-91529000D01*
X115308300Y-103902400D02*
X114442900Y-104767800D01*
X117286000Y-101978800D02*
X115362400Y-103902400D01*
X114442900Y-104767800D02*
X106615200Y-104767800D01*
X126725400Y-89619400D02*
X126474800Y-89368800D01*
X126474800Y-89368800D02*
X119446200Y-89368800D01*
%TO.N,+3V3*%
D18*
X123600000Y-106875000D02*
X126650000Y-109925000D01*
X122950000Y-107525000D02*
X122950000Y-107500000D01*
X123050000Y-106950000D02*
X123075000Y-106925000D01*
X122950000Y-107025000D02*
X123025000Y-106950000D01*
X125238000Y-99250000D02*
X125238000Y-98750000D01*
X104987500Y-103920300D02*
X106973700Y-105906500D01*
X140167500Y-91147000D02*
X139717100Y-90696600D01*
X107125000Y-102250000D02*
X107100000Y-102275000D01*
X128087899Y-91550000D02*
X126308400Y-89770500D01*
X119252700Y-103072800D02*
X119250000Y-103075000D01*
X120035400Y-102290100D02*
X120025000Y-102300000D01*
X122875000Y-107225000D02*
X122900000Y-107200000D01*
X125638000Y-99750000D02*
X125238000Y-99350000D01*
X130525000Y-110025000D02*
X130550000Y-110050000D01*
X106900000Y-102350000D02*
X106875000Y-102375000D01*
X122900000Y-107350000D02*
X122875000Y-107325000D01*
X107025000Y-102300000D02*
X107000000Y-102325000D01*
X123075000Y-106925000D02*
X123100000Y-106925000D01*
X126700000Y-109950000D02*
X126775000Y-109950000D01*
X150229400Y-107543700D02*
X141852000Y-107543700D01*
X122900000Y-107200000D02*
X122900000Y-107125000D01*
X130550000Y-110050000D02*
X130600000Y-110050000D01*
X123100000Y-106925000D02*
X123125000Y-106900000D01*
X120035400Y-102290100D02*
X119252700Y-103072800D01*
X122925000Y-107450000D02*
X122900000Y-107425000D01*
X126650000Y-109925000D02*
X126675000Y-109925000D01*
X130500000Y-110025000D02*
X130525000Y-110025000D01*
X119125000Y-101400000D02*
X119125000Y-101100000D01*
X123125000Y-106900000D02*
X123200000Y-106900000D01*
X120035400Y-99147100D02*
X124840900Y-99147100D01*
X114805800Y-105906500D02*
X117639500Y-103072800D01*
X107000000Y-102325000D02*
X106950000Y-102325000D01*
X126775000Y-109950000D02*
X126800000Y-109975000D01*
X117639500Y-103072800D02*
X119252700Y-103072800D01*
X141852000Y-107543700D02*
X140532700Y-108863000D01*
X132103400Y-90696600D02*
X131250000Y-91550000D01*
X122925000Y-107475000D02*
X122925000Y-107450000D01*
X123875000Y-108525000D02*
X123875000Y-108450000D01*
X139717100Y-90696600D02*
X132103400Y-90696600D01*
X126675000Y-109925000D02*
X126700000Y-109950000D01*
X122875000Y-107325000D02*
X122875000Y-107225000D01*
X119661200Y-89770500D02*
X118116600Y-91315100D01*
X123875000Y-108450000D02*
X122950000Y-107525000D01*
X120025000Y-102300000D02*
X119125000Y-101400000D01*
X122950000Y-107500000D02*
X122925000Y-107475000D01*
X107075000Y-102275000D02*
X107050000Y-102300000D01*
X130600000Y-110050000D02*
X130625000Y-110075000D01*
X122900000Y-107425000D02*
X122900000Y-107350000D01*
X106950000Y-102325000D02*
X106925000Y-102350000D01*
X123200000Y-106900000D02*
X123225000Y-106875000D01*
X126800000Y-109975000D02*
X130449998Y-109975000D01*
X130449998Y-109975000D02*
X130500000Y-110025000D01*
X131250000Y-91550000D02*
X128087899Y-91550000D01*
X118116600Y-97228300D02*
X120035400Y-99147100D01*
X107100000Y-102275000D02*
X107075000Y-102275000D01*
X107050000Y-102300000D02*
X107025000Y-102300000D01*
X123025000Y-106950000D02*
X123050000Y-106950000D01*
X122925000Y-107075000D02*
X122950000Y-107050000D01*
X106925000Y-102350000D02*
X106900000Y-102350000D01*
X123225000Y-106875000D02*
X123600000Y-106875000D01*
X111950000Y-102250000D02*
X107125000Y-102250000D01*
X123875000Y-108525000D02*
X123800000Y-108600000D01*
X106875000Y-102375000D02*
X106850000Y-102375000D01*
X126308400Y-89770500D02*
X119661200Y-89770500D01*
X124840900Y-99147100D02*
X125238000Y-98750000D01*
X118116600Y-91315100D02*
X118116600Y-97228300D01*
X122950000Y-107050000D02*
X122950000Y-107025000D01*
X122900000Y-107125000D02*
X122925000Y-107100000D01*
X125238000Y-99350000D02*
X125238000Y-99250000D01*
X106973700Y-105906500D02*
X114805800Y-105906500D01*
X120035400Y-99147100D02*
X120035400Y-102290100D01*
X122925000Y-107100000D02*
X122925000Y-107075000D01*
%TO.N,RS485_B_EXT*%
X121699100Y-101289200D02*
X124910800Y-101289200D01*
X135527900Y-96272400D02*
X142380500Y-103125000D01*
X126119000Y-100081000D02*
X129250498Y-100081000D01*
X124910800Y-101289200D02*
X126119000Y-100081000D01*
X130866700Y-98886400D02*
X131802100Y-97951000D01*
X131802100Y-97951000D02*
X131802100Y-96692000D01*
X118981800Y-104006500D02*
X121699100Y-101289200D01*
X132221700Y-96272400D02*
X135527900Y-96272400D01*
X130445100Y-98886400D02*
X130866700Y-98886400D01*
X117531500Y-104006500D02*
X118981800Y-104006500D01*
X129250498Y-100081000D02*
X130445100Y-98886400D01*
X131802100Y-96692000D02*
X132221700Y-96272400D01*
X116100000Y-105438000D02*
X117531500Y-104006500D01*
%TO.N,OUT1_EXT*%
D19*
X136524100Y-106377700D02*
X133672400Y-106377700D01*
X133672400Y-106377700D02*
X132181300Y-107868800D01*
X138419900Y-103499000D02*
X138419900Y-105971600D01*
D18*
X133672400Y-106377700D02*
X133675000Y-106375000D01*
D19*
X138419900Y-105971600D02*
X137552800Y-106838700D01*
X136985100Y-106838700D02*
X136524100Y-106377700D01*
D18*
X133675000Y-106375000D02*
X134074998Y-106375000D01*
D19*
X137552800Y-106838700D02*
X136985100Y-106838700D01*
%TO.N,OUT2_EXT*%
X142213200Y-96757100D02*
X142213200Y-99375000D01*
X136479400Y-91023300D02*
X142213200Y-96757100D01*
X131735400Y-93235400D02*
X133947499Y-91023300D01*
X133947499Y-91023300D02*
X136479400Y-91023300D01*
%TO.N,DAC2_OUT*%
D18*
X133900000Y-98425000D02*
X133925000Y-98425000D01*
X133525000Y-98250000D02*
X133550000Y-98275000D01*
X134050000Y-98475000D02*
X134074998Y-98500000D01*
X133625000Y-98300000D02*
X133650000Y-98325000D01*
X133875000Y-98400000D02*
X133900000Y-98425000D01*
X133850000Y-98400000D02*
X133875000Y-98400000D01*
X133324998Y-98175000D02*
X133350000Y-98200000D01*
X133150000Y-97975000D02*
X133150000Y-98000000D01*
X133350000Y-98200000D02*
X133400000Y-98200000D01*
X133300000Y-98175000D02*
X133324998Y-98175000D01*
X133175000Y-98025000D02*
X133175000Y-98050000D01*
X134025000Y-98475000D02*
X134050000Y-98475000D01*
X133725000Y-98350000D02*
X133750000Y-98350000D01*
X133425000Y-98225000D02*
X133449998Y-98225000D01*
X133074998Y-96750000D02*
X133100000Y-96775000D01*
X133824998Y-98375000D02*
X133850000Y-98400000D01*
X134074998Y-98500000D02*
X134100000Y-98500000D01*
X133175000Y-98050000D02*
X133300000Y-98175000D01*
X133400000Y-98200000D02*
X133425000Y-98225000D01*
X133949998Y-98450000D02*
X134000000Y-98450000D01*
X134000000Y-98450000D02*
X134025000Y-98475000D01*
X133475000Y-98250000D02*
X133525000Y-98250000D01*
X133699998Y-98325000D02*
X133725000Y-98350000D01*
X133150000Y-98000000D02*
X133175000Y-98025000D01*
X133650000Y-98325000D02*
X133699998Y-98325000D01*
X133750000Y-98350000D02*
X133775000Y-98375000D01*
X133574998Y-98275000D02*
X133600000Y-98300000D01*
X133100000Y-97900000D02*
X133125000Y-97925000D01*
X133600000Y-98300000D02*
X133625000Y-98300000D01*
X133925000Y-98425000D02*
X133949998Y-98450000D01*
X133125000Y-97925000D02*
X133125000Y-97950000D01*
X133125000Y-97950000D02*
X133150000Y-97975000D01*
X133449998Y-98225000D02*
X133475000Y-98250000D01*
X133100000Y-96775000D02*
X133100000Y-97900000D01*
X133550000Y-98275000D02*
X133574998Y-98275000D01*
X133775000Y-98375000D02*
X133824998Y-98375000D01*
%TO.N,OUT1_P*%
X132324998Y-108325000D02*
X130650000Y-108325000D01*
X133125000Y-107600000D02*
X132475000Y-108250000D01*
X132449998Y-108250000D02*
X132400000Y-108300000D01*
X132400000Y-108300000D02*
X132350000Y-108300000D01*
X132475000Y-108250000D02*
X132449998Y-108250000D01*
X134500000Y-107600000D02*
X133125000Y-107600000D01*
X132350000Y-108300000D02*
X132324998Y-108325000D01*
%TO.N,PT_SP_F*%
X123575000Y-105525000D02*
X123625000Y-105525000D01*
X122150000Y-105675000D02*
X122175000Y-105675000D01*
X123775000Y-105450000D02*
X123800000Y-105450000D01*
X121100000Y-105850000D02*
X121125000Y-105850000D01*
X122325000Y-105600000D02*
X122350000Y-105600000D01*
X123550000Y-105550000D02*
X123575000Y-105525000D01*
X122375000Y-105575000D02*
X122450000Y-105575000D01*
X122300000Y-105625000D02*
X122325000Y-105600000D01*
X123675000Y-105500000D02*
X123700000Y-105475000D01*
X123625000Y-105525000D02*
X123650000Y-105500000D01*
X122450000Y-105575000D02*
X122475000Y-105550000D01*
X123750000Y-105475000D02*
X123775000Y-105450000D01*
X123650000Y-105500000D02*
X123675000Y-105500000D01*
X123925000Y-105400000D02*
X123950000Y-105375000D01*
D19*
X115655000Y-110360000D02*
X115650000Y-110350000D01*
D18*
X121175000Y-105800000D02*
X121225000Y-105800000D01*
X123950000Y-105375000D02*
X123975000Y-105375000D01*
X120425000Y-106575000D02*
X120400000Y-106575000D01*
X122475000Y-105550000D02*
X123550000Y-105550000D01*
X122200000Y-105650000D02*
X122225000Y-105650000D01*
X120350000Y-106600000D02*
X121100000Y-105850000D01*
D19*
X118500000Y-107500000D02*
X118500000Y-106600000D01*
D18*
X120375000Y-106600000D02*
X120350000Y-106600000D01*
X122125000Y-105700000D02*
X122150000Y-105675000D01*
X122025000Y-105725000D02*
X122050000Y-105725000D01*
X121350000Y-105750000D02*
X122000000Y-105750000D01*
X122175000Y-105675000D02*
X122200000Y-105650000D01*
X121125000Y-105850000D02*
X121175000Y-105800000D01*
X122000000Y-105750000D02*
X122025000Y-105725000D01*
X123825000Y-105425000D02*
X123850000Y-105425000D01*
X122050000Y-105725000D02*
X122075000Y-105700000D01*
X121225000Y-105800000D02*
X121250000Y-105775000D01*
X124000000Y-105350000D02*
X124025000Y-105350000D01*
X123975000Y-105375000D02*
X124000000Y-105350000D01*
X122350000Y-105600000D02*
X122375000Y-105575000D01*
X120400000Y-106575000D02*
X120375000Y-106600000D01*
X122225000Y-105650000D02*
X122250000Y-105625000D01*
D19*
X115650000Y-110350000D02*
X118500000Y-107500000D01*
D18*
X123875000Y-105400000D02*
X123925000Y-105400000D01*
X123850000Y-105425000D02*
X123875000Y-105400000D01*
X123700000Y-105475000D02*
X123750000Y-105475000D01*
X121250000Y-105775000D02*
X121325000Y-105775000D01*
X123800000Y-105450000D02*
X123825000Y-105425000D01*
X122075000Y-105700000D02*
X122125000Y-105700000D01*
X122250000Y-105625000D02*
X122300000Y-105625000D01*
X118500000Y-106600000D02*
X120350000Y-106600000D01*
X121325000Y-105775000D02*
X121350000Y-105750000D01*
%TO.N,CHASSIS*%
D20*
X113575000Y-89250000D02*
X112875000Y-89250000D01*
X112875000Y-89250000D02*
X112875000Y-92600000D01*
X112875000Y-92600000D02*
X105300000Y-92600000D01*
%TO.N,+3V3A*%
D18*
X118650000Y-109700000D02*
X118700000Y-109650000D01*
X132962700Y-92598600D02*
X132461800Y-93099500D01*
X118750000Y-109450000D02*
X118800000Y-109400000D01*
X118500000Y-110050000D02*
X118550000Y-110000000D01*
X132461800Y-93099500D02*
X132461800Y-93203800D01*
X120100000Y-107900000D02*
X120400000Y-107600000D01*
X120400000Y-107600000D02*
X120425000Y-107625000D01*
X120100000Y-107950000D02*
X120100000Y-107900000D01*
X118800000Y-109400000D02*
X118800000Y-109350000D01*
X118500000Y-110150000D02*
X118500000Y-110050000D01*
X118600000Y-109900000D02*
X118600000Y-109850000D01*
X131959600Y-93706000D02*
X126117500Y-93706000D01*
X118850000Y-109300000D02*
X118850000Y-109250000D01*
X137737500Y-92968800D02*
X134568800Y-92968800D01*
X118800000Y-109350000D02*
X118850000Y-109300000D01*
X118700000Y-109600000D02*
X118750000Y-109550000D01*
X134568800Y-92968800D02*
X134198600Y-92598600D01*
X118550000Y-110000000D02*
X118550000Y-109950000D01*
X134198600Y-92598600D02*
X132962700Y-92598600D01*
X117750000Y-110900000D02*
X118500000Y-110150000D01*
X118700000Y-109650000D02*
X118700000Y-109600000D01*
X118850000Y-109250000D02*
X120050000Y-108050000D01*
X118750000Y-109550000D02*
X118750000Y-109450000D01*
X118600000Y-109850000D02*
X118650000Y-109800000D01*
X132461800Y-93203800D02*
X131959600Y-93706000D01*
X120050000Y-108050000D02*
X120050000Y-108000000D01*
X120050000Y-108000000D02*
X120100000Y-107950000D01*
X126117500Y-93706000D02*
X125493800Y-93082300D01*
X118650000Y-109800000D02*
X118650000Y-109700000D01*
X125493800Y-93082300D02*
X125381600Y-93082300D01*
X118550000Y-109950000D02*
X118600000Y-109900000D01*
%TO.N,RS485_DE*%
D21*
X116575000Y-106175000D02*
X116575000Y-106100000D01*
X118075000Y-104675000D02*
X118125000Y-104675000D01*
X118275000Y-104600000D02*
X118300000Y-104600000D01*
X118800000Y-104375000D02*
X118825000Y-104375000D01*
X116625000Y-106000000D02*
X117850000Y-104775000D01*
X118475000Y-104525000D02*
X118500000Y-104500000D01*
X116575000Y-106100000D02*
X116600000Y-106075000D01*
X117950000Y-104750000D02*
X117975000Y-104725000D01*
X118200000Y-104625000D02*
X118250000Y-104625000D01*
X118625000Y-104450000D02*
X118650000Y-104450000D01*
X118425000Y-104550000D02*
X118450000Y-104525000D01*
X118500000Y-104500000D02*
X118550000Y-104500000D01*
X116216500Y-106993100D02*
X116225000Y-107000000D01*
X118325000Y-104575000D02*
X118350000Y-104575000D01*
X118300000Y-104600000D02*
X118325000Y-104575000D01*
X118150000Y-104650000D02*
X118175000Y-104650000D01*
X118350000Y-104575000D02*
X118375000Y-104550000D01*
X116600000Y-106075000D02*
X116600000Y-106050000D01*
X118600000Y-104475000D02*
X118625000Y-104450000D01*
X118825000Y-104375000D02*
X118829300Y-104380300D01*
X118250000Y-104625000D02*
X118275000Y-104600000D01*
X118175000Y-104650000D02*
X118200000Y-104625000D01*
X118025000Y-104700000D02*
X118050000Y-104700000D01*
X116550000Y-106675000D02*
X116550000Y-106200000D01*
X118050000Y-104700000D02*
X118075000Y-104675000D01*
D18*
X122038000Y-102750000D02*
X120407700Y-104380300D01*
D21*
X118000000Y-104725000D02*
X118025000Y-104700000D01*
X118675000Y-104425000D02*
X118725000Y-104425000D01*
X116225000Y-107000000D02*
X116550000Y-106675000D01*
X116625000Y-106025000D02*
X116625000Y-106000000D01*
X117975000Y-104725000D02*
X118000000Y-104725000D01*
X117900000Y-104750000D02*
X117950000Y-104750000D01*
D18*
X116216500Y-106993100D02*
X113745300Y-106993100D01*
D21*
X118650000Y-104450000D02*
X118675000Y-104425000D01*
X116550000Y-106200000D02*
X116575000Y-106175000D01*
D18*
X113745300Y-106993100D02*
X113733500Y-107004900D01*
D21*
X118775000Y-104400000D02*
X118800000Y-104375000D01*
D18*
X120407700Y-104380300D02*
X118829300Y-104380300D01*
D21*
X118725000Y-104425000D02*
X118750000Y-104400000D01*
X118575000Y-104475000D02*
X118600000Y-104475000D01*
X116600000Y-106050000D02*
X116625000Y-106025000D01*
X117850000Y-104775000D02*
X117875000Y-104775000D01*
X117875000Y-104775000D02*
X117900000Y-104750000D01*
X118450000Y-104525000D02*
X118475000Y-104525000D01*
X118550000Y-104500000D02*
X118575000Y-104475000D01*
X118375000Y-104550000D02*
X118425000Y-104550000D01*
X118750000Y-104400000D02*
X118775000Y-104400000D01*
X118125000Y-104675000D02*
X118150000Y-104650000D01*
%TO.N,RS485_TX*%
D18*
X113096400Y-108968900D02*
X113100000Y-108975000D01*
X111750000Y-108100000D02*
X111775000Y-108075000D01*
X115725000Y-106075000D02*
X115775000Y-106025000D01*
X115150000Y-106625000D02*
X115700000Y-106075000D01*
X111975000Y-107750000D02*
X112025000Y-107750000D01*
X111775000Y-108000000D02*
X111800000Y-107975000D01*
X113525000Y-106675000D02*
X113550000Y-106650000D01*
X112150000Y-107700000D02*
X112475000Y-107700000D01*
X111900000Y-107800000D02*
X111925000Y-107800000D01*
D21*
X113100000Y-108975000D02*
X113100000Y-108950000D01*
D18*
X113500000Y-106675000D02*
X113525000Y-106675000D01*
X113600000Y-106625000D02*
X115150000Y-106625000D01*
X111800000Y-108325000D02*
X111775000Y-108300000D01*
X111925000Y-107800000D02*
X111975000Y-107750000D01*
X112025000Y-107750000D02*
X112050000Y-107725000D01*
X115900000Y-106000000D02*
X115975000Y-105925000D01*
X111800000Y-107925000D02*
X111850000Y-107875000D01*
X113550000Y-106650000D02*
X113575000Y-106650000D01*
X111775000Y-108225000D02*
X111750000Y-108200000D01*
X112375000Y-108975000D02*
X111850000Y-108450000D01*
X112475000Y-107700000D02*
X113500000Y-106675000D01*
X111850000Y-108425000D02*
X111800000Y-108375000D01*
X112125000Y-107725000D02*
X112150000Y-107700000D01*
X111850000Y-108450000D02*
X111850000Y-108425000D01*
X123650000Y-103200000D02*
X123650000Y-104425000D01*
X112050000Y-107725000D02*
X112125000Y-107725000D01*
X113575000Y-106650000D02*
X113600000Y-106625000D01*
X115850000Y-106000000D02*
X115900000Y-106000000D01*
X111800000Y-107975000D02*
X111800000Y-107925000D01*
X115825000Y-106025000D02*
X115850000Y-106000000D01*
X113100000Y-108975000D02*
X112375000Y-108975000D01*
X111750000Y-108200000D02*
X111750000Y-108100000D01*
X123650000Y-104425000D02*
X123675000Y-104450000D01*
X123675000Y-104450000D02*
X123675000Y-104475000D01*
X111850000Y-107850000D02*
X111900000Y-107800000D01*
X111800000Y-108375000D02*
X111800000Y-108325000D01*
X115775000Y-106025000D02*
X115825000Y-106025000D01*
X115700000Y-106075000D02*
X115725000Y-106075000D01*
X111850000Y-107875000D02*
X111850000Y-107850000D01*
X111775000Y-108075000D02*
X111775000Y-108000000D01*
X111775000Y-108300000D02*
X111775000Y-108225000D01*
%TO.N,RS485_RX*%
D21*
X128850000Y-99450000D02*
X128875000Y-99450000D01*
X128250000Y-99025000D02*
X128199998Y-98975000D01*
X127025000Y-98950000D02*
X127000000Y-98975000D01*
X126900000Y-98975000D02*
X126875000Y-99000000D01*
X128699998Y-99450000D02*
X128275000Y-99025000D01*
X128100000Y-98975000D02*
X128074998Y-98950000D01*
X127000000Y-98975000D02*
X126900000Y-98975000D01*
X126875000Y-99000000D02*
X126675000Y-99000000D01*
X128275000Y-99025000D02*
X128250000Y-99025000D01*
X128850000Y-99450000D02*
X128699998Y-99450000D01*
X128074998Y-98950000D02*
X127025000Y-98950000D01*
X126675000Y-99000000D02*
X126625000Y-98925000D01*
X128199998Y-98975000D02*
X128100000Y-98975000D01*
%TO.N,SPI_SCK*%
D18*
X127275000Y-102225000D02*
X127175000Y-102125000D01*
X127175000Y-102125000D02*
X127175000Y-102100000D01*
X130824998Y-106200000D02*
X130800000Y-106175000D01*
X127300000Y-102225000D02*
X127275000Y-102225000D01*
X130900000Y-106400000D02*
X130900000Y-106375000D01*
X132050000Y-104550000D02*
X132199998Y-104400000D01*
X131000000Y-106650000D02*
X131000000Y-106625000D01*
X127350000Y-102275000D02*
X127300000Y-102225000D01*
X127050000Y-100850000D02*
X127050000Y-100862500D01*
X131025000Y-106675000D02*
X131000000Y-106650000D01*
X130675000Y-105850000D02*
X130750000Y-105775000D01*
X132225000Y-104325000D02*
X132250000Y-104300000D01*
X130850000Y-106250000D02*
X130824998Y-106225000D01*
X131050000Y-106775000D02*
X131050000Y-106725000D01*
X130699998Y-105925000D02*
X130699998Y-105900000D01*
X130750000Y-105775000D02*
X134150000Y-105775000D01*
X130676999Y-105844800D02*
X130675000Y-105850000D01*
X131650000Y-104550000D02*
X129425000Y-102325000D01*
X128400000Y-102300000D02*
X127425000Y-102300000D01*
X132250000Y-104275000D02*
X132243400Y-104278400D01*
X130875000Y-106350000D02*
X130875000Y-106325000D01*
X130949998Y-106500000D02*
X130925000Y-106475000D01*
X131074998Y-106825000D02*
X131074998Y-106800000D01*
X131100000Y-106850000D02*
X131074998Y-106825000D01*
X130775000Y-106075000D02*
X130750000Y-106050000D01*
X130699998Y-105900000D02*
X130675000Y-105875000D01*
X130800000Y-106125000D02*
X130775000Y-106100000D01*
X131000000Y-106625000D02*
X130975000Y-106600000D01*
X130925000Y-106475000D02*
X130925000Y-106425000D01*
X127150000Y-102050000D02*
X127125000Y-102025000D01*
X130925000Y-106425000D02*
X130900000Y-106400000D01*
X132225000Y-104350000D02*
X132225000Y-104325000D01*
X127175000Y-102100000D02*
X127150000Y-102075000D01*
X127075000Y-101200000D02*
X127075000Y-100900000D01*
X132050000Y-104550000D02*
X132225000Y-104325000D01*
X127425000Y-102300000D02*
X127400000Y-102275000D01*
X130800000Y-106175000D02*
X130800000Y-106125000D01*
X127100000Y-101900000D02*
X127100000Y-101225000D01*
X128425000Y-102325000D02*
X128400000Y-102300000D01*
X130850000Y-106300000D02*
X130850000Y-106250000D01*
X127075000Y-100900000D02*
X127050000Y-100875000D01*
X127150000Y-102075000D02*
X127150000Y-102050000D01*
X132250000Y-104300000D02*
X132250000Y-104275000D01*
X130750000Y-106050000D02*
X130750000Y-106025000D01*
X130975000Y-106600000D02*
X130975000Y-106550000D01*
X130949998Y-106525000D02*
X130949998Y-106500000D01*
X129425000Y-102325000D02*
X128425000Y-102325000D01*
X130975000Y-106550000D02*
X130949998Y-106525000D01*
X130824998Y-106225000D02*
X130824998Y-106200000D01*
X131050000Y-106725000D02*
X131025000Y-106700000D01*
X127125000Y-102025000D02*
X127125000Y-101925000D01*
X127125000Y-101925000D02*
X127100000Y-101900000D01*
X130725000Y-105950000D02*
X130699998Y-105925000D01*
X131100000Y-107225000D02*
X131100000Y-106850000D01*
X130675000Y-105875000D02*
X130675000Y-105850000D01*
X130875000Y-106325000D02*
X130850000Y-106300000D01*
X127100000Y-101225000D02*
X127075000Y-101200000D01*
X130900000Y-106375000D02*
X130875000Y-106350000D01*
X131074998Y-106800000D02*
X131050000Y-106775000D01*
X132199998Y-104400000D02*
X132199998Y-104375000D01*
X127400000Y-102275000D02*
X127350000Y-102275000D01*
X131025000Y-106700000D02*
X131025000Y-106675000D01*
X132050000Y-104550000D02*
X131650000Y-104550000D01*
X130775000Y-106100000D02*
X130775000Y-106075000D01*
X130750000Y-106025000D02*
X130725000Y-106000000D01*
X130725000Y-106000000D02*
X130725000Y-105950000D01*
X127050000Y-100875000D02*
X127050000Y-100850000D01*
X132199998Y-104375000D02*
X132225000Y-104350000D01*
%TO.N,SPI_MOSI*%
X120650000Y-110050000D02*
X120675000Y-110050000D01*
X120575000Y-110100000D02*
X120600000Y-110075000D01*
X120675000Y-110050000D02*
X121850000Y-108875000D01*
X120550000Y-110100000D02*
X120575000Y-110100000D01*
X121850000Y-108875000D02*
X121850000Y-107300000D01*
X120600000Y-110075000D02*
X120625000Y-110075000D01*
X120625000Y-110075000D02*
X120650000Y-110050000D01*
X120425000Y-110225000D02*
X120550000Y-110100000D01*
%TO.N,DAC_SCK*%
X138509500Y-102943200D02*
X138897800Y-103331500D01*
X138897800Y-103331500D02*
X138897800Y-105999200D01*
X133755200Y-102943200D02*
X138509500Y-102943200D01*
X137047000Y-107850000D02*
X136300000Y-107850000D01*
X133562000Y-102750000D02*
X133755200Y-102943200D01*
X138897800Y-105999200D02*
X137047000Y-107850000D01*
%TO.N,DAC_MISO*%
X137875000Y-99175000D02*
X137800000Y-99175000D01*
X138525000Y-99800000D02*
X138125000Y-99400000D01*
X138075000Y-99300000D02*
X138025000Y-99250000D01*
X137200000Y-98875000D02*
X137150000Y-98825000D01*
X137125000Y-98825000D02*
X137100000Y-98800000D01*
X137025000Y-98800000D02*
X137000000Y-98775000D01*
X138125000Y-99375000D02*
X138075000Y-99325000D01*
X136550000Y-98725000D02*
X136050000Y-98725000D01*
X138125000Y-99400000D02*
X138125000Y-99375000D01*
X136675000Y-98775000D02*
X136650000Y-98750000D01*
X137900000Y-99200000D02*
X137875000Y-99175000D01*
X137800000Y-99175000D02*
X137775000Y-99150000D01*
X137775000Y-99150000D02*
X137500000Y-99150000D01*
X136050000Y-98725000D02*
X134175000Y-96850000D01*
X136575000Y-98750000D02*
X136550000Y-98725000D01*
X138000000Y-99250000D02*
X137950000Y-99200000D01*
X137950000Y-99200000D02*
X137900000Y-99200000D01*
X137225000Y-98875000D02*
X137200000Y-98875000D01*
X137100000Y-98800000D02*
X137025000Y-98800000D01*
X137000000Y-98775000D02*
X136675000Y-98775000D01*
X138075000Y-99325000D02*
X138075000Y-99300000D01*
X137150000Y-98825000D02*
X137125000Y-98825000D01*
X136650000Y-98750000D02*
X136575000Y-98750000D01*
X138025000Y-99250000D02*
X138000000Y-99250000D01*
X137500000Y-99150000D02*
X137225000Y-98875000D01*
%TO.N,DAC_MOSI*%
X126075000Y-110725000D02*
X126100000Y-110750000D01*
X125525000Y-109975000D02*
X125550000Y-110000000D01*
X126125000Y-110850000D02*
X126150000Y-110875000D01*
X126125000Y-110825000D02*
X126125000Y-110850000D01*
X125600000Y-110125000D02*
X125600000Y-110150000D01*
X125500000Y-109925000D02*
X125525000Y-109950000D01*
X125550000Y-110025000D02*
X125575000Y-110050000D01*
D21*
X128199998Y-100500000D02*
X128175000Y-100525000D01*
D18*
X126150000Y-110950000D02*
X126175000Y-110975000D01*
X126075000Y-110700000D02*
X126075000Y-110725000D01*
X126100000Y-110750000D02*
X126100000Y-110800000D01*
X126150000Y-110875000D02*
X126150000Y-110950000D01*
X125575000Y-110050000D02*
X125575000Y-110100000D01*
X126050000Y-110675000D02*
X126075000Y-110700000D01*
X126100000Y-110800000D02*
X126125000Y-110825000D01*
X126050000Y-110650000D02*
X126050000Y-110675000D01*
X125600000Y-110150000D02*
X125625000Y-110175000D01*
X125625000Y-110175000D02*
X125625000Y-110225000D01*
X125550000Y-110000000D02*
X125550000Y-110025000D01*
X125575000Y-110100000D02*
X125600000Y-110125000D01*
X125525000Y-109950000D02*
X125525000Y-109975000D01*
X125500000Y-109500000D02*
X125500000Y-109925000D01*
X125625000Y-110225000D02*
X126050000Y-110650000D01*
X123275000Y-107275000D02*
X125500000Y-109500000D01*
%TO.N,SWDIO*%
X126150000Y-97675000D02*
X126125000Y-97650000D01*
X126175000Y-97675000D02*
X126150000Y-97675000D01*
D21*
X122825000Y-97100000D02*
X122850000Y-97100000D01*
D18*
X126250000Y-97725000D02*
X126225000Y-97725000D01*
D21*
X121675000Y-97075000D02*
X122800000Y-97075000D01*
D18*
X126600000Y-98075000D02*
X126250000Y-97725000D01*
X126125000Y-97650000D02*
X123475000Y-97650000D01*
D21*
X122850000Y-97100000D02*
X122875000Y-97125000D01*
X122800000Y-97075000D02*
X122825000Y-97100000D01*
D18*
X122925000Y-97125000D02*
X122900000Y-97125000D01*
X123475000Y-97650000D02*
X122975000Y-97150000D01*
X122975000Y-97150000D02*
X122950000Y-97150000D01*
X126225000Y-97725000D02*
X126175000Y-97675000D01*
D21*
X122875000Y-97125000D02*
X122900000Y-97125000D01*
D18*
X121675000Y-97075000D02*
X121175000Y-96575000D01*
X130050000Y-98075000D02*
X126600000Y-98075000D01*
X122950000Y-97150000D02*
X122925000Y-97125000D01*
%TO.N,SWCLK*%
D21*
X110750000Y-94550000D02*
X110725000Y-94550000D01*
X108050000Y-96925000D02*
X108025000Y-96925000D01*
X114100000Y-93100000D02*
X114075000Y-93125000D01*
X114125000Y-93000000D02*
X114125000Y-93050000D01*
X113900000Y-93425000D02*
X113900000Y-93450000D01*
X108125000Y-96875000D02*
X108100000Y-96900000D01*
X109950000Y-95200000D02*
X109925000Y-95225000D01*
X113975000Y-93325000D02*
X113975000Y-93350000D01*
X114175000Y-92675000D02*
X114175000Y-92875000D01*
X114025000Y-93250000D02*
X114025000Y-93275000D01*
X113100000Y-94250000D02*
X111175000Y-94250000D01*
X110675000Y-94575000D02*
X110075000Y-95175000D01*
X114200000Y-91375000D02*
X114200000Y-92650000D01*
X109900000Y-95225000D02*
X108300000Y-96825000D01*
X115025000Y-90725000D02*
X115000000Y-90750000D01*
X108000000Y-96950000D02*
X107950000Y-96950000D01*
X109975000Y-95200000D02*
X109950000Y-95200000D01*
X107925000Y-96975000D02*
X107900000Y-96975000D01*
X114800000Y-90800000D02*
X114775000Y-90825000D01*
X119050000Y-89050000D02*
X117375000Y-90725000D01*
X114775000Y-90825000D02*
X114750000Y-90825000D01*
X110075000Y-95175000D02*
X110000000Y-95175000D01*
X109925000Y-95225000D02*
X109900000Y-95225000D01*
X114850000Y-90775000D02*
X114825000Y-90800000D01*
X114825000Y-90800000D02*
X114800000Y-90800000D01*
X108200000Y-96850000D02*
X108175000Y-96875000D01*
X114875000Y-90775000D02*
X114850000Y-90775000D01*
X115000000Y-90750000D02*
X114900000Y-90750000D01*
X114150000Y-92900000D02*
X114150000Y-92975000D01*
X107900000Y-96975000D02*
X107875000Y-97000000D01*
X114750000Y-90825000D02*
X114200000Y-91375000D01*
X108250000Y-96825000D02*
X108225000Y-96850000D01*
X114050000Y-93200000D02*
X114050000Y-93225000D01*
X114100000Y-93075000D02*
X114100000Y-93100000D01*
X108175000Y-96875000D02*
X108125000Y-96875000D01*
X114075000Y-93175000D02*
X114050000Y-93200000D01*
X110725000Y-94550000D02*
X110700000Y-94575000D01*
X110700000Y-94575000D02*
X110675000Y-94575000D01*
X114150000Y-92975000D02*
X114125000Y-93000000D01*
X111150000Y-94275000D02*
X111075000Y-94275000D01*
X110000000Y-95175000D02*
X109975000Y-95200000D01*
X117375000Y-90725000D02*
X115025000Y-90725000D01*
X108300000Y-96825000D02*
X108250000Y-96825000D01*
X111000000Y-94325000D02*
X110975000Y-94325000D01*
X114025000Y-93275000D02*
X113975000Y-93325000D01*
X113900000Y-93450000D02*
X113100000Y-94250000D01*
X111075000Y-94275000D02*
X111050000Y-94300000D01*
X107875000Y-97000000D02*
X107850000Y-97000000D01*
X111050000Y-94300000D02*
X111025000Y-94300000D01*
X114050000Y-93225000D02*
X114025000Y-93250000D01*
X108025000Y-96925000D02*
X108000000Y-96950000D01*
X114200000Y-92650000D02*
X114175000Y-92675000D01*
X111025000Y-94300000D02*
X111000000Y-94325000D01*
X108225000Y-96850000D02*
X108200000Y-96850000D01*
X108100000Y-96900000D02*
X108075000Y-96900000D01*
X111175000Y-94250000D02*
X111150000Y-94275000D01*
X107950000Y-96950000D02*
X107925000Y-96975000D01*
X114175000Y-92875000D02*
X114150000Y-92900000D01*
X114900000Y-90750000D02*
X114875000Y-90775000D01*
X110975000Y-94325000D02*
X110750000Y-94550000D01*
X114075000Y-93125000D02*
X114075000Y-93175000D01*
X113975000Y-93350000D02*
X113900000Y-93425000D01*
X108075000Y-96900000D02*
X108050000Y-96925000D01*
X114125000Y-93050000D02*
X114100000Y-93075000D01*
%TO.N,CS_CDC*%
D18*
X124575000Y-96146900D02*
X122889500Y-94461400D01*
X131050000Y-98037500D02*
X129159400Y-96146900D01*
X129159400Y-96146900D02*
X124575000Y-96146900D01*
%TO.N,CDC_MISO*%
X127590700Y-99759300D02*
X126800800Y-99759300D01*
X125894000Y-98852500D02*
X125894000Y-98704900D01*
X124936400Y-98264000D02*
X124355000Y-98845400D01*
X128050000Y-99300000D02*
X127590700Y-99759300D01*
X124355000Y-98845400D02*
X121895400Y-98845400D01*
X125894000Y-98704900D02*
X125453100Y-98264000D01*
X121895400Y-98845400D02*
X119700000Y-96650000D01*
X126800800Y-99759300D02*
X125894000Y-98852500D01*
X125453100Y-98264000D02*
X124936400Y-98264000D01*
%TO.N,CDC_MOSI*%
X124132500Y-94982500D02*
X124247200Y-94982500D01*
X122700000Y-93550000D02*
X124132500Y-94982500D01*
%TO.N,DAC_ALARM*%
D21*
X129300000Y-95950000D02*
X129324998Y-95950000D01*
X124650000Y-95200000D02*
X125350000Y-95900000D01*
X129275000Y-95925000D02*
X129300000Y-95950000D01*
X129324998Y-95950000D02*
X129350000Y-95975000D01*
X135600000Y-96000000D02*
X135675000Y-96000000D01*
X129250000Y-95925000D02*
X129275000Y-95925000D01*
X135675000Y-96000000D02*
X139650000Y-99975000D01*
X129350000Y-95975000D02*
X135575000Y-95975000D01*
X129225000Y-95900000D02*
X129250000Y-95925000D01*
X125350000Y-95900000D02*
X129225000Y-95900000D01*
X135575000Y-95975000D02*
X135600000Y-96000000D01*
X139650000Y-99975000D02*
X139775000Y-99975000D01*
%TO.N,PWR_FLT*%
D18*
X126012300Y-97962300D02*
X122676500Y-97962300D01*
X126550000Y-98500000D02*
X126012300Y-97962300D01*
X122676500Y-97962300D02*
X122245100Y-98393700D01*
%TO.N,SENS_C1*%
D19*
X119250000Y-96725000D02*
X119225000Y-96700000D01*
X119175000Y-92700000D02*
X119175000Y-92675000D01*
X119050000Y-92375000D02*
X119025000Y-92350000D01*
X119350000Y-93100000D02*
X119325000Y-93075000D01*
X119325000Y-96350000D02*
X119350000Y-96350000D01*
X119475000Y-96175000D02*
X119475000Y-96075000D01*
X119375000Y-93200000D02*
X119375000Y-93150000D01*
X118900000Y-92050000D02*
X118900000Y-92025000D01*
X118575000Y-91600000D02*
X118550000Y-91575000D01*
X119325000Y-96375000D02*
X119325000Y-96350000D01*
X119175000Y-92675000D02*
X119150000Y-92650000D01*
X119150000Y-92650000D02*
X119150000Y-92625000D01*
X119300000Y-96925000D02*
X119300000Y-96900000D01*
X119200000Y-92775000D02*
X119200000Y-92725000D01*
X119075000Y-92425000D02*
X119050000Y-92400000D01*
X118900000Y-92025000D02*
X118875000Y-92000000D01*
X119475000Y-93425000D02*
X119475000Y-93400000D01*
X119225000Y-92800000D02*
X119200000Y-92775000D01*
X119400000Y-96275000D02*
X119425000Y-96275000D01*
X119300000Y-92975000D02*
X119275000Y-92950000D01*
X119250000Y-92900000D02*
X119250000Y-92850000D01*
X119075000Y-92475000D02*
X119075000Y-92425000D01*
X119300000Y-96900000D02*
X119275000Y-96875000D01*
X118875000Y-91975000D02*
X118600000Y-91700000D01*
X119300000Y-93000000D02*
X119300000Y-92975000D01*
X119200000Y-92725000D02*
X119175000Y-92700000D01*
X118875000Y-92000000D02*
X118875000Y-91975000D01*
X119275000Y-92925000D02*
X119250000Y-92900000D01*
X119375000Y-93150000D02*
X119350000Y-93125000D01*
X119000000Y-92250000D02*
X118975000Y-92225000D01*
X118575000Y-91625000D02*
X118575000Y-91600000D01*
X119500000Y-96050000D02*
X119500000Y-93450000D01*
X119350000Y-96325000D02*
X119375000Y-96325000D01*
X119400000Y-93225000D02*
X119375000Y-93200000D01*
X118950000Y-92125000D02*
X118925000Y-92100000D01*
X119225000Y-96475000D02*
X119300000Y-96400000D01*
X119450000Y-96225000D02*
X119450000Y-96200000D01*
X119450000Y-96200000D02*
X119475000Y-96175000D01*
X119475000Y-93400000D02*
X119450000Y-93375000D01*
X119600000Y-97225000D02*
X119300000Y-96925000D01*
X118975000Y-92225000D02*
X118975000Y-92200000D01*
X119475000Y-96075000D02*
X119500000Y-96050000D01*
X118550000Y-91575000D02*
X118550000Y-91550000D01*
X119275000Y-92950000D02*
X119275000Y-92925000D01*
X119425000Y-96275000D02*
X119425000Y-96250000D01*
X119250000Y-92850000D02*
X119225000Y-92825000D01*
X119100000Y-92500000D02*
X119075000Y-92475000D01*
X119125000Y-92600000D02*
X119125000Y-92550000D01*
X119225000Y-96700000D02*
X119225000Y-96475000D01*
X119300000Y-96400000D02*
X119300000Y-96375000D01*
X119375000Y-96300000D02*
X119400000Y-96300000D01*
X119325000Y-93075000D02*
X119325000Y-93025000D01*
X119250000Y-96825000D02*
X119250000Y-96725000D01*
X119150000Y-92625000D02*
X119125000Y-92600000D01*
X119275000Y-96850000D02*
X119250000Y-96825000D01*
X119500000Y-93450000D02*
X119475000Y-93425000D01*
X119275000Y-96875000D02*
X119275000Y-96850000D01*
X119050000Y-92400000D02*
X119050000Y-92375000D01*
X119400000Y-93250000D02*
X119400000Y-93225000D01*
X119450000Y-93350000D02*
X119425000Y-93325000D01*
X118600000Y-91700000D02*
X118600000Y-91650000D01*
X119225000Y-92825000D02*
X119225000Y-92800000D01*
X119325000Y-93025000D02*
X119300000Y-93000000D01*
X119350000Y-93125000D02*
X119350000Y-93100000D01*
X119350000Y-96350000D02*
X119350000Y-96325000D01*
X118950000Y-92175000D02*
X118950000Y-92125000D01*
X119000000Y-92300000D02*
X119000000Y-92250000D01*
X118600000Y-91650000D02*
X118575000Y-91625000D01*
X119425000Y-93275000D02*
X119400000Y-93250000D01*
X119425000Y-93325000D02*
X119425000Y-93275000D01*
X119125000Y-92550000D02*
X119100000Y-92525000D01*
X119600000Y-97250000D02*
X119600000Y-97225000D01*
X119100000Y-92525000D02*
X119100000Y-92500000D01*
X118925000Y-92100000D02*
X118925000Y-92075000D01*
X119425000Y-96250000D02*
X119450000Y-96225000D01*
X119025000Y-92325000D02*
X119000000Y-92300000D01*
X118925000Y-92075000D02*
X118900000Y-92050000D01*
X119300000Y-96375000D02*
X119325000Y-96375000D01*
X119400000Y-96300000D02*
X119400000Y-96275000D01*
X119375000Y-96325000D02*
X119375000Y-96300000D01*
X118975000Y-92200000D02*
X118950000Y-92175000D01*
X119025000Y-92350000D02*
X119025000Y-92325000D01*
X119450000Y-93375000D02*
X119450000Y-93350000D01*
%TO.N,REF_N*%
D18*
X115375000Y-110725000D02*
X115400000Y-110725000D01*
X118275000Y-106200000D02*
X118225000Y-106250000D01*
X115875000Y-109450000D02*
X115850000Y-109475000D01*
X115850000Y-109475000D02*
X115850000Y-109500000D01*
X115825000Y-109550000D02*
X115300000Y-110075000D01*
X122400000Y-104525000D02*
X122350000Y-104525000D01*
X115250000Y-110200000D02*
X115225000Y-110225000D01*
X115225000Y-110225000D02*
X115225000Y-110500000D01*
X118150000Y-106325000D02*
X118100000Y-106375000D01*
X115425000Y-110750000D02*
X115450000Y-110750000D01*
X122850000Y-104575000D02*
X122800000Y-104525000D01*
X115300000Y-110625000D02*
X115300000Y-110650000D01*
X122800000Y-104525000D02*
X122750000Y-104525000D01*
X122525000Y-104475000D02*
X122500000Y-104500000D01*
X118100000Y-106375000D02*
X118100000Y-106400000D01*
X122500000Y-104500000D02*
X122425000Y-104500000D01*
X121125000Y-105475000D02*
X121100000Y-105500000D01*
X115950000Y-109225000D02*
X115950000Y-109275000D01*
X121050000Y-105500000D02*
X121025000Y-105525000D01*
X120925000Y-105575000D02*
X120875000Y-105625000D01*
X121300000Y-105450000D02*
X121225000Y-105450000D01*
X115875000Y-109400000D02*
X115875000Y-109450000D01*
X121100000Y-105500000D02*
X121050000Y-105500000D01*
X115525000Y-110775000D02*
X115550000Y-110800000D01*
X121325000Y-105425000D02*
X121300000Y-105450000D01*
X115300000Y-110100000D02*
X115250000Y-110150000D01*
X122425000Y-104500000D02*
X122400000Y-104525000D01*
X115300000Y-110650000D02*
X115375000Y-110725000D01*
X116000000Y-108500000D02*
X116000000Y-109150000D01*
X121025000Y-105525000D02*
X121000000Y-105525000D01*
X115550000Y-110800000D02*
X116850000Y-110800000D01*
X122725000Y-104500000D02*
X122650000Y-104500000D01*
X121000000Y-105525000D02*
X120950000Y-105575000D01*
X115250000Y-110575000D02*
X115300000Y-110625000D01*
X121225000Y-105450000D02*
X121200000Y-105475000D01*
X118225000Y-106250000D02*
X118200000Y-106250000D01*
X115950000Y-109275000D02*
X115925000Y-109300000D01*
X115975000Y-109200000D02*
X115950000Y-109225000D01*
X123425000Y-105125000D02*
X122875000Y-104575000D01*
X115250000Y-110150000D02*
X115250000Y-110200000D01*
X115825000Y-109525000D02*
X115825000Y-109550000D01*
X120875000Y-105625000D02*
X120850000Y-105625000D01*
X120950000Y-105575000D02*
X120925000Y-105575000D01*
X115850000Y-109500000D02*
X115825000Y-109525000D01*
X118350000Y-106175000D02*
X118325000Y-106200000D01*
X118325000Y-106200000D02*
X118275000Y-106200000D01*
X115225000Y-110500000D02*
X115250000Y-110525000D01*
X122350000Y-104525000D02*
X122300000Y-104575000D01*
X122650000Y-104500000D02*
X122625000Y-104475000D01*
X121200000Y-105475000D02*
X121125000Y-105475000D01*
X115900000Y-109350000D02*
X115900000Y-109375000D01*
X115250000Y-110525000D02*
X115250000Y-110575000D01*
X122625000Y-104475000D02*
X122525000Y-104475000D01*
X118450000Y-106150000D02*
X118425000Y-106175000D01*
X120850000Y-105625000D02*
X120325000Y-106150000D01*
X115475000Y-110775000D02*
X115525000Y-110775000D01*
X118200000Y-106250000D02*
X118150000Y-106300000D01*
X116000000Y-109150000D02*
X115975000Y-109175000D01*
X121425000Y-105425000D02*
X121325000Y-105425000D01*
X120325000Y-106150000D02*
X118450000Y-106150000D01*
X115975000Y-109175000D02*
X115975000Y-109200000D01*
X118100000Y-106400000D02*
X116000000Y-108500000D01*
X115925000Y-109325000D02*
X115900000Y-109350000D01*
X115300000Y-110075000D02*
X115300000Y-110100000D01*
X122750000Y-104525000D02*
X122725000Y-104500000D01*
X118425000Y-106175000D02*
X118350000Y-106175000D01*
X118150000Y-106300000D02*
X118150000Y-106325000D01*
X115900000Y-109375000D02*
X115875000Y-109400000D01*
X115400000Y-110725000D02*
X115425000Y-110750000D01*
X122875000Y-104575000D02*
X122850000Y-104575000D01*
X122275000Y-104575000D02*
X121425000Y-105425000D01*
X115450000Y-110750000D02*
X115475000Y-110775000D01*
X115925000Y-109300000D02*
X115925000Y-109325000D01*
X122300000Y-104575000D02*
X122275000Y-104575000D01*
%TO.N,DAC2_SCLK*%
X138850000Y-111000000D02*
X138800000Y-111000000D01*
X138800000Y-111000000D02*
X138775000Y-111025000D01*
X139950000Y-110175000D02*
X139800000Y-110175000D01*
D21*
X134975000Y-110975000D02*
X134925000Y-111025000D01*
D18*
X139050000Y-110900000D02*
X139025000Y-110925000D01*
X139075000Y-110900000D02*
X139050000Y-110900000D01*
X139025000Y-110925000D02*
X139000000Y-110925000D01*
X138775000Y-111025000D02*
X138075000Y-111025000D01*
D21*
X135075000Y-110975000D02*
X134975000Y-110975000D01*
D18*
X139000000Y-110925000D02*
X138975000Y-110950000D01*
X138975000Y-110950000D02*
X138950000Y-110950000D01*
X139800000Y-110175000D02*
X139075000Y-110900000D01*
X138875000Y-110975000D02*
X138850000Y-111000000D01*
X138050000Y-111000000D02*
X138000000Y-111000000D01*
X138075000Y-111025000D02*
X138050000Y-111000000D01*
X138925000Y-110975000D02*
X138875000Y-110975000D01*
X137975000Y-110975000D02*
X135075000Y-110975000D01*
X138000000Y-111000000D02*
X137975000Y-110975000D01*
X138950000Y-110950000D02*
X138925000Y-110975000D01*
%TO.N,DAC1_SCLK*%
X140050000Y-109650000D02*
X140075000Y-109625000D01*
X127275000Y-110575000D02*
X127300000Y-110550000D01*
X139775000Y-109750000D02*
X139825000Y-109750000D01*
X138850000Y-110625000D02*
X138875000Y-110625000D01*
X135150000Y-110500000D02*
X135225000Y-110575000D01*
X138725000Y-110675000D02*
X138775000Y-110675000D01*
X135250000Y-110575000D02*
X135275000Y-110600000D01*
X139925000Y-109700000D02*
X139950000Y-109675000D01*
X127200000Y-110600000D02*
X127225000Y-110600000D01*
X138875000Y-110625000D02*
X139725000Y-109775000D01*
X135275000Y-110600000D02*
X135300000Y-110600000D01*
X139850000Y-109725000D02*
X139875000Y-109725000D01*
X138800000Y-110650000D02*
X138825000Y-110650000D01*
X138500000Y-110700000D02*
X138700000Y-110700000D01*
X135300000Y-110600000D02*
X135325000Y-110625000D01*
X140025000Y-109650000D02*
X140050000Y-109650000D01*
X139825000Y-109750000D02*
X139850000Y-109725000D01*
X127375000Y-110525000D02*
X128300000Y-110525000D01*
X139750000Y-109775000D02*
X139775000Y-109750000D01*
X128300000Y-110525000D02*
X128324998Y-110500000D01*
X138475000Y-110675000D02*
X138500000Y-110700000D01*
X140075000Y-109625000D02*
X140100000Y-109625000D01*
X127225000Y-110600000D02*
X127250000Y-110575000D01*
X126825000Y-110975000D02*
X127200000Y-110600000D01*
X138775000Y-110675000D02*
X138800000Y-110650000D01*
X138825000Y-110650000D02*
X138850000Y-110625000D01*
X128324998Y-110500000D02*
X135150000Y-110500000D01*
X139875000Y-109725000D02*
X139900000Y-109700000D01*
X135400000Y-110650000D02*
X138400000Y-110650000D01*
X138400000Y-110650000D02*
X138425000Y-110675000D01*
X139725000Y-109775000D02*
X139750000Y-109775000D01*
X140000000Y-109675000D02*
X140025000Y-109650000D01*
X135375000Y-110625000D02*
X135400000Y-110650000D01*
X135325000Y-110625000D02*
X135375000Y-110625000D01*
X135225000Y-110575000D02*
X135250000Y-110575000D01*
X127300000Y-110550000D02*
X127350000Y-110550000D01*
X139950000Y-109675000D02*
X140000000Y-109675000D01*
X138700000Y-110700000D02*
X138725000Y-110675000D01*
X127250000Y-110575000D02*
X127275000Y-110575000D01*
X127350000Y-110550000D02*
X127375000Y-110525000D01*
X139900000Y-109700000D02*
X139925000Y-109700000D01*
X138425000Y-110675000D02*
X138475000Y-110675000D01*
%TO.N,DAC1_AVDD*%
X131500000Y-101325000D02*
X131500000Y-100825000D01*
X128925000Y-100425000D02*
X128900000Y-100450000D01*
X131425000Y-100600000D02*
X131324998Y-100500000D01*
X131300000Y-100500000D02*
X131250000Y-100450000D01*
X131449998Y-100675000D02*
X131449998Y-100650000D01*
X128850000Y-100450000D02*
X128800000Y-100500000D01*
X131500000Y-100825000D02*
X131475000Y-100800000D01*
X128900000Y-100450000D02*
X128850000Y-100450000D01*
X131425000Y-100625000D02*
X131425000Y-100600000D01*
X131475000Y-100700000D02*
X131449998Y-100675000D01*
X131475000Y-100800000D02*
X131475000Y-100700000D01*
X131175000Y-100425000D02*
X128925000Y-100425000D01*
X131250000Y-100450000D02*
X131199998Y-100450000D01*
X128775000Y-100500000D02*
X128550000Y-100725000D01*
X131199998Y-100450000D02*
X131175000Y-100425000D01*
X128800000Y-100500000D02*
X128775000Y-100500000D01*
X131449998Y-100650000D02*
X131425000Y-100625000D01*
X131324998Y-100500000D02*
X131300000Y-100500000D01*
X128550000Y-100725000D02*
X128550000Y-101100000D01*
X133800000Y-103625000D02*
X131500000Y-101325000D01*
%TO.N,DAC1_OUT*%
X130699998Y-101450000D02*
X130750000Y-101450000D01*
X132125000Y-102800000D02*
X132199998Y-102800000D01*
X130675000Y-101425000D02*
X130699998Y-101450000D01*
X132425000Y-102900000D02*
X132449998Y-102900000D01*
X132199998Y-102800000D02*
X132225000Y-102825000D01*
X133949998Y-104700000D02*
X133975000Y-104725000D01*
X130800000Y-101500000D02*
X130824998Y-101500000D01*
X129625000Y-101300000D02*
X129750000Y-101425000D01*
X133900000Y-104375000D02*
X133900000Y-104425000D01*
X132300000Y-102825000D02*
X132324998Y-102850000D01*
X132375000Y-102850000D02*
X132425000Y-102900000D01*
X130750000Y-101450000D02*
X130800000Y-101500000D01*
X133975000Y-104725000D02*
X133975000Y-104750000D01*
X133925000Y-104450000D02*
X133925000Y-104550000D01*
X133925000Y-104550000D02*
X133949998Y-104575000D01*
X133750000Y-104200000D02*
X133750000Y-104225000D01*
X133949998Y-104575000D02*
X133949998Y-104700000D01*
X133975000Y-104750000D02*
X134100000Y-104875000D01*
X132449998Y-102900000D02*
X133750000Y-104200000D01*
X129750000Y-101425000D02*
X130675000Y-101425000D01*
X130824998Y-101500000D02*
X132125000Y-102800000D01*
X133750000Y-104225000D02*
X133900000Y-104375000D01*
X132225000Y-102825000D02*
X132300000Y-102825000D01*
X132324998Y-102850000D02*
X132375000Y-102850000D01*
X133900000Y-104425000D02*
X133925000Y-104450000D01*
X134100000Y-104875000D02*
X134100000Y-104900000D01*
%TO.N,VAO*%
D17*
X138621800Y-102479000D02*
X141178400Y-105035600D01*
D22*
X139250000Y-106150000D02*
X139250000Y-103200000D01*
D17*
X145212200Y-95350800D02*
X145212200Y-103911200D01*
D22*
X134325000Y-100325000D02*
X134025000Y-100325000D01*
X133875000Y-100275000D02*
X133850000Y-100275000D01*
D17*
X137774100Y-108439900D02*
X141178400Y-105035600D01*
D22*
X137000000Y-108425000D02*
X139225000Y-106200000D01*
D18*
X144650000Y-102825000D02*
X144625000Y-102800000D01*
D22*
X133050000Y-99525000D02*
X133000000Y-99525000D01*
X139225000Y-106175000D02*
X139250000Y-106150000D01*
X135075000Y-101075000D02*
X134325000Y-100325000D01*
X133900000Y-100300000D02*
X133875000Y-100275000D01*
X134000000Y-100300000D02*
X133900000Y-100300000D01*
X132800000Y-99425000D02*
X132775000Y-99425000D01*
D18*
X145212200Y-103911200D02*
X145200000Y-103900000D01*
D22*
X139200000Y-103125000D02*
X139200000Y-103100000D01*
X132824998Y-99450000D02*
X132800000Y-99425000D01*
X132675000Y-99375000D02*
X132650000Y-99375000D01*
D17*
X144087800Y-105035600D02*
X141178400Y-105035600D01*
D22*
X133824998Y-100250000D02*
X133800000Y-100250000D01*
X134025000Y-100325000D02*
X134000000Y-100300000D01*
X133750000Y-100225000D02*
X133050000Y-99525000D01*
D17*
X145212200Y-103911200D02*
X144087800Y-105035600D01*
D22*
X133800000Y-100250000D02*
X133775000Y-100225000D01*
X132650000Y-99375000D02*
X132625000Y-99350000D01*
X139225000Y-103175000D02*
X139225000Y-103150000D01*
D18*
X145100000Y-103500000D02*
X145075000Y-103475000D01*
X144650000Y-102850000D02*
X144650000Y-102825000D01*
D22*
X132750000Y-99400000D02*
X132699998Y-99400000D01*
D18*
X145025000Y-103375000D02*
X145025000Y-103350000D01*
X144725000Y-103025000D02*
X144725000Y-103000000D01*
D22*
X132699998Y-99400000D02*
X132675000Y-99375000D01*
X133850000Y-100275000D02*
X133824998Y-100250000D01*
X132600000Y-99350000D02*
X132603197Y-99338100D01*
D17*
X140156300Y-90294900D02*
X145212200Y-95350800D01*
D22*
X136600000Y-102575000D02*
X135100000Y-101075000D01*
D18*
X144700000Y-102950000D02*
X144675000Y-102925000D01*
D22*
X132925000Y-99475000D02*
X132875000Y-99475000D01*
X138600000Y-102575000D02*
X136600000Y-102575000D01*
X132850000Y-99450000D02*
X132824998Y-99450000D01*
D18*
X145200000Y-103900000D02*
X145100000Y-103800000D01*
X144675000Y-102925000D02*
X144675000Y-102875000D01*
D22*
X138700000Y-102625000D02*
X138675000Y-102600000D01*
D18*
X145100000Y-103800000D02*
X145100000Y-103500000D01*
D22*
X138625000Y-102600000D02*
X138600000Y-102575000D01*
D18*
X145075000Y-103475000D02*
X145075000Y-103425000D01*
X145025000Y-103350000D02*
X144750000Y-103075000D01*
D22*
X132949998Y-99500000D02*
X132925000Y-99475000D01*
D17*
X127658200Y-90481200D02*
X127844500Y-90294900D01*
D18*
X144750000Y-103075000D02*
X144750000Y-103050000D01*
D22*
X133775000Y-100225000D02*
X133750000Y-100225000D01*
X135100000Y-101075000D02*
X135075000Y-101075000D01*
D18*
X144700000Y-102975000D02*
X144700000Y-102950000D01*
X144750000Y-103050000D02*
X144725000Y-103025000D01*
X144675000Y-102875000D02*
X144650000Y-102850000D01*
X145075000Y-103425000D02*
X145025000Y-103375000D01*
D22*
X133000000Y-99525000D02*
X132975000Y-99500000D01*
X132625000Y-99350000D02*
X132600000Y-99350000D01*
D17*
X130632100Y-99338100D02*
X132603197Y-99338100D01*
D22*
X138675000Y-102600000D02*
X138625000Y-102600000D01*
D17*
X127844500Y-90294900D02*
X140156300Y-90294900D01*
D22*
X139250000Y-103200000D02*
X139225000Y-103175000D01*
X139200000Y-103100000D02*
X138725000Y-102625000D01*
X139225000Y-103150000D02*
X139200000Y-103125000D01*
X138725000Y-102625000D02*
X138700000Y-102625000D01*
D18*
X144625000Y-102800000D02*
X144625000Y-102775000D01*
D22*
X132875000Y-99475000D02*
X132850000Y-99450000D01*
X132975000Y-99500000D02*
X132949998Y-99500000D01*
D18*
X144725000Y-103000000D02*
X144700000Y-102975000D01*
D22*
X132775000Y-99425000D02*
X132750000Y-99400000D01*
X139225000Y-106200000D02*
X139225000Y-106175000D01*
%TO.N,VIN_P*%
D17*
X115419600Y-104652000D02*
X115338800Y-104652000D01*
D18*
X118325000Y-101750000D02*
X118500000Y-101750000D01*
D17*
X118316600Y-98630600D02*
X118316600Y-101755000D01*
X118316600Y-101755000D02*
X115419600Y-104652000D01*
D18*
X118316600Y-101755000D02*
X118325000Y-101750000D01*
D17*
X118584200Y-98363000D02*
X118316600Y-98630600D01*
X136638800Y-108995200D02*
X134530900Y-106887300D01*
X140810000Y-106256900D02*
X138071700Y-108995200D01*
X138071700Y-108995200D02*
X136638800Y-108995200D01*
%TO.N,DAC2_SENSE*%
D18*
X132750000Y-98000000D02*
X132800000Y-98050000D01*
X132750000Y-97100000D02*
X132750000Y-98000000D01*
X134000000Y-99900000D02*
X134050000Y-99950000D01*
X134050000Y-99950000D02*
X134650000Y-99950000D01*
X133800000Y-99700000D02*
X133850000Y-99750000D01*
X133949998Y-99900000D02*
X134000000Y-99900000D01*
X132900000Y-98300000D02*
X133449998Y-98850000D01*
X132850000Y-98200000D02*
X132900000Y-98250000D01*
X133800000Y-99650000D02*
X133800000Y-99700000D01*
X133449998Y-99250000D02*
X133500000Y-99300000D01*
X133850000Y-99750000D02*
X133850000Y-99800000D01*
X132850000Y-98150000D02*
X132850000Y-98200000D01*
X132449998Y-96750000D02*
X132650000Y-96950000D01*
X132425000Y-96750000D02*
X132449998Y-96750000D01*
X133500000Y-99350000D02*
X133800000Y-99650000D01*
X132650000Y-96950000D02*
X132650000Y-97000000D01*
X132900000Y-98250000D02*
X132900000Y-98300000D01*
X133449998Y-98850000D02*
X133449998Y-99250000D01*
X132800000Y-98100000D02*
X132850000Y-98150000D01*
X133500000Y-99300000D02*
X133500000Y-99350000D01*
X132650000Y-97000000D02*
X132750000Y-97100000D01*
X133850000Y-99800000D02*
X133949998Y-99900000D01*
X132800000Y-98050000D02*
X132800000Y-98100000D01*
X134650000Y-99950000D02*
X135350000Y-100650000D01*
%TO.N,DAC1_SENSE*%
X125275000Y-105225000D02*
X125250000Y-105250000D01*
X125425000Y-105175000D02*
X125400000Y-105175000D01*
X125325000Y-105200000D02*
X125300000Y-105225000D01*
X126000000Y-104925000D02*
X125975000Y-104950000D01*
X130949998Y-104850000D02*
X130900000Y-104850000D01*
X126100000Y-104875000D02*
X126075000Y-104900000D01*
X126150000Y-104875000D02*
X126100000Y-104875000D01*
X124300000Y-105700000D02*
X124250000Y-105750000D01*
X122475000Y-105900000D02*
X122450000Y-105900000D01*
X125550000Y-105125000D02*
X125500000Y-105125000D01*
X122300000Y-105975000D02*
X122275000Y-105975000D01*
X130775000Y-104800000D02*
X126300000Y-104800000D01*
X121475000Y-106175000D02*
X121450000Y-106175000D01*
X136100000Y-105350000D02*
X136500000Y-105750000D01*
X121975000Y-106100000D02*
X121950000Y-106125000D01*
X133800000Y-105300000D02*
X133850000Y-105300000D01*
X124200000Y-105750000D02*
X124175000Y-105775000D01*
X130800000Y-104825000D02*
X130775000Y-104800000D01*
X125450000Y-105150000D02*
X125425000Y-105175000D01*
X126300000Y-104800000D02*
X126275000Y-104825000D01*
X124725000Y-105300000D02*
X124325000Y-105700000D01*
X125000000Y-105275000D02*
X124975000Y-105300000D01*
X126225000Y-104825000D02*
X126200000Y-104850000D01*
X125625000Y-105075000D02*
X125600000Y-105100000D01*
X125725000Y-105050000D02*
X125700000Y-105050000D01*
X125875000Y-104975000D02*
X125850000Y-105000000D01*
X126275000Y-104825000D02*
X126225000Y-104825000D01*
X124325000Y-105700000D02*
X124300000Y-105700000D01*
X125250000Y-105250000D02*
X125225000Y-105250000D01*
X125575000Y-105100000D02*
X125550000Y-105125000D01*
X121900000Y-106125000D02*
X121875000Y-106150000D01*
X122375000Y-105925000D02*
X122350000Y-105950000D01*
X121450000Y-106175000D02*
X121425000Y-106200000D01*
X121425000Y-106200000D02*
X121400000Y-106200000D01*
X133900000Y-105350000D02*
X136100000Y-105350000D01*
X121500000Y-106150000D02*
X121475000Y-106175000D01*
X125500000Y-105125000D02*
X125475000Y-105150000D01*
X130875000Y-104825000D02*
X130800000Y-104825000D01*
X132050000Y-105250000D02*
X133750000Y-105250000D01*
X122025000Y-106075000D02*
X122000000Y-106100000D01*
X131375000Y-105250000D02*
X131025000Y-104900000D01*
X122325000Y-105950000D02*
X122300000Y-105975000D01*
X122175000Y-106025000D02*
X122150000Y-106025000D01*
X126050000Y-104900000D02*
X126025000Y-104925000D01*
X124175000Y-105775000D02*
X124100000Y-105775000D01*
X125400000Y-105175000D02*
X125375000Y-105200000D01*
X125200000Y-105275000D02*
X125000000Y-105275000D01*
X130900000Y-104850000D02*
X130875000Y-104825000D01*
X122250000Y-106000000D02*
X122200000Y-106000000D01*
X122050000Y-106075000D02*
X122025000Y-106075000D01*
X122200000Y-106000000D02*
X122175000Y-106025000D01*
X125300000Y-105225000D02*
X125275000Y-105225000D01*
X125775000Y-105025000D02*
X125750000Y-105025000D01*
X125700000Y-105050000D02*
X125675000Y-105075000D01*
X122000000Y-106100000D02*
X121975000Y-106100000D01*
X121950000Y-106125000D02*
X121900000Y-106125000D01*
X125900000Y-104975000D02*
X125875000Y-104975000D01*
X122500000Y-105875000D02*
X122475000Y-105900000D01*
X121875000Y-106150000D02*
X121500000Y-106150000D01*
X125225000Y-105250000D02*
X125200000Y-105275000D01*
X124000000Y-105875000D02*
X122500000Y-105875000D01*
X126025000Y-104925000D02*
X126000000Y-104925000D01*
X125975000Y-104950000D02*
X125925000Y-104950000D01*
X122350000Y-105950000D02*
X122325000Y-105950000D01*
X122425000Y-105925000D02*
X122375000Y-105925000D01*
X125475000Y-105150000D02*
X125450000Y-105150000D01*
X122075000Y-106050000D02*
X122050000Y-106075000D01*
X122275000Y-105975000D02*
X122250000Y-106000000D01*
X124250000Y-105750000D02*
X124200000Y-105750000D01*
X124100000Y-105775000D02*
X124000000Y-105875000D01*
X122450000Y-105900000D02*
X122425000Y-105925000D01*
X133850000Y-105300000D02*
X133900000Y-105350000D01*
X125850000Y-105000000D02*
X125800000Y-105000000D01*
X125600000Y-105100000D02*
X125575000Y-105100000D01*
X124975000Y-105300000D02*
X124725000Y-105300000D01*
X122125000Y-106050000D02*
X122075000Y-106050000D01*
X125750000Y-105025000D02*
X125725000Y-105050000D01*
X125375000Y-105200000D02*
X125325000Y-105200000D01*
X132050000Y-105250000D02*
X131375000Y-105250000D01*
X122150000Y-106025000D02*
X122125000Y-106050000D01*
X125800000Y-105000000D02*
X125775000Y-105025000D01*
X126175000Y-104850000D02*
X126150000Y-104875000D01*
X133750000Y-105250000D02*
X133800000Y-105300000D01*
X131025000Y-104900000D02*
X131000000Y-104900000D01*
X125675000Y-105075000D02*
X125625000Y-105075000D01*
X125925000Y-104950000D02*
X125900000Y-104975000D01*
X126200000Y-104850000D02*
X126175000Y-104850000D01*
X131000000Y-104900000D02*
X130949998Y-104850000D01*
X126075000Y-104900000D02*
X126050000Y-104900000D01*
%TO.N,EF_DVDT*%
X116000000Y-100200000D02*
X116000000Y-100150000D01*
X115975000Y-100225000D02*
X116000000Y-100200000D01*
X115925000Y-100375000D02*
X115925000Y-100325000D01*
X115375000Y-101775000D02*
X115400000Y-101750000D01*
X115875000Y-100450000D02*
X115900000Y-100425000D01*
X115850000Y-100525000D02*
X115875000Y-100500000D01*
X115400000Y-101750000D02*
X115400000Y-101725000D01*
X116075000Y-99975000D02*
X116100000Y-99950000D01*
X116050000Y-100075000D02*
X116050000Y-100025000D01*
X115450000Y-100950000D02*
X115850000Y-100550000D01*
X116150000Y-99425000D02*
X116150000Y-99400000D01*
X115400000Y-101725000D02*
X115425000Y-101700000D01*
X115425000Y-101700000D02*
X115425000Y-101650000D01*
X115900000Y-100400000D02*
X115925000Y-100375000D01*
X116175000Y-99375000D02*
X116175000Y-99350000D01*
X115975000Y-100250000D02*
X115975000Y-100225000D01*
X115875000Y-100500000D02*
X115875000Y-100450000D01*
X115950000Y-100300000D02*
X115950000Y-100275000D01*
X116025000Y-100125000D02*
X116025000Y-100100000D01*
X116150000Y-99400000D02*
X116175000Y-99375000D01*
X115900000Y-100425000D02*
X115900000Y-100400000D01*
X116000000Y-100150000D02*
X116025000Y-100125000D01*
X115375000Y-102750000D02*
X115375000Y-101775000D01*
X116100000Y-99525000D02*
X116125000Y-99500000D01*
X116025000Y-100100000D02*
X116050000Y-100075000D01*
X115365000Y-102760000D02*
X115375000Y-102750000D01*
X115950000Y-100275000D02*
X115975000Y-100250000D01*
X116125000Y-99450000D02*
X116150000Y-99425000D01*
X116425000Y-99100000D02*
X116725000Y-99100000D01*
X115425000Y-101650000D02*
X115450000Y-101625000D01*
X116725000Y-99100000D02*
X116425000Y-99100000D01*
X115925000Y-100325000D02*
X115950000Y-100300000D01*
X115450000Y-101625000D02*
X115450000Y-100950000D01*
X116175000Y-99350000D02*
X116425000Y-99100000D01*
X116075000Y-100000000D02*
X116075000Y-99975000D01*
X115850000Y-100550000D02*
X115850000Y-100525000D01*
X116125000Y-99500000D02*
X116125000Y-99450000D01*
X116100000Y-99950000D02*
X116100000Y-99525000D01*
X116050000Y-100025000D02*
X116075000Y-100000000D01*
%TO.N,VIN_F*%
D17*
X122173300Y-95475500D02*
X123043800Y-96346000D01*
X122173300Y-93314300D02*
X122173300Y-95475500D01*
X123163600Y-93017200D02*
X122470400Y-93017200D01*
X122470400Y-93017200D02*
X122173300Y-93314300D01*
X144641300Y-103653900D02*
X136264300Y-95276900D01*
X125423300Y-95276900D02*
X123163600Y-93017200D01*
X136264300Y-95276900D02*
X125423300Y-95276900D01*
%TO.N,VIN_D*%
D18*
X116975000Y-106700000D02*
X117025000Y-106700000D01*
X115700000Y-107575000D02*
X115700000Y-107525000D01*
X119400000Y-105200000D02*
X119425000Y-105200000D01*
X114825000Y-108200000D02*
X114875000Y-108200000D01*
X115675000Y-107625000D02*
X115675000Y-107600000D01*
X114950000Y-108150000D02*
X115225000Y-107875000D01*
X115675000Y-107600000D02*
X115700000Y-107575000D01*
X114725000Y-108225000D02*
X114800000Y-108225000D01*
X121175000Y-104125000D02*
X121200000Y-104100000D01*
X106150000Y-97550000D02*
X106125000Y-97525000D01*
X119650000Y-105100000D02*
X119675000Y-105100000D01*
X120450000Y-104775000D02*
X120475000Y-104750000D01*
X120150000Y-104900000D02*
X120175000Y-104875000D01*
X115225000Y-107875000D02*
X115350000Y-107875000D01*
X117275000Y-106600000D02*
X118300000Y-105575000D01*
X121225000Y-104100000D02*
X121250000Y-104075000D01*
D17*
X126873400Y-109553000D02*
X123758900Y-106438500D01*
D18*
X120125000Y-104900000D02*
X120150000Y-104900000D01*
X107875000Y-94550000D02*
X107900000Y-94525000D01*
X118375000Y-105400000D02*
X118375000Y-105350000D01*
X112200000Y-108150000D02*
X114375000Y-108150000D01*
X115900000Y-107300000D02*
X116325000Y-107300000D01*
X119500000Y-105175000D02*
X119525000Y-105150000D01*
X120400000Y-104800000D02*
X120425000Y-104775000D01*
X121200000Y-104100000D02*
X121225000Y-104100000D01*
X114925000Y-108150000D02*
X114950000Y-108150000D01*
X114425000Y-108200000D02*
X114475000Y-108200000D01*
X119950000Y-104975000D02*
X119975000Y-104975000D01*
X118325000Y-105475000D02*
X118350000Y-105450000D01*
X120000000Y-104950000D02*
X120050000Y-104950000D01*
X117250000Y-106600000D02*
X117275000Y-106600000D01*
X117125000Y-106675000D02*
X117150000Y-106650000D01*
X106150000Y-96375000D02*
X106150000Y-96325000D01*
X114575000Y-108225000D02*
X114600000Y-108250000D01*
X119800000Y-105050000D02*
X119825000Y-105025000D01*
X116350000Y-107275000D02*
X116375000Y-107275000D01*
X119875000Y-105000000D02*
X119925000Y-105000000D01*
X121350000Y-104050000D02*
X121400000Y-104000000D01*
X107925000Y-94475000D02*
X107925000Y-94450000D01*
X114700000Y-108250000D02*
X114725000Y-108225000D01*
X114475000Y-108200000D02*
X114500000Y-108225000D01*
X106150000Y-97600000D02*
X106150000Y-97550000D01*
X120100000Y-104925000D02*
X120125000Y-104900000D01*
X120475000Y-104750000D02*
X120500000Y-104750000D01*
X116425000Y-107250000D02*
X116975000Y-106700000D01*
X115350000Y-107875000D02*
X115375000Y-107850000D01*
X114500000Y-108225000D02*
X114575000Y-108225000D01*
X121300000Y-104075000D02*
X121325000Y-104050000D01*
X114600000Y-108250000D02*
X114700000Y-108250000D01*
X107675000Y-101200000D02*
X107675000Y-99775000D01*
X115425000Y-107850000D02*
X115450000Y-107825000D01*
X106150000Y-96325000D02*
X106175000Y-96300000D01*
X119375000Y-105225000D02*
X119400000Y-105200000D01*
D17*
X153545800Y-107104200D02*
X153433600Y-106992000D01*
D18*
X120075000Y-104925000D02*
X120100000Y-104925000D01*
X107950000Y-94375000D02*
X107975000Y-94350000D01*
X116400000Y-107250000D02*
X116425000Y-107250000D01*
X117150000Y-106650000D02*
X117200000Y-106650000D01*
X107925000Y-94450000D02*
X107950000Y-94425000D01*
X120275000Y-104850000D02*
X120300000Y-104825000D01*
X115750000Y-107475000D02*
X115750000Y-107450000D01*
X120425000Y-104775000D02*
X120450000Y-104775000D01*
X119675000Y-105100000D02*
X119700000Y-105075000D01*
X117050000Y-106675000D02*
X117125000Y-106675000D01*
X119825000Y-105025000D02*
X119850000Y-105025000D01*
X119325000Y-105250000D02*
X119350000Y-105225000D01*
X121125000Y-104150000D02*
X121150000Y-104125000D01*
X119750000Y-105050000D02*
X119800000Y-105050000D01*
X116375000Y-107275000D02*
X116400000Y-107250000D01*
X119575000Y-105125000D02*
X119625000Y-105125000D01*
X115750000Y-107450000D02*
X115900000Y-107300000D01*
X115375000Y-107850000D02*
X115425000Y-107850000D01*
X107900000Y-94525000D02*
X107900000Y-94500000D01*
X106125000Y-96400000D02*
X106150000Y-96375000D01*
X115700000Y-107525000D02*
X115750000Y-107475000D01*
X118425000Y-105275000D02*
X118425000Y-105250000D01*
X106125000Y-97525000D02*
X106125000Y-96400000D01*
X121150000Y-104125000D02*
X121175000Y-104125000D01*
X118350000Y-105450000D02*
X118350000Y-105425000D01*
X107900000Y-94500000D02*
X107925000Y-94475000D01*
X108000000Y-101525000D02*
X107675000Y-101200000D01*
X119350000Y-105225000D02*
X119375000Y-105225000D01*
X107675000Y-99775000D02*
X108000000Y-99450000D01*
X120300000Y-104825000D02*
X120350000Y-104825000D01*
X118300000Y-105575000D02*
X118300000Y-105525000D01*
X114375000Y-108150000D02*
X114425000Y-108200000D01*
X118350000Y-105425000D02*
X118375000Y-105400000D01*
X116325000Y-107300000D02*
X116350000Y-107275000D01*
X114875000Y-108200000D02*
X114925000Y-108150000D01*
X121325000Y-104050000D02*
X121350000Y-104050000D01*
X120175000Y-104875000D02*
X120225000Y-104875000D01*
X115450000Y-107825000D02*
X115475000Y-107825000D01*
X118375000Y-105350000D02*
X118400000Y-105325000D01*
X120375000Y-104800000D02*
X120400000Y-104800000D01*
X120350000Y-104825000D02*
X120375000Y-104800000D01*
D17*
X141306200Y-106992000D02*
X138745200Y-109553000D01*
D18*
X117025000Y-106700000D02*
X117050000Y-106675000D01*
X107875000Y-94575000D02*
X107875000Y-94550000D01*
X121100000Y-104150000D02*
X121125000Y-104150000D01*
D17*
X138745200Y-109553000D02*
X126873400Y-109553000D01*
D18*
X115475000Y-107825000D02*
X115675000Y-107625000D01*
X119525000Y-105150000D02*
X119550000Y-105150000D01*
X119925000Y-105000000D02*
X119950000Y-104975000D01*
X118325000Y-105500000D02*
X118325000Y-105475000D01*
X121250000Y-104075000D02*
X121300000Y-104075000D01*
X114800000Y-108225000D02*
X114825000Y-108200000D01*
X119975000Y-104975000D02*
X120000000Y-104950000D01*
X118425000Y-105250000D02*
X119325000Y-105250000D01*
X119850000Y-105025000D02*
X119875000Y-105000000D01*
X119725000Y-105075000D02*
X119750000Y-105050000D01*
X118400000Y-105300000D02*
X118425000Y-105275000D01*
X119700000Y-105075000D02*
X119725000Y-105075000D01*
X119550000Y-105150000D02*
X119575000Y-105125000D01*
X120225000Y-104875000D02*
X120250000Y-104850000D01*
X119450000Y-105175000D02*
X119500000Y-105175000D01*
X118400000Y-105325000D02*
X118400000Y-105300000D01*
X117200000Y-106650000D02*
X117250000Y-106600000D01*
X120250000Y-104850000D02*
X120275000Y-104850000D01*
X120500000Y-104750000D02*
X121100000Y-104150000D01*
X120050000Y-104950000D02*
X120075000Y-104925000D01*
X106175000Y-96275000D02*
X107875000Y-94575000D01*
X108000000Y-99450000D02*
X106150000Y-97600000D01*
X119625000Y-105125000D02*
X119650000Y-105100000D01*
D17*
X153433600Y-106992000D02*
X141306200Y-106992000D01*
D18*
X108000000Y-94300000D02*
X108000000Y-94275000D01*
X106175000Y-96300000D02*
X106175000Y-96275000D01*
X119425000Y-105200000D02*
X119450000Y-105175000D01*
X118300000Y-105525000D02*
X118325000Y-105500000D01*
X107975000Y-94325000D02*
X108000000Y-94300000D01*
X107950000Y-94425000D02*
X107950000Y-94375000D01*
X107975000Y-94350000D02*
X107975000Y-94325000D01*
%TO.N,VIN_L*%
D17*
X125103000Y-93675200D02*
X121977800Y-90550000D01*
X138617500Y-94488300D02*
X126331700Y-94488300D01*
X121977800Y-90550000D02*
X121050000Y-90550000D01*
X126331700Y-94488300D02*
X125518600Y-93675200D01*
X138905800Y-94200000D02*
X138617500Y-94488300D01*
X125518600Y-93675200D02*
X125103000Y-93675200D01*
%TO.N,UV_DIV*%
D18*
X111175000Y-94700000D02*
X111200000Y-94675000D01*
X108625000Y-98675000D02*
X108625000Y-98600000D01*
X108275000Y-99600000D02*
X108300000Y-99575000D01*
X108575000Y-98775000D02*
X108575000Y-98750000D01*
X108700000Y-96850000D02*
X110075000Y-95475000D01*
X110850000Y-94825000D02*
X110875000Y-94825000D01*
X110125000Y-95450000D02*
X110225000Y-95450000D01*
X108300000Y-99575000D02*
X108300000Y-99500000D01*
X108575000Y-98750000D02*
X108600000Y-98725000D01*
X108325000Y-99475000D02*
X108325000Y-99025000D01*
X110225000Y-95450000D02*
X110850000Y-94825000D01*
X111075000Y-94725000D02*
X111125000Y-94725000D01*
X110950000Y-94800000D02*
X110975000Y-94775000D01*
X108675000Y-96950000D02*
X108675000Y-96925000D01*
X110075000Y-95475000D02*
X110100000Y-95475000D01*
X110875000Y-94825000D02*
X110900000Y-94800000D01*
X108500000Y-99825000D02*
X108250000Y-99650000D01*
X108300000Y-99500000D02*
X108325000Y-99475000D01*
X108600000Y-98725000D02*
X108600000Y-98700000D01*
X111000000Y-94775000D02*
X111025000Y-94750000D01*
X110900000Y-94800000D02*
X110950000Y-94800000D01*
X108600000Y-98700000D02*
X108625000Y-98675000D01*
X108650000Y-96975000D02*
X108675000Y-96950000D01*
X111200000Y-94675000D02*
X111225000Y-94675000D01*
X108250000Y-99650000D02*
X108275000Y-99625000D01*
X108625000Y-98600000D02*
X108650000Y-98575000D01*
X108675000Y-96925000D02*
X108700000Y-96900000D01*
X108700000Y-96900000D02*
X108700000Y-96850000D01*
X110975000Y-94775000D02*
X111000000Y-94775000D01*
X111150000Y-94700000D02*
X111175000Y-94700000D01*
X108275000Y-99625000D02*
X108275000Y-99600000D01*
X111050000Y-94750000D02*
X111075000Y-94725000D01*
X108650000Y-98575000D02*
X108650000Y-96975000D01*
X108325000Y-99025000D02*
X108575000Y-98775000D01*
X110100000Y-95475000D02*
X110125000Y-95450000D01*
X111025000Y-94750000D02*
X111050000Y-94750000D01*
X111125000Y-94725000D02*
X111150000Y-94700000D01*
%TO.N,OUT2_SNS*%
X137700000Y-99600000D02*
X137725000Y-99600000D01*
X137425000Y-99475000D02*
X137450000Y-99500000D01*
X137675000Y-99575000D02*
X137700000Y-99600000D01*
X137625000Y-99550000D02*
X137650000Y-99575000D01*
X136550000Y-99075000D02*
X136575000Y-99075000D01*
X137650000Y-99575000D02*
X137675000Y-99575000D01*
X133900000Y-99050000D02*
X136525000Y-99050000D01*
X137350000Y-99450000D02*
X137375000Y-99475000D01*
X137325000Y-99450000D02*
X137350000Y-99450000D01*
X137375000Y-99475000D02*
X137425000Y-99475000D01*
X136575000Y-99075000D02*
X136600000Y-99100000D01*
X137500000Y-99525000D02*
X137550000Y-99525000D01*
X136525000Y-99050000D02*
X136550000Y-99075000D01*
X137450000Y-99500000D02*
X137475000Y-99500000D01*
X137550000Y-99525000D02*
X137575000Y-99550000D01*
X137575000Y-99550000D02*
X137625000Y-99550000D01*
X136600000Y-99100000D02*
X136975000Y-99100000D01*
X136975000Y-99100000D02*
X137325000Y-99450000D01*
X137475000Y-99500000D02*
X137500000Y-99525000D01*
%TD*%
%TA.AperFunction,Conductor*%
%TO.N,+3V3*%
G36*
X111523789Y-107818907D02*
G01*
X111559753Y-107868407D01*
X111559753Y-107929593D01*
X111557065Y-107936878D01*
X111550963Y-107951612D01*
X111549499Y-107955146D01*
X111549499Y-107975098D01*
X111541963Y-108012984D01*
X111524499Y-108055145D01*
X111524499Y-108155145D01*
X111524499Y-108244855D01*
X111541306Y-108285428D01*
X111541959Y-108287004D01*
X111549499Y-108324900D01*
X111549499Y-108344855D01*
X111560853Y-108372264D01*
X111566963Y-108387015D01*
X111571630Y-108410481D01*
X111572596Y-108410290D01*
X111574498Y-108419852D01*
X111574499Y-108419854D01*
X111574499Y-108419855D01*
X111575172Y-108421479D01*
X111591559Y-108461041D01*
X111608828Y-108502733D01*
X111608829Y-108502734D01*
X111608830Y-108502736D01*
X111627230Y-108521136D01*
X111648688Y-108553252D01*
X111658828Y-108577733D01*
X111658829Y-108577734D01*
X111658830Y-108577736D01*
X111722264Y-108641170D01*
X111722265Y-108641170D01*
X112183829Y-109102734D01*
X112183830Y-109102736D01*
X112206204Y-109125110D01*
X112233980Y-109179625D01*
X112224409Y-109240057D01*
X112206203Y-109265115D01*
X112153529Y-109317789D01*
X112107387Y-109397709D01*
X112107386Y-109397711D01*
X112107386Y-109397712D01*
X112083500Y-109486856D01*
X112083500Y-109579144D01*
X112107386Y-109668288D01*
X112107387Y-109668290D01*
X112149360Y-109740989D01*
X112153531Y-109748212D01*
X112218788Y-109813469D01*
X112298712Y-109859614D01*
X112387856Y-109883500D01*
X112387858Y-109883500D01*
X112480142Y-109883500D01*
X112480144Y-109883500D01*
X112569288Y-109859614D01*
X112649212Y-109813469D01*
X112714469Y-109748212D01*
X112760614Y-109668288D01*
X112784500Y-109579144D01*
X112784500Y-109486856D01*
X112760614Y-109397712D01*
X112732489Y-109349000D01*
X112719768Y-109289153D01*
X112744654Y-109233257D01*
X112797641Y-109202664D01*
X112818226Y-109200500D01*
X112906351Y-109200500D01*
X112955850Y-109213763D01*
X112984009Y-109230020D01*
X112984011Y-109230021D01*
X113060435Y-109250499D01*
X113060437Y-109250500D01*
X113060438Y-109250500D01*
X113139563Y-109250500D01*
X113139563Y-109250499D01*
X113215989Y-109230021D01*
X113284511Y-109190460D01*
X113340460Y-109134511D01*
X113380021Y-109065989D01*
X113400500Y-108989562D01*
X113400500Y-108910438D01*
X113380021Y-108834011D01*
X113377787Y-108830142D01*
X113340461Y-108765491D01*
X113340460Y-108765489D01*
X113284511Y-108709540D01*
X113284508Y-108709538D01*
X113215992Y-108669980D01*
X113215988Y-108669978D01*
X113139564Y-108649500D01*
X113139562Y-108649500D01*
X113060438Y-108649500D01*
X113060435Y-108649500D01*
X112984011Y-108669978D01*
X112984007Y-108669980D01*
X112915491Y-108709538D01*
X112915489Y-108709539D01*
X112915489Y-108709540D01*
X112904523Y-108720505D01*
X112850009Y-108748281D01*
X112834522Y-108749500D01*
X112509413Y-108749500D01*
X112494036Y-108744504D01*
X112477872Y-108744341D01*
X112460610Y-108733643D01*
X112451222Y-108730593D01*
X112447563Y-108725557D01*
X112439409Y-108720504D01*
X112337908Y-108619003D01*
X112310131Y-108564486D01*
X112319702Y-108504054D01*
X112358409Y-108463264D01*
X112415212Y-108430469D01*
X112429666Y-108416015D01*
X112441187Y-108404495D01*
X112462268Y-108393754D01*
X112481548Y-108380042D01*
X112489033Y-108380117D01*
X112495704Y-108376719D01*
X112511189Y-108375500D01*
X114243781Y-108375500D01*
X114287685Y-108388817D01*
X114288257Y-108387439D01*
X114311455Y-108397048D01*
X114320996Y-108401000D01*
X114380146Y-108425501D01*
X114380148Y-108425501D01*
X114389711Y-108427404D01*
X114389518Y-108428369D01*
X114412985Y-108433037D01*
X114455144Y-108450500D01*
X114455145Y-108450500D01*
X114475097Y-108450500D01*
X114512983Y-108458036D01*
X114555144Y-108475500D01*
X114555145Y-108475500D01*
X114643614Y-108475500D01*
X114643622Y-108475501D01*
X114655145Y-108475501D01*
X114744854Y-108475501D01*
X114744855Y-108475501D01*
X114787016Y-108458037D01*
X114824902Y-108450501D01*
X114844854Y-108450501D01*
X114844855Y-108450501D01*
X114887016Y-108433037D01*
X114910482Y-108428369D01*
X114910290Y-108427404D01*
X114919852Y-108425501D01*
X114919855Y-108425501D01*
X114988547Y-108397047D01*
X115002736Y-108391170D01*
X115021132Y-108372773D01*
X115053257Y-108351309D01*
X115057787Y-108349433D01*
X115065732Y-108346142D01*
X115077736Y-108341170D01*
X115141170Y-108277736D01*
X115141170Y-108277734D01*
X115155094Y-108263811D01*
X115155094Y-108263809D01*
X115289408Y-108129497D01*
X115343925Y-108101720D01*
X115359411Y-108100501D01*
X115394854Y-108100501D01*
X115394855Y-108100501D01*
X115437016Y-108083037D01*
X115460482Y-108078369D01*
X115460290Y-108077404D01*
X115469852Y-108075501D01*
X115469855Y-108075501D01*
X115543540Y-108044979D01*
X115552736Y-108041170D01*
X115552738Y-108041167D01*
X115552740Y-108041167D01*
X115560846Y-108035751D01*
X115561877Y-108037293D01*
X115578261Y-108026307D01*
X115584139Y-108023872D01*
X115588032Y-108022261D01*
X115598268Y-108018020D01*
X115602736Y-108016170D01*
X115666170Y-107952736D01*
X115666170Y-107952734D01*
X115788813Y-107830091D01*
X115789909Y-107828996D01*
X115844426Y-107801219D01*
X115859913Y-107800000D01*
X116142086Y-107800000D01*
X116200277Y-107818907D01*
X116236241Y-107868407D01*
X116236241Y-107929593D01*
X116212090Y-107969003D01*
X115872265Y-108308829D01*
X115872264Y-108308830D01*
X115872263Y-108308829D01*
X115808832Y-108372261D01*
X115808826Y-108372269D01*
X115806101Y-108378851D01*
X115806100Y-108378855D01*
X115774499Y-108455145D01*
X115774499Y-108556377D01*
X115774500Y-108556386D01*
X115774500Y-109043781D01*
X115761181Y-109087688D01*
X115762560Y-109088260D01*
X115754038Y-109108832D01*
X115754037Y-109108831D01*
X115724499Y-109180143D01*
X115723052Y-109187418D01*
X115712381Y-109213179D01*
X115712562Y-109213254D01*
X115708830Y-109222263D01*
X115708830Y-109222264D01*
X115705617Y-109230021D01*
X115705615Y-109230026D01*
X115698685Y-109246754D01*
X115687746Y-109263153D01*
X115689247Y-109264156D01*
X115683829Y-109272264D01*
X115676664Y-109289561D01*
X115676665Y-109289562D01*
X115649498Y-109355145D01*
X115648052Y-109362418D01*
X115637381Y-109388181D01*
X115637561Y-109388256D01*
X115633830Y-109397264D01*
X115629039Y-109408830D01*
X115626397Y-109415209D01*
X115623685Y-109421754D01*
X115602228Y-109453864D01*
X115172265Y-109883828D01*
X115172265Y-109883829D01*
X115172264Y-109883830D01*
X115172263Y-109883829D01*
X115108831Y-109947262D01*
X115108830Y-109947263D01*
X115108830Y-109947264D01*
X115105617Y-109955021D01*
X115105615Y-109955026D01*
X115098685Y-109971753D01*
X115077230Y-110003862D01*
X115058830Y-110022263D01*
X115055566Y-110030144D01*
X115024498Y-110105147D01*
X115022596Y-110114710D01*
X115021630Y-110114517D01*
X115016963Y-110137984D01*
X114999499Y-110180145D01*
X114999499Y-110281377D01*
X114999500Y-110281386D01*
X114999500Y-110447157D01*
X114999499Y-110447171D01*
X114999499Y-110544855D01*
X115016962Y-110587013D01*
X115021630Y-110610482D01*
X115022596Y-110610290D01*
X115024498Y-110619852D01*
X115024499Y-110619854D01*
X115024499Y-110619855D01*
X115025497Y-110622264D01*
X115043080Y-110664713D01*
X115058828Y-110702733D01*
X115058829Y-110702734D01*
X115058830Y-110702736D01*
X115077230Y-110721136D01*
X115098688Y-110753252D01*
X115108828Y-110777733D01*
X115108829Y-110777734D01*
X115108830Y-110777736D01*
X115172264Y-110841170D01*
X115172265Y-110841170D01*
X115183829Y-110852734D01*
X115183830Y-110852736D01*
X115247264Y-110916170D01*
X115269789Y-110925500D01*
X115271724Y-110926301D01*
X115288145Y-110937269D01*
X115289158Y-110935754D01*
X115297261Y-110941168D01*
X115297262Y-110941168D01*
X115297264Y-110941170D01*
X115321748Y-110951311D01*
X115338146Y-110962267D01*
X115339158Y-110960754D01*
X115347264Y-110966170D01*
X115430143Y-111000500D01*
X115439706Y-111002402D01*
X115439513Y-111003367D01*
X115462984Y-111008036D01*
X115465400Y-111009037D01*
X115511924Y-111048775D01*
X115526206Y-111108271D01*
X115502789Y-111164798D01*
X115450619Y-111196765D01*
X115427511Y-111199500D01*
X112504871Y-111199500D01*
X112495165Y-111199023D01*
X112373245Y-111187012D01*
X112354214Y-111183226D01*
X112297930Y-111166152D01*
X112241650Y-111149079D01*
X112223721Y-111141652D01*
X112119984Y-111086203D01*
X112103847Y-111075420D01*
X112103185Y-111074877D01*
X112045745Y-111027736D01*
X112012922Y-111000798D01*
X111999201Y-110987077D01*
X111939688Y-110914562D01*
X111924577Y-110896149D01*
X111913799Y-110880019D01*
X111865944Y-110790491D01*
X111858347Y-110776278D01*
X111850920Y-110758349D01*
X111816771Y-110645778D01*
X111812988Y-110626761D01*
X111801042Y-110505496D01*
X111800977Y-110504833D01*
X111800500Y-110495128D01*
X111800500Y-109897645D01*
X111768478Y-109695470D01*
X111763807Y-109681093D01*
X111705220Y-109500781D01*
X111612287Y-109318390D01*
X111612285Y-109318386D01*
X111491970Y-109152786D01*
X111491968Y-109152784D01*
X111491966Y-109152781D01*
X111347219Y-109008034D01*
X111347215Y-109008031D01*
X111347213Y-109008029D01*
X111181613Y-108887714D01*
X111181609Y-108887712D01*
X110999219Y-108794780D01*
X110804529Y-108731521D01*
X110602354Y-108699500D01*
X110602351Y-108699500D01*
X110539562Y-108699500D01*
X103599000Y-108699500D01*
X103540809Y-108680593D01*
X103504845Y-108631093D01*
X103500000Y-108600500D01*
X103500000Y-107899000D01*
X103518907Y-107840809D01*
X103568407Y-107804845D01*
X103599000Y-107800000D01*
X111465598Y-107800000D01*
X111523789Y-107818907D01*
G37*
%TD.AperFunction*%
%TA.AperFunction,Conductor*%
G36*
X123148500Y-107548952D02*
G01*
X123159011Y-107555021D01*
X123235438Y-107575500D01*
X123235441Y-107575500D01*
X123238714Y-107576377D01*
X123283095Y-107602000D01*
X125245504Y-109564409D01*
X125273281Y-109618926D01*
X125274500Y-109634413D01*
X125274500Y-109872157D01*
X125274499Y-109872171D01*
X125274499Y-109969855D01*
X125290921Y-110009501D01*
X125308830Y-110052736D01*
X125314246Y-110060842D01*
X125312731Y-110061853D01*
X125323687Y-110078250D01*
X125337561Y-110111744D01*
X125337379Y-110111818D01*
X125348052Y-110137582D01*
X125349499Y-110144856D01*
X125364117Y-110180146D01*
X125387561Y-110236744D01*
X125387379Y-110236818D01*
X125398052Y-110262582D01*
X125399498Y-110269854D01*
X125418609Y-110315990D01*
X125433828Y-110352733D01*
X125433829Y-110352734D01*
X125433830Y-110352736D01*
X125497264Y-110416170D01*
X125497265Y-110416170D01*
X125586591Y-110505496D01*
X125614368Y-110560013D01*
X125604797Y-110620445D01*
X125561532Y-110663710D01*
X125516587Y-110674500D01*
X125485435Y-110674500D01*
X125409011Y-110694978D01*
X125409007Y-110694980D01*
X125340491Y-110734538D01*
X125284538Y-110790491D01*
X125244980Y-110859007D01*
X125244978Y-110859011D01*
X125224500Y-110935435D01*
X125224500Y-110935437D01*
X125224500Y-110935438D01*
X125224500Y-111014562D01*
X125240661Y-111074877D01*
X125237460Y-111135978D01*
X125198955Y-111183528D01*
X125145035Y-111199500D01*
X118153279Y-111199500D01*
X118095088Y-111180593D01*
X118059124Y-111131093D01*
X118059124Y-111069907D01*
X118067540Y-111051002D01*
X118076614Y-111035288D01*
X118100500Y-110946144D01*
X118100500Y-110909412D01*
X118119407Y-110851221D01*
X118129496Y-110839409D01*
X118613809Y-110355095D01*
X118627734Y-110341170D01*
X118627736Y-110341170D01*
X118691170Y-110277736D01*
X118709414Y-110233690D01*
X118725500Y-110194856D01*
X118725500Y-110181219D01*
X118738819Y-110137315D01*
X118737439Y-110136744D01*
X118760883Y-110080145D01*
X118766953Y-110065491D01*
X118768988Y-110060575D01*
X118790446Y-110028459D01*
X118791170Y-110027736D01*
X118810883Y-109980145D01*
X118818988Y-109960575D01*
X118840446Y-109928459D01*
X118841170Y-109927736D01*
X118861564Y-109878500D01*
X118875501Y-109844854D01*
X118875501Y-109831217D01*
X118888819Y-109787318D01*
X118887438Y-109786746D01*
X118891170Y-109777736D01*
X118914147Y-109722264D01*
X118918988Y-109710576D01*
X118940451Y-109678454D01*
X118941170Y-109677736D01*
X118942009Y-109675712D01*
X118960883Y-109630145D01*
X118965530Y-109618926D01*
X118975501Y-109594854D01*
X118975501Y-109581217D01*
X118988818Y-109537315D01*
X118987438Y-109536744D01*
X118991168Y-109527737D01*
X118991170Y-109527736D01*
X119009469Y-109483557D01*
X119018993Y-109460564D01*
X119040450Y-109428455D01*
X119041170Y-109427736D01*
X119059062Y-109384540D01*
X119066745Y-109365992D01*
X119067135Y-109365048D01*
X119068986Y-109360581D01*
X119090446Y-109328458D01*
X120177734Y-108241170D01*
X120177736Y-108241170D01*
X120241170Y-108177736D01*
X120268990Y-108110569D01*
X120290451Y-108078454D01*
X120291170Y-108077736D01*
X120300527Y-108055145D01*
X120308203Y-108036615D01*
X120347939Y-107990089D01*
X120399667Y-107975500D01*
X120471142Y-107975500D01*
X120471144Y-107975500D01*
X120560288Y-107951614D01*
X120640212Y-107905469D01*
X120705469Y-107840212D01*
X120705472Y-107840207D01*
X120706604Y-107838733D01*
X120707700Y-107837979D01*
X120710057Y-107835623D01*
X120710493Y-107836059D01*
X120757028Y-107804077D01*
X120785146Y-107800000D01*
X121525500Y-107800000D01*
X121583691Y-107818907D01*
X121619655Y-107868407D01*
X121624500Y-107899000D01*
X121624500Y-108740586D01*
X121605593Y-108798777D01*
X121595504Y-108810590D01*
X121032708Y-109373386D01*
X120978191Y-109401163D01*
X120917759Y-109391592D01*
X120874494Y-109348327D01*
X120867078Y-109329006D01*
X120855021Y-109284011D01*
X120855019Y-109284007D01*
X120823848Y-109230018D01*
X120815460Y-109215489D01*
X120759511Y-109159540D01*
X120749668Y-109153857D01*
X120690992Y-109119980D01*
X120690988Y-109119978D01*
X120614564Y-109099500D01*
X120614562Y-109099500D01*
X120535438Y-109099500D01*
X120535435Y-109099500D01*
X120459011Y-109119978D01*
X120459007Y-109119980D01*
X120390491Y-109159538D01*
X120334538Y-109215491D01*
X120294980Y-109284007D01*
X120294979Y-109284010D01*
X120294037Y-109287525D01*
X120292619Y-109289707D01*
X120292497Y-109290003D01*
X120292442Y-109289980D01*
X120260709Y-109338837D01*
X120203586Y-109360760D01*
X120172793Y-109357522D01*
X120142853Y-109349500D01*
X120057147Y-109349500D01*
X119974362Y-109371682D01*
X119900138Y-109414535D01*
X119839535Y-109475138D01*
X119796682Y-109549362D01*
X119774500Y-109632147D01*
X119774500Y-109717853D01*
X119796682Y-109800638D01*
X119839535Y-109874862D01*
X119900138Y-109935465D01*
X119974362Y-109978318D01*
X120057147Y-110000500D01*
X120057154Y-110000500D01*
X120058139Y-110000630D01*
X120058786Y-110000938D01*
X120063415Y-110002179D01*
X120063185Y-110003036D01*
X120113366Y-110026966D01*
X120142567Y-110080734D01*
X120140853Y-110124406D01*
X120124500Y-110185437D01*
X120124500Y-110264564D01*
X120144978Y-110340988D01*
X120144980Y-110340992D01*
X120182596Y-110406144D01*
X120184540Y-110409511D01*
X120240489Y-110465460D01*
X120254217Y-110473386D01*
X120309007Y-110505019D01*
X120309011Y-110505021D01*
X120385435Y-110525499D01*
X120385437Y-110525500D01*
X120385438Y-110525500D01*
X120464563Y-110525500D01*
X120464563Y-110525499D01*
X120540989Y-110505021D01*
X120609511Y-110465460D01*
X120665460Y-110409511D01*
X120705021Y-110340989D01*
X120709390Y-110324680D01*
X120742712Y-110273366D01*
X120750019Y-110267984D01*
X120752731Y-110266172D01*
X120752736Y-110266170D01*
X120752739Y-110266166D01*
X120760851Y-110260747D01*
X120761874Y-110262278D01*
X120778277Y-110251301D01*
X120780234Y-110250491D01*
X120795637Y-110244110D01*
X120802736Y-110241170D01*
X120866170Y-110177736D01*
X120866170Y-110177734D01*
X121279048Y-109764856D01*
X121765500Y-109764856D01*
X121765500Y-109857144D01*
X121789386Y-109946287D01*
X121789387Y-109946290D01*
X121833251Y-110022264D01*
X121835531Y-110026212D01*
X121900788Y-110091469D01*
X121980712Y-110137614D01*
X122069856Y-110161500D01*
X122069858Y-110161500D01*
X122162142Y-110161500D01*
X122162144Y-110161500D01*
X122251288Y-110137614D01*
X122331212Y-110091469D01*
X122396469Y-110026212D01*
X122442614Y-109946288D01*
X122442614Y-109946285D01*
X122445096Y-109940296D01*
X122446237Y-109940768D01*
X122475899Y-109895078D01*
X122533017Y-109873142D01*
X122563837Y-109876379D01*
X122564710Y-109876612D01*
X122564712Y-109876614D01*
X122653856Y-109900500D01*
X122653858Y-109900500D01*
X122746142Y-109900500D01*
X122746144Y-109900500D01*
X122835288Y-109876614D01*
X122837046Y-109875599D01*
X122838470Y-109875296D01*
X122841286Y-109874130D01*
X122841501Y-109874651D01*
X122896893Y-109862872D01*
X122952791Y-109887754D01*
X122956557Y-109891327D01*
X122960438Y-109895208D01*
X122960440Y-109895211D01*
X123016389Y-109951160D01*
X123023085Y-109955026D01*
X123084907Y-109990719D01*
X123084911Y-109990721D01*
X123161335Y-110011199D01*
X123161337Y-110011200D01*
X123161338Y-110011200D01*
X123240463Y-110011200D01*
X123240463Y-110011199D01*
X123316889Y-109990721D01*
X123385411Y-109951160D01*
X123441360Y-109895211D01*
X123480921Y-109826689D01*
X123501400Y-109750262D01*
X123501400Y-109671138D01*
X123480921Y-109594711D01*
X123475567Y-109585438D01*
X123449003Y-109539427D01*
X123441360Y-109526189D01*
X123385411Y-109470240D01*
X123385408Y-109470238D01*
X123316892Y-109430680D01*
X123316888Y-109430678D01*
X123240464Y-109410200D01*
X123240462Y-109410200D01*
X123161338Y-109410200D01*
X123115783Y-109422406D01*
X123054682Y-109419203D01*
X123007132Y-109380698D01*
X123004425Y-109376280D01*
X122986281Y-109344854D01*
X122980469Y-109334788D01*
X122915212Y-109269531D01*
X122915056Y-109269441D01*
X122835290Y-109223387D01*
X122835289Y-109223386D01*
X122835288Y-109223386D01*
X122746144Y-109199500D01*
X122653856Y-109199500D01*
X122564712Y-109223386D01*
X122564711Y-109223386D01*
X122564709Y-109223387D01*
X122484790Y-109269529D01*
X122419529Y-109334790D01*
X122373387Y-109414710D01*
X122370904Y-109420704D01*
X122369765Y-109420232D01*
X122340085Y-109465932D01*
X122282963Y-109487857D01*
X122252163Y-109484620D01*
X122195510Y-109469440D01*
X122162144Y-109460500D01*
X122069856Y-109460500D01*
X121980712Y-109484386D01*
X121980711Y-109484386D01*
X121980709Y-109484387D01*
X121900790Y-109530529D01*
X121835529Y-109595790D01*
X121789387Y-109675709D01*
X121789386Y-109675711D01*
X121789386Y-109675712D01*
X121765500Y-109764856D01*
X121279048Y-109764856D01*
X121977734Y-109066170D01*
X121977736Y-109066170D01*
X122041170Y-109002736D01*
X122059061Y-108959541D01*
X122059068Y-108959544D01*
X122059072Y-108959515D01*
X122059637Y-108958149D01*
X122099387Y-108911638D01*
X122158886Y-108897374D01*
X122215407Y-108920806D01*
X122221078Y-108926049D01*
X122236989Y-108941960D01*
X122236991Y-108941961D01*
X122305507Y-108981519D01*
X122305511Y-108981521D01*
X122381935Y-109001999D01*
X122381937Y-109002000D01*
X122381938Y-109002000D01*
X122461063Y-109002000D01*
X122461063Y-109001999D01*
X122537489Y-108981521D01*
X122606011Y-108941960D01*
X122661960Y-108886011D01*
X122701521Y-108817489D01*
X122722000Y-108741062D01*
X122722000Y-108661938D01*
X122701521Y-108585511D01*
X122701132Y-108584838D01*
X122666874Y-108525500D01*
X122661960Y-108516989D01*
X122606011Y-108461040D01*
X122606008Y-108461038D01*
X122537492Y-108421480D01*
X122537488Y-108421478D01*
X122461064Y-108401000D01*
X122461062Y-108401000D01*
X122381938Y-108401000D01*
X122381935Y-108401000D01*
X122305511Y-108421478D01*
X122305507Y-108421480D01*
X122236985Y-108461041D01*
X122234759Y-108462750D01*
X122232866Y-108463419D01*
X122231370Y-108464284D01*
X122231209Y-108464006D01*
X122177081Y-108483168D01*
X122118417Y-108465785D01*
X122081175Y-108417239D01*
X122075500Y-108384202D01*
X122075500Y-107899000D01*
X122094407Y-107840809D01*
X122143907Y-107804845D01*
X122174500Y-107800000D01*
X122999999Y-107800000D01*
X123000000Y-107800000D01*
X123000000Y-107634689D01*
X123018907Y-107576498D01*
X123068407Y-107540534D01*
X123129593Y-107540534D01*
X123148500Y-107548952D01*
G37*
%TD.AperFunction*%
%TA.AperFunction,Conductor*%
G36*
X133984277Y-110744407D02*
G01*
X134020241Y-110793907D01*
X134023459Y-110828949D01*
X134024500Y-110828949D01*
X134024500Y-110914564D01*
X134044978Y-110990988D01*
X134044980Y-110990992D01*
X134079626Y-111051000D01*
X134092348Y-111110848D01*
X134067462Y-111166744D01*
X134014474Y-111197336D01*
X133993890Y-111199500D01*
X130454963Y-111199500D01*
X130396772Y-111180593D01*
X130360808Y-111131093D01*
X130359336Y-111074877D01*
X130375498Y-111014562D01*
X130375498Y-110935438D01*
X130355019Y-110859011D01*
X130353340Y-110852744D01*
X130355608Y-110852136D01*
X130351618Y-110801381D01*
X130383592Y-110749215D01*
X130440121Y-110725805D01*
X130447881Y-110725500D01*
X133926086Y-110725500D01*
X133984277Y-110744407D01*
G37*
%TD.AperFunction*%
%TA.AperFunction,Conductor*%
G36*
X144159191Y-88819407D02*
G01*
X144195155Y-88868907D01*
X144200000Y-88899500D01*
X144200000Y-90300000D01*
X148558122Y-90300000D01*
X148616313Y-90318907D01*
X148652277Y-90368407D01*
X148694780Y-90499219D01*
X148787712Y-90681609D01*
X148787714Y-90681613D01*
X148908029Y-90847213D01*
X148908031Y-90847215D01*
X148908034Y-90847219D01*
X149052781Y-90991966D01*
X149052784Y-90991968D01*
X149052786Y-90991970D01*
X149218386Y-91112285D01*
X149218390Y-91112287D01*
X149400781Y-91205220D01*
X149595466Y-91268477D01*
X149595467Y-91268477D01*
X149595470Y-91268478D01*
X149797646Y-91300500D01*
X149797649Y-91300500D01*
X149860438Y-91300500D01*
X155495129Y-91300500D01*
X155504834Y-91300977D01*
X155516667Y-91302142D01*
X155626761Y-91312988D01*
X155645778Y-91316771D01*
X155758352Y-91350921D01*
X155776279Y-91358347D01*
X155880019Y-91413799D01*
X155896152Y-91424579D01*
X155987077Y-91499201D01*
X156000798Y-91512922D01*
X156075420Y-91603847D01*
X156086203Y-91619984D01*
X156141652Y-91723721D01*
X156149079Y-91741650D01*
X156156227Y-91765212D01*
X156181920Y-91849908D01*
X156183226Y-91854211D01*
X156187011Y-91873244D01*
X156192187Y-91925780D01*
X156199023Y-91995165D01*
X156199500Y-92004871D01*
X156199500Y-107995128D01*
X156199023Y-108004834D01*
X156187012Y-108126754D01*
X156183226Y-108145788D01*
X156149079Y-108258349D01*
X156141652Y-108276278D01*
X156086203Y-108380015D01*
X156075420Y-108396152D01*
X156000798Y-108487077D01*
X155987077Y-108500798D01*
X155896152Y-108575420D01*
X155880015Y-108586203D01*
X155776278Y-108641652D01*
X155758349Y-108649079D01*
X155645788Y-108683226D01*
X155626754Y-108687012D01*
X155504835Y-108699023D01*
X155495129Y-108699500D01*
X149797646Y-108699500D01*
X149595470Y-108731521D01*
X149400780Y-108794780D01*
X149218390Y-108887712D01*
X149218386Y-108887714D01*
X149052786Y-109008029D01*
X148908029Y-109152786D01*
X148787714Y-109318386D01*
X148787712Y-109318390D01*
X148694780Y-109500780D01*
X148678995Y-109549362D01*
X148656393Y-109618926D01*
X148652277Y-109631593D01*
X148616313Y-109681093D01*
X148558122Y-109700000D01*
X144200000Y-109700000D01*
X144200000Y-109700001D01*
X144200000Y-111100500D01*
X144181093Y-111158691D01*
X144131593Y-111194655D01*
X144101000Y-111199500D01*
X140281110Y-111199500D01*
X140222919Y-111180593D01*
X140186955Y-111131093D01*
X140186955Y-111069907D01*
X140195374Y-111051000D01*
X140220178Y-111008037D01*
X140230021Y-110990989D01*
X140250500Y-110914562D01*
X140250500Y-110835438D01*
X140230021Y-110759011D01*
X140227045Y-110753857D01*
X140190461Y-110690491D01*
X140190460Y-110690489D01*
X140134511Y-110634540D01*
X140134508Y-110634538D01*
X140093282Y-110610736D01*
X140052341Y-110565267D01*
X140045945Y-110504416D01*
X140076538Y-110451428D01*
X140093282Y-110439264D01*
X140118853Y-110424500D01*
X140134511Y-110415460D01*
X140190460Y-110359511D01*
X140230021Y-110290989D01*
X140250500Y-110214562D01*
X140250500Y-110135438D01*
X140230021Y-110059011D01*
X140209333Y-110023179D01*
X140196611Y-109963333D01*
X140221496Y-109907437D01*
X140245564Y-109887945D01*
X140284511Y-109865460D01*
X140340460Y-109809511D01*
X140380021Y-109740989D01*
X140400500Y-109664562D01*
X140400500Y-109585438D01*
X140380021Y-109509011D01*
X140375269Y-109500781D01*
X140342980Y-109444854D01*
X140340460Y-109440489D01*
X140284511Y-109384540D01*
X140263252Y-109372266D01*
X140249999Y-109364614D01*
X140239406Y-109352849D01*
X140225723Y-109344892D01*
X140220917Y-109332314D01*
X140209058Y-109319143D01*
X140201011Y-109288919D01*
X140200500Y-109283907D01*
X140200500Y-109210438D01*
X140185339Y-109153856D01*
X141049500Y-109153856D01*
X141049500Y-109246144D01*
X141073252Y-109334788D01*
X141073387Y-109335290D01*
X141115849Y-109408836D01*
X141119531Y-109415212D01*
X141184788Y-109480469D01*
X141264712Y-109526614D01*
X141353856Y-109550500D01*
X141353858Y-109550500D01*
X141446142Y-109550500D01*
X141446144Y-109550500D01*
X141535288Y-109526614D01*
X141615212Y-109480469D01*
X141680469Y-109415212D01*
X141726614Y-109335288D01*
X141750500Y-109246144D01*
X141750500Y-109153856D01*
X141726614Y-109064712D01*
X141680469Y-108984788D01*
X141615212Y-108919531D01*
X141601541Y-108911638D01*
X141535290Y-108873387D01*
X141535289Y-108873386D01*
X141535288Y-108873386D01*
X141446144Y-108849500D01*
X141353856Y-108849500D01*
X141264712Y-108873386D01*
X141264711Y-108873386D01*
X141264709Y-108873387D01*
X141184790Y-108919529D01*
X141119529Y-108984790D01*
X141073387Y-109064709D01*
X141073386Y-109064711D01*
X141073386Y-109064712D01*
X141049500Y-109153856D01*
X140185339Y-109153856D01*
X140180021Y-109134011D01*
X140180019Y-109134008D01*
X140180019Y-109134006D01*
X140140461Y-109065491D01*
X140140460Y-109065489D01*
X140084511Y-109009540D01*
X140081894Y-109008029D01*
X140015992Y-108969980D01*
X140015987Y-108969978D01*
X140002237Y-108966293D01*
X139950925Y-108932967D01*
X139929000Y-108875845D01*
X139944839Y-108816745D01*
X139957856Y-108800669D01*
X141412031Y-107346496D01*
X141466548Y-107318719D01*
X141482035Y-107317500D01*
X153187056Y-107317500D01*
X153245247Y-107336407D01*
X153257053Y-107346490D01*
X153315238Y-107404675D01*
X153337233Y-107417374D01*
X153400858Y-107454108D01*
X153400856Y-107454108D01*
X153400860Y-107454109D01*
X153400862Y-107454110D01*
X153496365Y-107479700D01*
X153496367Y-107479700D01*
X153595233Y-107479700D01*
X153595235Y-107479700D01*
X153690738Y-107454110D01*
X153690740Y-107454108D01*
X153690742Y-107454108D01*
X153716177Y-107439422D01*
X153776362Y-107404675D01*
X153846275Y-107334762D01*
X153889170Y-107260466D01*
X153895708Y-107249142D01*
X153895708Y-107249140D01*
X153895710Y-107249138D01*
X153921300Y-107153635D01*
X153921300Y-107054765D01*
X153895710Y-106959262D01*
X153895708Y-106959259D01*
X153895708Y-106959257D01*
X153853618Y-106886357D01*
X153846275Y-106873638D01*
X153776362Y-106803725D01*
X153776359Y-106803723D01*
X153690741Y-106754291D01*
X153690742Y-106754291D01*
X153687941Y-106753540D01*
X153667315Y-106748013D01*
X153639391Y-106734242D01*
X153639082Y-106734779D01*
X153559242Y-106688683D01*
X153559244Y-106688683D01*
X153527121Y-106680076D01*
X153476453Y-106666500D01*
X141349053Y-106666500D01*
X141263347Y-106666500D01*
X141180561Y-106688682D01*
X141106338Y-106731535D01*
X141070363Y-106767509D01*
X141070360Y-106767512D01*
X138639369Y-109198504D01*
X138584852Y-109226281D01*
X138569365Y-109227500D01*
X138538735Y-109227500D01*
X138480544Y-109208593D01*
X138444580Y-109159093D01*
X138444580Y-109097907D01*
X138468731Y-109058496D01*
X139072559Y-108454668D01*
X140889025Y-106638200D01*
X140933405Y-106612579D01*
X140954938Y-106606810D01*
X141040562Y-106557375D01*
X141110475Y-106487462D01*
X141152189Y-106415212D01*
X141159908Y-106401842D01*
X141159908Y-106401840D01*
X141159910Y-106401838D01*
X141185500Y-106306335D01*
X141185500Y-106207465D01*
X141159910Y-106111962D01*
X141159908Y-106111959D01*
X141159908Y-106111957D01*
X141114962Y-106034109D01*
X141110475Y-106026338D01*
X141040562Y-105956425D01*
X141028568Y-105949500D01*
X140949319Y-105903745D01*
X140950636Y-105901462D01*
X140912626Y-105868975D01*
X140898364Y-105809475D01*
X140921799Y-105752956D01*
X140927053Y-105747274D01*
X141284232Y-105390096D01*
X141338748Y-105362319D01*
X141354235Y-105361100D01*
X144130651Y-105361100D01*
X144130653Y-105361100D01*
X144213439Y-105338918D01*
X144213441Y-105338916D01*
X144213443Y-105338916D01*
X144287657Y-105296068D01*
X144287657Y-105296067D01*
X144287662Y-105296065D01*
X145412059Y-104171666D01*
X145412062Y-104171665D01*
X145472665Y-104111062D01*
X145504949Y-104055145D01*
X145515518Y-104036839D01*
X145537701Y-103954053D01*
X145537701Y-103868347D01*
X145537701Y-103862285D01*
X145537700Y-103862267D01*
X145537700Y-95307948D01*
X145537700Y-95307947D01*
X145515518Y-95225162D01*
X145472665Y-95150938D01*
X145472662Y-95150935D01*
X145438393Y-95116665D01*
X149382100Y-95116665D01*
X149382100Y-95215535D01*
X149384090Y-95222960D01*
X149407691Y-95311042D01*
X149457123Y-95396659D01*
X149457125Y-95396662D01*
X149527038Y-95466575D01*
X149527040Y-95466576D01*
X149612658Y-95516008D01*
X149612656Y-95516008D01*
X149612660Y-95516009D01*
X149612662Y-95516010D01*
X149708165Y-95541600D01*
X149708167Y-95541600D01*
X149807033Y-95541600D01*
X149807035Y-95541600D01*
X149902538Y-95516010D01*
X149902540Y-95516008D01*
X149902542Y-95516008D01*
X149929404Y-95500499D01*
X149988162Y-95466575D01*
X150058075Y-95396662D01*
X150107510Y-95311038D01*
X150133100Y-95215535D01*
X150133100Y-95116665D01*
X150107510Y-95021162D01*
X150107508Y-95021159D01*
X150107508Y-95021157D01*
X150058076Y-94935540D01*
X150058075Y-94935538D01*
X149988162Y-94865625D01*
X149988159Y-94865623D01*
X149902541Y-94816191D01*
X149902543Y-94816191D01*
X149865485Y-94806261D01*
X149807035Y-94790600D01*
X149708165Y-94790600D01*
X149649714Y-94806261D01*
X149612657Y-94816191D01*
X149527040Y-94865623D01*
X149457123Y-94935540D01*
X149407691Y-95021157D01*
X149403304Y-95037531D01*
X149382100Y-95116665D01*
X145438393Y-95116665D01*
X145412062Y-95090334D01*
X145412062Y-95090335D01*
X143504992Y-93183265D01*
X149382100Y-93183265D01*
X149382100Y-93282135D01*
X149404435Y-93365489D01*
X149407691Y-93377642D01*
X149452986Y-93456093D01*
X149457125Y-93463262D01*
X149527038Y-93533175D01*
X149527040Y-93533176D01*
X149612658Y-93582608D01*
X149612656Y-93582608D01*
X149612660Y-93582609D01*
X149612662Y-93582610D01*
X149708165Y-93608200D01*
X149708167Y-93608200D01*
X149807033Y-93608200D01*
X149807035Y-93608200D01*
X149902538Y-93582610D01*
X149902540Y-93582608D01*
X149902542Y-93582608D01*
X149935509Y-93563574D01*
X149988162Y-93533175D01*
X150058075Y-93463262D01*
X150093396Y-93402084D01*
X150107508Y-93377642D01*
X150107508Y-93377640D01*
X150107510Y-93377638D01*
X150133100Y-93282135D01*
X150133100Y-93183265D01*
X150107510Y-93087762D01*
X150107508Y-93087759D01*
X150107508Y-93087757D01*
X150058076Y-93002140D01*
X150058075Y-93002138D01*
X149988162Y-92932225D01*
X149988159Y-92932223D01*
X149902541Y-92882791D01*
X149902543Y-92882791D01*
X149865485Y-92872861D01*
X149807035Y-92857200D01*
X149708165Y-92857200D01*
X149649714Y-92872861D01*
X149612657Y-92882791D01*
X149527040Y-92932223D01*
X149457123Y-93002140D01*
X149407691Y-93087757D01*
X149403533Y-93103276D01*
X149382100Y-93183265D01*
X143504992Y-93183265D01*
X143100971Y-92779244D01*
X143073194Y-92724727D01*
X143082765Y-92664295D01*
X143121475Y-92623503D01*
X143152712Y-92605469D01*
X143217969Y-92540212D01*
X143264114Y-92460288D01*
X143288000Y-92371144D01*
X143288000Y-92278856D01*
X143264114Y-92189712D01*
X143217969Y-92109788D01*
X143152712Y-92044531D01*
X143152709Y-92044529D01*
X143081532Y-92003434D01*
X143061029Y-91987702D01*
X141754936Y-90681609D01*
X140432262Y-89358935D01*
X140432259Y-89358933D01*
X140432258Y-89358932D01*
X140432257Y-89358931D01*
X140358042Y-89316083D01*
X140358044Y-89316083D01*
X140325921Y-89307476D01*
X140275253Y-89293900D01*
X140275251Y-89293900D01*
X137900649Y-89293900D01*
X137842458Y-89274993D01*
X137806494Y-89225493D01*
X137805022Y-89169277D01*
X137806354Y-89164307D01*
X137825500Y-89092853D01*
X137825500Y-89007147D01*
X137803521Y-88925120D01*
X137806723Y-88864022D01*
X137845229Y-88816472D01*
X137899148Y-88800500D01*
X144101000Y-88800500D01*
X144159191Y-88819407D01*
G37*
%TD.AperFunction*%
%TA.AperFunction,Conductor*%
G36*
X123407172Y-106119407D02*
G01*
X123443136Y-106168907D01*
X123443136Y-106230093D01*
X123434718Y-106249000D01*
X123408990Y-106293560D01*
X123395246Y-106344855D01*
X123383400Y-106389065D01*
X123383400Y-106487935D01*
X123404106Y-106565212D01*
X123408991Y-106583442D01*
X123451574Y-106657196D01*
X123458425Y-106669062D01*
X123528338Y-106738975D01*
X123613962Y-106788410D01*
X123635494Y-106794179D01*
X123679874Y-106819801D01*
X126673538Y-109813465D01*
X126673540Y-109813466D01*
X126673541Y-109813467D01*
X126673542Y-109813468D01*
X126747757Y-109856316D01*
X126747755Y-109856316D01*
X126747759Y-109856317D01*
X126747761Y-109856318D01*
X126830547Y-109878500D01*
X126830549Y-109878500D01*
X135167158Y-109878500D01*
X135225349Y-109897407D01*
X135261313Y-109946907D01*
X135261313Y-110008093D01*
X135252895Y-110026997D01*
X135246396Y-110038255D01*
X135219978Y-110084011D01*
X135199500Y-110160435D01*
X135199500Y-110175499D01*
X135180593Y-110233690D01*
X135131093Y-110269654D01*
X135100500Y-110274499D01*
X135093622Y-110274499D01*
X135093614Y-110274500D01*
X128379298Y-110274500D01*
X128379277Y-110274498D01*
X128369844Y-110274498D01*
X128310037Y-110274500D01*
X128280143Y-110274500D01*
X128280140Y-110274500D01*
X128280134Y-110274501D01*
X128237981Y-110291963D01*
X128200095Y-110299500D01*
X127330144Y-110299500D01*
X127287983Y-110316964D01*
X127264513Y-110321632D01*
X127264706Y-110322598D01*
X127255145Y-110324499D01*
X127172263Y-110358830D01*
X127164153Y-110364249D01*
X127163150Y-110362748D01*
X127146754Y-110373684D01*
X127122269Y-110383827D01*
X127122265Y-110383829D01*
X127122264Y-110383830D01*
X127122262Y-110383831D01*
X127114159Y-110389246D01*
X127113156Y-110387744D01*
X127096748Y-110398688D01*
X127072264Y-110408829D01*
X127008829Y-110472264D01*
X127008828Y-110472266D01*
X126833095Y-110647998D01*
X126788717Y-110673620D01*
X126709010Y-110694979D01*
X126709007Y-110694980D01*
X126640491Y-110734538D01*
X126584534Y-110790495D01*
X126580591Y-110795635D01*
X126579041Y-110794446D01*
X126540264Y-110829359D01*
X126479414Y-110835753D01*
X126426427Y-110805159D01*
X126419472Y-110795586D01*
X126419409Y-110795635D01*
X126415462Y-110790490D01*
X126359515Y-110734543D01*
X126354370Y-110730596D01*
X126355189Y-110729528D01*
X126318972Y-110689296D01*
X126317953Y-110686923D01*
X126291170Y-110622264D01*
X126285754Y-110614158D01*
X126287267Y-110613146D01*
X126276311Y-110596748D01*
X126266170Y-110572264D01*
X126266168Y-110572262D01*
X126266168Y-110572261D01*
X126260754Y-110564158D01*
X126262267Y-110563146D01*
X126251311Y-110546748D01*
X126248335Y-110539562D01*
X126241170Y-110522264D01*
X126177736Y-110458830D01*
X126177734Y-110458829D01*
X125865449Y-110146544D01*
X125843989Y-110114425D01*
X125812439Y-110038255D01*
X125812619Y-110038180D01*
X125801945Y-110012408D01*
X125800500Y-110005143D01*
X125766170Y-109922264D01*
X125760754Y-109914158D01*
X125762267Y-109913146D01*
X125751311Y-109896748D01*
X125741170Y-109872264D01*
X125741169Y-109872263D01*
X125737438Y-109863254D01*
X125738817Y-109862682D01*
X125725500Y-109818780D01*
X125725500Y-109455143D01*
X125691171Y-109372266D01*
X125691170Y-109372265D01*
X125691170Y-109372264D01*
X125627736Y-109308830D01*
X125627734Y-109308829D01*
X123602000Y-107283095D01*
X123576377Y-107238714D01*
X123575500Y-107235441D01*
X123575500Y-107235438D01*
X123555021Y-107159011D01*
X123555019Y-107159008D01*
X123555019Y-107159006D01*
X123515461Y-107090491D01*
X123515460Y-107090489D01*
X123459511Y-107034540D01*
X123455524Y-107032238D01*
X123390992Y-106994980D01*
X123390988Y-106994978D01*
X123314564Y-106974500D01*
X123314562Y-106974500D01*
X123235438Y-106974500D01*
X123235435Y-106974500D01*
X123159011Y-106994978D01*
X123159007Y-106994980D01*
X123148497Y-107001048D01*
X123088649Y-107013767D01*
X123032754Y-106988879D01*
X123002163Y-106935890D01*
X123000000Y-106915310D01*
X123000000Y-106199500D01*
X123018907Y-106141309D01*
X123068407Y-106105345D01*
X123099000Y-106100500D01*
X123348981Y-106100500D01*
X123407172Y-106119407D01*
G37*
%TD.AperFunction*%
%TA.AperFunction,Conductor*%
G36*
X140038656Y-90639307D02*
G01*
X140050469Y-90649396D01*
X144857704Y-95456631D01*
X144885481Y-95511148D01*
X144886700Y-95526635D01*
X144886700Y-102353238D01*
X144867793Y-102411429D01*
X144818293Y-102447393D01*
X144762078Y-102448865D01*
X144677895Y-102426309D01*
X144671144Y-102424500D01*
X144578856Y-102424500D01*
X144489712Y-102448386D01*
X144489711Y-102448386D01*
X144489709Y-102448387D01*
X144409790Y-102494529D01*
X144344529Y-102559790D01*
X144298385Y-102639712D01*
X144298383Y-102639716D01*
X144298184Y-102640462D01*
X144297883Y-102640924D01*
X144295904Y-102645704D01*
X144295017Y-102645336D01*
X144264853Y-102691772D01*
X144207729Y-102713691D01*
X144148631Y-102697847D01*
X144132557Y-102684830D01*
X141694578Y-100246851D01*
X141683474Y-100225058D01*
X141669637Y-100204891D01*
X141669816Y-100198251D01*
X141666801Y-100192334D01*
X141670626Y-100168177D01*
X141671286Y-100143727D01*
X141675254Y-100138959D01*
X141676372Y-100131902D01*
X141676412Y-100131856D01*
X142993500Y-100131856D01*
X142993500Y-100224144D01*
X143017386Y-100313288D01*
X143017387Y-100313290D01*
X143049858Y-100369531D01*
X143063531Y-100393212D01*
X143128788Y-100458469D01*
X143208712Y-100504614D01*
X143297856Y-100528500D01*
X143297858Y-100528500D01*
X143390142Y-100528500D01*
X143390144Y-100528500D01*
X143479288Y-100504614D01*
X143559212Y-100458469D01*
X143624469Y-100393212D01*
X143670614Y-100313288D01*
X143694500Y-100224144D01*
X143694500Y-100131856D01*
X143670614Y-100042712D01*
X143624469Y-99962788D01*
X143559212Y-99897531D01*
X143547015Y-99890489D01*
X143479290Y-99851387D01*
X143479289Y-99851386D01*
X143479288Y-99851386D01*
X143390144Y-99827500D01*
X143297856Y-99827500D01*
X143208712Y-99851386D01*
X143208711Y-99851386D01*
X143208709Y-99851387D01*
X143128790Y-99897529D01*
X143063529Y-99962790D01*
X143017387Y-100042709D01*
X143017386Y-100042711D01*
X143017386Y-100042712D01*
X142993500Y-100131856D01*
X141676412Y-100131856D01*
X141708571Y-100095215D01*
X141711741Y-100093039D01*
X141759511Y-100065460D01*
X141815460Y-100009511D01*
X141855021Y-99940989D01*
X141875500Y-99864562D01*
X141875500Y-99785438D01*
X141875500Y-99785091D01*
X141894407Y-99726900D01*
X141943907Y-99690936D01*
X142005093Y-99690936D01*
X142023990Y-99699349D01*
X142068262Y-99724910D01*
X142163765Y-99750500D01*
X142163767Y-99750500D01*
X142262633Y-99750500D01*
X142262635Y-99750500D01*
X142358138Y-99724910D01*
X142358140Y-99724908D01*
X142358142Y-99724908D01*
X142402149Y-99699500D01*
X142443762Y-99675475D01*
X142513675Y-99605562D01*
X142555811Y-99532581D01*
X142563108Y-99519942D01*
X142563108Y-99519940D01*
X142563110Y-99519938D01*
X142588700Y-99424435D01*
X142588700Y-99325565D01*
X142563110Y-99230062D01*
X142563108Y-99230059D01*
X142563108Y-99230057D01*
X142513675Y-99144437D01*
X142492695Y-99123457D01*
X142464919Y-99068940D01*
X142463700Y-99053455D01*
X142463700Y-96818459D01*
X142463701Y-96818450D01*
X142463701Y-96707273D01*
X142438795Y-96647144D01*
X142438795Y-96647143D01*
X142425682Y-96615489D01*
X142425564Y-96615203D01*
X142355097Y-96544736D01*
X142355095Y-96544735D01*
X136621297Y-90810936D01*
X136621122Y-90810863D01*
X136620882Y-90810658D01*
X136613188Y-90805517D01*
X136613796Y-90804606D01*
X136574598Y-90771127D01*
X136560315Y-90711632D01*
X136583730Y-90655104D01*
X136635900Y-90623135D01*
X136659010Y-90620400D01*
X139980465Y-90620400D01*
X140038656Y-90639307D01*
G37*
%TD.AperFunction*%
%TA.AperFunction,Conductor*%
G36*
X125376878Y-98508407D02*
G01*
X125388691Y-98518496D01*
X125639503Y-98769308D01*
X125667280Y-98823825D01*
X125668499Y-98839312D01*
X125668499Y-98897355D01*
X125687797Y-98943942D01*
X125699889Y-98973136D01*
X125702831Y-98980238D01*
X125766264Y-99043670D01*
X125766265Y-99043670D01*
X126409091Y-99686496D01*
X126436868Y-99741013D01*
X126427297Y-99801445D01*
X126384032Y-99844710D01*
X126339087Y-99855500D01*
X126175386Y-99855500D01*
X126175378Y-99855499D01*
X126163855Y-99855499D01*
X126074146Y-99855499D01*
X126033670Y-99872265D01*
X126033669Y-99872265D01*
X125991264Y-99889829D01*
X125927829Y-99953263D01*
X125927830Y-99953264D01*
X125747424Y-100133670D01*
X125692907Y-100161447D01*
X125632475Y-100151876D01*
X125591051Y-100110452D01*
X125590655Y-100110681D01*
X125589801Y-100109202D01*
X125589210Y-100108611D01*
X125588221Y-100106465D01*
X125540538Y-100023877D01*
X125537975Y-100019438D01*
X125468062Y-99949525D01*
X125462206Y-99946144D01*
X125382441Y-99900091D01*
X125382443Y-99900091D01*
X125322430Y-99884011D01*
X125286935Y-99874500D01*
X125188065Y-99874500D01*
X125152570Y-99884011D01*
X125092557Y-99900091D01*
X125006940Y-99949523D01*
X124937023Y-100019440D01*
X124887591Y-100105057D01*
X124880410Y-100131857D01*
X124862000Y-100200565D01*
X124862000Y-100299435D01*
X124870198Y-100330029D01*
X124887591Y-100394942D01*
X124932234Y-100472264D01*
X124937025Y-100480562D01*
X125006938Y-100550475D01*
X125006940Y-100550476D01*
X125098181Y-100603155D01*
X125096981Y-100605231D01*
X125135572Y-100638183D01*
X125149862Y-100697677D01*
X125126453Y-100754207D01*
X125121170Y-100759923D01*
X124846391Y-101034703D01*
X124791874Y-101062481D01*
X124776387Y-101063700D01*
X123099000Y-101063700D01*
X123040809Y-101044793D01*
X123004845Y-100995293D01*
X123000000Y-100964700D01*
X123000000Y-99169900D01*
X123018907Y-99111709D01*
X123068407Y-99075745D01*
X123099000Y-99070900D01*
X124298614Y-99070900D01*
X124298622Y-99070901D01*
X124310145Y-99070901D01*
X124399854Y-99070901D01*
X124399855Y-99070901D01*
X124472067Y-99040989D01*
X124482736Y-99036570D01*
X124546170Y-98973136D01*
X124546170Y-98973134D01*
X124560094Y-98959211D01*
X124560094Y-98959209D01*
X125000809Y-98518496D01*
X125055325Y-98490719D01*
X125070812Y-98489500D01*
X125318687Y-98489500D01*
X125376878Y-98508407D01*
G37*
%TD.AperFunction*%
%TA.AperFunction,Conductor*%
G36*
X126357156Y-89713207D02*
G01*
X126368968Y-89723296D01*
X126525537Y-89879864D01*
X126525542Y-89879868D01*
X126599757Y-89922716D01*
X126599755Y-89922716D01*
X126599759Y-89922717D01*
X126599761Y-89922718D01*
X126682547Y-89944900D01*
X126768253Y-89944900D01*
X127466625Y-89944900D01*
X127524816Y-89963807D01*
X127560780Y-90013307D01*
X127560780Y-90074493D01*
X127524816Y-90123993D01*
X127516126Y-90129636D01*
X127427639Y-90180724D01*
X127357723Y-90250640D01*
X127308291Y-90336257D01*
X127308290Y-90336262D01*
X127282700Y-90431765D01*
X127282700Y-90530635D01*
X127287755Y-90549500D01*
X127308291Y-90626142D01*
X127357650Y-90711632D01*
X127357725Y-90711762D01*
X127427638Y-90781675D01*
X127427640Y-90781676D01*
X127513258Y-90831108D01*
X127513256Y-90831108D01*
X127513260Y-90831109D01*
X127513262Y-90831110D01*
X127608765Y-90856700D01*
X127608767Y-90856700D01*
X127707633Y-90856700D01*
X127707635Y-90856700D01*
X127803138Y-90831110D01*
X127803140Y-90831108D01*
X127803142Y-90831108D01*
X127866051Y-90794787D01*
X127888762Y-90781675D01*
X127958675Y-90711762D01*
X127982845Y-90669898D01*
X128028313Y-90628959D01*
X128068580Y-90620400D01*
X128345519Y-90620400D01*
X128403710Y-90639307D01*
X128439674Y-90688807D01*
X128441146Y-90745022D01*
X128424500Y-90807147D01*
X128424500Y-90892853D01*
X128446682Y-90975638D01*
X128489535Y-91049862D01*
X128550138Y-91110465D01*
X128624362Y-91153318D01*
X128707147Y-91175500D01*
X128707149Y-91175500D01*
X128792851Y-91175500D01*
X128792853Y-91175500D01*
X128875638Y-91153318D01*
X128949862Y-91110465D01*
X129010465Y-91049862D01*
X129053318Y-90975638D01*
X129075500Y-90892853D01*
X129075500Y-90807147D01*
X129058854Y-90745022D01*
X129062057Y-90683921D01*
X129100562Y-90636371D01*
X129154481Y-90620400D01*
X133767889Y-90620400D01*
X133826080Y-90639307D01*
X133862044Y-90688807D01*
X133862044Y-90749993D01*
X133826080Y-90799493D01*
X133805776Y-90810864D01*
X133805603Y-90810935D01*
X133805602Y-90810935D01*
X133805602Y-90810936D01*
X132273687Y-92342853D01*
X131785636Y-92830904D01*
X131731119Y-92858681D01*
X131715632Y-92859900D01*
X131685965Y-92859900D01*
X131627514Y-92875561D01*
X131590457Y-92885491D01*
X131504840Y-92934923D01*
X131434923Y-93004840D01*
X131385491Y-93090457D01*
X131371727Y-93141827D01*
X131359900Y-93185965D01*
X131359900Y-93284835D01*
X131378834Y-93355496D01*
X131378936Y-93355877D01*
X131375733Y-93416979D01*
X131337228Y-93464528D01*
X131283309Y-93480500D01*
X131118834Y-93480500D01*
X131060643Y-93461593D01*
X131024679Y-93412093D01*
X131024679Y-93350907D01*
X131048828Y-93311498D01*
X131060465Y-93299862D01*
X131103318Y-93225638D01*
X131125500Y-93142853D01*
X131125500Y-93057147D01*
X131103318Y-92974362D01*
X131060465Y-92900138D01*
X130999862Y-92839535D01*
X130925638Y-92796682D01*
X130842853Y-92774500D01*
X130757147Y-92774500D01*
X130692220Y-92791897D01*
X130674362Y-92796682D01*
X130600138Y-92839535D01*
X130539535Y-92900138D01*
X130496680Y-92974365D01*
X130494798Y-92981388D01*
X130494797Y-92981396D01*
X130474500Y-93057147D01*
X130474500Y-93142853D01*
X130496682Y-93225638D01*
X130539535Y-93299862D01*
X130551171Y-93311498D01*
X130578947Y-93366013D01*
X130569376Y-93426445D01*
X130526111Y-93469710D01*
X130481166Y-93480500D01*
X130181524Y-93480500D01*
X130123333Y-93461593D01*
X130087369Y-93412093D01*
X130087369Y-93350907D01*
X130123333Y-93301407D01*
X130132023Y-93295764D01*
X130150952Y-93284835D01*
X130184511Y-93265460D01*
X130240460Y-93209511D01*
X130266982Y-93163574D01*
X130279538Y-93141827D01*
X130279538Y-93141825D01*
X130280021Y-93140989D01*
X130300500Y-93064562D01*
X130300500Y-92985438D01*
X130280021Y-92909011D01*
X130274898Y-92900138D01*
X130240461Y-92840491D01*
X130240460Y-92840489D01*
X130184511Y-92784540D01*
X130184508Y-92784538D01*
X130115992Y-92744980D01*
X130115988Y-92744978D01*
X130039564Y-92724500D01*
X130039562Y-92724500D01*
X129960438Y-92724500D01*
X129960435Y-92724500D01*
X129884011Y-92744978D01*
X129884007Y-92744980D01*
X129815491Y-92784538D01*
X129759538Y-92840491D01*
X129719980Y-92909007D01*
X129719978Y-92909011D01*
X129699500Y-92985435D01*
X129699500Y-93064564D01*
X129719978Y-93140988D01*
X129719980Y-93140992D01*
X129759538Y-93209508D01*
X129759540Y-93209511D01*
X129815489Y-93265460D01*
X129844368Y-93282133D01*
X129867977Y-93295764D01*
X129908917Y-93341234D01*
X129915312Y-93402084D01*
X129884719Y-93455072D01*
X129828824Y-93479958D01*
X129818476Y-93480500D01*
X128904188Y-93480500D01*
X128845997Y-93461593D01*
X128810033Y-93412093D01*
X128810033Y-93350907D01*
X128828039Y-93321523D01*
X128826520Y-93320358D01*
X128830466Y-93315214D01*
X128830469Y-93315212D01*
X128876614Y-93235288D01*
X128900500Y-93146144D01*
X128900500Y-93053856D01*
X128876614Y-92964712D01*
X128830469Y-92884788D01*
X128765212Y-92819531D01*
X128765209Y-92819529D01*
X128765207Y-92819527D01*
X128749114Y-92810236D01*
X128708173Y-92764767D01*
X128701777Y-92703916D01*
X128732370Y-92650928D01*
X128786483Y-92626835D01*
X128786419Y-92626347D01*
X128788068Y-92626129D01*
X128788266Y-92626042D01*
X128789045Y-92626001D01*
X128792850Y-92625500D01*
X128792853Y-92625500D01*
X128875638Y-92603318D01*
X128949862Y-92560465D01*
X129010465Y-92499862D01*
X129053318Y-92425638D01*
X129075500Y-92342853D01*
X129075500Y-92257147D01*
X129053318Y-92174362D01*
X129010465Y-92100138D01*
X128949862Y-92039535D01*
X128875638Y-91996682D01*
X128792853Y-91974500D01*
X128707147Y-91974500D01*
X128624362Y-91996682D01*
X128550138Y-92039535D01*
X128489535Y-92100138D01*
X128446682Y-92174362D01*
X128424500Y-92257147D01*
X128424500Y-92342853D01*
X128446682Y-92425638D01*
X128489535Y-92499862D01*
X128550138Y-92560465D01*
X128557585Y-92564764D01*
X128598525Y-92610233D01*
X128604921Y-92671083D01*
X128574328Y-92724071D01*
X128518433Y-92748958D01*
X128508084Y-92749500D01*
X128503856Y-92749500D01*
X128414712Y-92773386D01*
X128414711Y-92773386D01*
X128414709Y-92773387D01*
X128334790Y-92819529D01*
X128269529Y-92884790D01*
X128223387Y-92964709D01*
X128223386Y-92964711D01*
X128223386Y-92964712D01*
X128199500Y-93053856D01*
X128199500Y-93146144D01*
X128221181Y-93227057D01*
X128223387Y-93235290D01*
X128269529Y-93315210D01*
X128273480Y-93320358D01*
X128271216Y-93322095D01*
X128293593Y-93366013D01*
X128284022Y-93426445D01*
X128240757Y-93469710D01*
X128195812Y-93480500D01*
X126251913Y-93480500D01*
X126193722Y-93461593D01*
X126181909Y-93451504D01*
X125773597Y-93043192D01*
X125747975Y-92998812D01*
X125731510Y-92937362D01*
X125682075Y-92851738D01*
X125612162Y-92781825D01*
X125599475Y-92774500D01*
X125526541Y-92732391D01*
X125526543Y-92732391D01*
X125489485Y-92722461D01*
X125431035Y-92706800D01*
X125332165Y-92706800D01*
X125273714Y-92722461D01*
X125236657Y-92732391D01*
X125151040Y-92781823D01*
X125081123Y-92851740D01*
X125031691Y-92937358D01*
X125029208Y-92943354D01*
X125027198Y-92942521D01*
X124999150Y-92985687D01*
X124942022Y-93007599D01*
X124882926Y-92991747D01*
X124866864Y-92978737D01*
X123028996Y-91140869D01*
X123001219Y-91086352D01*
X123000000Y-91070865D01*
X123000000Y-89793300D01*
X123018907Y-89735109D01*
X123068407Y-89699145D01*
X123099000Y-89694300D01*
X126298965Y-89694300D01*
X126357156Y-89713207D01*
G37*
%TD.AperFunction*%
%TA.AperFunction,Conductor*%
G36*
X134703226Y-88819407D02*
G01*
X134739190Y-88868907D01*
X134740661Y-88925122D01*
X134724500Y-88985438D01*
X134724500Y-88985440D01*
X134724500Y-89064564D01*
X134744978Y-89140988D01*
X134747525Y-89145399D01*
X134760247Y-89205247D01*
X134735361Y-89261143D01*
X134682374Y-89291736D01*
X134661789Y-89293900D01*
X129586315Y-89293900D01*
X129528124Y-89274993D01*
X129492160Y-89225493D01*
X129490688Y-89169279D01*
X129513500Y-89084144D01*
X129513500Y-88991856D01*
X129495618Y-88925120D01*
X129498820Y-88864022D01*
X129537325Y-88816472D01*
X129591245Y-88800500D01*
X134645035Y-88800500D01*
X134703226Y-88819407D01*
G37*
%TD.AperFunction*%
%TD*%
M02*
