%TF.GenerationSoftware,KiCad,Pcbnew,10.0.6*%
%TF.CreationDate,2026-10-03T08:30:02+09:00*%
%TF.ProjectId,HMT500(ED260313A),484d5435-3030-4284-9544-323630333133,A5-R3*%
%TF.SameCoordinates,Original*%
%TF.FileFunction,Legend,Top*%
%TF.FilePolarity,Positive*%
%FSLAX46Y46*%
G04 Gerber Fmt 4.6, Leading zero omitted, Abs format (unit mm)*
G04 Created by KiCad (PCBNEW 10.0.6) date 2026-10-03 08:30:02*
%MOMM*%
%LPD*%
G01*
G04 APERTURE LIST*
G04 Aperture macros list*
%AMRoundRect*
0 Rectangle with rounded corners*
0 $1 Rounding radius*
0 $2 $3 $4 $5 $6 $7 $8 $9 X,Y pos of 4 corners*
0 Add a 4 corners polygon primitive as box body*
4,1,4,$2,$3,$4,$5,$6,$7,$8,$9,$2,$3,0*
0 Add four circle primitives for the rounded corners*
1,1,$1+$1,$2,$3*
1,1,$1+$1,$4,$5*
1,1,$1+$1,$6,$7*
1,1,$1+$1,$8,$9*
0 Add four rect primitives between the rounded corners*
20,1,$1+$1,$2,$3,$4,$5,0*
20,1,$1+$1,$4,$5,$6,$7,0*
20,1,$1+$1,$6,$7,$8,$9,0*
20,1,$1+$1,$8,$9,$2,$3,0*%
G04 Aperture macros list end*
%ADD10C,0.000000*%
%ADD11C,0.100000*%
%ADD12C,0.120000*%
%ADD13RoundRect,0.150000X0.512500X0.150000X-0.512500X0.150000X-0.512500X-0.150000X0.512500X-0.150000X0*%
%ADD14RoundRect,0.225000X0.225000X0.250000X-0.225000X0.250000X-0.225000X-0.250000X0.225000X-0.250000X0*%
%ADD15RoundRect,0.140000X0.140000X0.170000X-0.140000X0.170000X-0.140000X-0.170000X0.140000X-0.170000X0*%
%ADD16RoundRect,0.135000X-0.185000X0.135000X-0.185000X-0.135000X0.185000X-0.135000X0.185000X0.135000X0*%
%ADD17R,1.450000X0.450000*%
%ADD18RoundRect,0.225000X-0.225000X-0.250000X0.225000X-0.250000X0.225000X0.250000X-0.225000X0.250000X0*%
%ADD19RoundRect,0.140000X-0.170000X0.140000X-0.170000X-0.140000X0.170000X-0.140000X0.170000X0.140000X0*%
%ADD20R,0.800000X0.300000*%
%ADD21RoundRect,0.150000X0.587500X0.150000X-0.587500X0.150000X-0.587500X-0.150000X0.587500X-0.150000X0*%
%ADD22RoundRect,0.250000X0.325000X0.650000X-0.325000X0.650000X-0.325000X-0.650000X0.325000X-0.650000X0*%
%ADD23RoundRect,0.062500X-0.350000X-0.062500X0.350000X-0.062500X0.350000X0.062500X-0.350000X0.062500X0*%
%ADD24RoundRect,0.062500X-0.062500X-0.350000X0.062500X-0.350000X0.062500X0.350000X-0.062500X0.350000X0*%
%ADD25R,2.600000X2.600000*%
%ADD26RoundRect,0.135000X-0.135000X-0.185000X0.135000X-0.185000X0.135000X0.185000X-0.135000X0.185000X0*%
%ADD27RoundRect,0.119600X-0.250400X-0.105400X0.250400X-0.105400X0.250400X0.105400X-0.250400X0.105400X0*%
%ADD28RoundRect,0.120600X-0.064400X-0.461900X0.064400X-0.461900X0.064400X0.461900X-0.064400X0.461900X0*%
%ADD29RoundRect,0.121000X-0.699000X-0.824000X0.699000X-0.824000X0.699000X0.824000X-0.699000X0.824000X0*%
%ADD30RoundRect,0.250000X0.650000X-0.325000X0.650000X0.325000X-0.650000X0.325000X-0.650000X-0.325000X0*%
%ADD31C,0.990600*%
%ADD32C,0.787400*%
%ADD33RoundRect,0.250000X-0.312500X-0.625000X0.312500X-0.625000X0.312500X0.625000X-0.312500X0.625000X0*%
%ADD34RoundRect,0.140000X-0.140000X-0.170000X0.140000X-0.170000X0.140000X0.170000X-0.140000X0.170000X0*%
%ADD35C,1.600000*%
%ADD36RoundRect,0.200000X0.275000X-0.200000X0.275000X0.200000X-0.275000X0.200000X-0.275000X-0.200000X0*%
%ADD37RoundRect,0.075000X-0.662500X-0.075000X0.662500X-0.075000X0.662500X0.075000X-0.662500X0.075000X0*%
%ADD38RoundRect,0.075000X-0.075000X-0.662500X0.075000X-0.662500X0.075000X0.662500X-0.075000X0.662500X0*%
%ADD39RoundRect,0.135000X0.135000X0.185000X-0.135000X0.185000X-0.135000X-0.185000X0.135000X-0.185000X0*%
%ADD40RoundRect,0.249999X0.450001X1.450001X-0.450001X1.450001X-0.450001X-1.450001X0.450001X-1.450001X0*%
%ADD41RoundRect,0.250000X-0.362500X-1.425000X0.362500X-1.425000X0.362500X1.425000X-0.362500X1.425000X0*%
%ADD42RoundRect,0.150000X-0.625000X0.150000X-0.625000X-0.150000X0.625000X-0.150000X0.625000X0.150000X0*%
%ADD43RoundRect,0.250000X-0.650000X0.350000X-0.650000X-0.350000X0.650000X-0.350000X0.650000X0.350000X0*%
%ADD44RoundRect,0.218750X0.256250X-0.218750X0.256250X0.218750X-0.256250X0.218750X-0.256250X-0.218750X0*%
%ADD45RoundRect,0.150000X0.700000X-0.150000X0.700000X0.150000X-0.700000X0.150000X-0.700000X-0.150000X0*%
%ADD46RoundRect,0.250000X1.100000X-0.250000X1.100000X0.250000X-1.100000X0.250000X-1.100000X-0.250000X0*%
%ADD47RoundRect,0.100000X0.637500X0.100000X-0.637500X0.100000X-0.637500X-0.100000X0.637500X-0.100000X0*%
%ADD48RoundRect,0.150000X-0.150000X0.587500X-0.150000X-0.587500X0.150000X-0.587500X0.150000X0.587500X0*%
G04 APERTURE END LIST*
D10*
G36*
X147743598Y-99227335D02*
G01*
X147763494Y-99227335D01*
X147763494Y-99923702D01*
X147743598Y-99923702D01*
X147743598Y-99963494D01*
X147723702Y-99963494D01*
X147723702Y-100003287D01*
X147604325Y-99983391D01*
X147604325Y-100003287D01*
X147584429Y-100003287D01*
X147544636Y-99943598D01*
X147524740Y-99943598D01*
X147524740Y-99227335D01*
X147544636Y-99227335D01*
X147544636Y-99187543D01*
X147743598Y-99187543D01*
X147743598Y-99227335D01*
G37*
G36*
X150250519Y-96859688D02*
G01*
X150270415Y-96859688D01*
X150270415Y-97257612D01*
X150230622Y-97277508D01*
X150230622Y-97297404D01*
X149733217Y-97297404D01*
X149733217Y-97317301D01*
X149693425Y-97317301D01*
X149693425Y-98650346D01*
X149653633Y-98670242D01*
X149653633Y-98690138D01*
X149156228Y-98690138D01*
X149136332Y-98650346D01*
X149116435Y-98650346D01*
X149116435Y-97337197D01*
X149076643Y-97317301D01*
X149076643Y-97297404D01*
X148559342Y-97297404D01*
X148559342Y-97257612D01*
X148539446Y-97257612D01*
X148539446Y-96879584D01*
X148559342Y-96879584D01*
X148559342Y-96839792D01*
X150250519Y-96839792D01*
X150250519Y-96859688D01*
G37*
G36*
X155702076Y-99207439D02*
G01*
X155761764Y-99227335D01*
X155761764Y-99724740D01*
X155801557Y-99744636D01*
X155801557Y-99764532D01*
X156000519Y-99764532D01*
X156000519Y-99784429D01*
X156040311Y-99784429D01*
X156040311Y-99804325D01*
X156080103Y-99804325D01*
X156100000Y-99883910D01*
X156080103Y-99883910D01*
X156080103Y-99923702D01*
X156020415Y-99963494D01*
X156020415Y-99983391D01*
X155960726Y-100003287D01*
X155960726Y-99983391D01*
X155582698Y-99983391D01*
X155542906Y-99923702D01*
X155523010Y-99923702D01*
X155523010Y-99247231D01*
X155542906Y-99247231D01*
X155542906Y-99207439D01*
X155582698Y-99207439D01*
X155582698Y-99187543D01*
X155702076Y-99187543D01*
X155702076Y-99207439D01*
G37*
G36*
X153871626Y-99207439D02*
G01*
X153891522Y-99207439D01*
X153911418Y-99247231D01*
X153931314Y-99247231D01*
X153931314Y-99306920D01*
X153951211Y-99306920D01*
X153931314Y-99366608D01*
X153871626Y-99386505D01*
X153871626Y-99406401D01*
X153811937Y-99406401D01*
X153811937Y-99386505D01*
X153792041Y-99386505D01*
X153792041Y-99406401D01*
X153732352Y-99406401D01*
X153732352Y-99446193D01*
X153712456Y-99446193D01*
X153712456Y-99943598D01*
X153652768Y-99963494D01*
X153652768Y-99983391D01*
X153553287Y-100003287D01*
X153553287Y-99983391D01*
X153513494Y-99983391D01*
X153493598Y-99923702D01*
X153473702Y-99923702D01*
X153473702Y-99426297D01*
X153453806Y-99426297D01*
X153453806Y-99406401D01*
X153294636Y-99406401D01*
X153294636Y-99386505D01*
X153254844Y-99386505D01*
X153254844Y-99227335D01*
X153274740Y-99227335D01*
X153274740Y-99187543D01*
X153871626Y-99187543D01*
X153871626Y-99207439D01*
G37*
G36*
X145913148Y-99247231D02*
G01*
X145933044Y-99247231D01*
X145933044Y-99366608D01*
X145913148Y-99366608D01*
X145913148Y-99386505D01*
X145594809Y-99386505D01*
X145594809Y-99406401D01*
X145574913Y-99406401D01*
X145574913Y-99466089D01*
X145614705Y-99466089D01*
X145614705Y-99485986D01*
X145853460Y-99485986D01*
X145853460Y-99505882D01*
X145893252Y-99505882D01*
X145893252Y-99625259D01*
X145853460Y-99645155D01*
X145853460Y-99665051D01*
X145614705Y-99665051D01*
X145594809Y-99704844D01*
X145574913Y-99704844D01*
X145574913Y-99764532D01*
X145594809Y-99764532D01*
X145594809Y-99784429D01*
X145913148Y-99784429D01*
X145913148Y-99804325D01*
X145933044Y-99804325D01*
X145933044Y-99923702D01*
X145913148Y-99923702D01*
X145913148Y-99963494D01*
X145893252Y-99963494D01*
X145893252Y-100003287D01*
X145833564Y-100003287D01*
X145833564Y-99983391D01*
X145395847Y-99983391D01*
X145356055Y-99923702D01*
X145336159Y-99923702D01*
X145336159Y-99227335D01*
X145395847Y-99207439D01*
X145395847Y-99187543D01*
X145913148Y-99187543D01*
X145913148Y-99247231D01*
G37*
G36*
X146271280Y-99247231D02*
G01*
X146291176Y-99247231D01*
X146291176Y-99287024D01*
X146330968Y-99306920D01*
X146350865Y-99386505D01*
X146390657Y-99406401D01*
X146410553Y-99505882D01*
X146470242Y-99525778D01*
X146470242Y-99505882D01*
X146490138Y-99505882D01*
X146490138Y-99227335D01*
X146510034Y-99227335D01*
X146510034Y-99187543D01*
X146669204Y-99187543D01*
X146689100Y-99227335D01*
X146708996Y-99227335D01*
X146708996Y-99943598D01*
X146649307Y-99963494D01*
X146649307Y-99983391D01*
X146589619Y-99983391D01*
X146589619Y-100003287D01*
X146510034Y-99983391D01*
X146430449Y-99883910D01*
X146410553Y-99883910D01*
X146390657Y-99804325D01*
X146350865Y-99784429D01*
X146330968Y-99684948D01*
X146271280Y-99665051D01*
X146271280Y-99684948D01*
X146251384Y-99684948D01*
X146251384Y-99943598D01*
X146211591Y-99963494D01*
X146211591Y-100003287D01*
X146072318Y-99983391D01*
X146052422Y-99943598D01*
X146032525Y-99943598D01*
X146032525Y-99227335D01*
X146072318Y-99207439D01*
X146072318Y-99187543D01*
X146231487Y-99187543D01*
X146271280Y-99247231D01*
G37*
G36*
X152001384Y-96859688D02*
G01*
X152021280Y-96859688D01*
X152021280Y-97217820D01*
X151981487Y-97217820D01*
X151981487Y-97237716D01*
X151125951Y-97237716D01*
X151106055Y-97277508D01*
X151086159Y-97277508D01*
X151086159Y-97456574D01*
X151106055Y-97456574D01*
X151125951Y-97516262D01*
X151921799Y-97516262D01*
X151941695Y-97556055D01*
X151961591Y-97556055D01*
X151961591Y-97874394D01*
X151921799Y-97894290D01*
X151921799Y-97914186D01*
X151125951Y-97914186D01*
X151106055Y-97973875D01*
X151086159Y-97973875D01*
X151086159Y-98212629D01*
X151106055Y-98212629D01*
X151106055Y-98252422D01*
X151165743Y-98252422D01*
X151165743Y-98272318D01*
X151185640Y-98272318D01*
X151185640Y-98252422D01*
X152021280Y-98252422D01*
X152041176Y-98292214D01*
X152061072Y-98292214D01*
X152061072Y-98650346D01*
X152021280Y-98670242D01*
X152021280Y-98690138D01*
X150568858Y-98690138D01*
X150568858Y-98670242D01*
X150529065Y-98670242D01*
X150529065Y-98650346D01*
X150509169Y-98650346D01*
X150509169Y-96859688D01*
X150529065Y-96859688D01*
X150529065Y-96839792D01*
X152001384Y-96839792D01*
X152001384Y-96859688D01*
G37*
G36*
X148061937Y-99207439D02*
G01*
X148101730Y-99207439D01*
X148101730Y-99227335D01*
X148161418Y-99247231D01*
X148161418Y-99306920D01*
X148201211Y-99326816D01*
X148241003Y-99446193D01*
X148280795Y-99466089D01*
X148280795Y-99485986D01*
X148320588Y-99485986D01*
X148320588Y-99466089D01*
X148340484Y-99466089D01*
X148340484Y-99227335D01*
X148380276Y-99207439D01*
X148380276Y-99187543D01*
X148539446Y-99187543D01*
X148539446Y-99227335D01*
X148559342Y-99227335D01*
X148559342Y-99943598D01*
X148519550Y-99963494D01*
X148519550Y-100003287D01*
X148360380Y-99983391D01*
X148340484Y-99943598D01*
X148320588Y-99943598D01*
X148320588Y-99903806D01*
X148260899Y-99864013D01*
X148241003Y-99784429D01*
X148201211Y-99764532D01*
X148201211Y-99724740D01*
X148161418Y-99704844D01*
X148141522Y-99645155D01*
X148081833Y-99665051D01*
X148101730Y-99923702D01*
X148061937Y-99943598D01*
X148061937Y-99983391D01*
X147982352Y-100003287D01*
X147982352Y-99983391D01*
X147942560Y-99983391D01*
X147902768Y-99923702D01*
X147882871Y-99923702D01*
X147882871Y-99227335D01*
X147922664Y-99207439D01*
X147922664Y-99187543D01*
X148061937Y-99187543D01*
X148061937Y-99207439D01*
G37*
G36*
X154906228Y-96899480D02*
G01*
X154926124Y-96899480D01*
X154926124Y-96919377D01*
X154906228Y-96919377D01*
X154906228Y-97436678D01*
X154946020Y-97456574D01*
X154946020Y-97476470D01*
X155463321Y-97476470D01*
X155483217Y-97436678D01*
X155503114Y-97436678D01*
X155503114Y-96919377D01*
X155483217Y-96919377D01*
X155483217Y-96899480D01*
X155503114Y-96899480D01*
X155523010Y-96839792D01*
X156040311Y-96839792D01*
X156080103Y-96899480D01*
X156100000Y-96899480D01*
X156100000Y-96939273D01*
X156080103Y-96939273D01*
X156080103Y-98590657D01*
X156100000Y-98590657D01*
X156100000Y-98610553D01*
X156080103Y-98610553D01*
X156080103Y-98650346D01*
X156040311Y-98650346D01*
X156020415Y-98690138D01*
X155562802Y-98690138D01*
X155562802Y-98670242D01*
X155503114Y-98670242D01*
X155503114Y-97993771D01*
X155463321Y-97973875D01*
X155463321Y-97953979D01*
X154946020Y-97953979D01*
X154926124Y-97993771D01*
X154906228Y-97993771D01*
X154906228Y-98670242D01*
X154846539Y-98670242D01*
X154846539Y-98690138D01*
X154388927Y-98690138D01*
X154388927Y-98670242D01*
X154329238Y-98650346D01*
X154329238Y-96859688D01*
X154349134Y-96859688D01*
X154349134Y-96839792D01*
X154886332Y-96839792D01*
X154906228Y-96899480D01*
G37*
G36*
X152677854Y-99207439D02*
G01*
X152737543Y-99207439D01*
X152757439Y-99247231D01*
X152777335Y-99247231D01*
X152777335Y-99287024D01*
X152797231Y-99287024D01*
X152797231Y-99326816D01*
X152837024Y-99346712D01*
X152856920Y-99426297D01*
X152936505Y-99485986D01*
X152936505Y-99505882D01*
X152976297Y-99505882D01*
X152976297Y-99247231D01*
X152996193Y-99247231D01*
X152996193Y-99207439D01*
X153035986Y-99207439D01*
X153035986Y-99187543D01*
X153155363Y-99187543D01*
X153155363Y-99227335D01*
X153175259Y-99227335D01*
X153175259Y-99426297D01*
X153195155Y-99426297D01*
X153195155Y-99923702D01*
X153155363Y-99943598D01*
X153155363Y-99983391D01*
X153075778Y-100003287D01*
X153075778Y-99983391D01*
X153035986Y-99983391D01*
X153035986Y-99963494D01*
X152976297Y-99963494D01*
X152916608Y-99883910D01*
X152896712Y-99883910D01*
X152856920Y-99764532D01*
X152797231Y-99724740D01*
X152797231Y-99704844D01*
X152737543Y-99684948D01*
X152737543Y-99923702D01*
X152677854Y-99963494D01*
X152677854Y-99983391D01*
X152638062Y-99983391D01*
X152638062Y-100003287D01*
X152558477Y-99983391D01*
X152558477Y-99943598D01*
X152518685Y-99923702D01*
X152538581Y-99485986D01*
X152518685Y-99485986D01*
X152518685Y-99247231D01*
X152538581Y-99247231D01*
X152558477Y-99187543D01*
X152677854Y-99187543D01*
X152677854Y-99207439D01*
G37*
G36*
X155164878Y-99207439D02*
G01*
X155224567Y-99207439D01*
X155224567Y-99227335D01*
X155284256Y-99227335D01*
X155363840Y-99326816D01*
X155383737Y-99326816D01*
X155383737Y-99366608D01*
X155403633Y-99366608D01*
X155403633Y-99505882D01*
X155423529Y-99505882D01*
X155423529Y-99645155D01*
X155403633Y-99645155D01*
X155403633Y-99804325D01*
X155383737Y-99804325D01*
X155363840Y-99864013D01*
X155343944Y-99864013D01*
X155324048Y-99923702D01*
X155204671Y-99963494D01*
X155204671Y-99983391D01*
X155005709Y-99983391D01*
X155005709Y-100003287D01*
X154985813Y-100003287D01*
X154985813Y-99983391D01*
X154926124Y-99963494D01*
X154926124Y-99943598D01*
X154866435Y-99943598D01*
X154866435Y-99923702D01*
X154826643Y-99923702D01*
X154806747Y-99883910D01*
X154786851Y-99883910D01*
X154747058Y-99764532D01*
X154727162Y-99764532D01*
X154727162Y-99724740D01*
X154707266Y-99724740D01*
X154707266Y-99704844D01*
X154946020Y-99704844D01*
X154985813Y-99724740D01*
X155005709Y-99784429D01*
X155144982Y-99784429D01*
X155144982Y-99764532D01*
X155164878Y-99764532D01*
X155184775Y-99645155D01*
X155204671Y-99645155D01*
X155204671Y-99525778D01*
X155184775Y-99525778D01*
X155184775Y-99466089D01*
X155164878Y-99466089D01*
X155164878Y-99426297D01*
X155125086Y-99406401D01*
X155125086Y-99386505D01*
X155025605Y-99386505D01*
X154965916Y-99466089D01*
X154946020Y-99466089D01*
X154946020Y-99704844D01*
X154707266Y-99704844D01*
X154707266Y-99505882D01*
X154687370Y-99505882D01*
X154687370Y-99466089D01*
X154687370Y-99446193D01*
X154747058Y-99406401D01*
X154766955Y-99306920D01*
X154826643Y-99267128D01*
X154826643Y-99247231D01*
X154906228Y-99227335D01*
X154906228Y-99207439D01*
X154965916Y-99207439D01*
X154965916Y-99187543D01*
X155164878Y-99187543D01*
X155164878Y-99207439D01*
G37*
G36*
X147226297Y-99207439D02*
G01*
X147325778Y-99227335D01*
X147345674Y-99267128D01*
X147365570Y-99267128D01*
X147365570Y-99306920D01*
X147385467Y-99306920D01*
X147385467Y-99426297D01*
X147345674Y-99426297D01*
X147285986Y-99505882D01*
X147325778Y-99525778D01*
X147325778Y-99545674D01*
X147365570Y-99545674D01*
X147385467Y-99605363D01*
X147425259Y-99625259D01*
X147425259Y-99824221D01*
X147405363Y-99824221D01*
X147385467Y-99883910D01*
X147365570Y-99883910D01*
X147365570Y-99923702D01*
X147246193Y-99963494D01*
X147246193Y-99983391D01*
X146987543Y-99983391D01*
X146987543Y-99963494D01*
X146888062Y-99943598D01*
X146868166Y-99903806D01*
X146848269Y-99903806D01*
X146848269Y-99864013D01*
X146828373Y-99864013D01*
X146828373Y-99824221D01*
X146808477Y-99824221D01*
X146808477Y-99724740D01*
X146828373Y-99724740D01*
X146828373Y-99704844D01*
X147007439Y-99704844D01*
X147027335Y-99764532D01*
X147047231Y-99764532D01*
X147047231Y-99804325D01*
X147087024Y-99804325D01*
X147087024Y-99824221D01*
X147186505Y-99804325D01*
X147206401Y-99724740D01*
X147146712Y-99704844D01*
X147146712Y-99684948D01*
X147106920Y-99684948D01*
X147106920Y-99665051D01*
X147007439Y-99665051D01*
X146987543Y-99625259D01*
X146868166Y-99585467D01*
X146868166Y-99545674D01*
X146828373Y-99525778D01*
X146828373Y-99466089D01*
X146808477Y-99466089D01*
X146808477Y-99446193D01*
X147067128Y-99446193D01*
X147166608Y-99466089D01*
X147166608Y-99446193D01*
X147206401Y-99446193D01*
X147206401Y-99406401D01*
X147087024Y-99346712D01*
X147087024Y-99366608D01*
X147067128Y-99366608D01*
X147067128Y-99446193D01*
X146808477Y-99446193D01*
X146808477Y-99366608D01*
X146828373Y-99366608D01*
X146848269Y-99287024D01*
X146907958Y-99247231D01*
X146907958Y-99227335D01*
X147007439Y-99207439D01*
X147007439Y-99187543D01*
X147226297Y-99187543D01*
X147226297Y-99207439D01*
G37*
G36*
X150230622Y-99207439D02*
G01*
X150270415Y-99207439D01*
X150270415Y-99227335D01*
X150310207Y-99227335D01*
X150310207Y-99247231D01*
X150350000Y-99247231D01*
X150350000Y-99287024D01*
X150369896Y-99287024D01*
X150369896Y-99446193D01*
X150330103Y-99466089D01*
X150330103Y-99505882D01*
X150290311Y-99525778D01*
X150290311Y-99545674D01*
X150270415Y-99545674D01*
X150270415Y-99605363D01*
X150449480Y-99605363D01*
X150449480Y-99625259D01*
X150509169Y-99645155D01*
X150469377Y-99764532D01*
X150548961Y-99824221D01*
X150548961Y-99903806D01*
X150509169Y-99923702D01*
X150509169Y-99943598D01*
X150469377Y-99943598D01*
X150469377Y-99963494D01*
X150389792Y-99963494D01*
X150389792Y-99943598D01*
X150250519Y-99943598D01*
X150250519Y-99963494D01*
X150210726Y-99963494D01*
X150210726Y-99983391D01*
X149971972Y-99983391D01*
X149971972Y-99963494D01*
X149872491Y-99943598D01*
X149852595Y-99903806D01*
X149832698Y-99903806D01*
X149832698Y-99844117D01*
X149812802Y-99844117D01*
X149812802Y-99784429D01*
X149812802Y-99704844D01*
X150011764Y-99704844D01*
X150011764Y-99784429D01*
X150051557Y-99804325D01*
X150051557Y-99824221D01*
X150131141Y-99844117D01*
X150131141Y-99824221D01*
X150151038Y-99824221D01*
X150151038Y-99744636D01*
X150131141Y-99744636D01*
X150131141Y-99704844D01*
X150011764Y-99704844D01*
X149812802Y-99704844D01*
X149812802Y-99684948D01*
X149832698Y-99684948D01*
X149832698Y-99625259D01*
X149932179Y-99545674D01*
X149919935Y-99386505D01*
X149916874Y-99346712D01*
X150111245Y-99346712D01*
X150111245Y-99386505D01*
X150170934Y-99386505D01*
X150170934Y-99346712D01*
X150111245Y-99346712D01*
X149916874Y-99346712D01*
X149912283Y-99287024D01*
X149932179Y-99287024D01*
X149932179Y-99247231D01*
X149971972Y-99247231D01*
X149991868Y-99207439D01*
X150051557Y-99207439D01*
X150051557Y-99187543D01*
X150230622Y-99187543D01*
X150230622Y-99207439D01*
G37*
G36*
X154369031Y-99207439D02*
G01*
X154508304Y-99207439D01*
X154508304Y-99227335D01*
X154567993Y-99227335D01*
X154587889Y-99267128D01*
X154607785Y-99267128D01*
X154627681Y-99366608D01*
X154647577Y-99366608D01*
X154647577Y-99466089D01*
X154627681Y-99466089D01*
X154587889Y-99585467D01*
X154548096Y-99605363D01*
X154528200Y-99665051D01*
X154548096Y-99665051D01*
X154548096Y-99704844D01*
X154587889Y-99724740D01*
X154587889Y-99744636D01*
X154607785Y-99744636D01*
X154607785Y-99804325D01*
X154647577Y-99824221D01*
X154647577Y-99864013D01*
X154667474Y-99864013D01*
X154667474Y-99963494D01*
X154627681Y-99983391D01*
X154627681Y-100003287D01*
X154607785Y-100003287D01*
X154607785Y-99983391D01*
X154528200Y-99983391D01*
X154528200Y-100003287D01*
X154508304Y-100003287D01*
X154508304Y-99983391D01*
X154468512Y-99983391D01*
X154408823Y-99903806D01*
X154388927Y-99903806D01*
X154329238Y-99724740D01*
X154289446Y-99724740D01*
X154289446Y-99704844D01*
X154229757Y-99704844D01*
X154229757Y-99744636D01*
X154209861Y-99744636D01*
X154209861Y-99804325D01*
X154229757Y-99804325D01*
X154229757Y-99923702D01*
X154189965Y-99943598D01*
X154189965Y-99983391D01*
X154110380Y-100003287D01*
X154110380Y-99983391D01*
X154070588Y-99983391D01*
X154030795Y-99923702D01*
X154010899Y-99923702D01*
X154010899Y-99485986D01*
X154229757Y-99485986D01*
X154249653Y-99485986D01*
X154249653Y-99505882D01*
X154349134Y-99505882D01*
X154388927Y-99446193D01*
X154408823Y-99446193D01*
X154388927Y-99386505D01*
X154349134Y-99386505D01*
X154349134Y-99366608D01*
X154269550Y-99366608D01*
X154269550Y-99386505D01*
X154229757Y-99386505D01*
X154229757Y-99485986D01*
X154010899Y-99485986D01*
X154010899Y-99386505D01*
X154010899Y-99247231D01*
X154030795Y-99247231D01*
X154030795Y-99207439D01*
X154070588Y-99207439D01*
X154070588Y-99187543D01*
X154369031Y-99187543D01*
X154369031Y-99207439D01*
G37*
G36*
X151404498Y-99207439D02*
G01*
X151444290Y-99207439D01*
X151444290Y-99227335D01*
X151503979Y-99227335D01*
X151563667Y-99306920D01*
X151583564Y-99306920D01*
X151623356Y-99426297D01*
X151643252Y-99426297D01*
X151643252Y-99466089D01*
X151583564Y-99485986D01*
X151583564Y-99505882D01*
X151444290Y-99505882D01*
X151424394Y-99446193D01*
X151364705Y-99406401D01*
X151364705Y-99386505D01*
X151245328Y-99386505D01*
X151225432Y-99426297D01*
X151205536Y-99426297D01*
X151205536Y-99466089D01*
X151185640Y-99466089D01*
X151185640Y-99704844D01*
X151225432Y-99724740D01*
X151225432Y-99764532D01*
X151265224Y-99764532D01*
X151265224Y-99784429D01*
X151344809Y-99784429D01*
X151344809Y-99764532D01*
X151384602Y-99764532D01*
X151384602Y-99724740D01*
X151444290Y-99684948D01*
X151444290Y-99665051D01*
X151583564Y-99665051D01*
X151583564Y-99684948D01*
X151643252Y-99704844D01*
X151603460Y-99824221D01*
X151583564Y-99824221D01*
X151583564Y-99864013D01*
X151523875Y-99903806D01*
X151523875Y-99923702D01*
X151424394Y-99943598D01*
X151424394Y-99963494D01*
X151344809Y-99963494D01*
X151344809Y-99983391D01*
X151265224Y-99983391D01*
X151265224Y-99963494D01*
X151185640Y-99963494D01*
X151185640Y-99943598D01*
X151086159Y-99923702D01*
X151046366Y-99864013D01*
X151026470Y-99864013D01*
X151026470Y-99824221D01*
X150986678Y-99804325D01*
X150986678Y-99764532D01*
X150966782Y-99764532D01*
X150966782Y-99665051D01*
X150946885Y-99665051D01*
X150946885Y-99466089D01*
X150966782Y-99466089D01*
X150966782Y-99406401D01*
X151006574Y-99386505D01*
X151006574Y-99346712D01*
X151026470Y-99346712D01*
X151026470Y-99306920D01*
X151046366Y-99306920D01*
X151046366Y-99267128D01*
X151106055Y-99247231D01*
X151106055Y-99227335D01*
X151145847Y-99227335D01*
X151145847Y-99207439D01*
X151205536Y-99207439D01*
X151205536Y-99187543D01*
X151404498Y-99187543D01*
X151404498Y-99207439D01*
G37*
G36*
X152160553Y-99207439D02*
G01*
X152220242Y-99207439D01*
X152220242Y-99227335D01*
X152279930Y-99227335D01*
X152339619Y-99306920D01*
X152359515Y-99306920D01*
X152359515Y-99346712D01*
X152379411Y-99346712D01*
X152399307Y-99466089D01*
X152419204Y-99466089D01*
X152419204Y-99704844D01*
X152399307Y-99704844D01*
X152399307Y-99764532D01*
X152379411Y-99764532D01*
X152359515Y-99864013D01*
X152279930Y-99923702D01*
X152279930Y-99943598D01*
X152220242Y-99943598D01*
X152220242Y-99963494D01*
X152180449Y-99963494D01*
X152180449Y-99983391D01*
X151981487Y-99983391D01*
X151981487Y-100003287D01*
X151961591Y-100003287D01*
X151961591Y-99983391D01*
X151901903Y-99963494D01*
X151901903Y-99943598D01*
X151842214Y-99943598D01*
X151842214Y-99923702D01*
X151802422Y-99923702D01*
X151782525Y-99883910D01*
X151762629Y-99883910D01*
X151742733Y-99784429D01*
X151722837Y-99784429D01*
X151722837Y-99744636D01*
X151702941Y-99744636D01*
X151702941Y-99684948D01*
X151921799Y-99684948D01*
X151941695Y-99684948D01*
X151941695Y-99724740D01*
X152001384Y-99764532D01*
X152001384Y-99784429D01*
X152120761Y-99784429D01*
X152120761Y-99764532D01*
X152140657Y-99764532D01*
X152160553Y-99684948D01*
X152180449Y-99684948D01*
X152180449Y-99485986D01*
X152160553Y-99485986D01*
X152160553Y-99446193D01*
X152140657Y-99446193D01*
X152120761Y-99386505D01*
X152001384Y-99386505D01*
X151981487Y-99426297D01*
X151961591Y-99426297D01*
X151961591Y-99466089D01*
X151921799Y-99485986D01*
X151921799Y-99684948D01*
X151702941Y-99684948D01*
X151702941Y-99665051D01*
X151683044Y-99665051D01*
X151683044Y-99505882D01*
X151702941Y-99505882D01*
X151702941Y-99485986D01*
X151702941Y-99466089D01*
X151722837Y-99466089D01*
X151722837Y-99386505D01*
X151742733Y-99386505D01*
X151742733Y-99326816D01*
X151842214Y-99247231D01*
X151842214Y-99227335D01*
X151961591Y-99207439D01*
X151961591Y-99187543D01*
X152160553Y-99187543D01*
X152160553Y-99207439D01*
G37*
G36*
X149176124Y-99207439D02*
G01*
X149215916Y-99207439D01*
X149215916Y-99227335D01*
X149255709Y-99227335D01*
X149255709Y-99247231D01*
X149295501Y-99247231D01*
X149295501Y-99287024D01*
X149335294Y-99287024D01*
X149335294Y-99326816D01*
X149355190Y-99326816D01*
X149355190Y-99406401D01*
X149315397Y-99426297D01*
X149315397Y-99446193D01*
X149136332Y-99466089D01*
X149096539Y-99386505D01*
X148957266Y-99386505D01*
X148937370Y-99446193D01*
X148917474Y-99446193D01*
X148917474Y-99485986D01*
X148897577Y-99485986D01*
X148897577Y-99704844D01*
X148937370Y-99724740D01*
X148957266Y-99784429D01*
X148997058Y-99784429D01*
X148997058Y-99804325D01*
X149116435Y-99804325D01*
X149116435Y-99784429D01*
X149176124Y-99764532D01*
X149156228Y-99704844D01*
X149076643Y-99704844D01*
X149076643Y-99684948D01*
X149036851Y-99684948D01*
X149036851Y-99565570D01*
X149076643Y-99545674D01*
X149076643Y-99525778D01*
X149116435Y-99525778D01*
X149116435Y-99545674D01*
X149355190Y-99545674D01*
X149355190Y-99585467D01*
X149375086Y-99585467D01*
X149375086Y-99844117D01*
X149355190Y-99844117D01*
X149355190Y-99883910D01*
X149315397Y-99903806D01*
X149315397Y-99923702D01*
X149275605Y-99923702D01*
X149275605Y-99943598D01*
X149196020Y-99943598D01*
X149176124Y-99983391D01*
X149136332Y-99983391D01*
X149136332Y-100003287D01*
X149116435Y-100003287D01*
X149116435Y-99983391D01*
X148957266Y-99983391D01*
X148957266Y-100003287D01*
X148937370Y-100003287D01*
X148937370Y-99983391D01*
X148877681Y-99963494D01*
X148877681Y-99943598D01*
X148778200Y-99923702D01*
X148738408Y-99864013D01*
X148718512Y-99864013D01*
X148698615Y-99764532D01*
X148678719Y-99764532D01*
X148678719Y-99724740D01*
X148658823Y-99724740D01*
X148658823Y-99466089D01*
X148678719Y-99466089D01*
X148678719Y-99426297D01*
X148698615Y-99426297D01*
X148718512Y-99326816D01*
X148817993Y-99247231D01*
X148817993Y-99227335D01*
X148877681Y-99227335D01*
X148877681Y-99207439D01*
X148917474Y-99207439D01*
X148917474Y-99187543D01*
X149176124Y-99187543D01*
X149176124Y-99207439D01*
G37*
G36*
X145037716Y-99207439D02*
G01*
X145137197Y-99227335D01*
X145176989Y-99287024D01*
X145196885Y-99287024D01*
X145216782Y-99386505D01*
X145196885Y-99386505D01*
X145176989Y-99446193D01*
X145117301Y-99466089D01*
X145117301Y-99525778D01*
X145157093Y-99525778D01*
X145157093Y-99545674D01*
X145216782Y-99565570D01*
X145236678Y-99684948D01*
X145256574Y-99684948D01*
X145256574Y-99764532D01*
X145236678Y-99764532D01*
X145216782Y-99864013D01*
X145196885Y-99864013D01*
X145196885Y-99903806D01*
X145157093Y-99923702D01*
X145157093Y-99943598D01*
X145037716Y-99963494D01*
X145037716Y-99983391D01*
X144798961Y-99983391D01*
X144798961Y-99963494D01*
X144699480Y-99943598D01*
X144679584Y-99903806D01*
X144659688Y-99903806D01*
X144659688Y-99844117D01*
X144639792Y-99844117D01*
X144639792Y-99804325D01*
X144600000Y-99784429D01*
X144600000Y-99764532D01*
X144639792Y-99744636D01*
X144639792Y-99724740D01*
X144679584Y-99724740D01*
X144679584Y-99704844D01*
X144798961Y-99704844D01*
X144798961Y-99724740D01*
X144838754Y-99724740D01*
X144838754Y-99764532D01*
X144898442Y-99804325D01*
X144898442Y-99824221D01*
X144978027Y-99824221D01*
X144997923Y-99764532D01*
X145017820Y-99764532D01*
X144997923Y-99704844D01*
X144918339Y-99684948D01*
X144918339Y-99665051D01*
X144858650Y-99665051D01*
X144858650Y-99645155D01*
X144818858Y-99645155D01*
X144818858Y-99625259D01*
X144759169Y-99625259D01*
X144759169Y-99605363D01*
X144719377Y-99605363D01*
X144699480Y-99565570D01*
X144679584Y-99565570D01*
X144679584Y-99525778D01*
X144659688Y-99525778D01*
X144659688Y-99426297D01*
X144878546Y-99426297D01*
X144918339Y-99446193D01*
X144918339Y-99466089D01*
X144978027Y-99466089D01*
X144978027Y-99446193D01*
X144997923Y-99446193D01*
X144997923Y-99386505D01*
X144958131Y-99366608D01*
X144958131Y-99346712D01*
X144918339Y-99346712D01*
X144898442Y-99386505D01*
X144878546Y-99386505D01*
X144878546Y-99426297D01*
X144659688Y-99426297D01*
X144659688Y-99386505D01*
X144659688Y-99306920D01*
X144679584Y-99306920D01*
X144679584Y-99267128D01*
X144719377Y-99247231D01*
X144719377Y-99227335D01*
X144818858Y-99207439D01*
X144818858Y-99187543D01*
X145037716Y-99187543D01*
X145037716Y-99207439D01*
G37*
G36*
X145773875Y-96859688D02*
G01*
X145833564Y-96859688D01*
X145833564Y-96879584D01*
X145893252Y-96879584D01*
X145893252Y-96899480D01*
X145933044Y-96899480D01*
X145933044Y-96919377D01*
X145972837Y-96919377D01*
X146032525Y-96998961D01*
X146072318Y-96998961D01*
X146092214Y-97038754D01*
X146112110Y-97038754D01*
X146112110Y-97078546D01*
X146151903Y-97078546D01*
X146171799Y-97158131D01*
X146211591Y-97178027D01*
X146231487Y-97257612D01*
X146251384Y-97257612D01*
X146271280Y-97396885D01*
X146291176Y-97396885D01*
X146291176Y-97436678D01*
X146311072Y-97436678D01*
X146311072Y-97556055D01*
X146330968Y-97556055D01*
X146330968Y-97973875D01*
X146311072Y-97973875D01*
X146311072Y-98113148D01*
X146291176Y-98113148D01*
X146291176Y-98152941D01*
X146271280Y-98152941D01*
X146271280Y-98212629D01*
X146251384Y-98212629D01*
X146251384Y-98292214D01*
X146191695Y-98332006D01*
X146171799Y-98411591D01*
X146052422Y-98511072D01*
X146052422Y-98530968D01*
X146032525Y-98530968D01*
X146032525Y-98550865D01*
X146012629Y-98550865D01*
X146012629Y-98570761D01*
X145893252Y-98610553D01*
X145893252Y-98630449D01*
X145853460Y-98630449D01*
X145853460Y-98650346D01*
X145793771Y-98650346D01*
X145793771Y-98670242D01*
X145654498Y-98670242D01*
X145654498Y-98690138D01*
X144679584Y-98690138D01*
X144659688Y-98650346D01*
X144619896Y-98650346D01*
X144600000Y-98590657D01*
X144619896Y-98590657D01*
X144619896Y-98232525D01*
X145216782Y-98232525D01*
X145276470Y-98252422D01*
X145276470Y-98272318D01*
X145316262Y-98272318D01*
X145316262Y-98252422D01*
X145535121Y-98252422D01*
X145535121Y-98232525D01*
X145574913Y-98232525D01*
X145614705Y-98172837D01*
X145654498Y-98172837D01*
X145674394Y-98113148D01*
X145694290Y-98113148D01*
X145714186Y-97973875D01*
X145734083Y-97973875D01*
X145734083Y-97556055D01*
X145714186Y-97556055D01*
X145714186Y-97496366D01*
X145694290Y-97496366D01*
X145694290Y-97436678D01*
X145674394Y-97436678D01*
X145674394Y-97396885D01*
X145594809Y-97337197D01*
X145594809Y-97317301D01*
X145535121Y-97317301D01*
X145535121Y-97297404D01*
X145495328Y-97297404D01*
X145495328Y-97277508D01*
X145455536Y-97277508D01*
X145455536Y-97257612D01*
X145316262Y-97257612D01*
X145316262Y-97237716D01*
X145256574Y-97237716D01*
X145236678Y-97277508D01*
X145216782Y-97277508D01*
X145216782Y-98232525D01*
X144619896Y-98232525D01*
X144619896Y-97277508D01*
X144619896Y-96939273D01*
X144600000Y-96939273D01*
X144600000Y-96899480D01*
X144659688Y-96859688D01*
X144659688Y-96839792D01*
X145773875Y-96839792D01*
X145773875Y-96859688D01*
G37*
G36*
X147723702Y-96819896D02*
G01*
X147882871Y-96839792D01*
X147882871Y-96859688D01*
X147942560Y-96859688D01*
X147942560Y-96879584D01*
X147982352Y-96879584D01*
X147982352Y-96899480D01*
X148022145Y-96899480D01*
X148022145Y-96919377D01*
X148061937Y-96919377D01*
X148101730Y-96979065D01*
X148141522Y-96979065D01*
X148221107Y-97078546D01*
X148241003Y-97078546D01*
X148241003Y-97118339D01*
X148320588Y-97178027D01*
X148340484Y-97277508D01*
X148380276Y-97297404D01*
X148380276Y-97357093D01*
X148400173Y-97357093D01*
X148400173Y-97496366D01*
X148420069Y-97496366D01*
X148420069Y-97556055D01*
X148439965Y-97556055D01*
X148439965Y-97953979D01*
X148420069Y-97953979D01*
X148420069Y-98013667D01*
X148400173Y-98013667D01*
X148400173Y-98172837D01*
X148380276Y-98172837D01*
X148380276Y-98212629D01*
X148360380Y-98212629D01*
X148360380Y-98252422D01*
X148340484Y-98252422D01*
X148340484Y-98292214D01*
X148320588Y-98292214D01*
X148320588Y-98332006D01*
X148300692Y-98332006D01*
X148300692Y-98371799D01*
X148241003Y-98411591D01*
X148241003Y-98451384D01*
X148181314Y-98491176D01*
X148181314Y-98511072D01*
X148141522Y-98511072D01*
X148101730Y-98570761D01*
X148081833Y-98570761D01*
X148081833Y-98590657D01*
X148022145Y-98590657D01*
X147982352Y-98650346D01*
X147942560Y-98650346D01*
X147942560Y-98670242D01*
X147843079Y-98670242D01*
X147843079Y-98690138D01*
X147783391Y-98690138D01*
X147783391Y-98710034D01*
X147703806Y-98710034D01*
X147703806Y-98729930D01*
X147285986Y-98729930D01*
X147285986Y-98710034D01*
X147206401Y-98710034D01*
X147206401Y-98690138D01*
X147126816Y-98690138D01*
X147126816Y-98670242D01*
X147027335Y-98670242D01*
X146987543Y-98610553D01*
X146868166Y-98570761D01*
X146768685Y-98451384D01*
X146748788Y-98451384D01*
X146748788Y-98431487D01*
X146728892Y-98431487D01*
X146728892Y-98391695D01*
X146669204Y-98351903D01*
X146629411Y-98232525D01*
X146609515Y-98232525D01*
X146609515Y-98192733D01*
X146589619Y-98192733D01*
X146589619Y-98152941D01*
X146569723Y-98152941D01*
X146569723Y-98013667D01*
X146549826Y-98013667D01*
X146549826Y-97993771D01*
X147126816Y-97993771D01*
X147146712Y-97993771D01*
X147146712Y-98053460D01*
X147186505Y-98073356D01*
X147206401Y-98152941D01*
X147266089Y-98192733D01*
X147266089Y-98212629D01*
X147305882Y-98212629D01*
X147345674Y-98272318D01*
X147624221Y-98272318D01*
X147624221Y-98252422D01*
X147664013Y-98252422D01*
X147683910Y-98212629D01*
X147703806Y-98212629D01*
X147703806Y-98192733D01*
X147763494Y-98172837D01*
X147783391Y-98093252D01*
X147823183Y-98073356D01*
X147823183Y-98013667D01*
X147843079Y-98013667D01*
X147862975Y-97675432D01*
X147843079Y-97675432D01*
X147843079Y-97516262D01*
X147823183Y-97516262D01*
X147823183Y-97456574D01*
X147783391Y-97436678D01*
X147763494Y-97357093D01*
X147723702Y-97337197D01*
X147723702Y-97317301D01*
X147683910Y-97317301D01*
X147664013Y-97277508D01*
X147624221Y-97277508D01*
X147624221Y-97257612D01*
X147425259Y-97237716D01*
X147425259Y-97257612D01*
X147365570Y-97257612D01*
X147365570Y-97277508D01*
X147325778Y-97277508D01*
X147325778Y-97297404D01*
X147285986Y-97297404D01*
X147226297Y-97376989D01*
X147206401Y-97376989D01*
X147206401Y-97416782D01*
X147166608Y-97436678D01*
X147146712Y-97536159D01*
X147126816Y-97536159D01*
X147126816Y-97993771D01*
X146549826Y-97993771D01*
X146549826Y-97894290D01*
X146529930Y-97894290D01*
X146529930Y-97635640D01*
X146549826Y-97635640D01*
X146557479Y-97536159D01*
X146569723Y-97376989D01*
X146589619Y-97376989D01*
X146589619Y-97337197D01*
X146609515Y-97337197D01*
X146609515Y-97297404D01*
X146629411Y-97297404D01*
X146649307Y-97197923D01*
X146708996Y-97158131D01*
X146728892Y-97098442D01*
X146748788Y-97098442D01*
X146748788Y-97058650D01*
X146808477Y-97018858D01*
X146808477Y-96998961D01*
X146848269Y-96998961D01*
X146907958Y-96919377D01*
X146967647Y-96919377D01*
X146967647Y-96899480D01*
X147027335Y-96879584D01*
X147027335Y-96859688D01*
X147087024Y-96859688D01*
X147087024Y-96839792D01*
X147206401Y-96839792D01*
X147206401Y-96819896D01*
X147285986Y-96819896D01*
X147285986Y-96800000D01*
X147723702Y-96800000D01*
X147723702Y-96819896D01*
G37*
G36*
X153414013Y-96819896D02*
G01*
X153493598Y-96819896D01*
X153493598Y-96839792D01*
X153652768Y-96859688D01*
X153652768Y-96879584D01*
X153692560Y-96879584D01*
X153692560Y-96899480D01*
X153732352Y-96899480D01*
X153732352Y-96919377D01*
X153772145Y-96919377D01*
X153871626Y-97038754D01*
X153891522Y-97038754D01*
X153891522Y-97058650D01*
X153911418Y-97058650D01*
X153911418Y-97078546D01*
X153931314Y-97078546D01*
X153931314Y-97098442D01*
X153951211Y-97098442D01*
X153951211Y-97118339D01*
X153971107Y-97118339D01*
X153971107Y-97178027D01*
X154010899Y-97197923D01*
X154030795Y-97257612D01*
X154050692Y-97257612D01*
X154050692Y-97357093D01*
X154070588Y-97357093D01*
X154090484Y-97496366D01*
X154050692Y-97516262D01*
X154050692Y-97536159D01*
X153573183Y-97536159D01*
X153533391Y-97476470D01*
X153513494Y-97476470D01*
X153473702Y-97357093D01*
X153433910Y-97337197D01*
X153433910Y-97317301D01*
X153394117Y-97317301D01*
X153394117Y-97297404D01*
X153354325Y-97297404D01*
X153334429Y-97257612D01*
X153294636Y-97257612D01*
X153294636Y-97237716D01*
X153135467Y-97237716D01*
X153135467Y-97257612D01*
X153075778Y-97257612D01*
X153075778Y-97277508D01*
X153035986Y-97277508D01*
X152956401Y-97376989D01*
X152936505Y-97376989D01*
X152936505Y-97416782D01*
X152896712Y-97436678D01*
X152896712Y-97476470D01*
X152876816Y-97476470D01*
X152876816Y-97556055D01*
X152856920Y-97556055D01*
X152856920Y-97973875D01*
X152876816Y-97973875D01*
X152876816Y-98033564D01*
X152896712Y-98033564D01*
X152896712Y-98073356D01*
X152916608Y-98073356D01*
X152916608Y-98113148D01*
X152936505Y-98113148D01*
X152936505Y-98152941D01*
X152996193Y-98192733D01*
X152996193Y-98212629D01*
X153035986Y-98212629D01*
X153075778Y-98272318D01*
X153334429Y-98272318D01*
X153334429Y-98252422D01*
X153374221Y-98252422D01*
X153394117Y-98212629D01*
X153414013Y-98212629D01*
X153414013Y-98192733D01*
X153453806Y-98192733D01*
X153473702Y-98152941D01*
X153493598Y-98152941D01*
X153493598Y-98093252D01*
X153533391Y-98073356D01*
X153533391Y-98033564D01*
X153553287Y-98033564D01*
X153573183Y-97973875D01*
X154050692Y-97973875D01*
X154070588Y-98013667D01*
X154090484Y-98013667D01*
X154090484Y-98093252D01*
X154070588Y-98093252D01*
X154070588Y-98172837D01*
X154050692Y-98172837D01*
X154050692Y-98252422D01*
X154030795Y-98252422D01*
X154030795Y-98292214D01*
X154010899Y-98292214D01*
X154010899Y-98332006D01*
X153971107Y-98351903D01*
X153951211Y-98431487D01*
X153911418Y-98431487D01*
X153911418Y-98471280D01*
X153851730Y-98511072D01*
X153851730Y-98530968D01*
X153811937Y-98530968D01*
X153811937Y-98570761D01*
X153732352Y-98590657D01*
X153712456Y-98630449D01*
X153652768Y-98650346D01*
X153652768Y-98670242D01*
X153553287Y-98670242D01*
X153553287Y-98690138D01*
X153493598Y-98690138D01*
X153493598Y-98710034D01*
X153414013Y-98710034D01*
X153414013Y-98729930D01*
X153016089Y-98729930D01*
X153016089Y-98710034D01*
X152876816Y-98690138D01*
X152876816Y-98670242D01*
X152777335Y-98670242D01*
X152777335Y-98650346D01*
X152717647Y-98630449D01*
X152717647Y-98610553D01*
X152638062Y-98590657D01*
X152538581Y-98471280D01*
X152518685Y-98471280D01*
X152518685Y-98451384D01*
X152498788Y-98451384D01*
X152498788Y-98431487D01*
X152478892Y-98431487D01*
X152478892Y-98411591D01*
X152458996Y-98411591D01*
X152439100Y-98332006D01*
X152379411Y-98292214D01*
X152359515Y-98152941D01*
X152339619Y-98152941D01*
X152339619Y-98113148D01*
X152319723Y-98113148D01*
X152319723Y-98053460D01*
X152299826Y-98053460D01*
X152299826Y-97476470D01*
X152319723Y-97476470D01*
X152319723Y-97396885D01*
X152339619Y-97396885D01*
X152339619Y-97376989D01*
X152359515Y-97376989D01*
X152359515Y-97317301D01*
X152379411Y-97317301D01*
X152379411Y-97237716D01*
X152419204Y-97217820D01*
X152439100Y-97158131D01*
X152458996Y-97158131D01*
X152478892Y-97078546D01*
X152518685Y-97078546D01*
X152518685Y-97038754D01*
X152558477Y-97018858D01*
X152558477Y-96998961D01*
X152598269Y-96998961D01*
X152657958Y-96919377D01*
X152777335Y-96879584D01*
X152777335Y-96859688D01*
X152817128Y-96859688D01*
X152817128Y-96839792D01*
X152936505Y-96839792D01*
X152936505Y-96819896D01*
X153016089Y-96819896D01*
X153016089Y-96800000D01*
X153414013Y-96800000D01*
X153414013Y-96819896D01*
G37*
D11*
X112490000Y-108034999D02*
X112690000Y-108034999D01*
X115315000Y-110470000D02*
X115515000Y-110470000D01*
X120560000Y-103870657D02*
X120460000Y-103960000D01*
X122345000Y-102365000D02*
X122345000Y-103965000D01*
X123150000Y-104960000D02*
X123150000Y-105160000D01*
X133710000Y-93960000D02*
X133710000Y-93759999D01*
X133949999Y-96300000D02*
X134149999Y-96300000D01*
X133949999Y-104000000D02*
X134149999Y-104000000D01*
X134299999Y-105154536D02*
X134099999Y-105285000D01*
X134300000Y-107384999D02*
X134100000Y-107384999D01*
X138274387Y-93250000D02*
X137950000Y-91649999D01*
X138350000Y-106009999D02*
X138150000Y-106009999D01*
X147321430Y-102220918D02*
X147321430Y-101420918D01*
X147321430Y-101801870D02*
X147550001Y-101801870D01*
X147550001Y-102220918D02*
X147550001Y-101420918D01*
X147740478Y-102220918D02*
X147740478Y-101420918D01*
X147740478Y-101420918D02*
X147873811Y-101992346D01*
X147873811Y-101992346D02*
X148007144Y-101420918D01*
X148007144Y-101420918D02*
X148007144Y-102220918D01*
X148140478Y-101420918D02*
X148369049Y-101420918D01*
X148254763Y-102220918D02*
X148254763Y-101420918D01*
X148692859Y-101420918D02*
X148502383Y-101420918D01*
X148502383Y-101420918D02*
X148483335Y-101801870D01*
X148483335Y-101801870D02*
X148502383Y-101763775D01*
X148502383Y-101763775D02*
X148540478Y-101725680D01*
X148540478Y-101725680D02*
X148635716Y-101725680D01*
X148635716Y-101725680D02*
X148673811Y-101763775D01*
X148673811Y-101763775D02*
X148692859Y-101801870D01*
X148692859Y-101801870D02*
X148711906Y-101878061D01*
X148711906Y-101878061D02*
X148711906Y-102068537D01*
X148711906Y-102068537D02*
X148692859Y-102144727D01*
X148692859Y-102144727D02*
X148673811Y-102182823D01*
X148673811Y-102182823D02*
X148635716Y-102220918D01*
X148635716Y-102220918D02*
X148540478Y-102220918D01*
X148540478Y-102220918D02*
X148502383Y-102182823D01*
X148502383Y-102182823D02*
X148483335Y-102144727D01*
X148959525Y-101420918D02*
X148997620Y-101420918D01*
X148997620Y-101420918D02*
X149035716Y-101459013D01*
X149035716Y-101459013D02*
X149054763Y-101497108D01*
X149054763Y-101497108D02*
X149073811Y-101573299D01*
X149073811Y-101573299D02*
X149092858Y-101725680D01*
X149092858Y-101725680D02*
X149092858Y-101916156D01*
X149092858Y-101916156D02*
X149073811Y-102068537D01*
X149073811Y-102068537D02*
X149054763Y-102144727D01*
X149054763Y-102144727D02*
X149035716Y-102182823D01*
X149035716Y-102182823D02*
X148997620Y-102220918D01*
X148997620Y-102220918D02*
X148959525Y-102220918D01*
X148959525Y-102220918D02*
X148921430Y-102182823D01*
X148921430Y-102182823D02*
X148902382Y-102144727D01*
X148902382Y-102144727D02*
X148883335Y-102068537D01*
X148883335Y-102068537D02*
X148864287Y-101916156D01*
X148864287Y-101916156D02*
X148864287Y-101725680D01*
X148864287Y-101725680D02*
X148883335Y-101573299D01*
X148883335Y-101573299D02*
X148902382Y-101497108D01*
X148902382Y-101497108D02*
X148921430Y-101459013D01*
X148921430Y-101459013D02*
X148959525Y-101420918D01*
X149340477Y-101420918D02*
X149378572Y-101420918D01*
X149378572Y-101420918D02*
X149416668Y-101459013D01*
X149416668Y-101459013D02*
X149435715Y-101497108D01*
X149435715Y-101497108D02*
X149454763Y-101573299D01*
X149454763Y-101573299D02*
X149473810Y-101725680D01*
X149473810Y-101725680D02*
X149473810Y-101916156D01*
X149473810Y-101916156D02*
X149454763Y-102068537D01*
X149454763Y-102068537D02*
X149435715Y-102144727D01*
X149435715Y-102144727D02*
X149416668Y-102182823D01*
X149416668Y-102182823D02*
X149378572Y-102220918D01*
X149378572Y-102220918D02*
X149340477Y-102220918D01*
X149340477Y-102220918D02*
X149302382Y-102182823D01*
X149302382Y-102182823D02*
X149283334Y-102144727D01*
X149283334Y-102144727D02*
X149264287Y-102068537D01*
X149264287Y-102068537D02*
X149245239Y-101916156D01*
X149245239Y-101916156D02*
X149245239Y-101725680D01*
X149245239Y-101725680D02*
X149264287Y-101573299D01*
X149264287Y-101573299D02*
X149283334Y-101497108D01*
X149283334Y-101497108D02*
X149302382Y-101459013D01*
X149302382Y-101459013D02*
X149340477Y-101420918D01*
X149759524Y-102525680D02*
X149740477Y-102487584D01*
X149740477Y-102487584D02*
X149702381Y-102373299D01*
X149702381Y-102373299D02*
X149683334Y-102297108D01*
X149683334Y-102297108D02*
X149664286Y-102182823D01*
X149664286Y-102182823D02*
X149645239Y-101992346D01*
X149645239Y-101992346D02*
X149645239Y-101839965D01*
X149645239Y-101839965D02*
X149664286Y-101649489D01*
X149664286Y-101649489D02*
X149683334Y-101535203D01*
X149683334Y-101535203D02*
X149702381Y-101459013D01*
X149702381Y-101459013D02*
X149740477Y-101344727D01*
X149740477Y-101344727D02*
X149759524Y-101306632D01*
X149911906Y-101801870D02*
X150045239Y-101801870D01*
X150102382Y-102220918D02*
X149911906Y-102220918D01*
X149911906Y-102220918D02*
X149911906Y-101420918D01*
X149911906Y-101420918D02*
X150102382Y-101420918D01*
X150273811Y-102220918D02*
X150273811Y-101420918D01*
X150273811Y-101420918D02*
X150369049Y-101420918D01*
X150369049Y-101420918D02*
X150426192Y-101459013D01*
X150426192Y-101459013D02*
X150464287Y-101535203D01*
X150464287Y-101535203D02*
X150483334Y-101611394D01*
X150483334Y-101611394D02*
X150502382Y-101763775D01*
X150502382Y-101763775D02*
X150502382Y-101878061D01*
X150502382Y-101878061D02*
X150483334Y-102030442D01*
X150483334Y-102030442D02*
X150464287Y-102106632D01*
X150464287Y-102106632D02*
X150426192Y-102182823D01*
X150426192Y-102182823D02*
X150369049Y-102220918D01*
X150369049Y-102220918D02*
X150273811Y-102220918D01*
X150654763Y-101497108D02*
X150673811Y-101459013D01*
X150673811Y-101459013D02*
X150711906Y-101420918D01*
X150711906Y-101420918D02*
X150807144Y-101420918D01*
X150807144Y-101420918D02*
X150845239Y-101459013D01*
X150845239Y-101459013D02*
X150864287Y-101497108D01*
X150864287Y-101497108D02*
X150883334Y-101573299D01*
X150883334Y-101573299D02*
X150883334Y-101649489D01*
X150883334Y-101649489D02*
X150864287Y-101763775D01*
X150864287Y-101763775D02*
X150635715Y-102220918D01*
X150635715Y-102220918D02*
X150883334Y-102220918D01*
X151226191Y-101420918D02*
X151150001Y-101420918D01*
X151150001Y-101420918D02*
X151111905Y-101459013D01*
X151111905Y-101459013D02*
X151092858Y-101497108D01*
X151092858Y-101497108D02*
X151054763Y-101611394D01*
X151054763Y-101611394D02*
X151035715Y-101763775D01*
X151035715Y-101763775D02*
X151035715Y-102068537D01*
X151035715Y-102068537D02*
X151054763Y-102144727D01*
X151054763Y-102144727D02*
X151073810Y-102182823D01*
X151073810Y-102182823D02*
X151111905Y-102220918D01*
X151111905Y-102220918D02*
X151188096Y-102220918D01*
X151188096Y-102220918D02*
X151226191Y-102182823D01*
X151226191Y-102182823D02*
X151245239Y-102144727D01*
X151245239Y-102144727D02*
X151264286Y-102068537D01*
X151264286Y-102068537D02*
X151264286Y-101878061D01*
X151264286Y-101878061D02*
X151245239Y-101801870D01*
X151245239Y-101801870D02*
X151226191Y-101763775D01*
X151226191Y-101763775D02*
X151188096Y-101725680D01*
X151188096Y-101725680D02*
X151111905Y-101725680D01*
X151111905Y-101725680D02*
X151073810Y-101763775D01*
X151073810Y-101763775D02*
X151054763Y-101801870D01*
X151054763Y-101801870D02*
X151035715Y-101878061D01*
X151511905Y-101420918D02*
X151550000Y-101420918D01*
X151550000Y-101420918D02*
X151588096Y-101459013D01*
X151588096Y-101459013D02*
X151607143Y-101497108D01*
X151607143Y-101497108D02*
X151626191Y-101573299D01*
X151626191Y-101573299D02*
X151645238Y-101725680D01*
X151645238Y-101725680D02*
X151645238Y-101916156D01*
X151645238Y-101916156D02*
X151626191Y-102068537D01*
X151626191Y-102068537D02*
X151607143Y-102144727D01*
X151607143Y-102144727D02*
X151588096Y-102182823D01*
X151588096Y-102182823D02*
X151550000Y-102220918D01*
X151550000Y-102220918D02*
X151511905Y-102220918D01*
X151511905Y-102220918D02*
X151473810Y-102182823D01*
X151473810Y-102182823D02*
X151454762Y-102144727D01*
X151454762Y-102144727D02*
X151435715Y-102068537D01*
X151435715Y-102068537D02*
X151416667Y-101916156D01*
X151416667Y-101916156D02*
X151416667Y-101725680D01*
X151416667Y-101725680D02*
X151435715Y-101573299D01*
X151435715Y-101573299D02*
X151454762Y-101497108D01*
X151454762Y-101497108D02*
X151473810Y-101459013D01*
X151473810Y-101459013D02*
X151511905Y-101420918D01*
X151778571Y-101420918D02*
X152026190Y-101420918D01*
X152026190Y-101420918D02*
X151892857Y-101725680D01*
X151892857Y-101725680D02*
X151950000Y-101725680D01*
X151950000Y-101725680D02*
X151988095Y-101763775D01*
X151988095Y-101763775D02*
X152007143Y-101801870D01*
X152007143Y-101801870D02*
X152026190Y-101878061D01*
X152026190Y-101878061D02*
X152026190Y-102068537D01*
X152026190Y-102068537D02*
X152007143Y-102144727D01*
X152007143Y-102144727D02*
X151988095Y-102182823D01*
X151988095Y-102182823D02*
X151950000Y-102220918D01*
X151950000Y-102220918D02*
X151835714Y-102220918D01*
X151835714Y-102220918D02*
X151797619Y-102182823D01*
X151797619Y-102182823D02*
X151778571Y-102144727D01*
X152407142Y-102220918D02*
X152178571Y-102220918D01*
X152292857Y-102220918D02*
X152292857Y-101420918D01*
X152292857Y-101420918D02*
X152254761Y-101535203D01*
X152254761Y-101535203D02*
X152216666Y-101611394D01*
X152216666Y-101611394D02*
X152178571Y-101649489D01*
X152540475Y-101420918D02*
X152788094Y-101420918D01*
X152788094Y-101420918D02*
X152654761Y-101725680D01*
X152654761Y-101725680D02*
X152711904Y-101725680D01*
X152711904Y-101725680D02*
X152749999Y-101763775D01*
X152749999Y-101763775D02*
X152769047Y-101801870D01*
X152769047Y-101801870D02*
X152788094Y-101878061D01*
X152788094Y-101878061D02*
X152788094Y-102068537D01*
X152788094Y-102068537D02*
X152769047Y-102144727D01*
X152769047Y-102144727D02*
X152749999Y-102182823D01*
X152749999Y-102182823D02*
X152711904Y-102220918D01*
X152711904Y-102220918D02*
X152597618Y-102220918D01*
X152597618Y-102220918D02*
X152559523Y-102182823D01*
X152559523Y-102182823D02*
X152540475Y-102144727D01*
X152940475Y-101992346D02*
X153130951Y-101992346D01*
X152902380Y-102220918D02*
X153035713Y-101420918D01*
X153035713Y-101420918D02*
X153169046Y-102220918D01*
X153264284Y-102525680D02*
X153283332Y-102487584D01*
X153283332Y-102487584D02*
X153321427Y-102373299D01*
X153321427Y-102373299D02*
X153340475Y-102297108D01*
X153340475Y-102297108D02*
X153359522Y-102182823D01*
X153359522Y-102182823D02*
X153378570Y-101992346D01*
X153378570Y-101992346D02*
X153378570Y-101839965D01*
X153378570Y-101839965D02*
X153359522Y-101649489D01*
X153359522Y-101649489D02*
X153340475Y-101535203D01*
X153340475Y-101535203D02*
X153321427Y-101459013D01*
X153321427Y-101459013D02*
X153283332Y-101344727D01*
X153283332Y-101344727D02*
X153264284Y-101306632D01*
X149426191Y-103280301D02*
X149616667Y-103280301D01*
X149388096Y-103508873D02*
X149521429Y-102708873D01*
X149521429Y-102708873D02*
X149654762Y-103508873D01*
X149978572Y-102708873D02*
X149788096Y-102708873D01*
X149788096Y-102708873D02*
X149769048Y-103089825D01*
X149769048Y-103089825D02*
X149788096Y-103051730D01*
X149788096Y-103051730D02*
X149826191Y-103013635D01*
X149826191Y-103013635D02*
X149921429Y-103013635D01*
X149921429Y-103013635D02*
X149959524Y-103051730D01*
X149959524Y-103051730D02*
X149978572Y-103089825D01*
X149978572Y-103089825D02*
X149997619Y-103166016D01*
X149997619Y-103166016D02*
X149997619Y-103356492D01*
X149997619Y-103356492D02*
X149978572Y-103432682D01*
X149978572Y-103432682D02*
X149959524Y-103470778D01*
X149959524Y-103470778D02*
X149921429Y-103508873D01*
X149921429Y-103508873D02*
X149826191Y-103508873D01*
X149826191Y-103508873D02*
X149788096Y-103470778D01*
X149788096Y-103470778D02*
X149769048Y-103432682D01*
X150169048Y-103204111D02*
X150473810Y-103204111D01*
X150892857Y-103508873D02*
X150759524Y-103127920D01*
X150664286Y-103508873D02*
X150664286Y-102708873D01*
X150664286Y-102708873D02*
X150816667Y-102708873D01*
X150816667Y-102708873D02*
X150854762Y-102746968D01*
X150854762Y-102746968D02*
X150873809Y-102785063D01*
X150873809Y-102785063D02*
X150892857Y-102861254D01*
X150892857Y-102861254D02*
X150892857Y-102975539D01*
X150892857Y-102975539D02*
X150873809Y-103051730D01*
X150873809Y-103051730D02*
X150854762Y-103089825D01*
X150854762Y-103089825D02*
X150816667Y-103127920D01*
X150816667Y-103127920D02*
X150664286Y-103127920D01*
X151026190Y-102708873D02*
X151273809Y-102708873D01*
X151273809Y-102708873D02*
X151140476Y-103013635D01*
X151140476Y-103013635D02*
X151197619Y-103013635D01*
X151197619Y-103013635D02*
X151235714Y-103051730D01*
X151235714Y-103051730D02*
X151254762Y-103089825D01*
X151254762Y-103089825D02*
X151273809Y-103166016D01*
X151273809Y-103166016D02*
X151273809Y-103356492D01*
X151273809Y-103356492D02*
X151254762Y-103432682D01*
X151254762Y-103432682D02*
X151235714Y-103470778D01*
X151235714Y-103470778D02*
X151197619Y-103508873D01*
X151197619Y-103508873D02*
X151083333Y-103508873D01*
X151083333Y-103508873D02*
X151045238Y-103470778D01*
X151045238Y-103470778D02*
X151026190Y-103432682D01*
X144059046Y-90099895D02*
X144059046Y-90747514D01*
X144059046Y-90747514D02*
X144082856Y-90823704D01*
X144082856Y-90823704D02*
X144106665Y-90861800D01*
X144106665Y-90861800D02*
X144154284Y-90899895D01*
X144154284Y-90899895D02*
X144249522Y-90899895D01*
X144249522Y-90899895D02*
X144297141Y-90861800D01*
X144297141Y-90861800D02*
X144320951Y-90823704D01*
X144320951Y-90823704D02*
X144344760Y-90747514D01*
X144344760Y-90747514D02*
X144344760Y-90099895D01*
X144535237Y-90099895D02*
X144844761Y-90099895D01*
X144844761Y-90099895D02*
X144678094Y-90404657D01*
X144678094Y-90404657D02*
X144749523Y-90404657D01*
X144749523Y-90404657D02*
X144797142Y-90442752D01*
X144797142Y-90442752D02*
X144820951Y-90480847D01*
X144820951Y-90480847D02*
X144844761Y-90557038D01*
X144844761Y-90557038D02*
X144844761Y-90747514D01*
X144844761Y-90747514D02*
X144820951Y-90823704D01*
X144820951Y-90823704D02*
X144797142Y-90861800D01*
X144797142Y-90861800D02*
X144749523Y-90899895D01*
X144749523Y-90899895D02*
X144606666Y-90899895D01*
X144606666Y-90899895D02*
X144559047Y-90861800D01*
X144559047Y-90861800D02*
X144535237Y-90823704D01*
X121522203Y-90106428D02*
X121560299Y-90130237D01*
X121560299Y-90130237D02*
X121598394Y-90201666D01*
X121598394Y-90201666D02*
X121598394Y-90249285D01*
X121598394Y-90249285D02*
X121560299Y-90320713D01*
X121560299Y-90320713D02*
X121484108Y-90368332D01*
X121484108Y-90368332D02*
X121407918Y-90392142D01*
X121407918Y-90392142D02*
X121255537Y-90415951D01*
X121255537Y-90415951D02*
X121141251Y-90415951D01*
X121141251Y-90415951D02*
X120988870Y-90392142D01*
X120988870Y-90392142D02*
X120912679Y-90368332D01*
X120912679Y-90368332D02*
X120836489Y-90320713D01*
X120836489Y-90320713D02*
X120798394Y-90249285D01*
X120798394Y-90249285D02*
X120798394Y-90201666D01*
X120798394Y-90201666D02*
X120836489Y-90130237D01*
X120836489Y-90130237D02*
X120874584Y-90106428D01*
X120874584Y-89915951D02*
X120836489Y-89892142D01*
X120836489Y-89892142D02*
X120798394Y-89844523D01*
X120798394Y-89844523D02*
X120798394Y-89725475D01*
X120798394Y-89725475D02*
X120836489Y-89677856D01*
X120836489Y-89677856D02*
X120874584Y-89654047D01*
X120874584Y-89654047D02*
X120950775Y-89630237D01*
X120950775Y-89630237D02*
X121026965Y-89630237D01*
X121026965Y-89630237D02*
X121141251Y-89654047D01*
X121141251Y-89654047D02*
X121598394Y-89939761D01*
X121598394Y-89939761D02*
X121598394Y-89630237D01*
X120874584Y-89439761D02*
X120836489Y-89415952D01*
X120836489Y-89415952D02*
X120798394Y-89368333D01*
X120798394Y-89368333D02*
X120798394Y-89249285D01*
X120798394Y-89249285D02*
X120836489Y-89201666D01*
X120836489Y-89201666D02*
X120874584Y-89177857D01*
X120874584Y-89177857D02*
X120950775Y-89154047D01*
X120950775Y-89154047D02*
X121026965Y-89154047D01*
X121026965Y-89154047D02*
X121141251Y-89177857D01*
X121141251Y-89177857D02*
X121598394Y-89463571D01*
X121598394Y-89463571D02*
X121598394Y-89154047D01*
X114326905Y-110742371D02*
X114193572Y-110456657D01*
X114098334Y-110742371D02*
X114098334Y-110142371D01*
X114098334Y-110142371D02*
X114250715Y-110142371D01*
X114250715Y-110142371D02*
X114288810Y-110170942D01*
X114288810Y-110170942D02*
X114307857Y-110199514D01*
X114307857Y-110199514D02*
X114326905Y-110256657D01*
X114326905Y-110256657D02*
X114326905Y-110342371D01*
X114326905Y-110342371D02*
X114307857Y-110399514D01*
X114307857Y-110399514D02*
X114288810Y-110428085D01*
X114288810Y-110428085D02*
X114250715Y-110456657D01*
X114250715Y-110456657D02*
X114098334Y-110456657D01*
X114707857Y-110742371D02*
X114479286Y-110742371D01*
X114593572Y-110742371D02*
X114593572Y-110142371D01*
X114593572Y-110142371D02*
X114555476Y-110228085D01*
X114555476Y-110228085D02*
X114517381Y-110285228D01*
X114517381Y-110285228D02*
X114479286Y-110313800D01*
X114841190Y-110142371D02*
X115107857Y-110142371D01*
X115107857Y-110142371D02*
X114936428Y-110742371D01*
X114180952Y-102966395D02*
X114180952Y-103614014D01*
X114180952Y-103614014D02*
X114204762Y-103690204D01*
X114204762Y-103690204D02*
X114228571Y-103728300D01*
X114228571Y-103728300D02*
X114276190Y-103766395D01*
X114276190Y-103766395D02*
X114371428Y-103766395D01*
X114371428Y-103766395D02*
X114419047Y-103728300D01*
X114419047Y-103728300D02*
X114442857Y-103690204D01*
X114442857Y-103690204D02*
X114466666Y-103614014D01*
X114466666Y-103614014D02*
X114466666Y-102966395D01*
X114966667Y-103766395D02*
X114680953Y-103766395D01*
X114823810Y-103766395D02*
X114823810Y-102966395D01*
X114823810Y-102966395D02*
X114776191Y-103080680D01*
X114776191Y-103080680D02*
X114728572Y-103156871D01*
X114728572Y-103156871D02*
X114680953Y-103194966D01*
X115442857Y-103766395D02*
X115157143Y-103766395D01*
X115300000Y-103766395D02*
X115300000Y-102966395D01*
X115300000Y-102966395D02*
X115252381Y-103080680D01*
X115252381Y-103080680D02*
X115204762Y-103156871D01*
X115204762Y-103156871D02*
X115157143Y-103194966D01*
X130272203Y-106406428D02*
X130310299Y-106430237D01*
X130310299Y-106430237D02*
X130348394Y-106501666D01*
X130348394Y-106501666D02*
X130348394Y-106549285D01*
X130348394Y-106549285D02*
X130310299Y-106620713D01*
X130310299Y-106620713D02*
X130234108Y-106668332D01*
X130234108Y-106668332D02*
X130157918Y-106692142D01*
X130157918Y-106692142D02*
X130005537Y-106715951D01*
X130005537Y-106715951D02*
X129891251Y-106715951D01*
X129891251Y-106715951D02*
X129738870Y-106692142D01*
X129738870Y-106692142D02*
X129662679Y-106668332D01*
X129662679Y-106668332D02*
X129586489Y-106620713D01*
X129586489Y-106620713D02*
X129548394Y-106549285D01*
X129548394Y-106549285D02*
X129548394Y-106501666D01*
X129548394Y-106501666D02*
X129586489Y-106430237D01*
X129586489Y-106430237D02*
X129624584Y-106406428D01*
X129624584Y-106215951D02*
X129586489Y-106192142D01*
X129586489Y-106192142D02*
X129548394Y-106144523D01*
X129548394Y-106144523D02*
X129548394Y-106025475D01*
X129548394Y-106025475D02*
X129586489Y-105977856D01*
X129586489Y-105977856D02*
X129624584Y-105954047D01*
X129624584Y-105954047D02*
X129700775Y-105930237D01*
X129700775Y-105930237D02*
X129776965Y-105930237D01*
X129776965Y-105930237D02*
X129891251Y-105954047D01*
X129891251Y-105954047D02*
X130348394Y-106239761D01*
X130348394Y-106239761D02*
X130348394Y-105930237D01*
X129548394Y-105763571D02*
X129548394Y-105430238D01*
X129548394Y-105430238D02*
X130348394Y-105644523D01*
X133998704Y-95147618D02*
X134036800Y-95171427D01*
X134036800Y-95171427D02*
X134074895Y-95242856D01*
X134074895Y-95242856D02*
X134074895Y-95290475D01*
X134074895Y-95290475D02*
X134036800Y-95361903D01*
X134036800Y-95361903D02*
X133960609Y-95409522D01*
X133960609Y-95409522D02*
X133884419Y-95433332D01*
X133884419Y-95433332D02*
X133732038Y-95457141D01*
X133732038Y-95457141D02*
X133617752Y-95457141D01*
X133617752Y-95457141D02*
X133465371Y-95433332D01*
X133465371Y-95433332D02*
X133389180Y-95409522D01*
X133389180Y-95409522D02*
X133312990Y-95361903D01*
X133312990Y-95361903D02*
X133274895Y-95290475D01*
X133274895Y-95290475D02*
X133274895Y-95242856D01*
X133274895Y-95242856D02*
X133312990Y-95171427D01*
X133312990Y-95171427D02*
X133351085Y-95147618D01*
X134074895Y-94671427D02*
X134074895Y-94957141D01*
X134074895Y-94814284D02*
X133274895Y-94814284D01*
X133274895Y-94814284D02*
X133389180Y-94861903D01*
X133389180Y-94861903D02*
X133465371Y-94909522D01*
X133465371Y-94909522D02*
X133503466Y-94957141D01*
X133351085Y-94480951D02*
X133312990Y-94457142D01*
X133312990Y-94457142D02*
X133274895Y-94409523D01*
X133274895Y-94409523D02*
X133274895Y-94290475D01*
X133274895Y-94290475D02*
X133312990Y-94242856D01*
X133312990Y-94242856D02*
X133351085Y-94219047D01*
X133351085Y-94219047D02*
X133427276Y-94195237D01*
X133427276Y-94195237D02*
X133503466Y-94195237D01*
X133503466Y-94195237D02*
X133617752Y-94219047D01*
X133617752Y-94219047D02*
X134074895Y-94504761D01*
X134074895Y-94504761D02*
X134074895Y-94195237D01*
X140048395Y-110579047D02*
X140696014Y-110579047D01*
X140696014Y-110579047D02*
X140772204Y-110555237D01*
X140772204Y-110555237D02*
X140810300Y-110531428D01*
X140810300Y-110531428D02*
X140848395Y-110483809D01*
X140848395Y-110483809D02*
X140848395Y-110388571D01*
X140848395Y-110388571D02*
X140810300Y-110340952D01*
X140810300Y-110340952D02*
X140772204Y-110317142D01*
X140772204Y-110317142D02*
X140696014Y-110293333D01*
X140696014Y-110293333D02*
X140048395Y-110293333D01*
X140848395Y-109793332D02*
X140848395Y-110079046D01*
X140848395Y-109936189D02*
X140048395Y-109936189D01*
X140048395Y-109936189D02*
X140162680Y-109983808D01*
X140162680Y-109983808D02*
X140238871Y-110031427D01*
X140238871Y-110031427D02*
X140276966Y-110079046D01*
X140315061Y-109364761D02*
X140848395Y-109364761D01*
X140010300Y-109483809D02*
X140581728Y-109602856D01*
X140581728Y-109602856D02*
X140581728Y-109293333D01*
X139188870Y-106495712D02*
X138588870Y-106495712D01*
X138588870Y-106495712D02*
X138588870Y-106400474D01*
X138588870Y-106400474D02*
X138617441Y-106343331D01*
X138617441Y-106343331D02*
X138674584Y-106305236D01*
X138674584Y-106305236D02*
X138731727Y-106286189D01*
X138731727Y-106286189D02*
X138846013Y-106267141D01*
X138846013Y-106267141D02*
X138931727Y-106267141D01*
X138931727Y-106267141D02*
X139046013Y-106286189D01*
X139046013Y-106286189D02*
X139103156Y-106305236D01*
X139103156Y-106305236D02*
X139160299Y-106343331D01*
X139160299Y-106343331D02*
X139188870Y-106400474D01*
X139188870Y-106400474D02*
X139188870Y-106495712D01*
X138788870Y-105924284D02*
X139188870Y-105924284D01*
X138560299Y-106019522D02*
X138988870Y-106114760D01*
X138988870Y-106114760D02*
X138988870Y-105867141D01*
X139188870Y-105505237D02*
X139188870Y-105733808D01*
X139188870Y-105619522D02*
X138588870Y-105619522D01*
X138588870Y-105619522D02*
X138674584Y-105657618D01*
X138674584Y-105657618D02*
X138731727Y-105695713D01*
X138731727Y-105695713D02*
X138760299Y-105733808D01*
X114995204Y-94606428D02*
X115033300Y-94630237D01*
X115033300Y-94630237D02*
X115071395Y-94701666D01*
X115071395Y-94701666D02*
X115071395Y-94749285D01*
X115071395Y-94749285D02*
X115033300Y-94820713D01*
X115033300Y-94820713D02*
X114957109Y-94868332D01*
X114957109Y-94868332D02*
X114880919Y-94892142D01*
X114880919Y-94892142D02*
X114728538Y-94915951D01*
X114728538Y-94915951D02*
X114614252Y-94915951D01*
X114614252Y-94915951D02*
X114461871Y-94892142D01*
X114461871Y-94892142D02*
X114385680Y-94868332D01*
X114385680Y-94868332D02*
X114309490Y-94820713D01*
X114309490Y-94820713D02*
X114271395Y-94749285D01*
X114271395Y-94749285D02*
X114271395Y-94701666D01*
X114271395Y-94701666D02*
X114309490Y-94630237D01*
X114309490Y-94630237D02*
X114347585Y-94606428D01*
X114347585Y-94415951D02*
X114309490Y-94392142D01*
X114309490Y-94392142D02*
X114271395Y-94344523D01*
X114271395Y-94344523D02*
X114271395Y-94225475D01*
X114271395Y-94225475D02*
X114309490Y-94177856D01*
X114309490Y-94177856D02*
X114347585Y-94154047D01*
X114347585Y-94154047D02*
X114423776Y-94130237D01*
X114423776Y-94130237D02*
X114499966Y-94130237D01*
X114499966Y-94130237D02*
X114614252Y-94154047D01*
X114614252Y-94154047D02*
X115071395Y-94439761D01*
X115071395Y-94439761D02*
X115071395Y-94130237D01*
X115071395Y-93892142D02*
X115071395Y-93796904D01*
X115071395Y-93796904D02*
X115033300Y-93749285D01*
X115033300Y-93749285D02*
X114995204Y-93725476D01*
X114995204Y-93725476D02*
X114880919Y-93677857D01*
X114880919Y-93677857D02*
X114728538Y-93654047D01*
X114728538Y-93654047D02*
X114423776Y-93654047D01*
X114423776Y-93654047D02*
X114347585Y-93677857D01*
X114347585Y-93677857D02*
X114309490Y-93701666D01*
X114309490Y-93701666D02*
X114271395Y-93749285D01*
X114271395Y-93749285D02*
X114271395Y-93844523D01*
X114271395Y-93844523D02*
X114309490Y-93892142D01*
X114309490Y-93892142D02*
X114347585Y-93915952D01*
X114347585Y-93915952D02*
X114423776Y-93939761D01*
X114423776Y-93939761D02*
X114614252Y-93939761D01*
X114614252Y-93939761D02*
X114690442Y-93915952D01*
X114690442Y-93915952D02*
X114728538Y-93892142D01*
X114728538Y-93892142D02*
X114766633Y-93844523D01*
X114766633Y-93844523D02*
X114766633Y-93749285D01*
X114766633Y-93749285D02*
X114728538Y-93701666D01*
X114728538Y-93701666D02*
X114690442Y-93677857D01*
X114690442Y-93677857D02*
X114614252Y-93654047D01*
X138738704Y-94437618D02*
X138776800Y-94461427D01*
X138776800Y-94461427D02*
X138814895Y-94532856D01*
X138814895Y-94532856D02*
X138814895Y-94580475D01*
X138814895Y-94580475D02*
X138776800Y-94651903D01*
X138776800Y-94651903D02*
X138700609Y-94699522D01*
X138700609Y-94699522D02*
X138624419Y-94723332D01*
X138624419Y-94723332D02*
X138472038Y-94747141D01*
X138472038Y-94747141D02*
X138357752Y-94747141D01*
X138357752Y-94747141D02*
X138205371Y-94723332D01*
X138205371Y-94723332D02*
X138129180Y-94699522D01*
X138129180Y-94699522D02*
X138052990Y-94651903D01*
X138052990Y-94651903D02*
X138014895Y-94580475D01*
X138014895Y-94580475D02*
X138014895Y-94532856D01*
X138014895Y-94532856D02*
X138052990Y-94461427D01*
X138052990Y-94461427D02*
X138091085Y-94437618D01*
X138814895Y-93961427D02*
X138814895Y-94247141D01*
X138814895Y-94104284D02*
X138014895Y-94104284D01*
X138014895Y-94104284D02*
X138129180Y-94151903D01*
X138129180Y-94151903D02*
X138205371Y-94199522D01*
X138205371Y-94199522D02*
X138243466Y-94247141D01*
X138014895Y-93794761D02*
X138014895Y-93485237D01*
X138014895Y-93485237D02*
X138319657Y-93651904D01*
X138319657Y-93651904D02*
X138319657Y-93580475D01*
X138319657Y-93580475D02*
X138357752Y-93532856D01*
X138357752Y-93532856D02*
X138395847Y-93509047D01*
X138395847Y-93509047D02*
X138472038Y-93485237D01*
X138472038Y-93485237D02*
X138662514Y-93485237D01*
X138662514Y-93485237D02*
X138738704Y-93509047D01*
X138738704Y-93509047D02*
X138776800Y-93532856D01*
X138776800Y-93532856D02*
X138814895Y-93580475D01*
X138814895Y-93580475D02*
X138814895Y-93723332D01*
X138814895Y-93723332D02*
X138776800Y-93770951D01*
X138776800Y-93770951D02*
X138738704Y-93794761D01*
X121864895Y-96870952D02*
X122512514Y-96870952D01*
X122512514Y-96870952D02*
X122588704Y-96847142D01*
X122588704Y-96847142D02*
X122626800Y-96823333D01*
X122626800Y-96823333D02*
X122664895Y-96775714D01*
X122664895Y-96775714D02*
X122664895Y-96680476D01*
X122664895Y-96680476D02*
X122626800Y-96632857D01*
X122626800Y-96632857D02*
X122588704Y-96609047D01*
X122588704Y-96609047D02*
X122512514Y-96585238D01*
X122512514Y-96585238D02*
X121864895Y-96585238D01*
X121864895Y-96109047D02*
X121864895Y-96347142D01*
X121864895Y-96347142D02*
X122245847Y-96370951D01*
X122245847Y-96370951D02*
X122207752Y-96347142D01*
X122207752Y-96347142D02*
X122169657Y-96299523D01*
X122169657Y-96299523D02*
X122169657Y-96180475D01*
X122169657Y-96180475D02*
X122207752Y-96132856D01*
X122207752Y-96132856D02*
X122245847Y-96109047D01*
X122245847Y-96109047D02*
X122322038Y-96085237D01*
X122322038Y-96085237D02*
X122512514Y-96085237D01*
X122512514Y-96085237D02*
X122588704Y-96109047D01*
X122588704Y-96109047D02*
X122626800Y-96132856D01*
X122626800Y-96132856D02*
X122664895Y-96180475D01*
X122664895Y-96180475D02*
X122664895Y-96299523D01*
X122664895Y-96299523D02*
X122626800Y-96347142D01*
X122626800Y-96347142D02*
X122588704Y-96370951D01*
X115126395Y-96411428D02*
X114745442Y-96578094D01*
X115126395Y-96697142D02*
X114326395Y-96697142D01*
X114326395Y-96697142D02*
X114326395Y-96506666D01*
X114326395Y-96506666D02*
X114364490Y-96459047D01*
X114364490Y-96459047D02*
X114402585Y-96435237D01*
X114402585Y-96435237D02*
X114478776Y-96411428D01*
X114478776Y-96411428D02*
X114593061Y-96411428D01*
X114593061Y-96411428D02*
X114669252Y-96435237D01*
X114669252Y-96435237D02*
X114707347Y-96459047D01*
X114707347Y-96459047D02*
X114745442Y-96506666D01*
X114745442Y-96506666D02*
X114745442Y-96697142D01*
X115126395Y-95935237D02*
X115126395Y-96220951D01*
X115126395Y-96078094D02*
X114326395Y-96078094D01*
X114326395Y-96078094D02*
X114440680Y-96125713D01*
X114440680Y-96125713D02*
X114516871Y-96173332D01*
X114516871Y-96173332D02*
X114554966Y-96220951D01*
X114326395Y-95768571D02*
X114326395Y-95459047D01*
X114326395Y-95459047D02*
X114631157Y-95625714D01*
X114631157Y-95625714D02*
X114631157Y-95554285D01*
X114631157Y-95554285D02*
X114669252Y-95506666D01*
X114669252Y-95506666D02*
X114707347Y-95482857D01*
X114707347Y-95482857D02*
X114783538Y-95459047D01*
X114783538Y-95459047D02*
X114974014Y-95459047D01*
X114974014Y-95459047D02*
X115050204Y-95482857D01*
X115050204Y-95482857D02*
X115088300Y-95506666D01*
X115088300Y-95506666D02*
X115126395Y-95554285D01*
X115126395Y-95554285D02*
X115126395Y-95697142D01*
X115126395Y-95697142D02*
X115088300Y-95744761D01*
X115088300Y-95744761D02*
X115050204Y-95768571D01*
X133631394Y-104607142D02*
X132831394Y-104607142D01*
X132831394Y-104607142D02*
X132831394Y-104488094D01*
X132831394Y-104488094D02*
X132869489Y-104416666D01*
X132869489Y-104416666D02*
X132945679Y-104369047D01*
X132945679Y-104369047D02*
X133021870Y-104345237D01*
X133021870Y-104345237D02*
X133174251Y-104321428D01*
X133174251Y-104321428D02*
X133288537Y-104321428D01*
X133288537Y-104321428D02*
X133440918Y-104345237D01*
X133440918Y-104345237D02*
X133517108Y-104369047D01*
X133517108Y-104369047D02*
X133593299Y-104416666D01*
X133593299Y-104416666D02*
X133631394Y-104488094D01*
X133631394Y-104488094D02*
X133631394Y-104607142D01*
X132831394Y-104154761D02*
X132831394Y-103845237D01*
X132831394Y-103845237D02*
X133136156Y-104011904D01*
X133136156Y-104011904D02*
X133136156Y-103940475D01*
X133136156Y-103940475D02*
X133174251Y-103892856D01*
X133174251Y-103892856D02*
X133212346Y-103869047D01*
X133212346Y-103869047D02*
X133288537Y-103845237D01*
X133288537Y-103845237D02*
X133479013Y-103845237D01*
X133479013Y-103845237D02*
X133555203Y-103869047D01*
X133555203Y-103869047D02*
X133593299Y-103892856D01*
X133593299Y-103892856D02*
X133631394Y-103940475D01*
X133631394Y-103940475D02*
X133631394Y-104083332D01*
X133631394Y-104083332D02*
X133593299Y-104130951D01*
X133593299Y-104130951D02*
X133555203Y-104154761D01*
X132831394Y-103535714D02*
X132831394Y-103488095D01*
X132831394Y-103488095D02*
X132869489Y-103440476D01*
X132869489Y-103440476D02*
X132907584Y-103416666D01*
X132907584Y-103416666D02*
X132983775Y-103392857D01*
X132983775Y-103392857D02*
X133136156Y-103369047D01*
X133136156Y-103369047D02*
X133326632Y-103369047D01*
X133326632Y-103369047D02*
X133479013Y-103392857D01*
X133479013Y-103392857D02*
X133555203Y-103416666D01*
X133555203Y-103416666D02*
X133593299Y-103440476D01*
X133593299Y-103440476D02*
X133631394Y-103488095D01*
X133631394Y-103488095D02*
X133631394Y-103535714D01*
X133631394Y-103535714D02*
X133593299Y-103583333D01*
X133593299Y-103583333D02*
X133555203Y-103607142D01*
X133555203Y-103607142D02*
X133479013Y-103630952D01*
X133479013Y-103630952D02*
X133326632Y-103654761D01*
X133326632Y-103654761D02*
X133136156Y-103654761D01*
X133136156Y-103654761D02*
X132983775Y-103630952D01*
X132983775Y-103630952D02*
X132907584Y-103607142D01*
X132907584Y-103607142D02*
X132869489Y-103583333D01*
X132869489Y-103583333D02*
X132831394Y-103535714D01*
X114705204Y-91446428D02*
X114743300Y-91470237D01*
X114743300Y-91470237D02*
X114781395Y-91541666D01*
X114781395Y-91541666D02*
X114781395Y-91589285D01*
X114781395Y-91589285D02*
X114743300Y-91660713D01*
X114743300Y-91660713D02*
X114667109Y-91708332D01*
X114667109Y-91708332D02*
X114590919Y-91732142D01*
X114590919Y-91732142D02*
X114438538Y-91755951D01*
X114438538Y-91755951D02*
X114324252Y-91755951D01*
X114324252Y-91755951D02*
X114171871Y-91732142D01*
X114171871Y-91732142D02*
X114095680Y-91708332D01*
X114095680Y-91708332D02*
X114019490Y-91660713D01*
X114019490Y-91660713D02*
X113981395Y-91589285D01*
X113981395Y-91589285D02*
X113981395Y-91541666D01*
X113981395Y-91541666D02*
X114019490Y-91470237D01*
X114019490Y-91470237D02*
X114057585Y-91446428D01*
X114057585Y-91255951D02*
X114019490Y-91232142D01*
X114019490Y-91232142D02*
X113981395Y-91184523D01*
X113981395Y-91184523D02*
X113981395Y-91065475D01*
X113981395Y-91065475D02*
X114019490Y-91017856D01*
X114019490Y-91017856D02*
X114057585Y-90994047D01*
X114057585Y-90994047D02*
X114133776Y-90970237D01*
X114133776Y-90970237D02*
X114209966Y-90970237D01*
X114209966Y-90970237D02*
X114324252Y-90994047D01*
X114324252Y-90994047D02*
X114781395Y-91279761D01*
X114781395Y-91279761D02*
X114781395Y-90970237D01*
X113981395Y-90517857D02*
X113981395Y-90755952D01*
X113981395Y-90755952D02*
X114362347Y-90779761D01*
X114362347Y-90779761D02*
X114324252Y-90755952D01*
X114324252Y-90755952D02*
X114286157Y-90708333D01*
X114286157Y-90708333D02*
X114286157Y-90589285D01*
X114286157Y-90589285D02*
X114324252Y-90541666D01*
X114324252Y-90541666D02*
X114362347Y-90517857D01*
X114362347Y-90517857D02*
X114438538Y-90494047D01*
X114438538Y-90494047D02*
X114629014Y-90494047D01*
X114629014Y-90494047D02*
X114705204Y-90517857D01*
X114705204Y-90517857D02*
X114743300Y-90541666D01*
X114743300Y-90541666D02*
X114781395Y-90589285D01*
X114781395Y-90589285D02*
X114781395Y-90708333D01*
X114781395Y-90708333D02*
X114743300Y-90755952D01*
X114743300Y-90755952D02*
X114705204Y-90779761D01*
X108013204Y-99029595D02*
X108013204Y-99601023D01*
X108013204Y-99601023D02*
X107989395Y-99715309D01*
X107989395Y-99715309D02*
X107941776Y-99791500D01*
X107941776Y-99791500D02*
X107870347Y-99829595D01*
X107870347Y-99829595D02*
X107822728Y-99829595D01*
X108227490Y-99105785D02*
X108251299Y-99067690D01*
X108251299Y-99067690D02*
X108298918Y-99029595D01*
X108298918Y-99029595D02*
X108417966Y-99029595D01*
X108417966Y-99029595D02*
X108465585Y-99067690D01*
X108465585Y-99067690D02*
X108489394Y-99105785D01*
X108489394Y-99105785D02*
X108513204Y-99181976D01*
X108513204Y-99181976D02*
X108513204Y-99258166D01*
X108513204Y-99258166D02*
X108489394Y-99372452D01*
X108489394Y-99372452D02*
X108203680Y-99829595D01*
X108203680Y-99829595D02*
X108513204Y-99829595D01*
X111264895Y-94401428D02*
X110883942Y-94568094D01*
X111264895Y-94687142D02*
X110464895Y-94687142D01*
X110464895Y-94687142D02*
X110464895Y-94496666D01*
X110464895Y-94496666D02*
X110502990Y-94449047D01*
X110502990Y-94449047D02*
X110541085Y-94425237D01*
X110541085Y-94425237D02*
X110617276Y-94401428D01*
X110617276Y-94401428D02*
X110731561Y-94401428D01*
X110731561Y-94401428D02*
X110807752Y-94425237D01*
X110807752Y-94425237D02*
X110845847Y-94449047D01*
X110845847Y-94449047D02*
X110883942Y-94496666D01*
X110883942Y-94496666D02*
X110883942Y-94687142D01*
X110541085Y-94210951D02*
X110502990Y-94187142D01*
X110502990Y-94187142D02*
X110464895Y-94139523D01*
X110464895Y-94139523D02*
X110464895Y-94020475D01*
X110464895Y-94020475D02*
X110502990Y-93972856D01*
X110502990Y-93972856D02*
X110541085Y-93949047D01*
X110541085Y-93949047D02*
X110617276Y-93925237D01*
X110617276Y-93925237D02*
X110693466Y-93925237D01*
X110693466Y-93925237D02*
X110807752Y-93949047D01*
X110807752Y-93949047D02*
X111264895Y-94234761D01*
X111264895Y-94234761D02*
X111264895Y-93925237D01*
X144968571Y-93337204D02*
X144944762Y-93375300D01*
X144944762Y-93375300D02*
X144873333Y-93413395D01*
X144873333Y-93413395D02*
X144825714Y-93413395D01*
X144825714Y-93413395D02*
X144754286Y-93375300D01*
X144754286Y-93375300D02*
X144706667Y-93299109D01*
X144706667Y-93299109D02*
X144682857Y-93222919D01*
X144682857Y-93222919D02*
X144659048Y-93070538D01*
X144659048Y-93070538D02*
X144659048Y-92956252D01*
X144659048Y-92956252D02*
X144682857Y-92803871D01*
X144682857Y-92803871D02*
X144706667Y-92727680D01*
X144706667Y-92727680D02*
X144754286Y-92651490D01*
X144754286Y-92651490D02*
X144825714Y-92613395D01*
X144825714Y-92613395D02*
X144873333Y-92613395D01*
X144873333Y-92613395D02*
X144944762Y-92651490D01*
X144944762Y-92651490D02*
X144968571Y-92689585D01*
X145159048Y-92689585D02*
X145182857Y-92651490D01*
X145182857Y-92651490D02*
X145230476Y-92613395D01*
X145230476Y-92613395D02*
X145349524Y-92613395D01*
X145349524Y-92613395D02*
X145397143Y-92651490D01*
X145397143Y-92651490D02*
X145420952Y-92689585D01*
X145420952Y-92689585D02*
X145444762Y-92765776D01*
X145444762Y-92765776D02*
X145444762Y-92841966D01*
X145444762Y-92841966D02*
X145420952Y-92956252D01*
X145420952Y-92956252D02*
X145135238Y-93413395D01*
X145135238Y-93413395D02*
X145444762Y-93413395D01*
X145873333Y-92613395D02*
X145778095Y-92613395D01*
X145778095Y-92613395D02*
X145730476Y-92651490D01*
X145730476Y-92651490D02*
X145706666Y-92689585D01*
X145706666Y-92689585D02*
X145659047Y-92803871D01*
X145659047Y-92803871D02*
X145635238Y-92956252D01*
X145635238Y-92956252D02*
X145635238Y-93261014D01*
X145635238Y-93261014D02*
X145659047Y-93337204D01*
X145659047Y-93337204D02*
X145682857Y-93375300D01*
X145682857Y-93375300D02*
X145730476Y-93413395D01*
X145730476Y-93413395D02*
X145825714Y-93413395D01*
X145825714Y-93413395D02*
X145873333Y-93375300D01*
X145873333Y-93375300D02*
X145897142Y-93337204D01*
X145897142Y-93337204D02*
X145920952Y-93261014D01*
X145920952Y-93261014D02*
X145920952Y-93070538D01*
X145920952Y-93070538D02*
X145897142Y-92994347D01*
X145897142Y-92994347D02*
X145873333Y-92956252D01*
X145873333Y-92956252D02*
X145825714Y-92918157D01*
X145825714Y-92918157D02*
X145730476Y-92918157D01*
X145730476Y-92918157D02*
X145682857Y-92956252D01*
X145682857Y-92956252D02*
X145659047Y-92994347D01*
X145659047Y-92994347D02*
X145635238Y-93070538D01*
X103474761Y-92174895D02*
X103474761Y-92746323D01*
X103474761Y-92746323D02*
X103450952Y-92860609D01*
X103450952Y-92860609D02*
X103403333Y-92936800D01*
X103403333Y-92936800D02*
X103331904Y-92974895D01*
X103331904Y-92974895D02*
X103284285Y-92974895D01*
X103950951Y-92174895D02*
X103712856Y-92174895D01*
X103712856Y-92174895D02*
X103689047Y-92555847D01*
X103689047Y-92555847D02*
X103712856Y-92517752D01*
X103712856Y-92517752D02*
X103760475Y-92479657D01*
X103760475Y-92479657D02*
X103879523Y-92479657D01*
X103879523Y-92479657D02*
X103927142Y-92517752D01*
X103927142Y-92517752D02*
X103950951Y-92555847D01*
X103950951Y-92555847D02*
X103974761Y-92632038D01*
X103974761Y-92632038D02*
X103974761Y-92822514D01*
X103974761Y-92822514D02*
X103950951Y-92898704D01*
X103950951Y-92898704D02*
X103927142Y-92936800D01*
X103927142Y-92936800D02*
X103879523Y-92974895D01*
X103879523Y-92974895D02*
X103760475Y-92974895D01*
X103760475Y-92974895D02*
X103712856Y-92936800D01*
X103712856Y-92936800D02*
X103689047Y-92898704D01*
X122179047Y-99464894D02*
X122179047Y-100112513D01*
X122179047Y-100112513D02*
X122202857Y-100188703D01*
X122202857Y-100188703D02*
X122226666Y-100226799D01*
X122226666Y-100226799D02*
X122274285Y-100264894D01*
X122274285Y-100264894D02*
X122369523Y-100264894D01*
X122369523Y-100264894D02*
X122417142Y-100226799D01*
X122417142Y-100226799D02*
X122440952Y-100188703D01*
X122440952Y-100188703D02*
X122464761Y-100112513D01*
X122464761Y-100112513D02*
X122464761Y-99464894D01*
X122917143Y-99731560D02*
X122917143Y-100264894D01*
X122798095Y-99426799D02*
X122679048Y-99998227D01*
X122679048Y-99998227D02*
X122988571Y-99998227D01*
X113276395Y-109961427D02*
X112895442Y-110128093D01*
X113276395Y-110247141D02*
X112476395Y-110247141D01*
X112476395Y-110247141D02*
X112476395Y-110056665D01*
X112476395Y-110056665D02*
X112514490Y-110009046D01*
X112514490Y-110009046D02*
X112552585Y-109985236D01*
X112552585Y-109985236D02*
X112628776Y-109961427D01*
X112628776Y-109961427D02*
X112743061Y-109961427D01*
X112743061Y-109961427D02*
X112819252Y-109985236D01*
X112819252Y-109985236D02*
X112857347Y-110009046D01*
X112857347Y-110009046D02*
X112895442Y-110056665D01*
X112895442Y-110056665D02*
X112895442Y-110247141D01*
X112552585Y-109770950D02*
X112514490Y-109747141D01*
X112514490Y-109747141D02*
X112476395Y-109699522D01*
X112476395Y-109699522D02*
X112476395Y-109580474D01*
X112476395Y-109580474D02*
X112514490Y-109532855D01*
X112514490Y-109532855D02*
X112552585Y-109509046D01*
X112552585Y-109509046D02*
X112628776Y-109485236D01*
X112628776Y-109485236D02*
X112704966Y-109485236D01*
X112704966Y-109485236D02*
X112819252Y-109509046D01*
X112819252Y-109509046D02*
X113276395Y-109794760D01*
X113276395Y-109794760D02*
X113276395Y-109485236D01*
X112476395Y-109175713D02*
X112476395Y-109128094D01*
X112476395Y-109128094D02*
X112514490Y-109080475D01*
X112514490Y-109080475D02*
X112552585Y-109056665D01*
X112552585Y-109056665D02*
X112628776Y-109032856D01*
X112628776Y-109032856D02*
X112781157Y-109009046D01*
X112781157Y-109009046D02*
X112971633Y-109009046D01*
X112971633Y-109009046D02*
X113124014Y-109032856D01*
X113124014Y-109032856D02*
X113200204Y-109056665D01*
X113200204Y-109056665D02*
X113238300Y-109080475D01*
X113238300Y-109080475D02*
X113276395Y-109128094D01*
X113276395Y-109128094D02*
X113276395Y-109175713D01*
X113276395Y-109175713D02*
X113238300Y-109223332D01*
X113238300Y-109223332D02*
X113200204Y-109247141D01*
X113200204Y-109247141D02*
X113124014Y-109270951D01*
X113124014Y-109270951D02*
X112971633Y-109294760D01*
X112971633Y-109294760D02*
X112781157Y-109294760D01*
X112781157Y-109294760D02*
X112628776Y-109270951D01*
X112628776Y-109270951D02*
X112552585Y-109247141D01*
X112552585Y-109247141D02*
X112514490Y-109223332D01*
X112514490Y-109223332D02*
X112476395Y-109175713D01*
X129805204Y-94256427D02*
X129843300Y-94280236D01*
X129843300Y-94280236D02*
X129881395Y-94351665D01*
X129881395Y-94351665D02*
X129881395Y-94399284D01*
X129881395Y-94399284D02*
X129843300Y-94470712D01*
X129843300Y-94470712D02*
X129767109Y-94518331D01*
X129767109Y-94518331D02*
X129690919Y-94542141D01*
X129690919Y-94542141D02*
X129538538Y-94565950D01*
X129538538Y-94565950D02*
X129424252Y-94565950D01*
X129424252Y-94565950D02*
X129271871Y-94542141D01*
X129271871Y-94542141D02*
X129195680Y-94518331D01*
X129195680Y-94518331D02*
X129119490Y-94470712D01*
X129119490Y-94470712D02*
X129081395Y-94399284D01*
X129081395Y-94399284D02*
X129081395Y-94351665D01*
X129081395Y-94351665D02*
X129119490Y-94280236D01*
X129119490Y-94280236D02*
X129157585Y-94256427D01*
X129081395Y-93804046D02*
X129081395Y-94042141D01*
X129081395Y-94042141D02*
X129462347Y-94065950D01*
X129462347Y-94065950D02*
X129424252Y-94042141D01*
X129424252Y-94042141D02*
X129386157Y-93994522D01*
X129386157Y-93994522D02*
X129386157Y-93875474D01*
X129386157Y-93875474D02*
X129424252Y-93827855D01*
X129424252Y-93827855D02*
X129462347Y-93804046D01*
X129462347Y-93804046D02*
X129538538Y-93780236D01*
X129538538Y-93780236D02*
X129729014Y-93780236D01*
X129729014Y-93780236D02*
X129805204Y-93804046D01*
X129805204Y-93804046D02*
X129843300Y-93827855D01*
X129843300Y-93827855D02*
X129881395Y-93875474D01*
X129881395Y-93875474D02*
X129881395Y-93994522D01*
X129881395Y-93994522D02*
X129843300Y-94042141D01*
X129843300Y-94042141D02*
X129805204Y-94065950D01*
X129881395Y-93304046D02*
X129881395Y-93589760D01*
X129881395Y-93446903D02*
X129081395Y-93446903D01*
X129081395Y-93446903D02*
X129195680Y-93494522D01*
X129195680Y-93494522D02*
X129271871Y-93542141D01*
X129271871Y-93542141D02*
X129309966Y-93589760D01*
X107738704Y-103555237D02*
X107776800Y-103579046D01*
X107776800Y-103579046D02*
X107814895Y-103650475D01*
X107814895Y-103650475D02*
X107814895Y-103698094D01*
X107814895Y-103698094D02*
X107776800Y-103769522D01*
X107776800Y-103769522D02*
X107700609Y-103817141D01*
X107700609Y-103817141D02*
X107624419Y-103840951D01*
X107624419Y-103840951D02*
X107472038Y-103864760D01*
X107472038Y-103864760D02*
X107357752Y-103864760D01*
X107357752Y-103864760D02*
X107205371Y-103840951D01*
X107205371Y-103840951D02*
X107129180Y-103817141D01*
X107129180Y-103817141D02*
X107052990Y-103769522D01*
X107052990Y-103769522D02*
X107014895Y-103698094D01*
X107014895Y-103698094D02*
X107014895Y-103650475D01*
X107014895Y-103650475D02*
X107052990Y-103579046D01*
X107052990Y-103579046D02*
X107091085Y-103555237D01*
X107014895Y-103388570D02*
X107014895Y-103079046D01*
X107014895Y-103079046D02*
X107319657Y-103245713D01*
X107319657Y-103245713D02*
X107319657Y-103174284D01*
X107319657Y-103174284D02*
X107357752Y-103126665D01*
X107357752Y-103126665D02*
X107395847Y-103102856D01*
X107395847Y-103102856D02*
X107472038Y-103079046D01*
X107472038Y-103079046D02*
X107662514Y-103079046D01*
X107662514Y-103079046D02*
X107738704Y-103102856D01*
X107738704Y-103102856D02*
X107776800Y-103126665D01*
X107776800Y-103126665D02*
X107814895Y-103174284D01*
X107814895Y-103174284D02*
X107814895Y-103317141D01*
X107814895Y-103317141D02*
X107776800Y-103364760D01*
X107776800Y-103364760D02*
X107738704Y-103388570D01*
X126172204Y-94246428D02*
X126210300Y-94270237D01*
X126210300Y-94270237D02*
X126248395Y-94341666D01*
X126248395Y-94341666D02*
X126248395Y-94389285D01*
X126248395Y-94389285D02*
X126210300Y-94460713D01*
X126210300Y-94460713D02*
X126134109Y-94508332D01*
X126134109Y-94508332D02*
X126057919Y-94532142D01*
X126057919Y-94532142D02*
X125905538Y-94555951D01*
X125905538Y-94555951D02*
X125791252Y-94555951D01*
X125791252Y-94555951D02*
X125638871Y-94532142D01*
X125638871Y-94532142D02*
X125562680Y-94508332D01*
X125562680Y-94508332D02*
X125486490Y-94460713D01*
X125486490Y-94460713D02*
X125448395Y-94389285D01*
X125448395Y-94389285D02*
X125448395Y-94341666D01*
X125448395Y-94341666D02*
X125486490Y-94270237D01*
X125486490Y-94270237D02*
X125524585Y-94246428D01*
X125524585Y-94055951D02*
X125486490Y-94032142D01*
X125486490Y-94032142D02*
X125448395Y-93984523D01*
X125448395Y-93984523D02*
X125448395Y-93865475D01*
X125448395Y-93865475D02*
X125486490Y-93817856D01*
X125486490Y-93817856D02*
X125524585Y-93794047D01*
X125524585Y-93794047D02*
X125600776Y-93770237D01*
X125600776Y-93770237D02*
X125676966Y-93770237D01*
X125676966Y-93770237D02*
X125791252Y-93794047D01*
X125791252Y-93794047D02*
X126248395Y-94079761D01*
X126248395Y-94079761D02*
X126248395Y-93770237D01*
X125715061Y-93341666D02*
X126248395Y-93341666D01*
X125410300Y-93460714D02*
X125981728Y-93579761D01*
X125981728Y-93579761D02*
X125981728Y-93270238D01*
X122709895Y-101820237D02*
X122328942Y-101986903D01*
X122709895Y-102105951D02*
X121909895Y-102105951D01*
X121909895Y-102105951D02*
X121909895Y-101915475D01*
X121909895Y-101915475D02*
X121947990Y-101867856D01*
X121947990Y-101867856D02*
X121986085Y-101844046D01*
X121986085Y-101844046D02*
X122062276Y-101820237D01*
X122062276Y-101820237D02*
X122176561Y-101820237D01*
X122176561Y-101820237D02*
X122252752Y-101844046D01*
X122252752Y-101844046D02*
X122290847Y-101867856D01*
X122290847Y-101867856D02*
X122328942Y-101915475D01*
X122328942Y-101915475D02*
X122328942Y-102105951D01*
X122709895Y-101344046D02*
X122709895Y-101629760D01*
X122709895Y-101486903D02*
X121909895Y-101486903D01*
X121909895Y-101486903D02*
X122024180Y-101534522D01*
X122024180Y-101534522D02*
X122100371Y-101582141D01*
X122100371Y-101582141D02*
X122138466Y-101629760D01*
X122252752Y-101058332D02*
X122214657Y-101105951D01*
X122214657Y-101105951D02*
X122176561Y-101129761D01*
X122176561Y-101129761D02*
X122100371Y-101153570D01*
X122100371Y-101153570D02*
X122062276Y-101153570D01*
X122062276Y-101153570D02*
X121986085Y-101129761D01*
X121986085Y-101129761D02*
X121947990Y-101105951D01*
X121947990Y-101105951D02*
X121909895Y-101058332D01*
X121909895Y-101058332D02*
X121909895Y-100963094D01*
X121909895Y-100963094D02*
X121947990Y-100915475D01*
X121947990Y-100915475D02*
X121986085Y-100891666D01*
X121986085Y-100891666D02*
X122062276Y-100867856D01*
X122062276Y-100867856D02*
X122100371Y-100867856D01*
X122100371Y-100867856D02*
X122176561Y-100891666D01*
X122176561Y-100891666D02*
X122214657Y-100915475D01*
X122214657Y-100915475D02*
X122252752Y-100963094D01*
X122252752Y-100963094D02*
X122252752Y-101058332D01*
X122252752Y-101058332D02*
X122290847Y-101105951D01*
X122290847Y-101105951D02*
X122328942Y-101129761D01*
X122328942Y-101129761D02*
X122405133Y-101153570D01*
X122405133Y-101153570D02*
X122557514Y-101153570D01*
X122557514Y-101153570D02*
X122633704Y-101129761D01*
X122633704Y-101129761D02*
X122671800Y-101105951D01*
X122671800Y-101105951D02*
X122709895Y-101058332D01*
X122709895Y-101058332D02*
X122709895Y-100963094D01*
X122709895Y-100963094D02*
X122671800Y-100915475D01*
X122671800Y-100915475D02*
X122633704Y-100891666D01*
X122633704Y-100891666D02*
X122557514Y-100867856D01*
X122557514Y-100867856D02*
X122405133Y-100867856D01*
X122405133Y-100867856D02*
X122328942Y-100891666D01*
X122328942Y-100891666D02*
X122290847Y-100915475D01*
X122290847Y-100915475D02*
X122252752Y-100963094D01*
X135081727Y-105042142D02*
X135110299Y-105061190D01*
X135110299Y-105061190D02*
X135138870Y-105118332D01*
X135138870Y-105118332D02*
X135138870Y-105156428D01*
X135138870Y-105156428D02*
X135110299Y-105213571D01*
X135110299Y-105213571D02*
X135053156Y-105251666D01*
X135053156Y-105251666D02*
X134996013Y-105270713D01*
X134996013Y-105270713D02*
X134881727Y-105289761D01*
X134881727Y-105289761D02*
X134796013Y-105289761D01*
X134796013Y-105289761D02*
X134681727Y-105270713D01*
X134681727Y-105270713D02*
X134624584Y-105251666D01*
X134624584Y-105251666D02*
X134567441Y-105213571D01*
X134567441Y-105213571D02*
X134538870Y-105156428D01*
X134538870Y-105156428D02*
X134538870Y-105118332D01*
X134538870Y-105118332D02*
X134567441Y-105061190D01*
X134567441Y-105061190D02*
X134596013Y-105042142D01*
X134738870Y-104699285D02*
X135138870Y-104699285D01*
X134510299Y-104794523D02*
X134938870Y-104889761D01*
X134938870Y-104889761D02*
X134938870Y-104642142D01*
X135138870Y-104280238D02*
X135138870Y-104508809D01*
X135138870Y-104394523D02*
X134538870Y-104394523D01*
X134538870Y-104394523D02*
X134624584Y-104432619D01*
X134624584Y-104432619D02*
X134681727Y-104470714D01*
X134681727Y-104470714D02*
X134710299Y-104508809D01*
X127578571Y-94063395D02*
X127411905Y-93682442D01*
X127292857Y-94063395D02*
X127292857Y-93263395D01*
X127292857Y-93263395D02*
X127483333Y-93263395D01*
X127483333Y-93263395D02*
X127530952Y-93301490D01*
X127530952Y-93301490D02*
X127554762Y-93339585D01*
X127554762Y-93339585D02*
X127578571Y-93415776D01*
X127578571Y-93415776D02*
X127578571Y-93530061D01*
X127578571Y-93530061D02*
X127554762Y-93606252D01*
X127554762Y-93606252D02*
X127530952Y-93644347D01*
X127530952Y-93644347D02*
X127483333Y-93682442D01*
X127483333Y-93682442D02*
X127292857Y-93682442D01*
X128007143Y-93530061D02*
X128007143Y-94063395D01*
X127888095Y-93225300D02*
X127769048Y-93796728D01*
X127769048Y-93796728D02*
X128078571Y-93796728D01*
X128364285Y-93263395D02*
X128411904Y-93263395D01*
X128411904Y-93263395D02*
X128459523Y-93301490D01*
X128459523Y-93301490D02*
X128483333Y-93339585D01*
X128483333Y-93339585D02*
X128507142Y-93415776D01*
X128507142Y-93415776D02*
X128530952Y-93568157D01*
X128530952Y-93568157D02*
X128530952Y-93758633D01*
X128530952Y-93758633D02*
X128507142Y-93911014D01*
X128507142Y-93911014D02*
X128483333Y-93987204D01*
X128483333Y-93987204D02*
X128459523Y-94025300D01*
X128459523Y-94025300D02*
X128411904Y-94063395D01*
X128411904Y-94063395D02*
X128364285Y-94063395D01*
X128364285Y-94063395D02*
X128316666Y-94025300D01*
X128316666Y-94025300D02*
X128292857Y-93987204D01*
X128292857Y-93987204D02*
X128269047Y-93911014D01*
X128269047Y-93911014D02*
X128245238Y-93758633D01*
X128245238Y-93758633D02*
X128245238Y-93568157D01*
X128245238Y-93568157D02*
X128269047Y-93415776D01*
X128269047Y-93415776D02*
X128292857Y-93339585D01*
X128292857Y-93339585D02*
X128316666Y-93301490D01*
X128316666Y-93301490D02*
X128364285Y-93263395D01*
X121532204Y-103581427D02*
X121570300Y-103605236D01*
X121570300Y-103605236D02*
X121608395Y-103676665D01*
X121608395Y-103676665D02*
X121608395Y-103724284D01*
X121608395Y-103724284D02*
X121570300Y-103795712D01*
X121570300Y-103795712D02*
X121494109Y-103843331D01*
X121494109Y-103843331D02*
X121417919Y-103867141D01*
X121417919Y-103867141D02*
X121265538Y-103890950D01*
X121265538Y-103890950D02*
X121151252Y-103890950D01*
X121151252Y-103890950D02*
X120998871Y-103867141D01*
X120998871Y-103867141D02*
X120922680Y-103843331D01*
X120922680Y-103843331D02*
X120846490Y-103795712D01*
X120846490Y-103795712D02*
X120808395Y-103724284D01*
X120808395Y-103724284D02*
X120808395Y-103676665D01*
X120808395Y-103676665D02*
X120846490Y-103605236D01*
X120846490Y-103605236D02*
X120884585Y-103581427D01*
X120808395Y-103152855D02*
X120808395Y-103248093D01*
X120808395Y-103248093D02*
X120846490Y-103295712D01*
X120846490Y-103295712D02*
X120884585Y-103319522D01*
X120884585Y-103319522D02*
X120998871Y-103367141D01*
X120998871Y-103367141D02*
X121151252Y-103390950D01*
X121151252Y-103390950D02*
X121456014Y-103390950D01*
X121456014Y-103390950D02*
X121532204Y-103367141D01*
X121532204Y-103367141D02*
X121570300Y-103343331D01*
X121570300Y-103343331D02*
X121608395Y-103295712D01*
X121608395Y-103295712D02*
X121608395Y-103200474D01*
X121608395Y-103200474D02*
X121570300Y-103152855D01*
X121570300Y-103152855D02*
X121532204Y-103129046D01*
X121532204Y-103129046D02*
X121456014Y-103105236D01*
X121456014Y-103105236D02*
X121265538Y-103105236D01*
X121265538Y-103105236D02*
X121189347Y-103129046D01*
X121189347Y-103129046D02*
X121151252Y-103152855D01*
X121151252Y-103152855D02*
X121113157Y-103200474D01*
X121113157Y-103200474D02*
X121113157Y-103295712D01*
X121113157Y-103295712D02*
X121151252Y-103343331D01*
X121151252Y-103343331D02*
X121189347Y-103367141D01*
X121189347Y-103367141D02*
X121265538Y-103390950D01*
X120808395Y-102795713D02*
X120808395Y-102748094D01*
X120808395Y-102748094D02*
X120846490Y-102700475D01*
X120846490Y-102700475D02*
X120884585Y-102676665D01*
X120884585Y-102676665D02*
X120960776Y-102652856D01*
X120960776Y-102652856D02*
X121113157Y-102629046D01*
X121113157Y-102629046D02*
X121303633Y-102629046D01*
X121303633Y-102629046D02*
X121456014Y-102652856D01*
X121456014Y-102652856D02*
X121532204Y-102676665D01*
X121532204Y-102676665D02*
X121570300Y-102700475D01*
X121570300Y-102700475D02*
X121608395Y-102748094D01*
X121608395Y-102748094D02*
X121608395Y-102795713D01*
X121608395Y-102795713D02*
X121570300Y-102843332D01*
X121570300Y-102843332D02*
X121532204Y-102867141D01*
X121532204Y-102867141D02*
X121456014Y-102890951D01*
X121456014Y-102890951D02*
X121303633Y-102914760D01*
X121303633Y-102914760D02*
X121113157Y-102914760D01*
X121113157Y-102914760D02*
X120960776Y-102890951D01*
X120960776Y-102890951D02*
X120884585Y-102867141D01*
X120884585Y-102867141D02*
X120846490Y-102843332D01*
X120846490Y-102843332D02*
X120808395Y-102795713D01*
X111302380Y-108323703D02*
X111278571Y-108361799D01*
X111278571Y-108361799D02*
X111207142Y-108399894D01*
X111207142Y-108399894D02*
X111159523Y-108399894D01*
X111159523Y-108399894D02*
X111088095Y-108361799D01*
X111088095Y-108361799D02*
X111040476Y-108285608D01*
X111040476Y-108285608D02*
X111016666Y-108209418D01*
X111016666Y-108209418D02*
X110992857Y-108057037D01*
X110992857Y-108057037D02*
X110992857Y-107942751D01*
X110992857Y-107942751D02*
X111016666Y-107790370D01*
X111016666Y-107790370D02*
X111040476Y-107714179D01*
X111040476Y-107714179D02*
X111088095Y-107637989D01*
X111088095Y-107637989D02*
X111159523Y-107599894D01*
X111159523Y-107599894D02*
X111207142Y-107599894D01*
X111207142Y-107599894D02*
X111278571Y-107637989D01*
X111278571Y-107637989D02*
X111302380Y-107676084D01*
X111492857Y-107676084D02*
X111516666Y-107637989D01*
X111516666Y-107637989D02*
X111564285Y-107599894D01*
X111564285Y-107599894D02*
X111683333Y-107599894D01*
X111683333Y-107599894D02*
X111730952Y-107637989D01*
X111730952Y-107637989D02*
X111754761Y-107676084D01*
X111754761Y-107676084D02*
X111778571Y-107752275D01*
X111778571Y-107752275D02*
X111778571Y-107828465D01*
X111778571Y-107828465D02*
X111754761Y-107942751D01*
X111754761Y-107942751D02*
X111469047Y-108399894D01*
X111469047Y-108399894D02*
X111778571Y-108399894D01*
X111945237Y-107599894D02*
X112254761Y-107599894D01*
X112254761Y-107599894D02*
X112088094Y-107904656D01*
X112088094Y-107904656D02*
X112159523Y-107904656D01*
X112159523Y-107904656D02*
X112207142Y-107942751D01*
X112207142Y-107942751D02*
X112230951Y-107980846D01*
X112230951Y-107980846D02*
X112254761Y-108057037D01*
X112254761Y-108057037D02*
X112254761Y-108247513D01*
X112254761Y-108247513D02*
X112230951Y-108323703D01*
X112230951Y-108323703D02*
X112207142Y-108361799D01*
X112207142Y-108361799D02*
X112159523Y-108399894D01*
X112159523Y-108399894D02*
X112016666Y-108399894D01*
X112016666Y-108399894D02*
X111969047Y-108361799D01*
X111969047Y-108361799D02*
X111945237Y-108323703D01*
X114914761Y-99564895D02*
X114914761Y-100136323D01*
X114914761Y-100136323D02*
X114890952Y-100250609D01*
X114890952Y-100250609D02*
X114843333Y-100326800D01*
X114843333Y-100326800D02*
X114771904Y-100364895D01*
X114771904Y-100364895D02*
X114724285Y-100364895D01*
X115105237Y-99564895D02*
X115414761Y-99564895D01*
X115414761Y-99564895D02*
X115248094Y-99869657D01*
X115248094Y-99869657D02*
X115319523Y-99869657D01*
X115319523Y-99869657D02*
X115367142Y-99907752D01*
X115367142Y-99907752D02*
X115390951Y-99945847D01*
X115390951Y-99945847D02*
X115414761Y-100022038D01*
X115414761Y-100022038D02*
X115414761Y-100212514D01*
X115414761Y-100212514D02*
X115390951Y-100288704D01*
X115390951Y-100288704D02*
X115367142Y-100326800D01*
X115367142Y-100326800D02*
X115319523Y-100364895D01*
X115319523Y-100364895D02*
X115176666Y-100364895D01*
X115176666Y-100364895D02*
X115129047Y-100326800D01*
X115129047Y-100326800D02*
X115105237Y-100288704D01*
X132733333Y-96572371D02*
X132733333Y-95972371D01*
X132733333Y-95972371D02*
X132828571Y-95972371D01*
X132828571Y-95972371D02*
X132885714Y-96000942D01*
X132885714Y-96000942D02*
X132923809Y-96058085D01*
X132923809Y-96058085D02*
X132942856Y-96115228D01*
X132942856Y-96115228D02*
X132961904Y-96229514D01*
X132961904Y-96229514D02*
X132961904Y-96315228D01*
X132961904Y-96315228D02*
X132942856Y-96429514D01*
X132942856Y-96429514D02*
X132923809Y-96486657D01*
X132923809Y-96486657D02*
X132885714Y-96543800D01*
X132885714Y-96543800D02*
X132828571Y-96572371D01*
X132828571Y-96572371D02*
X132733333Y-96572371D01*
X133304761Y-96172371D02*
X133304761Y-96572371D01*
X133209523Y-95943800D02*
X133114285Y-96372371D01*
X133114285Y-96372371D02*
X133361904Y-96372371D01*
X133590475Y-95972371D02*
X133628570Y-95972371D01*
X133628570Y-95972371D02*
X133666666Y-96000942D01*
X133666666Y-96000942D02*
X133685713Y-96029514D01*
X133685713Y-96029514D02*
X133704761Y-96086657D01*
X133704761Y-96086657D02*
X133723808Y-96200942D01*
X133723808Y-96200942D02*
X133723808Y-96343800D01*
X133723808Y-96343800D02*
X133704761Y-96458085D01*
X133704761Y-96458085D02*
X133685713Y-96515228D01*
X133685713Y-96515228D02*
X133666666Y-96543800D01*
X133666666Y-96543800D02*
X133628570Y-96572371D01*
X133628570Y-96572371D02*
X133590475Y-96572371D01*
X133590475Y-96572371D02*
X133552380Y-96543800D01*
X133552380Y-96543800D02*
X133533332Y-96515228D01*
X133533332Y-96515228D02*
X133514285Y-96458085D01*
X133514285Y-96458085D02*
X133495237Y-96343800D01*
X133495237Y-96343800D02*
X133495237Y-96200942D01*
X133495237Y-96200942D02*
X133514285Y-96086657D01*
X133514285Y-96086657D02*
X133533332Y-96029514D01*
X133533332Y-96029514D02*
X133552380Y-96000942D01*
X133552380Y-96000942D02*
X133590475Y-95972371D01*
X135138871Y-107642141D02*
X134853157Y-107775474D01*
X135138871Y-107870712D02*
X134538871Y-107870712D01*
X134538871Y-107870712D02*
X134538871Y-107718331D01*
X134538871Y-107718331D02*
X134567442Y-107680236D01*
X134567442Y-107680236D02*
X134596014Y-107661189D01*
X134596014Y-107661189D02*
X134653157Y-107642141D01*
X134653157Y-107642141D02*
X134738871Y-107642141D01*
X134738871Y-107642141D02*
X134796014Y-107661189D01*
X134796014Y-107661189D02*
X134824585Y-107680236D01*
X134824585Y-107680236D02*
X134853157Y-107718331D01*
X134853157Y-107718331D02*
X134853157Y-107870712D01*
X134538871Y-107508808D02*
X134538871Y-107261189D01*
X134538871Y-107261189D02*
X134767442Y-107394522D01*
X134767442Y-107394522D02*
X134767442Y-107337379D01*
X134767442Y-107337379D02*
X134796014Y-107299284D01*
X134796014Y-107299284D02*
X134824585Y-107280236D01*
X134824585Y-107280236D02*
X134881728Y-107261189D01*
X134881728Y-107261189D02*
X135024585Y-107261189D01*
X135024585Y-107261189D02*
X135081728Y-107280236D01*
X135081728Y-107280236D02*
X135110300Y-107299284D01*
X135110300Y-107299284D02*
X135138871Y-107337379D01*
X135138871Y-107337379D02*
X135138871Y-107451665D01*
X135138871Y-107451665D02*
X135110300Y-107489760D01*
X135110300Y-107489760D02*
X135081728Y-107508808D01*
X134538871Y-107013570D02*
X134538871Y-106975475D01*
X134538871Y-106975475D02*
X134567442Y-106937379D01*
X134567442Y-106937379D02*
X134596014Y-106918332D01*
X134596014Y-106918332D02*
X134653157Y-106899284D01*
X134653157Y-106899284D02*
X134767442Y-106880237D01*
X134767442Y-106880237D02*
X134910300Y-106880237D01*
X134910300Y-106880237D02*
X135024585Y-106899284D01*
X135024585Y-106899284D02*
X135081728Y-106918332D01*
X135081728Y-106918332D02*
X135110300Y-106937379D01*
X135110300Y-106937379D02*
X135138871Y-106975475D01*
X135138871Y-106975475D02*
X135138871Y-107013570D01*
X135138871Y-107013570D02*
X135110300Y-107051665D01*
X135110300Y-107051665D02*
X135081728Y-107070713D01*
X135081728Y-107070713D02*
X135024585Y-107089760D01*
X135024585Y-107089760D02*
X134910300Y-107108808D01*
X134910300Y-107108808D02*
X134767442Y-107108808D01*
X134767442Y-107108808D02*
X134653157Y-107089760D01*
X134653157Y-107089760D02*
X134596014Y-107070713D01*
X134596014Y-107070713D02*
X134567442Y-107051665D01*
X134567442Y-107051665D02*
X134538871Y-107013570D01*
X144801903Y-100439895D02*
X144801903Y-101011323D01*
X144801903Y-101011323D02*
X144778094Y-101125609D01*
X144778094Y-101125609D02*
X144730475Y-101201800D01*
X144730475Y-101201800D02*
X144659046Y-101239895D01*
X144659046Y-101239895D02*
X144611427Y-101239895D01*
X145301903Y-101239895D02*
X145016189Y-101239895D01*
X145159046Y-101239895D02*
X145159046Y-100439895D01*
X145159046Y-100439895D02*
X145111427Y-100554180D01*
X145111427Y-100554180D02*
X145063808Y-100630371D01*
X145063808Y-100630371D02*
X145016189Y-100668466D01*
X141607204Y-108331427D02*
X141645300Y-108355236D01*
X141645300Y-108355236D02*
X141683395Y-108426665D01*
X141683395Y-108426665D02*
X141683395Y-108474284D01*
X141683395Y-108474284D02*
X141645300Y-108545712D01*
X141645300Y-108545712D02*
X141569109Y-108593331D01*
X141569109Y-108593331D02*
X141492919Y-108617141D01*
X141492919Y-108617141D02*
X141340538Y-108640950D01*
X141340538Y-108640950D02*
X141226252Y-108640950D01*
X141226252Y-108640950D02*
X141073871Y-108617141D01*
X141073871Y-108617141D02*
X140997680Y-108593331D01*
X140997680Y-108593331D02*
X140921490Y-108545712D01*
X140921490Y-108545712D02*
X140883395Y-108474284D01*
X140883395Y-108474284D02*
X140883395Y-108426665D01*
X140883395Y-108426665D02*
X140921490Y-108355236D01*
X140921490Y-108355236D02*
X140959585Y-108331427D01*
X140883395Y-108164760D02*
X140883395Y-107855236D01*
X140883395Y-107855236D02*
X141188157Y-108021903D01*
X141188157Y-108021903D02*
X141188157Y-107950474D01*
X141188157Y-107950474D02*
X141226252Y-107902855D01*
X141226252Y-107902855D02*
X141264347Y-107879046D01*
X141264347Y-107879046D02*
X141340538Y-107855236D01*
X141340538Y-107855236D02*
X141531014Y-107855236D01*
X141531014Y-107855236D02*
X141607204Y-107879046D01*
X141607204Y-107879046D02*
X141645300Y-107902855D01*
X141645300Y-107902855D02*
X141683395Y-107950474D01*
X141683395Y-107950474D02*
X141683395Y-108093331D01*
X141683395Y-108093331D02*
X141645300Y-108140950D01*
X141645300Y-108140950D02*
X141607204Y-108164760D01*
X140883395Y-107426665D02*
X140883395Y-107521903D01*
X140883395Y-107521903D02*
X140921490Y-107569522D01*
X140921490Y-107569522D02*
X140959585Y-107593332D01*
X140959585Y-107593332D02*
X141073871Y-107640951D01*
X141073871Y-107640951D02*
X141226252Y-107664760D01*
X141226252Y-107664760D02*
X141531014Y-107664760D01*
X141531014Y-107664760D02*
X141607204Y-107640951D01*
X141607204Y-107640951D02*
X141645300Y-107617141D01*
X141645300Y-107617141D02*
X141683395Y-107569522D01*
X141683395Y-107569522D02*
X141683395Y-107474284D01*
X141683395Y-107474284D02*
X141645300Y-107426665D01*
X141645300Y-107426665D02*
X141607204Y-107402856D01*
X141607204Y-107402856D02*
X141531014Y-107379046D01*
X141531014Y-107379046D02*
X141340538Y-107379046D01*
X141340538Y-107379046D02*
X141264347Y-107402856D01*
X141264347Y-107402856D02*
X141226252Y-107426665D01*
X141226252Y-107426665D02*
X141188157Y-107474284D01*
X141188157Y-107474284D02*
X141188157Y-107569522D01*
X141188157Y-107569522D02*
X141226252Y-107617141D01*
X141226252Y-107617141D02*
X141264347Y-107640951D01*
X141264347Y-107640951D02*
X141340538Y-107664760D01*
X122714895Y-104700952D02*
X123362514Y-104700952D01*
X123362514Y-104700952D02*
X123438704Y-104677142D01*
X123438704Y-104677142D02*
X123476800Y-104653333D01*
X123476800Y-104653333D02*
X123514895Y-104605714D01*
X123514895Y-104605714D02*
X123514895Y-104510476D01*
X123514895Y-104510476D02*
X123476800Y-104462857D01*
X123476800Y-104462857D02*
X123438704Y-104439047D01*
X123438704Y-104439047D02*
X123362514Y-104415238D01*
X123362514Y-104415238D02*
X122714895Y-104415238D01*
X122714895Y-103962856D02*
X122714895Y-104058094D01*
X122714895Y-104058094D02*
X122752990Y-104105713D01*
X122752990Y-104105713D02*
X122791085Y-104129523D01*
X122791085Y-104129523D02*
X122905371Y-104177142D01*
X122905371Y-104177142D02*
X123057752Y-104200951D01*
X123057752Y-104200951D02*
X123362514Y-104200951D01*
X123362514Y-104200951D02*
X123438704Y-104177142D01*
X123438704Y-104177142D02*
X123476800Y-104153332D01*
X123476800Y-104153332D02*
X123514895Y-104105713D01*
X123514895Y-104105713D02*
X123514895Y-104010475D01*
X123514895Y-104010475D02*
X123476800Y-103962856D01*
X123476800Y-103962856D02*
X123438704Y-103939047D01*
X123438704Y-103939047D02*
X123362514Y-103915237D01*
X123362514Y-103915237D02*
X123172038Y-103915237D01*
X123172038Y-103915237D02*
X123095847Y-103939047D01*
X123095847Y-103939047D02*
X123057752Y-103962856D01*
X123057752Y-103962856D02*
X123019657Y-104010475D01*
X123019657Y-104010475D02*
X123019657Y-104105713D01*
X123019657Y-104105713D02*
X123057752Y-104153332D01*
X123057752Y-104153332D02*
X123095847Y-104177142D01*
X123095847Y-104177142D02*
X123172038Y-104200951D01*
X134507857Y-110968871D02*
X134374524Y-110683157D01*
X134279286Y-110968871D02*
X134279286Y-110368871D01*
X134279286Y-110368871D02*
X134431667Y-110368871D01*
X134431667Y-110368871D02*
X134469762Y-110397442D01*
X134469762Y-110397442D02*
X134488809Y-110426014D01*
X134488809Y-110426014D02*
X134507857Y-110483157D01*
X134507857Y-110483157D02*
X134507857Y-110568871D01*
X134507857Y-110568871D02*
X134488809Y-110626014D01*
X134488809Y-110626014D02*
X134469762Y-110654585D01*
X134469762Y-110654585D02*
X134431667Y-110683157D01*
X134431667Y-110683157D02*
X134279286Y-110683157D01*
X134888809Y-110968871D02*
X134660238Y-110968871D01*
X134774524Y-110968871D02*
X134774524Y-110368871D01*
X134774524Y-110368871D02*
X134736428Y-110454585D01*
X134736428Y-110454585D02*
X134698333Y-110511728D01*
X134698333Y-110511728D02*
X134660238Y-110540300D01*
X135250714Y-110368871D02*
X135060238Y-110368871D01*
X135060238Y-110368871D02*
X135041190Y-110654585D01*
X135041190Y-110654585D02*
X135060238Y-110626014D01*
X135060238Y-110626014D02*
X135098333Y-110597442D01*
X135098333Y-110597442D02*
X135193571Y-110597442D01*
X135193571Y-110597442D02*
X135231666Y-110626014D01*
X135231666Y-110626014D02*
X135250714Y-110654585D01*
X135250714Y-110654585D02*
X135269761Y-110711728D01*
X135269761Y-110711728D02*
X135269761Y-110854585D01*
X135269761Y-110854585D02*
X135250714Y-110911728D01*
X135250714Y-110911728D02*
X135231666Y-110940300D01*
X135231666Y-110940300D02*
X135193571Y-110968871D01*
X135193571Y-110968871D02*
X135098333Y-110968871D01*
X135098333Y-110968871D02*
X135060238Y-110940300D01*
X135060238Y-110940300D02*
X135041190Y-110911728D01*
%TO.C,U3*%
D12*
X141800000Y-89315000D02*
X141000000Y-89315000D01*
X141800000Y-89315000D02*
X142600000Y-89315000D01*
X141800000Y-92435000D02*
X141000000Y-92435000D01*
X141800000Y-92435000D02*
X142600000Y-92435000D01*
X143100000Y-92385000D02*
X143340000Y-92715000D01*
X142860000Y-92715000D01*
X143100000Y-92385000D01*
G36*
X143340000Y-92715000D02*
G01*
X142860000Y-92715000D01*
X143100000Y-92385000D01*
X143340000Y-92715000D01*
G37*
%TO.C,C22*%
X119265580Y-89265000D02*
X118984420Y-89265000D01*
X119265580Y-90285000D02*
X118984420Y-90285000D01*
%TO.C,C28*%
X115857836Y-107915000D02*
X115642164Y-107915000D01*
X115857836Y-108635000D02*
X115642164Y-108635000D01*
%TO.C,R17*%
X115795000Y-109696359D02*
X115795000Y-110003641D01*
X116555000Y-109696359D02*
X116555000Y-110003641D01*
%TO.C,U11*%
X116325000Y-104255000D02*
X113325000Y-104255000D01*
X116325000Y-107495000D02*
X113325000Y-107495000D01*
X112825000Y-104425000D02*
X112585000Y-104095000D01*
X113065000Y-104095000D01*
X112825000Y-104425000D01*
G36*
X112825000Y-104425000D02*
G01*
X112585000Y-104095000D01*
X113065000Y-104095000D01*
X112825000Y-104425000D01*
G37*
%TO.C,C27*%
X127734420Y-105565000D02*
X128015580Y-105565000D01*
X127734420Y-106585000D02*
X128015580Y-106585000D01*
%TO.C,C12*%
X133390000Y-92592164D02*
X133390000Y-92807836D01*
X134110000Y-92592164D02*
X134110000Y-92807836D01*
%TO.C,U14*%
X138750000Y-108850000D02*
X136550000Y-108850000D01*
X138750000Y-111050000D02*
X136550000Y-111050000D01*
X135300000Y-109300000D02*
X135450000Y-109200000D01*
X135300000Y-109100000D01*
X135300000Y-109300000D01*
%TO.C,D41*%
X136175000Y-104490000D02*
X135525000Y-104490000D01*
X136175000Y-104490000D02*
X136825000Y-104490000D01*
X136175000Y-107610000D02*
X135525000Y-107610000D01*
X136175000Y-107610000D02*
X136825000Y-107610000D01*
X137337500Y-107560000D02*
X137577500Y-107890000D01*
X137097500Y-107890000D01*
X137337500Y-107560000D01*
G36*
X137577500Y-107890000D02*
G01*
X137097500Y-107890000D01*
X137337500Y-107560000D01*
X137577500Y-107890000D01*
G37*
%TO.C,C29*%
X116557836Y-93765000D02*
X116342164Y-93765000D01*
X116557836Y-94485000D02*
X116342164Y-94485000D01*
%TO.C,C13*%
X136311252Y-89540000D02*
X134888748Y-89540000D01*
X136311252Y-91360000D02*
X134888748Y-91360000D01*
%TO.C,U5*%
X118040000Y-91665000D02*
X118040000Y-91430000D01*
X118040000Y-95410000D02*
X118040000Y-94935000D01*
X118515000Y-91190000D02*
X118340000Y-91190000D01*
X118515000Y-95410000D02*
X118040000Y-95410000D01*
X121785000Y-91190000D02*
X122260000Y-91190000D01*
X121785000Y-95410000D02*
X122260000Y-95410000D01*
X122260000Y-91190000D02*
X122260000Y-91665000D01*
X122260000Y-95410000D02*
X122260000Y-94935000D01*
X118040000Y-91190000D02*
X117800000Y-90860000D01*
X118280000Y-90860000D01*
X118040000Y-91190000D01*
G36*
X118040000Y-91190000D02*
G01*
X117800000Y-90860000D01*
X118280000Y-90860000D01*
X118040000Y-91190000D01*
G37*
%TO.C,R13*%
X116271359Y-94870000D02*
X116578641Y-94870000D01*
X116271359Y-95630000D02*
X116578641Y-95630000D01*
%TO.C,D30*%
X134540000Y-103810000D02*
X134540000Y-103600000D01*
X134540000Y-103810000D02*
X135440000Y-103810000D01*
X135450000Y-100590000D02*
X134840000Y-100590000D01*
X136850000Y-100590000D02*
X137760000Y-100590000D01*
X136850000Y-103810000D02*
X137760000Y-103810000D01*
X137760000Y-100590000D02*
X137760000Y-100810000D01*
X137760000Y-103810000D02*
X137760000Y-103590000D01*
X134540000Y-100590000D02*
X134300000Y-100260000D01*
X134780000Y-100260000D01*
X134540000Y-100590000D01*
G36*
X134540000Y-100590000D02*
G01*
X134300000Y-100260000D01*
X134780000Y-100260000D01*
X134540000Y-100590000D01*
G37*
%TO.C,C25*%
X115290000Y-91886252D02*
X115290000Y-90463748D01*
X117110000Y-91886252D02*
X117110000Y-90463748D01*
%TO.C,J2*%
X107170000Y-100770000D02*
X107170000Y-101405000D01*
X107170000Y-101405000D02*
X106535000Y-101405000D01*
%TO.C,R2*%
X110197936Y-91690000D02*
X111652064Y-91690000D01*
X110197936Y-93510000D02*
X111652064Y-93510000D01*
%TO.C,C26*%
X144842164Y-91465000D02*
X145057836Y-91465000D01*
X144842164Y-92185000D02*
X145057836Y-92185000D01*
%TO.C,R19*%
X117052500Y-109537258D02*
X117052500Y-109062742D01*
X118097500Y-109537258D02*
X118097500Y-109062742D01*
%TO.C,U4*%
X124690000Y-96390000D02*
X124690000Y-96840000D01*
X124690000Y-103610000D02*
X124690000Y-103160000D01*
X125140000Y-96390000D02*
X124690000Y-96390000D01*
X125140000Y-103610000D02*
X124690000Y-103610000D01*
X131460000Y-96390000D02*
X131910000Y-96390000D01*
X131460000Y-103610000D02*
X131910000Y-103610000D01*
X131910000Y-96390000D02*
X131910000Y-96840000D01*
X131910000Y-103610000D02*
X131910000Y-103160000D01*
X124100000Y-96840000D02*
X123760000Y-96370000D01*
X124440000Y-96370000D01*
X124100000Y-96840000D01*
G36*
X124100000Y-96840000D02*
G01*
X123760000Y-96370000D01*
X124440000Y-96370000D01*
X124100000Y-96840000D01*
G37*
%TO.C,R20*%
X114728641Y-109020000D02*
X114421359Y-109020000D01*
X114728641Y-109780000D02*
X114421359Y-109780000D01*
%TO.C,C51*%
X131765580Y-93415000D02*
X131484420Y-93415000D01*
X131765580Y-94435000D02*
X131484420Y-94435000D01*
%TO.C,C3*%
X108661252Y-104290000D02*
X106338748Y-104290000D01*
X108661252Y-107710000D02*
X106338748Y-107710000D01*
%TO.C,C24*%
X123190000Y-92786252D02*
X123190000Y-91363748D01*
X125010000Y-92786252D02*
X125010000Y-91363748D01*
%TO.C,R18*%
X121271359Y-104245000D02*
X121578641Y-104245000D01*
X121271359Y-105005000D02*
X121578641Y-105005000D01*
%TO.C,C41*%
X132715579Y-105565000D02*
X132434419Y-105565000D01*
X132715579Y-106585000D02*
X132434419Y-106585000D01*
%TO.C,R40*%
X127097936Y-89415000D02*
X131452064Y-89415000D01*
X127097936Y-92835000D02*
X131452064Y-92835000D01*
%TO.C,C60*%
X119292164Y-104240000D02*
X119507836Y-104240000D01*
X119292164Y-104960000D02*
X119507836Y-104960000D01*
%TO.C,C23*%
X113857836Y-107915000D02*
X113642164Y-107915000D01*
X113857836Y-108635000D02*
X113642164Y-108635000D01*
%TO.C,J3*%
X115940000Y-98060000D02*
X115940000Y-101940000D01*
X117910000Y-96890000D02*
X120410000Y-96890000D01*
X117910000Y-103110000D02*
X120410000Y-103110000D01*
X120410000Y-96890000D02*
X120410000Y-97940000D01*
X120410000Y-97940000D02*
X121400000Y-97940000D01*
X120410000Y-103110000D02*
X120410000Y-102060000D01*
%TO.C,D40*%
X134540000Y-99710000D02*
X134540000Y-99500000D01*
X134540000Y-99710000D02*
X135440000Y-99710000D01*
X135450000Y-96490000D02*
X134840000Y-96490000D01*
X136850000Y-96490000D02*
X137760000Y-96490000D01*
X136850000Y-99710000D02*
X137760000Y-99710000D01*
X137760000Y-96490000D02*
X137760000Y-96710000D01*
X137760000Y-99710000D02*
X137760000Y-99490000D01*
X134540000Y-96490000D02*
X134300000Y-96160000D01*
X134780000Y-96160000D01*
X134540000Y-96490000D01*
G36*
X134540000Y-96490000D02*
G01*
X134300000Y-96160000D01*
X134780000Y-96160000D01*
X134540000Y-96490000D01*
G37*
%TO.C,FB1*%
X138315000Y-91212779D02*
X138315000Y-90887221D01*
X139335000Y-91212779D02*
X139335000Y-90887221D01*
%TO.C,R30*%
X128047936Y-107165000D02*
X132402064Y-107165000D01*
X128047936Y-110585000D02*
X132402064Y-110585000D01*
%TO.C,J1*%
X139790000Y-93265000D02*
X139790000Y-95065000D01*
X139790000Y-104935000D02*
X138800000Y-104935000D01*
X139790000Y-106735000D02*
X139790000Y-104935000D01*
X141240000Y-93265000D02*
X139790000Y-93265000D01*
X141240000Y-106735000D02*
X139790000Y-106735000D01*
X144060000Y-105465000D02*
X144060000Y-94535000D01*
%TO.C,C36*%
X139567164Y-107690000D02*
X139782836Y-107690000D01*
X139567164Y-108410000D02*
X139782836Y-108410000D01*
%TO.C,U6*%
X122350000Y-105315000D02*
X120150000Y-105315000D01*
X122350000Y-105315000D02*
X124550000Y-105315000D01*
X122350000Y-110785000D02*
X120150000Y-110785000D01*
X122350000Y-110785000D02*
X124550000Y-110785000D01*
X126210000Y-110325000D02*
X126540000Y-110565000D01*
X126540000Y-110085000D01*
X126210000Y-110325000D01*
G36*
X126540000Y-110565000D02*
G01*
X126210000Y-110325000D01*
X126540000Y-110085000D01*
X126540000Y-110565000D01*
G37*
%TO.C,D51*%
X134540000Y-94025000D02*
X134540000Y-93375000D01*
X134540000Y-94025000D02*
X134540000Y-94675000D01*
X137660000Y-94025000D02*
X137660000Y-93375000D01*
X137660000Y-94025000D02*
X137660000Y-94675000D01*
X137610000Y-92862500D02*
X137940000Y-92622500D01*
X137940000Y-93102500D01*
X137610000Y-92862500D01*
G36*
X137940000Y-93102500D02*
G01*
X137610000Y-92862500D01*
X137940000Y-92622500D01*
X137940000Y-93102500D01*
G37*
%TO.C,R15*%
X134345000Y-108996359D02*
X134345000Y-109303641D01*
X135105000Y-108996359D02*
X135105000Y-109303641D01*
%TD*%
%LPC*%
D13*
%TO.C,U3*%
X142937500Y-91825000D03*
X142937500Y-90875000D03*
X142937500Y-89925000D03*
X140662500Y-89925000D03*
X140662500Y-91825000D03*
%TD*%
D14*
%TO.C,C22*%
X119900000Y-89775000D03*
X118350000Y-89775000D03*
%TD*%
D15*
%TO.C,C28*%
X116230000Y-108275000D03*
X115270000Y-108275000D03*
%TD*%
D16*
%TO.C,R17*%
X116175000Y-109340000D03*
X116175000Y-110360000D03*
%TD*%
D17*
%TO.C,U11*%
X112625000Y-104900000D03*
X112625000Y-105550000D03*
X112625000Y-106200000D03*
X112625000Y-106850000D03*
X117025000Y-106850000D03*
X117025000Y-106200000D03*
X117025000Y-105550000D03*
X117025000Y-104900000D03*
%TD*%
D18*
%TO.C,C27*%
X127100000Y-106075000D03*
X128650000Y-106075000D03*
%TD*%
D19*
%TO.C,C12*%
X133750000Y-92220000D03*
X133750000Y-93180000D03*
%TD*%
D20*
%TO.C,U14*%
X136100000Y-109200000D03*
X136100000Y-109700000D03*
X136100000Y-110200000D03*
X136100000Y-110700000D03*
X139200000Y-110700000D03*
X139200000Y-110200000D03*
X139200000Y-109700000D03*
X139200000Y-109200000D03*
%TD*%
D21*
%TO.C,D41*%
X137112500Y-107000000D03*
X137112500Y-105100000D03*
X135237500Y-106050000D03*
%TD*%
D15*
%TO.C,C29*%
X116930000Y-94125000D03*
X115970000Y-94125000D03*
%TD*%
D22*
%TO.C,C13*%
X137075000Y-90450000D03*
X134125000Y-90450000D03*
%TD*%
D23*
%TO.C,U5*%
X118212500Y-92050000D03*
X118212500Y-92550000D03*
X118212500Y-93050000D03*
X118212500Y-93550000D03*
X118212500Y-94050000D03*
X118212500Y-94550000D03*
D24*
X118900000Y-95237500D03*
X119400000Y-95237500D03*
X119900000Y-95237500D03*
X120400000Y-95237500D03*
X120900000Y-95237500D03*
X121400000Y-95237500D03*
D23*
X122087500Y-94550000D03*
X122087500Y-94050000D03*
X122087500Y-93550000D03*
X122087500Y-93050000D03*
X122087500Y-92550000D03*
X122087500Y-92050000D03*
D24*
X121400000Y-91362500D03*
X120900000Y-91362500D03*
X120400000Y-91362500D03*
X119900000Y-91362500D03*
X119400000Y-91362500D03*
X118900000Y-91362500D03*
D25*
X120150000Y-93300000D03*
%TD*%
D26*
%TO.C,R13*%
X115915000Y-95250000D03*
X116935000Y-95250000D03*
%TD*%
D27*
%TO.C,D30*%
X134750000Y-101225000D03*
X134750000Y-101875000D03*
X134750000Y-102525000D03*
X134750000Y-103175000D03*
X137550000Y-103175000D03*
X137550000Y-102525000D03*
X137550000Y-101875000D03*
X137550000Y-101225000D03*
D28*
X135825000Y-101012500D03*
X135825000Y-103387500D03*
D29*
X136150000Y-102200000D03*
D28*
X136475000Y-101012500D03*
X136475000Y-103387500D03*
%TD*%
D30*
%TO.C,C25*%
X116200000Y-92650000D03*
X116200000Y-89700000D03*
%TD*%
D31*
%TO.C,J2*%
X105900000Y-102040000D03*
X104884000Y-96960000D03*
X106916000Y-96960000D03*
D32*
X106535000Y-100770000D03*
X105265000Y-100770000D03*
X106535000Y-99500000D03*
X105265000Y-99500000D03*
X106535000Y-98230000D03*
X105265000Y-98230000D03*
%TD*%
D33*
%TO.C,R2*%
X109462500Y-92600000D03*
X112387500Y-92600000D03*
%TD*%
D34*
%TO.C,C26*%
X144470000Y-91825000D03*
X145430000Y-91825000D03*
%TD*%
D35*
%TO.C,J5*%
X105300000Y-92600000D03*
%TD*%
D36*
%TO.C,R19*%
X117575000Y-110125000D03*
X117575000Y-108475000D03*
%TD*%
D37*
%TO.C,U4*%
X124137500Y-97250000D03*
X124137500Y-97750000D03*
X124137500Y-98250000D03*
X124137500Y-98750000D03*
X124137500Y-99250000D03*
X124137500Y-99750000D03*
X124137500Y-100250000D03*
X124137500Y-100750000D03*
X124137500Y-101250000D03*
X124137500Y-101750000D03*
X124137500Y-102250000D03*
X124137500Y-102750000D03*
D38*
X125550000Y-104162500D03*
X126050000Y-104162500D03*
X126550000Y-104162500D03*
X127050000Y-104162500D03*
X127550000Y-104162500D03*
X128050000Y-104162500D03*
X128550000Y-104162500D03*
X129050000Y-104162500D03*
X129550000Y-104162500D03*
X130050000Y-104162500D03*
X130550000Y-104162500D03*
X131050000Y-104162500D03*
D37*
X132462500Y-102750000D03*
X132462500Y-102250000D03*
X132462500Y-101750000D03*
X132462500Y-101250000D03*
X132462500Y-100750000D03*
X132462500Y-100250000D03*
X132462500Y-99750000D03*
X132462500Y-99250000D03*
X132462500Y-98750000D03*
X132462500Y-98250000D03*
X132462500Y-97750000D03*
X132462500Y-97250000D03*
D38*
X131050000Y-95837500D03*
X130550000Y-95837500D03*
X130050000Y-95837500D03*
X129550000Y-95837500D03*
X129050000Y-95837500D03*
X128550000Y-95837500D03*
X128050000Y-95837500D03*
X127550000Y-95837500D03*
X127050000Y-95837500D03*
X126550000Y-95837500D03*
X126050000Y-95837500D03*
X125550000Y-95837500D03*
%TD*%
D39*
%TO.C,R20*%
X115085000Y-109400000D03*
X114065000Y-109400000D03*
%TD*%
D14*
%TO.C,C51*%
X132400000Y-93925000D03*
X130850000Y-93925000D03*
%TD*%
D40*
%TO.C,C3*%
X109550000Y-106000000D03*
X105450000Y-106000000D03*
%TD*%
D30*
%TO.C,C24*%
X124100000Y-93550000D03*
X124100000Y-90600000D03*
%TD*%
D26*
%TO.C,R18*%
X120915000Y-104625000D03*
X121935000Y-104625000D03*
%TD*%
D14*
%TO.C,C41*%
X133349999Y-106075000D03*
X131799999Y-106075000D03*
%TD*%
D41*
%TO.C,R40*%
X126312500Y-91125000D03*
X132237500Y-91125000D03*
%TD*%
D34*
%TO.C,C60*%
X118920000Y-104600000D03*
X119880000Y-104600000D03*
%TD*%
D15*
%TO.C,C23*%
X114230000Y-108275000D03*
X113270000Y-108275000D03*
%TD*%
D42*
%TO.C,J3*%
X120625000Y-98500000D03*
X120625000Y-99500000D03*
X120625000Y-100500000D03*
X120625000Y-101500000D03*
D43*
X116750000Y-97200000D03*
X116750000Y-102800000D03*
%TD*%
D27*
%TO.C,D40*%
X134750000Y-97125000D03*
X134750000Y-97775000D03*
X134750000Y-98425000D03*
X134750000Y-99075000D03*
X137550000Y-99075000D03*
X137550000Y-98425000D03*
X137550000Y-97775000D03*
X137550000Y-97125000D03*
D28*
X135825000Y-96912500D03*
X135825000Y-99287500D03*
D29*
X136150000Y-98100000D03*
D28*
X136475000Y-96912500D03*
X136475000Y-99287500D03*
%TD*%
D44*
%TO.C,FB1*%
X138825000Y-91837500D03*
X138825000Y-90262500D03*
%TD*%
D41*
%TO.C,R30*%
X127262500Y-108875000D03*
X133187500Y-108875000D03*
%TD*%
D45*
%TO.C,J1*%
X139650000Y-104375000D03*
X139650000Y-103125000D03*
X139650000Y-101875000D03*
X139650000Y-100625000D03*
X139650000Y-99375000D03*
X139650000Y-98125000D03*
X139650000Y-96875000D03*
X139650000Y-95625000D03*
D46*
X142850000Y-106225000D03*
X142850000Y-93775000D03*
%TD*%
D34*
%TO.C,C36*%
X139195000Y-108050000D03*
X140155000Y-108050000D03*
%TD*%
D47*
%TO.C,U6*%
X125212500Y-110325000D03*
X125212500Y-109675000D03*
X125212500Y-109025000D03*
X125212500Y-108375000D03*
X125212500Y-107725000D03*
X125212500Y-107075000D03*
X125212500Y-106425000D03*
X125212500Y-105775000D03*
X119487500Y-105775000D03*
X119487500Y-106425000D03*
X119487500Y-107075000D03*
X119487500Y-107725000D03*
X119487500Y-108375000D03*
X119487500Y-109025000D03*
X119487500Y-109675000D03*
X119487500Y-110325000D03*
%TD*%
D48*
%TO.C,D51*%
X137050000Y-93087500D03*
X135150000Y-93087500D03*
X136100000Y-94962500D03*
%TD*%
D16*
%TO.C,R15*%
X134725000Y-108640000D03*
X134725000Y-109660000D03*
%TD*%
%LPD*%
M02*
