%TF.GenerationSoftware,KiCad,Pcbnew,10.0.6*%
%TF.CreationDate,2026-10-02T15:24:30+09:00*%
%TF.ProjectId,HMT500(260313A),484d5435-3030-4283-9236-303331334129,A5-R1*%
%TF.SameCoordinates,Original*%
%TF.FileFunction,Paste,Top*%
%TF.FilePolarity,Positive*%
%FSLAX46Y46*%
G04 Gerber Fmt 4.6, Leading zero omitted, Abs format (unit mm)*
G04 Created by KiCad (PCBNEW 10.0.6) date 2026-10-02 15:24:30*
%MOMM*%
%LPD*%
G01*
G04 APERTURE LIST*
G04 Aperture macros list*
%AMRoundRect*
0 Rectangle with rounded corners*
0 $1 Rounding radius*
0 $2 $3 $4 $5 $6 $7 $8 $9 X,Y pos of 4 corners*
0 Add a 4 corners polygon primitive as box body*
4,1,4,$2,$3,$4,$5,$6,$7,$8,$9,$2,$3,0*
0 Add four circle primitives for the rounded corners*
1,1,$1+$1,$2,$3*
1,1,$1+$1,$4,$5*
1,1,$1+$1,$6,$7*
1,1,$1+$1,$8,$9*
0 Add four rect primitives between the rounded corners*
20,1,$1+$1,$2,$3,$4,$5,0*
20,1,$1+$1,$4,$5,$6,$7,0*
20,1,$1+$1,$6,$7,$8,$9,0*
20,1,$1+$1,$8,$9,$2,$3,0*%
G04 Aperture macros list end*
%ADD10RoundRect,0.200000X0.275000X-0.200000X0.275000X0.200000X-0.275000X0.200000X-0.275000X-0.200000X0*%
%ADD11RoundRect,0.150000X-0.625000X0.150000X-0.625000X-0.150000X0.625000X-0.150000X0.625000X0.150000X0*%
%ADD12RoundRect,0.250000X-0.650000X0.350000X-0.650000X-0.350000X0.650000X-0.350000X0.650000X0.350000X0*%
%ADD13RoundRect,0.140000X-0.170000X0.140000X-0.170000X-0.140000X0.170000X-0.140000X0.170000X0.140000X0*%
%ADD14RoundRect,0.140000X0.140000X0.170000X-0.140000X0.170000X-0.140000X-0.170000X0.140000X-0.170000X0*%
%ADD15RoundRect,0.135000X-0.185000X0.135000X-0.185000X-0.135000X0.185000X-0.135000X0.185000X0.135000X0*%
%ADD16RoundRect,0.135000X-0.135000X-0.185000X0.135000X-0.185000X0.135000X0.185000X-0.135000X0.185000X0*%
%ADD17RoundRect,0.100000X0.637500X0.100000X-0.637500X0.100000X-0.637500X-0.100000X0.637500X-0.100000X0*%
%ADD18RoundRect,0.140000X-0.140000X-0.170000X0.140000X-0.170000X0.140000X0.170000X-0.140000X0.170000X0*%
%ADD19RoundRect,0.150000X0.587500X0.150000X-0.587500X0.150000X-0.587500X-0.150000X0.587500X-0.150000X0*%
%ADD20RoundRect,0.250000X-0.362500X-1.425000X0.362500X-1.425000X0.362500X1.425000X-0.362500X1.425000X0*%
%ADD21RoundRect,0.150000X0.700000X-0.150000X0.700000X0.150000X-0.700000X0.150000X-0.700000X-0.150000X0*%
%ADD22RoundRect,0.250000X1.100000X-0.250000X1.100000X0.250000X-1.100000X0.250000X-1.100000X-0.250000X0*%
%ADD23RoundRect,0.218750X0.256250X-0.218750X0.256250X0.218750X-0.256250X0.218750X-0.256250X-0.218750X0*%
%ADD24RoundRect,0.250000X-0.312500X-0.625000X0.312500X-0.625000X0.312500X0.625000X-0.312500X0.625000X0*%
%ADD25RoundRect,0.075000X-0.662500X-0.075000X0.662500X-0.075000X0.662500X0.075000X-0.662500X0.075000X0*%
%ADD26RoundRect,0.075000X-0.075000X-0.662500X0.075000X-0.662500X0.075000X0.662500X-0.075000X0.662500X0*%
%ADD27RoundRect,0.250000X0.325000X0.650000X-0.325000X0.650000X-0.325000X-0.650000X0.325000X-0.650000X0*%
%ADD28RoundRect,0.150000X0.512500X0.150000X-0.512500X0.150000X-0.512500X-0.150000X0.512500X-0.150000X0*%
%ADD29RoundRect,0.250000X0.650000X-0.325000X0.650000X0.325000X-0.650000X0.325000X-0.650000X-0.325000X0*%
%ADD30RoundRect,0.150000X-0.150000X0.587500X-0.150000X-0.587500X0.150000X-0.587500X0.150000X0.587500X0*%
%ADD31RoundRect,0.050600X-0.064400X-0.311900X0.064400X-0.311900X0.064400X0.311900X-0.064400X0.311900X0*%
%ADD32RoundRect,0.050920X-0.619080X-0.724080X0.619080X-0.724080X0.619080X0.724080X-0.619080X0.724080X0*%
%ADD33RoundRect,0.049600X-0.250400X-0.105400X0.250400X-0.105400X0.250400X0.105400X-0.250400X0.105400X0*%
%ADD34RoundRect,0.225000X-0.225000X-0.250000X0.225000X-0.250000X0.225000X0.250000X-0.225000X0.250000X0*%
%ADD35RoundRect,0.250000X-0.275000X-0.275000X0.275000X-0.275000X0.275000X0.275000X-0.275000X0.275000X0*%
%ADD36RoundRect,0.062500X-0.350000X-0.062500X0.350000X-0.062500X0.350000X0.062500X-0.350000X0.062500X0*%
%ADD37RoundRect,0.062500X-0.062500X-0.350000X0.062500X-0.350000X0.062500X0.350000X-0.062500X0.350000X0*%
%ADD38RoundRect,0.225000X0.225000X0.250000X-0.225000X0.250000X-0.225000X-0.250000X0.225000X-0.250000X0*%
%ADD39R,0.800000X0.300000*%
%ADD40RoundRect,0.249999X0.450001X1.450001X-0.450001X1.450001X-0.450001X-1.450001X0.450001X-1.450001X0*%
%ADD41RoundRect,0.135000X0.135000X0.185000X-0.135000X0.185000X-0.135000X-0.185000X0.135000X-0.185000X0*%
%ADD42R,1.450000X0.450000*%
G04 APERTURE END LIST*
D10*
%TO.C,R19*%
X117575000Y-110125000D03*
X117575000Y-108475000D03*
%TD*%
D11*
%TO.C,J3*%
X120625000Y-98500000D03*
X120625000Y-99500000D03*
X120625000Y-100500000D03*
X120625000Y-101500000D03*
D12*
X116750000Y-97200000D03*
X116750000Y-102800000D03*
%TD*%
D13*
%TO.C,C12*%
X133750000Y-92220000D03*
X133750000Y-93180000D03*
%TD*%
D14*
%TO.C,C28*%
X116230000Y-108275000D03*
X115270000Y-108275000D03*
%TD*%
%TO.C,C29*%
X116930000Y-94125000D03*
X115970000Y-94125000D03*
%TD*%
D15*
%TO.C,R15*%
X134725000Y-108640000D03*
X134725000Y-109660000D03*
%TD*%
D16*
%TO.C,R13*%
X115915000Y-95250000D03*
X116935000Y-95250000D03*
%TD*%
D17*
%TO.C,U6*%
X125212500Y-110325000D03*
X125212500Y-109675000D03*
X125212500Y-109025000D03*
X125212500Y-108375000D03*
X125212500Y-107725000D03*
X125212500Y-107075000D03*
X125212500Y-106425000D03*
X125212500Y-105775000D03*
X119487500Y-105775000D03*
X119487500Y-106425000D03*
X119487500Y-107075000D03*
X119487500Y-107725000D03*
X119487500Y-108375000D03*
X119487500Y-109025000D03*
X119487500Y-109675000D03*
X119487500Y-110325000D03*
%TD*%
D15*
%TO.C,R17*%
X116175000Y-109340000D03*
X116175000Y-110360000D03*
%TD*%
D18*
%TO.C,C36*%
X139195000Y-108050000D03*
X140155000Y-108050000D03*
%TD*%
D19*
%TO.C,D41*%
X137112500Y-107000000D03*
X137112500Y-105100000D03*
X135237500Y-106050000D03*
%TD*%
D20*
%TO.C,R40*%
X126312500Y-91125000D03*
X132237500Y-91125000D03*
%TD*%
D21*
%TO.C,J1*%
X139650000Y-104375000D03*
X139650000Y-103125000D03*
X139650000Y-101875000D03*
X139650000Y-100625000D03*
X139650000Y-99375000D03*
X139650000Y-98125000D03*
X139650000Y-96875000D03*
X139650000Y-95625000D03*
D22*
X142850000Y-106225000D03*
X142850000Y-93775000D03*
%TD*%
D20*
%TO.C,R30*%
X127262500Y-108875000D03*
X133187500Y-108875000D03*
%TD*%
D18*
%TO.C,C26*%
X144470000Y-91825000D03*
X145430000Y-91825000D03*
%TD*%
D23*
%TO.C,FB1*%
X138825000Y-91837500D03*
X138825000Y-90262500D03*
%TD*%
D24*
%TO.C,R2*%
X109462500Y-92600000D03*
X112387500Y-92600000D03*
%TD*%
D25*
%TO.C,U4*%
X124137500Y-97250000D03*
X124137500Y-97750000D03*
X124137500Y-98250000D03*
X124137500Y-98750000D03*
X124137500Y-99250000D03*
X124137500Y-99750000D03*
X124137500Y-100250000D03*
X124137500Y-100750000D03*
X124137500Y-101250000D03*
X124137500Y-101750000D03*
X124137500Y-102250000D03*
X124137500Y-102750000D03*
D26*
X125550000Y-104162500D03*
X126050000Y-104162500D03*
X126550000Y-104162500D03*
X127050000Y-104162500D03*
X127550000Y-104162500D03*
X128050000Y-104162500D03*
X128550000Y-104162500D03*
X129050000Y-104162500D03*
X129550000Y-104162500D03*
X130050000Y-104162500D03*
X130550000Y-104162500D03*
X131050000Y-104162500D03*
D25*
X132462500Y-102750000D03*
X132462500Y-102250000D03*
X132462500Y-101750000D03*
X132462500Y-101250000D03*
X132462500Y-100750000D03*
X132462500Y-100250000D03*
X132462500Y-99750000D03*
X132462500Y-99250000D03*
X132462500Y-98750000D03*
X132462500Y-98250000D03*
X132462500Y-97750000D03*
X132462500Y-97250000D03*
D26*
X131050000Y-95837500D03*
X130550000Y-95837500D03*
X130050000Y-95837500D03*
X129550000Y-95837500D03*
X129050000Y-95837500D03*
X128550000Y-95837500D03*
X128050000Y-95837500D03*
X127550000Y-95837500D03*
X127050000Y-95837500D03*
X126550000Y-95837500D03*
X126050000Y-95837500D03*
X125550000Y-95837500D03*
%TD*%
D27*
%TO.C,C13*%
X137075000Y-90450000D03*
X134125000Y-90450000D03*
%TD*%
D28*
%TO.C,U3*%
X142937500Y-91825000D03*
X142937500Y-90875000D03*
X142937500Y-89925000D03*
X140662500Y-89925000D03*
X140662500Y-91825000D03*
%TD*%
D29*
%TO.C,C24*%
X124100000Y-93550000D03*
X124100000Y-90600000D03*
%TD*%
D18*
%TO.C,C60*%
X118920000Y-104600000D03*
X119880000Y-104600000D03*
%TD*%
D30*
%TO.C,D51*%
X137050000Y-93087500D03*
X135150000Y-93087500D03*
X136100000Y-94962500D03*
%TD*%
D31*
%TO.C,D40*%
X135825000Y-96763000D03*
X135825000Y-99437000D03*
D32*
X136150000Y-98100000D03*
D31*
X136475000Y-96763000D03*
X136475000Y-99437000D03*
D33*
X134750000Y-97125000D03*
X134750000Y-97775000D03*
X134750000Y-98425000D03*
X134750000Y-99075000D03*
X137550000Y-99075000D03*
X137550000Y-98425000D03*
X137550000Y-97775000D03*
X137550000Y-97125000D03*
%TD*%
D16*
%TO.C,R18*%
X120915000Y-104625000D03*
X121935000Y-104625000D03*
%TD*%
D34*
%TO.C,C27*%
X127100000Y-106075000D03*
X128650000Y-106075000D03*
%TD*%
D35*
%TO.C,U5*%
X119500000Y-92650000D03*
X119500000Y-93950000D03*
X120800000Y-92650000D03*
X120800000Y-93950000D03*
D36*
X118212500Y-92050000D03*
X118212500Y-92550000D03*
X118212500Y-93050000D03*
X118212500Y-93550000D03*
X118212500Y-94050000D03*
X118212500Y-94550000D03*
D37*
X118900000Y-95237500D03*
X119400000Y-95237500D03*
X119900000Y-95237500D03*
X120400000Y-95237500D03*
X120900000Y-95237500D03*
X121400000Y-95237500D03*
D36*
X122087500Y-94550000D03*
X122087500Y-94050000D03*
X122087500Y-93550000D03*
X122087500Y-93050000D03*
X122087500Y-92550000D03*
X122087500Y-92050000D03*
D37*
X121400000Y-91362500D03*
X120900000Y-91362500D03*
X120400000Y-91362500D03*
X119900000Y-91362500D03*
X119400000Y-91362500D03*
X118900000Y-91362500D03*
%TD*%
D31*
%TO.C,D30*%
X135825000Y-100863000D03*
X135825000Y-103537000D03*
D32*
X136150000Y-102200000D03*
D31*
X136475000Y-100863000D03*
X136475000Y-103537000D03*
D33*
X134750000Y-101225000D03*
X134750000Y-101875000D03*
X134750000Y-102525000D03*
X134750000Y-103175000D03*
X137550000Y-103175000D03*
X137550000Y-102525000D03*
X137550000Y-101875000D03*
X137550000Y-101225000D03*
%TD*%
D14*
%TO.C,C23*%
X114230000Y-108275000D03*
X113270000Y-108275000D03*
%TD*%
D29*
%TO.C,C25*%
X116200000Y-92650000D03*
X116200000Y-89700000D03*
%TD*%
D38*
%TO.C,C51*%
X132400000Y-93925000D03*
X130850000Y-93925000D03*
%TD*%
%TO.C,C22*%
X119900000Y-89775000D03*
X118350000Y-89775000D03*
%TD*%
D39*
%TO.C,U14*%
X136100000Y-109200000D03*
X136100000Y-109700000D03*
X136100000Y-110200000D03*
X136100000Y-110700000D03*
X139200000Y-110700000D03*
X139200000Y-110200000D03*
X139200000Y-109700000D03*
X139200000Y-109200000D03*
%TD*%
D40*
%TO.C,C3*%
X109550000Y-106000000D03*
X105450000Y-106000000D03*
%TD*%
D41*
%TO.C,R20*%
X115085000Y-109400000D03*
X114065000Y-109400000D03*
%TD*%
D42*
%TO.C,U11*%
X112625000Y-104900000D03*
X112625000Y-105550000D03*
X112625000Y-106200000D03*
X112625000Y-106850000D03*
X117025000Y-106850000D03*
X117025000Y-106200000D03*
X117025000Y-105550000D03*
X117025000Y-104900000D03*
%TD*%
D38*
%TO.C,C41*%
X133349999Y-106075000D03*
X131799999Y-106075000D03*
%TD*%
M02*
