M48
; DRILL file KiCad 10.0.6 date 2026-10-02T15:24:30
; FORMAT={-:-/ absolute / metric / decimal}
; #@! TF.CreationDate,2026-10-02T15:24:30+09:00
; #@! TF.GenerationSoftware,Kicad,Pcbnew,10.0.6
; #@! TF.FileFunction,Plated,1,6,PTH
FMAT,2
METRIC
; #@! TA.AperFunction,Plated,PTH,ViaDrill
T1C0.150
; #@! TA.AperFunction,Plated,PTH,ViaDrill
T2C0.200
; #@! TA.AperFunction,Plated,PTH,ComponentDrill
T3C0.200
; #@! TA.AperFunction,Plated,PTH,ViaDrill
T4C0.400
; #@! TA.AperFunction,Plated,PTH,ComponentDrill
T5C0.600
%
G90
G05
T1
X104.871Y-102.364
X107.3Y-97.9
X108.5Y-99.825
X111.4Y-91.15
X113.1Y-108.95
X113.733Y-107.005
X115.2Y-107.45
X115.975Y-105.925
X116.55Y-99.625
X116.725Y-95.962
X119.025Y-96.0
X119.066Y-99.534
X119.575Y-100.075
X119.7Y-96.65
X120.425Y-110.225
X120.575Y-109.4
X121.175Y-96.575
X121.7Y-100.0
X121.7Y-100.9
X121.85Y-107.3
X122.037Y-102.75
X122.245Y-98.394
X122.421Y-108.701
X122.7Y-93.55
X122.725Y-97.475
X122.889Y-94.461
X123.201Y-109.711
X123.275Y-107.275
X123.65Y-103.2
X123.675Y-104.475
X123.8Y-96.8
X124.247Y-94.983
X124.65Y-95.2
X125.525Y-110.975
X125.6Y-101.875
X126.05Y-100.862
X126.175Y-110.975
X126.55Y-98.5
X126.55Y-101.825
X126.625Y-98.925
X126.825Y-110.975
X127.05Y-99.3
X127.05Y-100.862
X127.475Y-110.975
X127.525Y-101.15
X127.55Y-101.862
X128.05Y-99.3
X128.875Y-99.45
X128.925Y-97.7
X128.975Y-98.85
X129.05Y-100.862
X129.55Y-101.862
X129.6Y-99.1
X130.0Y-93.025
X130.05Y-98.075
X130.05Y-100.862
X130.075Y-110.975
X130.55Y-101.862
X131.05Y-98.037
X131.1Y-107.225
X132.05Y-104.55
X133.562Y-101.75
X133.562Y-102.75
X133.963Y-102.25
X134.15Y-105.775
X134.175Y-96.85
X134.325Y-110.875
X134.925Y-111.025
X135.025Y-89.025
X135.5Y-110.2
X136.3Y-107.85
X136.325Y-89.025
X136.975Y-89.025
X137.7Y-93.95
X138.525Y-99.8
X138.6Y-110.25
X139.775Y-99.975
X139.9Y-109.25
X139.95Y-110.175
X139.95Y-110.875
X140.1Y-109.625
X141.575Y-99.825
T2
X103.844Y-96.756
X104.675Y-103.25
X104.987Y-103.92
X106.85Y-102.375
X107.85Y-97.0
X108.0Y-94.275
X108.0Y-101.525
X111.2Y-96.15
X111.225Y-94.675
X111.65Y-96.05
X111.95Y-102.25
X112.2Y-108.15
X112.434Y-109.533
X112.9Y-104.1
X114.05Y-102.6
X114.55Y-105.45
X114.65Y-107.8
X115.243Y-95.137
X115.339Y-104.652
X115.362Y-103.902
X115.365Y-102.76
X115.475Y-93.95
X115.55Y-91.7
X115.655Y-110.36
X115.744Y-89.4
X115.975Y-106.475
X116.1Y-105.438
X116.1Y-107.75
X116.6Y-101.025
X116.65Y-98.15
X116.725Y-99.1
X116.85Y-110.8
X116.975Y-106.25
X117.575Y-89.0
X117.75Y-110.9
X118.5Y-101.75
X118.55Y-91.55
X118.584Y-98.363
X118.775Y-96.5
X119.05Y-89.05
X119.125Y-101.1
X119.25Y-103.075
X119.6Y-97.25
X120.1Y-109.675
X120.38Y-103.588
X120.425Y-106.575
X120.425Y-107.625
X120.45Y-108.25
X121.05Y-90.55
X121.4Y-104.0
X121.4Y-106.2
X122.025Y-99.6
X122.116Y-109.811
X122.55Y-102.275
X122.575Y-104.925
X122.7Y-109.55
X123.044Y-96.346
X123.099Y-95.318
X123.425Y-105.125
X123.759Y-106.438
X123.875Y-108.525
X124.025Y-105.35
X125.237Y-98.75
X125.237Y-99.25
X125.237Y-100.25
X125.29Y-94.227
X125.382Y-93.082
X125.637Y-99.75
X127.658Y-90.481
X128.2Y-100.5
X128.45Y-110.944
X128.55Y-93.1
X128.55Y-98.55
X128.55Y-101.1
X128.55Y-101.7
X128.6Y-107.5
X128.75Y-90.85
X128.75Y-92.3
X129.0Y-108.3
X129.163Y-89.038
X129.625Y-101.3
X129.8Y-105.9
X129.8Y-107.1
X129.8Y-108.3
X130.625Y-110.075
X130.632Y-99.338
X130.65Y-106.85
X130.65Y-108.325
X130.725Y-105.25
X130.725Y-110.975
X130.8Y-93.1
X131.05Y-92.625
X131.25Y-91.55
X131.275Y-97.4
X131.625Y-107.7
X131.735Y-93.235
X131.775Y-89.025
X131.8Y-104.05
X132.181Y-107.869
X132.2Y-108.8
X132.425Y-96.75
X133.075Y-96.75
X133.1Y-93.1
X133.5Y-93.9
X133.6Y-100.9
X133.65Y-97.7
X133.8Y-103.625
X133.9Y-99.05
X133.95Y-97.25
X134.075Y-106.375
X134.1Y-98.5
X134.1Y-104.9
X134.2Y-108.3
X134.25Y-99.5
X134.273Y-104.114
X134.3Y-93.5
X134.5Y-107.6
X134.531Y-106.887
X134.7Y-91.5
X135.35Y-100.65
X135.35Y-103.75
X135.425Y-107.0
X135.5Y-91.5
X135.9Y-92.3
X136.3Y-93.5
X136.375Y-104.3
X136.5Y-105.75
X137.0Y-108.425
X137.1Y-104.45
X137.25Y-99.9
X137.4Y-106.35
X137.5Y-89.05
X137.725Y-99.6
X137.737Y-92.969
X137.774Y-108.44
X138.42Y-103.499
X138.875Y-102.0
X138.906Y-94.2
X140.167Y-91.147
X140.395Y-105.046
X140.533Y-108.863
X140.81Y-106.257
X141.4Y-109.2
X142.213Y-99.375
X142.38Y-103.125
X142.938Y-92.325
X143.344Y-100.178
X144.625Y-102.775
X144.641Y-103.654
X149.758Y-93.233
X149.758Y-95.166
X150.229Y-107.544
X153.546Y-107.104
T3
X111.9Y-97.35
X111.9Y-98.85
X111.9Y-100.35
X113.4Y-97.35
X113.4Y-98.85
X113.4Y-100.35
T4
X112.875Y-89.25
X113.575Y-89.25
T5
X105.3Y-92.6
M30
