%TF.GenerationSoftware,KiCad,Pcbnew,10.0.6*%
%TF.CreationDate,2026-10-02T15:24:30+09:00*%
%TF.ProjectId,HMT500(260313A),484d5435-3030-4283-9236-303331334129,A5-R1*%
%TF.SameCoordinates,Original*%
%TF.FileFunction,Legend,Top*%
%TF.FilePolarity,Positive*%
%FSLAX46Y46*%
G04 Gerber Fmt 4.6, Leading zero omitted, Abs format (unit mm)*
G04 Created by KiCad (PCBNEW 10.0.6) date 2026-10-02 15:24:30*
%MOMM*%
%LPD*%
G01*
G04 APERTURE LIST*
G04 Aperture macros list*
%AMRoundRect*
0 Rectangle with rounded corners*
0 $1 Rounding radius*
0 $2 $3 $4 $5 $6 $7 $8 $9 X,Y pos of 4 corners*
0 Add a 4 corners polygon primitive as box body*
4,1,4,$2,$3,$4,$5,$6,$7,$8,$9,$2,$3,0*
0 Add four circle primitives for the rounded corners*
1,1,$1+$1,$2,$3*
1,1,$1+$1,$4,$5*
1,1,$1+$1,$6,$7*
1,1,$1+$1,$8,$9*
0 Add four rect primitives between the rounded corners*
20,1,$1+$1,$2,$3,$4,$5,0*
20,1,$1+$1,$4,$5,$6,$7,0*
20,1,$1+$1,$6,$7,$8,$9,0*
20,1,$1+$1,$8,$9,$2,$3,0*%
G04 Aperture macros list end*
%ADD10C,0.120000*%
%ADD11RoundRect,0.200000X0.275000X-0.200000X0.275000X0.200000X-0.275000X0.200000X-0.275000X-0.200000X0*%
%ADD12RoundRect,0.150000X-0.625000X0.150000X-0.625000X-0.150000X0.625000X-0.150000X0.625000X0.150000X0*%
%ADD13RoundRect,0.250000X-0.650000X0.350000X-0.650000X-0.350000X0.650000X-0.350000X0.650000X0.350000X0*%
%ADD14RoundRect,0.140000X-0.170000X0.140000X-0.170000X-0.140000X0.170000X-0.140000X0.170000X0.140000X0*%
%ADD15RoundRect,0.140000X0.140000X0.170000X-0.140000X0.170000X-0.140000X-0.170000X0.140000X-0.170000X0*%
%ADD16RoundRect,0.135000X-0.185000X0.135000X-0.185000X-0.135000X0.185000X-0.135000X0.185000X0.135000X0*%
%ADD17RoundRect,0.135000X-0.135000X-0.185000X0.135000X-0.185000X0.135000X0.185000X-0.135000X0.185000X0*%
%ADD18RoundRect,0.100000X0.637500X0.100000X-0.637500X0.100000X-0.637500X-0.100000X0.637500X-0.100000X0*%
%ADD19RoundRect,0.140000X-0.140000X-0.170000X0.140000X-0.170000X0.140000X0.170000X-0.140000X0.170000X0*%
%ADD20RoundRect,0.150000X0.587500X0.150000X-0.587500X0.150000X-0.587500X-0.150000X0.587500X-0.150000X0*%
%ADD21RoundRect,0.250000X-0.362500X-1.425000X0.362500X-1.425000X0.362500X1.425000X-0.362500X1.425000X0*%
%ADD22RoundRect,0.150000X0.700000X-0.150000X0.700000X0.150000X-0.700000X0.150000X-0.700000X-0.150000X0*%
%ADD23RoundRect,0.250000X1.100000X-0.250000X1.100000X0.250000X-1.100000X0.250000X-1.100000X-0.250000X0*%
%ADD24RoundRect,0.218750X0.256250X-0.218750X0.256250X0.218750X-0.256250X0.218750X-0.256250X-0.218750X0*%
%ADD25RoundRect,0.250000X-0.312500X-0.625000X0.312500X-0.625000X0.312500X0.625000X-0.312500X0.625000X0*%
%ADD26RoundRect,0.075000X-0.662500X-0.075000X0.662500X-0.075000X0.662500X0.075000X-0.662500X0.075000X0*%
%ADD27RoundRect,0.075000X-0.075000X-0.662500X0.075000X-0.662500X0.075000X0.662500X-0.075000X0.662500X0*%
%ADD28RoundRect,0.250000X0.325000X0.650000X-0.325000X0.650000X-0.325000X-0.650000X0.325000X-0.650000X0*%
%ADD29RoundRect,0.150000X0.512500X0.150000X-0.512500X0.150000X-0.512500X-0.150000X0.512500X-0.150000X0*%
%ADD30RoundRect,0.250000X0.650000X-0.325000X0.650000X0.325000X-0.650000X0.325000X-0.650000X-0.325000X0*%
%ADD31RoundRect,0.150000X-0.150000X0.587500X-0.150000X-0.587500X0.150000X-0.587500X0.150000X0.587500X0*%
%ADD32C,0.990600*%
%ADD33C,0.787400*%
%ADD34RoundRect,0.119600X-0.250400X-0.105400X0.250400X-0.105400X0.250400X0.105400X-0.250400X0.105400X0*%
%ADD35RoundRect,0.120600X-0.064400X-0.461900X0.064400X-0.461900X0.064400X0.461900X-0.064400X0.461900X0*%
%ADD36RoundRect,0.121000X-0.699000X-0.824000X0.699000X-0.824000X0.699000X0.824000X-0.699000X0.824000X0*%
%ADD37RoundRect,0.225000X-0.225000X-0.250000X0.225000X-0.250000X0.225000X0.250000X-0.225000X0.250000X0*%
%ADD38RoundRect,0.062500X-0.350000X-0.062500X0.350000X-0.062500X0.350000X0.062500X-0.350000X0.062500X0*%
%ADD39RoundRect,0.062500X-0.062500X-0.350000X0.062500X-0.350000X0.062500X0.350000X-0.062500X0.350000X0*%
%ADD40R,2.600000X2.600000*%
%ADD41C,1.600000*%
%ADD42RoundRect,0.225000X0.225000X0.250000X-0.225000X0.250000X-0.225000X-0.250000X0.225000X-0.250000X0*%
%ADD43R,0.800000X0.300000*%
%ADD44RoundRect,0.249999X0.450001X1.450001X-0.450001X1.450001X-0.450001X-1.450001X0.450001X-1.450001X0*%
%ADD45RoundRect,0.135000X0.135000X0.185000X-0.135000X0.185000X-0.135000X-0.185000X0.135000X-0.185000X0*%
%ADD46R,1.450000X0.450000*%
G04 APERTURE END LIST*
D10*
X120728736Y-103758600D02*
X120440000Y-104010000D01*
X125628571Y-93875000D02*
X125280000Y-93875000D01*
X133908600Y-104185125D02*
X134169999Y-104180000D01*
X134171428Y-95425000D02*
X134570000Y-95425000D01*
X138825000Y-92807142D02*
X138825000Y-92555000D01*
X141003571Y-108050000D02*
X140715000Y-108050000D01*
X147671428Y-100363855D02*
X147671428Y-99563855D01*
X147671428Y-99944807D02*
X148014285Y-99944807D01*
X148014285Y-100363855D02*
X148014285Y-99563855D01*
X148299999Y-100363855D02*
X148299999Y-99563855D01*
X148299999Y-99563855D02*
X148499999Y-100135283D01*
X148499999Y-100135283D02*
X148699999Y-99563855D01*
X148699999Y-99563855D02*
X148699999Y-100363855D01*
X148899998Y-99563855D02*
X149242856Y-99563855D01*
X149071427Y-100363855D02*
X149071427Y-99563855D01*
X149728570Y-99563855D02*
X149442856Y-99563855D01*
X149442856Y-99563855D02*
X149414284Y-99944807D01*
X149414284Y-99944807D02*
X149442856Y-99906712D01*
X149442856Y-99906712D02*
X149499999Y-99868617D01*
X149499999Y-99868617D02*
X149642856Y-99868617D01*
X149642856Y-99868617D02*
X149699999Y-99906712D01*
X149699999Y-99906712D02*
X149728570Y-99944807D01*
X149728570Y-99944807D02*
X149757141Y-100020998D01*
X149757141Y-100020998D02*
X149757141Y-100211474D01*
X149757141Y-100211474D02*
X149728570Y-100287664D01*
X149728570Y-100287664D02*
X149699999Y-100325760D01*
X149699999Y-100325760D02*
X149642856Y-100363855D01*
X149642856Y-100363855D02*
X149499999Y-100363855D01*
X149499999Y-100363855D02*
X149442856Y-100325760D01*
X149442856Y-100325760D02*
X149414284Y-100287664D01*
X150128570Y-99563855D02*
X150185713Y-99563855D01*
X150185713Y-99563855D02*
X150242856Y-99601950D01*
X150242856Y-99601950D02*
X150271428Y-99640045D01*
X150271428Y-99640045D02*
X150299999Y-99716236D01*
X150299999Y-99716236D02*
X150328570Y-99868617D01*
X150328570Y-99868617D02*
X150328570Y-100059093D01*
X150328570Y-100059093D02*
X150299999Y-100211474D01*
X150299999Y-100211474D02*
X150271428Y-100287664D01*
X150271428Y-100287664D02*
X150242856Y-100325760D01*
X150242856Y-100325760D02*
X150185713Y-100363855D01*
X150185713Y-100363855D02*
X150128570Y-100363855D01*
X150128570Y-100363855D02*
X150071428Y-100325760D01*
X150071428Y-100325760D02*
X150042856Y-100287664D01*
X150042856Y-100287664D02*
X150014285Y-100211474D01*
X150014285Y-100211474D02*
X149985713Y-100059093D01*
X149985713Y-100059093D02*
X149985713Y-99868617D01*
X149985713Y-99868617D02*
X150014285Y-99716236D01*
X150014285Y-99716236D02*
X150042856Y-99640045D01*
X150042856Y-99640045D02*
X150071428Y-99601950D01*
X150071428Y-99601950D02*
X150128570Y-99563855D01*
X150699999Y-99563855D02*
X150757142Y-99563855D01*
X150757142Y-99563855D02*
X150814285Y-99601950D01*
X150814285Y-99601950D02*
X150842857Y-99640045D01*
X150842857Y-99640045D02*
X150871428Y-99716236D01*
X150871428Y-99716236D02*
X150899999Y-99868617D01*
X150899999Y-99868617D02*
X150899999Y-100059093D01*
X150899999Y-100059093D02*
X150871428Y-100211474D01*
X150871428Y-100211474D02*
X150842857Y-100287664D01*
X150842857Y-100287664D02*
X150814285Y-100325760D01*
X150814285Y-100325760D02*
X150757142Y-100363855D01*
X150757142Y-100363855D02*
X150699999Y-100363855D01*
X150699999Y-100363855D02*
X150642857Y-100325760D01*
X150642857Y-100325760D02*
X150614285Y-100287664D01*
X150614285Y-100287664D02*
X150585714Y-100211474D01*
X150585714Y-100211474D02*
X150557142Y-100059093D01*
X150557142Y-100059093D02*
X150557142Y-99868617D01*
X150557142Y-99868617D02*
X150585714Y-99716236D01*
X150585714Y-99716236D02*
X150614285Y-99640045D01*
X150614285Y-99640045D02*
X150642857Y-99601950D01*
X150642857Y-99601950D02*
X150699999Y-99563855D01*
X151585714Y-100135283D02*
X151871429Y-100135283D01*
X151528571Y-100363855D02*
X151728571Y-99563855D01*
X151728571Y-99563855D02*
X151928571Y-100363855D01*
X152414286Y-99563855D02*
X152128572Y-99563855D01*
X152128572Y-99563855D02*
X152100000Y-99944807D01*
X152100000Y-99944807D02*
X152128572Y-99906712D01*
X152128572Y-99906712D02*
X152185715Y-99868617D01*
X152185715Y-99868617D02*
X152328572Y-99868617D01*
X152328572Y-99868617D02*
X152385715Y-99906712D01*
X152385715Y-99906712D02*
X152414286Y-99944807D01*
X152414286Y-99944807D02*
X152442857Y-100020998D01*
X152442857Y-100020998D02*
X152442857Y-100211474D01*
X152442857Y-100211474D02*
X152414286Y-100287664D01*
X152414286Y-100287664D02*
X152385715Y-100325760D01*
X152385715Y-100325760D02*
X152328572Y-100363855D01*
X152328572Y-100363855D02*
X152185715Y-100363855D01*
X152185715Y-100363855D02*
X152128572Y-100325760D01*
X152128572Y-100325760D02*
X152100000Y-100287664D01*
X152700001Y-100059093D02*
X153157144Y-100059093D01*
X153785715Y-100363855D02*
X153585715Y-99982902D01*
X153442858Y-100363855D02*
X153442858Y-99563855D01*
X153442858Y-99563855D02*
X153671429Y-99563855D01*
X153671429Y-99563855D02*
X153728572Y-99601950D01*
X153728572Y-99601950D02*
X153757143Y-99640045D01*
X153757143Y-99640045D02*
X153785715Y-99716236D01*
X153785715Y-99716236D02*
X153785715Y-99830521D01*
X153785715Y-99830521D02*
X153757143Y-99906712D01*
X153757143Y-99906712D02*
X153728572Y-99944807D01*
X153728572Y-99944807D02*
X153671429Y-99982902D01*
X153671429Y-99982902D02*
X153442858Y-99982902D01*
X154357143Y-100363855D02*
X154014286Y-100363855D01*
X154185715Y-100363855D02*
X154185715Y-99563855D01*
X154185715Y-99563855D02*
X154128572Y-99678140D01*
X154128572Y-99678140D02*
X154071429Y-99754331D01*
X154071429Y-99754331D02*
X154014286Y-99792426D01*
X118424999Y-99563855D02*
X118424999Y-100135283D01*
X118424999Y-100135283D02*
X118396428Y-100249569D01*
X118396428Y-100249569D02*
X118339285Y-100325760D01*
X118339285Y-100325760D02*
X118253571Y-100363855D01*
X118253571Y-100363855D02*
X118196428Y-100363855D01*
X118653571Y-99563855D02*
X119024999Y-99563855D01*
X119024999Y-99563855D02*
X118824999Y-99868617D01*
X118824999Y-99868617D02*
X118910714Y-99868617D01*
X118910714Y-99868617D02*
X118967857Y-99906712D01*
X118967857Y-99906712D02*
X118996428Y-99944807D01*
X118996428Y-99944807D02*
X119024999Y-100020998D01*
X119024999Y-100020998D02*
X119024999Y-100211474D01*
X119024999Y-100211474D02*
X118996428Y-100287664D01*
X118996428Y-100287664D02*
X118967857Y-100325760D01*
X118967857Y-100325760D02*
X118910714Y-100363855D01*
X118910714Y-100363855D02*
X118739285Y-100363855D01*
X118739285Y-100363855D02*
X118682142Y-100325760D01*
X118682142Y-100325760D02*
X118653571Y-100287664D01*
X114988855Y-95635714D02*
X114607902Y-95835714D01*
X114988855Y-95978571D02*
X114188855Y-95978571D01*
X114188855Y-95978571D02*
X114188855Y-95750000D01*
X114188855Y-95750000D02*
X114226950Y-95692857D01*
X114226950Y-95692857D02*
X114265045Y-95664286D01*
X114265045Y-95664286D02*
X114341236Y-95635714D01*
X114341236Y-95635714D02*
X114455521Y-95635714D01*
X114455521Y-95635714D02*
X114531712Y-95664286D01*
X114531712Y-95664286D02*
X114569807Y-95692857D01*
X114569807Y-95692857D02*
X114607902Y-95750000D01*
X114607902Y-95750000D02*
X114607902Y-95978571D01*
X114988855Y-95064286D02*
X114988855Y-95407143D01*
X114988855Y-95235714D02*
X114188855Y-95235714D01*
X114188855Y-95235714D02*
X114303140Y-95292857D01*
X114303140Y-95292857D02*
X114379331Y-95350000D01*
X114379331Y-95350000D02*
X114417426Y-95407143D01*
X114188855Y-94864285D02*
X114188855Y-94492857D01*
X114188855Y-94492857D02*
X114493617Y-94692857D01*
X114493617Y-94692857D02*
X114493617Y-94607142D01*
X114493617Y-94607142D02*
X114531712Y-94550000D01*
X114531712Y-94550000D02*
X114569807Y-94521428D01*
X114569807Y-94521428D02*
X114645998Y-94492857D01*
X114645998Y-94492857D02*
X114836474Y-94492857D01*
X114836474Y-94492857D02*
X114912664Y-94521428D01*
X114912664Y-94521428D02*
X114950760Y-94550000D01*
X114950760Y-94550000D02*
X114988855Y-94607142D01*
X114988855Y-94607142D02*
X114988855Y-94778571D01*
X114988855Y-94778571D02*
X114950760Y-94835714D01*
X114950760Y-94835714D02*
X114912664Y-94864285D01*
X121892857Y-107613855D02*
X121892857Y-108261474D01*
X121892857Y-108261474D02*
X121921428Y-108337664D01*
X121921428Y-108337664D02*
X121950000Y-108375760D01*
X121950000Y-108375760D02*
X122007142Y-108413855D01*
X122007142Y-108413855D02*
X122121428Y-108413855D01*
X122121428Y-108413855D02*
X122178571Y-108375760D01*
X122178571Y-108375760D02*
X122207142Y-108337664D01*
X122207142Y-108337664D02*
X122235714Y-108261474D01*
X122235714Y-108261474D02*
X122235714Y-107613855D01*
X122778571Y-107613855D02*
X122664285Y-107613855D01*
X122664285Y-107613855D02*
X122607142Y-107651950D01*
X122607142Y-107651950D02*
X122578571Y-107690045D01*
X122578571Y-107690045D02*
X122521428Y-107804331D01*
X122521428Y-107804331D02*
X122492856Y-107956712D01*
X122492856Y-107956712D02*
X122492856Y-108261474D01*
X122492856Y-108261474D02*
X122521428Y-108337664D01*
X122521428Y-108337664D02*
X122549999Y-108375760D01*
X122549999Y-108375760D02*
X122607142Y-108413855D01*
X122607142Y-108413855D02*
X122721428Y-108413855D01*
X122721428Y-108413855D02*
X122778571Y-108375760D01*
X122778571Y-108375760D02*
X122807142Y-108337664D01*
X122807142Y-108337664D02*
X122835713Y-108261474D01*
X122835713Y-108261474D02*
X122835713Y-108070998D01*
X122835713Y-108070998D02*
X122807142Y-107994807D01*
X122807142Y-107994807D02*
X122778571Y-107956712D01*
X122778571Y-107956712D02*
X122721428Y-107918617D01*
X122721428Y-107918617D02*
X122607142Y-107918617D01*
X122607142Y-107918617D02*
X122549999Y-107956712D01*
X122549999Y-107956712D02*
X122521428Y-107994807D01*
X122521428Y-107994807D02*
X122492856Y-108070998D01*
X141689285Y-108337664D02*
X141660713Y-108375760D01*
X141660713Y-108375760D02*
X141574999Y-108413855D01*
X141574999Y-108413855D02*
X141517856Y-108413855D01*
X141517856Y-108413855D02*
X141432142Y-108375760D01*
X141432142Y-108375760D02*
X141374999Y-108299569D01*
X141374999Y-108299569D02*
X141346428Y-108223379D01*
X141346428Y-108223379D02*
X141317856Y-108070998D01*
X141317856Y-108070998D02*
X141317856Y-107956712D01*
X141317856Y-107956712D02*
X141346428Y-107804331D01*
X141346428Y-107804331D02*
X141374999Y-107728140D01*
X141374999Y-107728140D02*
X141432142Y-107651950D01*
X141432142Y-107651950D02*
X141517856Y-107613855D01*
X141517856Y-107613855D02*
X141574999Y-107613855D01*
X141574999Y-107613855D02*
X141660713Y-107651950D01*
X141660713Y-107651950D02*
X141689285Y-107690045D01*
X141889285Y-107613855D02*
X142260713Y-107613855D01*
X142260713Y-107613855D02*
X142060713Y-107918617D01*
X142060713Y-107918617D02*
X142146428Y-107918617D01*
X142146428Y-107918617D02*
X142203571Y-107956712D01*
X142203571Y-107956712D02*
X142232142Y-107994807D01*
X142232142Y-107994807D02*
X142260713Y-108070998D01*
X142260713Y-108070998D02*
X142260713Y-108261474D01*
X142260713Y-108261474D02*
X142232142Y-108337664D01*
X142232142Y-108337664D02*
X142203571Y-108375760D01*
X142203571Y-108375760D02*
X142146428Y-108413855D01*
X142146428Y-108413855D02*
X141974999Y-108413855D01*
X141974999Y-108413855D02*
X141917856Y-108375760D01*
X141917856Y-108375760D02*
X141889285Y-108337664D01*
X142775000Y-107613855D02*
X142660714Y-107613855D01*
X142660714Y-107613855D02*
X142603571Y-107651950D01*
X142603571Y-107651950D02*
X142575000Y-107690045D01*
X142575000Y-107690045D02*
X142517857Y-107804331D01*
X142517857Y-107804331D02*
X142489285Y-107956712D01*
X142489285Y-107956712D02*
X142489285Y-108261474D01*
X142489285Y-108261474D02*
X142517857Y-108337664D01*
X142517857Y-108337664D02*
X142546428Y-108375760D01*
X142546428Y-108375760D02*
X142603571Y-108413855D01*
X142603571Y-108413855D02*
X142717857Y-108413855D01*
X142717857Y-108413855D02*
X142775000Y-108375760D01*
X142775000Y-108375760D02*
X142803571Y-108337664D01*
X142803571Y-108337664D02*
X142832142Y-108261474D01*
X142832142Y-108261474D02*
X142832142Y-108070998D01*
X142832142Y-108070998D02*
X142803571Y-107994807D01*
X142803571Y-107994807D02*
X142775000Y-107956712D01*
X142775000Y-107956712D02*
X142717857Y-107918617D01*
X142717857Y-107918617D02*
X142603571Y-107918617D01*
X142603571Y-107918617D02*
X142546428Y-107956712D01*
X142546428Y-107956712D02*
X142517857Y-107994807D01*
X142517857Y-107994807D02*
X142489285Y-108070998D01*
X128889285Y-91488855D02*
X128689285Y-91107902D01*
X128546428Y-91488855D02*
X128546428Y-90688855D01*
X128546428Y-90688855D02*
X128774999Y-90688855D01*
X128774999Y-90688855D02*
X128832142Y-90726950D01*
X128832142Y-90726950D02*
X128860713Y-90765045D01*
X128860713Y-90765045D02*
X128889285Y-90841236D01*
X128889285Y-90841236D02*
X128889285Y-90955521D01*
X128889285Y-90955521D02*
X128860713Y-91031712D01*
X128860713Y-91031712D02*
X128832142Y-91069807D01*
X128832142Y-91069807D02*
X128774999Y-91107902D01*
X128774999Y-91107902D02*
X128546428Y-91107902D01*
X129403571Y-90955521D02*
X129403571Y-91488855D01*
X129260713Y-90650760D02*
X129117856Y-91222188D01*
X129117856Y-91222188D02*
X129489285Y-91222188D01*
X129832142Y-90688855D02*
X129889285Y-90688855D01*
X129889285Y-90688855D02*
X129946428Y-90726950D01*
X129946428Y-90726950D02*
X129975000Y-90765045D01*
X129975000Y-90765045D02*
X130003571Y-90841236D01*
X130003571Y-90841236D02*
X130032142Y-90993617D01*
X130032142Y-90993617D02*
X130032142Y-91184093D01*
X130032142Y-91184093D02*
X130003571Y-91336474D01*
X130003571Y-91336474D02*
X129975000Y-91412664D01*
X129975000Y-91412664D02*
X129946428Y-91450760D01*
X129946428Y-91450760D02*
X129889285Y-91488855D01*
X129889285Y-91488855D02*
X129832142Y-91488855D01*
X129832142Y-91488855D02*
X129775000Y-91450760D01*
X129775000Y-91450760D02*
X129746428Y-91412664D01*
X129746428Y-91412664D02*
X129717857Y-91336474D01*
X129717857Y-91336474D02*
X129689285Y-91184093D01*
X129689285Y-91184093D02*
X129689285Y-90993617D01*
X129689285Y-90993617D02*
X129717857Y-90841236D01*
X129717857Y-90841236D02*
X129746428Y-90765045D01*
X129746428Y-90765045D02*
X129775000Y-90726950D01*
X129775000Y-90726950D02*
X129832142Y-90688855D01*
X141299999Y-99563855D02*
X141299999Y-100135283D01*
X141299999Y-100135283D02*
X141271428Y-100249569D01*
X141271428Y-100249569D02*
X141214285Y-100325760D01*
X141214285Y-100325760D02*
X141128571Y-100363855D01*
X141128571Y-100363855D02*
X141071428Y-100363855D01*
X141899999Y-100363855D02*
X141557142Y-100363855D01*
X141728571Y-100363855D02*
X141728571Y-99563855D01*
X141728571Y-99563855D02*
X141671428Y-99678140D01*
X141671428Y-99678140D02*
X141614285Y-99754331D01*
X141614285Y-99754331D02*
X141557142Y-99792426D01*
X129839285Y-109238855D02*
X129639285Y-108857902D01*
X129496428Y-109238855D02*
X129496428Y-108438855D01*
X129496428Y-108438855D02*
X129724999Y-108438855D01*
X129724999Y-108438855D02*
X129782142Y-108476950D01*
X129782142Y-108476950D02*
X129810713Y-108515045D01*
X129810713Y-108515045D02*
X129839285Y-108591236D01*
X129839285Y-108591236D02*
X129839285Y-108705521D01*
X129839285Y-108705521D02*
X129810713Y-108781712D01*
X129810713Y-108781712D02*
X129782142Y-108819807D01*
X129782142Y-108819807D02*
X129724999Y-108857902D01*
X129724999Y-108857902D02*
X129496428Y-108857902D01*
X130039285Y-108438855D02*
X130410713Y-108438855D01*
X130410713Y-108438855D02*
X130210713Y-108743617D01*
X130210713Y-108743617D02*
X130296428Y-108743617D01*
X130296428Y-108743617D02*
X130353571Y-108781712D01*
X130353571Y-108781712D02*
X130382142Y-108819807D01*
X130382142Y-108819807D02*
X130410713Y-108895998D01*
X130410713Y-108895998D02*
X130410713Y-109086474D01*
X130410713Y-109086474D02*
X130382142Y-109162664D01*
X130382142Y-109162664D02*
X130353571Y-109200760D01*
X130353571Y-109200760D02*
X130296428Y-109238855D01*
X130296428Y-109238855D02*
X130124999Y-109238855D01*
X130124999Y-109238855D02*
X130067856Y-109200760D01*
X130067856Y-109200760D02*
X130039285Y-109162664D01*
X130782142Y-108438855D02*
X130839285Y-108438855D01*
X130839285Y-108438855D02*
X130896428Y-108476950D01*
X130896428Y-108476950D02*
X130925000Y-108515045D01*
X130925000Y-108515045D02*
X130953571Y-108591236D01*
X130953571Y-108591236D02*
X130982142Y-108743617D01*
X130982142Y-108743617D02*
X130982142Y-108934093D01*
X130982142Y-108934093D02*
X130953571Y-109086474D01*
X130953571Y-109086474D02*
X130925000Y-109162664D01*
X130925000Y-109162664D02*
X130896428Y-109200760D01*
X130896428Y-109200760D02*
X130839285Y-109238855D01*
X130839285Y-109238855D02*
X130782142Y-109238855D01*
X130782142Y-109238855D02*
X130725000Y-109200760D01*
X130725000Y-109200760D02*
X130696428Y-109162664D01*
X130696428Y-109162664D02*
X130667857Y-109086474D01*
X130667857Y-109086474D02*
X130639285Y-108934093D01*
X130639285Y-108934093D02*
X130639285Y-108743617D01*
X130639285Y-108743617D02*
X130667857Y-108591236D01*
X130667857Y-108591236D02*
X130696428Y-108515045D01*
X130696428Y-108515045D02*
X130725000Y-108476950D01*
X130725000Y-108476950D02*
X130782142Y-108438855D01*
X147037664Y-92210714D02*
X147075760Y-92239286D01*
X147075760Y-92239286D02*
X147113855Y-92325000D01*
X147113855Y-92325000D02*
X147113855Y-92382143D01*
X147113855Y-92382143D02*
X147075760Y-92467857D01*
X147075760Y-92467857D02*
X146999569Y-92525000D01*
X146999569Y-92525000D02*
X146923379Y-92553571D01*
X146923379Y-92553571D02*
X146770998Y-92582143D01*
X146770998Y-92582143D02*
X146656712Y-92582143D01*
X146656712Y-92582143D02*
X146504331Y-92553571D01*
X146504331Y-92553571D02*
X146428140Y-92525000D01*
X146428140Y-92525000D02*
X146351950Y-92467857D01*
X146351950Y-92467857D02*
X146313855Y-92382143D01*
X146313855Y-92382143D02*
X146313855Y-92325000D01*
X146313855Y-92325000D02*
X146351950Y-92239286D01*
X146351950Y-92239286D02*
X146390045Y-92210714D01*
X146390045Y-91982143D02*
X146351950Y-91953571D01*
X146351950Y-91953571D02*
X146313855Y-91896429D01*
X146313855Y-91896429D02*
X146313855Y-91753571D01*
X146313855Y-91753571D02*
X146351950Y-91696429D01*
X146351950Y-91696429D02*
X146390045Y-91667857D01*
X146390045Y-91667857D02*
X146466236Y-91639286D01*
X146466236Y-91639286D02*
X146542426Y-91639286D01*
X146542426Y-91639286D02*
X146656712Y-91667857D01*
X146656712Y-91667857D02*
X147113855Y-92010714D01*
X147113855Y-92010714D02*
X147113855Y-91639286D01*
X146313855Y-91125000D02*
X146313855Y-91239285D01*
X146313855Y-91239285D02*
X146351950Y-91296428D01*
X146351950Y-91296428D02*
X146390045Y-91325000D01*
X146390045Y-91325000D02*
X146504331Y-91382142D01*
X146504331Y-91382142D02*
X146656712Y-91410714D01*
X146656712Y-91410714D02*
X146961474Y-91410714D01*
X146961474Y-91410714D02*
X147037664Y-91382142D01*
X147037664Y-91382142D02*
X147075760Y-91353571D01*
X147075760Y-91353571D02*
X147113855Y-91296428D01*
X147113855Y-91296428D02*
X147113855Y-91182142D01*
X147113855Y-91182142D02*
X147075760Y-91125000D01*
X147075760Y-91125000D02*
X147037664Y-91096428D01*
X147037664Y-91096428D02*
X146961474Y-91067857D01*
X146961474Y-91067857D02*
X146770998Y-91067857D01*
X146770998Y-91067857D02*
X146694807Y-91096428D01*
X146694807Y-91096428D02*
X146656712Y-91125000D01*
X146656712Y-91125000D02*
X146618617Y-91182142D01*
X146618617Y-91182142D02*
X146618617Y-91296428D01*
X146618617Y-91296428D02*
X146656712Y-91353571D01*
X146656712Y-91353571D02*
X146694807Y-91382142D01*
X146694807Y-91382142D02*
X146770998Y-91410714D01*
X138769807Y-94349999D02*
X138769807Y-94549999D01*
X139188855Y-94549999D02*
X138388855Y-94549999D01*
X138388855Y-94549999D02*
X138388855Y-94264285D01*
X138769807Y-93835713D02*
X138807902Y-93749999D01*
X138807902Y-93749999D02*
X138845998Y-93721428D01*
X138845998Y-93721428D02*
X138922188Y-93692856D01*
X138922188Y-93692856D02*
X139036474Y-93692856D01*
X139036474Y-93692856D02*
X139112664Y-93721428D01*
X139112664Y-93721428D02*
X139150760Y-93749999D01*
X139150760Y-93749999D02*
X139188855Y-93807142D01*
X139188855Y-93807142D02*
X139188855Y-94035713D01*
X139188855Y-94035713D02*
X138388855Y-94035713D01*
X138388855Y-94035713D02*
X138388855Y-93835713D01*
X138388855Y-93835713D02*
X138426950Y-93778571D01*
X138426950Y-93778571D02*
X138465045Y-93749999D01*
X138465045Y-93749999D02*
X138541236Y-93721428D01*
X138541236Y-93721428D02*
X138617426Y-93721428D01*
X138617426Y-93721428D02*
X138693617Y-93749999D01*
X138693617Y-93749999D02*
X138731712Y-93778571D01*
X138731712Y-93778571D02*
X138769807Y-93835713D01*
X138769807Y-93835713D02*
X138769807Y-94035713D01*
X139188855Y-93121428D02*
X139188855Y-93464285D01*
X139188855Y-93292856D02*
X138388855Y-93292856D01*
X138388855Y-93292856D02*
X138503140Y-93349999D01*
X138503140Y-93349999D02*
X138579331Y-93407142D01*
X138579331Y-93407142D02*
X138617426Y-93464285D01*
X107825000Y-92963855D02*
X107625000Y-92582902D01*
X107482143Y-92963855D02*
X107482143Y-92163855D01*
X107482143Y-92163855D02*
X107710714Y-92163855D01*
X107710714Y-92163855D02*
X107767857Y-92201950D01*
X107767857Y-92201950D02*
X107796428Y-92240045D01*
X107796428Y-92240045D02*
X107825000Y-92316236D01*
X107825000Y-92316236D02*
X107825000Y-92430521D01*
X107825000Y-92430521D02*
X107796428Y-92506712D01*
X107796428Y-92506712D02*
X107767857Y-92544807D01*
X107767857Y-92544807D02*
X107710714Y-92582902D01*
X107710714Y-92582902D02*
X107482143Y-92582902D01*
X108053571Y-92240045D02*
X108082143Y-92201950D01*
X108082143Y-92201950D02*
X108139286Y-92163855D01*
X108139286Y-92163855D02*
X108282143Y-92163855D01*
X108282143Y-92163855D02*
X108339286Y-92201950D01*
X108339286Y-92201950D02*
X108367857Y-92240045D01*
X108367857Y-92240045D02*
X108396428Y-92316236D01*
X108396428Y-92316236D02*
X108396428Y-92392426D01*
X108396428Y-92392426D02*
X108367857Y-92506712D01*
X108367857Y-92506712D02*
X108025000Y-92963855D01*
X108025000Y-92963855D02*
X108396428Y-92963855D01*
X127842857Y-99563855D02*
X127842857Y-100211474D01*
X127842857Y-100211474D02*
X127871428Y-100287664D01*
X127871428Y-100287664D02*
X127900000Y-100325760D01*
X127900000Y-100325760D02*
X127957142Y-100363855D01*
X127957142Y-100363855D02*
X128071428Y-100363855D01*
X128071428Y-100363855D02*
X128128571Y-100325760D01*
X128128571Y-100325760D02*
X128157142Y-100287664D01*
X128157142Y-100287664D02*
X128185714Y-100211474D01*
X128185714Y-100211474D02*
X128185714Y-99563855D01*
X128728571Y-99830521D02*
X128728571Y-100363855D01*
X128585713Y-99525760D02*
X128442856Y-100097188D01*
X128442856Y-100097188D02*
X128814285Y-100097188D01*
X144142857Y-89838855D02*
X144142857Y-90486474D01*
X144142857Y-90486474D02*
X144171428Y-90562664D01*
X144171428Y-90562664D02*
X144200000Y-90600760D01*
X144200000Y-90600760D02*
X144257142Y-90638855D01*
X144257142Y-90638855D02*
X144371428Y-90638855D01*
X144371428Y-90638855D02*
X144428571Y-90600760D01*
X144428571Y-90600760D02*
X144457142Y-90562664D01*
X144457142Y-90562664D02*
X144485714Y-90486474D01*
X144485714Y-90486474D02*
X144485714Y-89838855D01*
X144714285Y-89838855D02*
X145085713Y-89838855D01*
X145085713Y-89838855D02*
X144885713Y-90143617D01*
X144885713Y-90143617D02*
X144971428Y-90143617D01*
X144971428Y-90143617D02*
X145028571Y-90181712D01*
X145028571Y-90181712D02*
X145057142Y-90219807D01*
X145057142Y-90219807D02*
X145085713Y-90295998D01*
X145085713Y-90295998D02*
X145085713Y-90486474D01*
X145085713Y-90486474D02*
X145057142Y-90562664D01*
X145057142Y-90562664D02*
X145028571Y-90600760D01*
X145028571Y-90600760D02*
X144971428Y-90638855D01*
X144971428Y-90638855D02*
X144799999Y-90638855D01*
X144799999Y-90638855D02*
X144742856Y-90600760D01*
X144742856Y-90600760D02*
X144714285Y-90562664D01*
X126314284Y-94162664D02*
X126285712Y-94200760D01*
X126285712Y-94200760D02*
X126199998Y-94238855D01*
X126199998Y-94238855D02*
X126142855Y-94238855D01*
X126142855Y-94238855D02*
X126057141Y-94200760D01*
X126057141Y-94200760D02*
X125999998Y-94124569D01*
X125999998Y-94124569D02*
X125971427Y-94048379D01*
X125971427Y-94048379D02*
X125942855Y-93895998D01*
X125942855Y-93895998D02*
X125942855Y-93781712D01*
X125942855Y-93781712D02*
X125971427Y-93629331D01*
X125971427Y-93629331D02*
X125999998Y-93553140D01*
X125999998Y-93553140D02*
X126057141Y-93476950D01*
X126057141Y-93476950D02*
X126142855Y-93438855D01*
X126142855Y-93438855D02*
X126199998Y-93438855D01*
X126199998Y-93438855D02*
X126285712Y-93476950D01*
X126285712Y-93476950D02*
X126314284Y-93515045D01*
X126542855Y-93515045D02*
X126571427Y-93476950D01*
X126571427Y-93476950D02*
X126628570Y-93438855D01*
X126628570Y-93438855D02*
X126771427Y-93438855D01*
X126771427Y-93438855D02*
X126828570Y-93476950D01*
X126828570Y-93476950D02*
X126857141Y-93515045D01*
X126857141Y-93515045D02*
X126885712Y-93591236D01*
X126885712Y-93591236D02*
X126885712Y-93667426D01*
X126885712Y-93667426D02*
X126857141Y-93781712D01*
X126857141Y-93781712D02*
X126514284Y-94238855D01*
X126514284Y-94238855D02*
X126885712Y-94238855D01*
X127399999Y-93705521D02*
X127399999Y-94238855D01*
X127257141Y-93400760D02*
X127114284Y-93972188D01*
X127114284Y-93972188D02*
X127485713Y-93972188D01*
X121214285Y-103287664D02*
X121185713Y-103325760D01*
X121185713Y-103325760D02*
X121099999Y-103363855D01*
X121099999Y-103363855D02*
X121042856Y-103363855D01*
X121042856Y-103363855D02*
X120957142Y-103325760D01*
X120957142Y-103325760D02*
X120899999Y-103249569D01*
X120899999Y-103249569D02*
X120871428Y-103173379D01*
X120871428Y-103173379D02*
X120842856Y-103020998D01*
X120842856Y-103020998D02*
X120842856Y-102906712D01*
X120842856Y-102906712D02*
X120871428Y-102754331D01*
X120871428Y-102754331D02*
X120899999Y-102678140D01*
X120899999Y-102678140D02*
X120957142Y-102601950D01*
X120957142Y-102601950D02*
X121042856Y-102563855D01*
X121042856Y-102563855D02*
X121099999Y-102563855D01*
X121099999Y-102563855D02*
X121185713Y-102601950D01*
X121185713Y-102601950D02*
X121214285Y-102640045D01*
X121728571Y-102563855D02*
X121614285Y-102563855D01*
X121614285Y-102563855D02*
X121557142Y-102601950D01*
X121557142Y-102601950D02*
X121528571Y-102640045D01*
X121528571Y-102640045D02*
X121471428Y-102754331D01*
X121471428Y-102754331D02*
X121442856Y-102906712D01*
X121442856Y-102906712D02*
X121442856Y-103211474D01*
X121442856Y-103211474D02*
X121471428Y-103287664D01*
X121471428Y-103287664D02*
X121499999Y-103325760D01*
X121499999Y-103325760D02*
X121557142Y-103363855D01*
X121557142Y-103363855D02*
X121671428Y-103363855D01*
X121671428Y-103363855D02*
X121728571Y-103325760D01*
X121728571Y-103325760D02*
X121757142Y-103287664D01*
X121757142Y-103287664D02*
X121785713Y-103211474D01*
X121785713Y-103211474D02*
X121785713Y-103020998D01*
X121785713Y-103020998D02*
X121757142Y-102944807D01*
X121757142Y-102944807D02*
X121728571Y-102906712D01*
X121728571Y-102906712D02*
X121671428Y-102868617D01*
X121671428Y-102868617D02*
X121557142Y-102868617D01*
X121557142Y-102868617D02*
X121499999Y-102906712D01*
X121499999Y-102906712D02*
X121471428Y-102944807D01*
X121471428Y-102944807D02*
X121442856Y-103020998D01*
X122157142Y-102563855D02*
X122214285Y-102563855D01*
X122214285Y-102563855D02*
X122271428Y-102601950D01*
X122271428Y-102601950D02*
X122300000Y-102640045D01*
X122300000Y-102640045D02*
X122328571Y-102716236D01*
X122328571Y-102716236D02*
X122357142Y-102868617D01*
X122357142Y-102868617D02*
X122357142Y-103059093D01*
X122357142Y-103059093D02*
X122328571Y-103211474D01*
X122328571Y-103211474D02*
X122300000Y-103287664D01*
X122300000Y-103287664D02*
X122271428Y-103325760D01*
X122271428Y-103325760D02*
X122214285Y-103363855D01*
X122214285Y-103363855D02*
X122157142Y-103363855D01*
X122157142Y-103363855D02*
X122100000Y-103325760D01*
X122100000Y-103325760D02*
X122071428Y-103287664D01*
X122071428Y-103287664D02*
X122042857Y-103211474D01*
X122042857Y-103211474D02*
X122014285Y-103059093D01*
X122014285Y-103059093D02*
X122014285Y-102868617D01*
X122014285Y-102868617D02*
X122042857Y-102716236D01*
X122042857Y-102716236D02*
X122071428Y-102640045D01*
X122071428Y-102640045D02*
X122100000Y-102601950D01*
X122100000Y-102601950D02*
X122157142Y-102563855D01*
X132371428Y-95788855D02*
X132371428Y-94988855D01*
X132371428Y-94988855D02*
X132514285Y-94988855D01*
X132514285Y-94988855D02*
X132599999Y-95026950D01*
X132599999Y-95026950D02*
X132657142Y-95103140D01*
X132657142Y-95103140D02*
X132685713Y-95179331D01*
X132685713Y-95179331D02*
X132714285Y-95331712D01*
X132714285Y-95331712D02*
X132714285Y-95445998D01*
X132714285Y-95445998D02*
X132685713Y-95598379D01*
X132685713Y-95598379D02*
X132657142Y-95674569D01*
X132657142Y-95674569D02*
X132599999Y-95750760D01*
X132599999Y-95750760D02*
X132514285Y-95788855D01*
X132514285Y-95788855D02*
X132371428Y-95788855D01*
X133257142Y-94988855D02*
X132971428Y-94988855D01*
X132971428Y-94988855D02*
X132942856Y-95369807D01*
X132942856Y-95369807D02*
X132971428Y-95331712D01*
X132971428Y-95331712D02*
X133028571Y-95293617D01*
X133028571Y-95293617D02*
X133171428Y-95293617D01*
X133171428Y-95293617D02*
X133228571Y-95331712D01*
X133228571Y-95331712D02*
X133257142Y-95369807D01*
X133257142Y-95369807D02*
X133285713Y-95445998D01*
X133285713Y-95445998D02*
X133285713Y-95636474D01*
X133285713Y-95636474D02*
X133257142Y-95712664D01*
X133257142Y-95712664D02*
X133228571Y-95750760D01*
X133228571Y-95750760D02*
X133171428Y-95788855D01*
X133171428Y-95788855D02*
X133028571Y-95788855D01*
X133028571Y-95788855D02*
X132971428Y-95750760D01*
X132971428Y-95750760D02*
X132942856Y-95712664D01*
X133857142Y-95788855D02*
X133514285Y-95788855D01*
X133685714Y-95788855D02*
X133685714Y-94988855D01*
X133685714Y-94988855D02*
X133628571Y-95103140D01*
X133628571Y-95103140D02*
X133571428Y-95179331D01*
X133571428Y-95179331D02*
X133514285Y-95217426D01*
X104299999Y-101863855D02*
X104299999Y-102435283D01*
X104299999Y-102435283D02*
X104271428Y-102549569D01*
X104271428Y-102549569D02*
X104214285Y-102625760D01*
X104214285Y-102625760D02*
X104128571Y-102663855D01*
X104128571Y-102663855D02*
X104071428Y-102663855D01*
X104557142Y-101940045D02*
X104585714Y-101901950D01*
X104585714Y-101901950D02*
X104642857Y-101863855D01*
X104642857Y-101863855D02*
X104785714Y-101863855D01*
X104785714Y-101863855D02*
X104842857Y-101901950D01*
X104842857Y-101901950D02*
X104871428Y-101940045D01*
X104871428Y-101940045D02*
X104899999Y-102016236D01*
X104899999Y-102016236D02*
X104899999Y-102092426D01*
X104899999Y-102092426D02*
X104871428Y-102206712D01*
X104871428Y-102206712D02*
X104528571Y-102663855D01*
X104528571Y-102663855D02*
X104899999Y-102663855D01*
X121092857Y-89463854D02*
X121092857Y-90111473D01*
X121092857Y-90111473D02*
X121121428Y-90187663D01*
X121121428Y-90187663D02*
X121150000Y-90225759D01*
X121150000Y-90225759D02*
X121207142Y-90263854D01*
X121207142Y-90263854D02*
X121321428Y-90263854D01*
X121321428Y-90263854D02*
X121378571Y-90225759D01*
X121378571Y-90225759D02*
X121407142Y-90187663D01*
X121407142Y-90187663D02*
X121435714Y-90111473D01*
X121435714Y-90111473D02*
X121435714Y-89463854D01*
X122007142Y-89463854D02*
X121721428Y-89463854D01*
X121721428Y-89463854D02*
X121692856Y-89844806D01*
X121692856Y-89844806D02*
X121721428Y-89806711D01*
X121721428Y-89806711D02*
X121778571Y-89768616D01*
X121778571Y-89768616D02*
X121921428Y-89768616D01*
X121921428Y-89768616D02*
X121978571Y-89806711D01*
X121978571Y-89806711D02*
X122007142Y-89844806D01*
X122007142Y-89844806D02*
X122035713Y-89920997D01*
X122035713Y-89920997D02*
X122035713Y-90111473D01*
X122035713Y-90111473D02*
X122007142Y-90187663D01*
X122007142Y-90187663D02*
X121978571Y-90225759D01*
X121978571Y-90225759D02*
X121921428Y-90263854D01*
X121921428Y-90263854D02*
X121778571Y-90263854D01*
X121778571Y-90263854D02*
X121721428Y-90225759D01*
X121721428Y-90225759D02*
X121692856Y-90187663D01*
X133513855Y-104928571D02*
X132713855Y-104928571D01*
X132713855Y-104928571D02*
X132713855Y-104785714D01*
X132713855Y-104785714D02*
X132751950Y-104700000D01*
X132751950Y-104700000D02*
X132828140Y-104642857D01*
X132828140Y-104642857D02*
X132904331Y-104614286D01*
X132904331Y-104614286D02*
X133056712Y-104585714D01*
X133056712Y-104585714D02*
X133170998Y-104585714D01*
X133170998Y-104585714D02*
X133323379Y-104614286D01*
X133323379Y-104614286D02*
X133399569Y-104642857D01*
X133399569Y-104642857D02*
X133475760Y-104700000D01*
X133475760Y-104700000D02*
X133513855Y-104785714D01*
X133513855Y-104785714D02*
X133513855Y-104928571D01*
X132713855Y-104385714D02*
X132713855Y-104014286D01*
X132713855Y-104014286D02*
X133018617Y-104214286D01*
X133018617Y-104214286D02*
X133018617Y-104128571D01*
X133018617Y-104128571D02*
X133056712Y-104071429D01*
X133056712Y-104071429D02*
X133094807Y-104042857D01*
X133094807Y-104042857D02*
X133170998Y-104014286D01*
X133170998Y-104014286D02*
X133361474Y-104014286D01*
X133361474Y-104014286D02*
X133437664Y-104042857D01*
X133437664Y-104042857D02*
X133475760Y-104071429D01*
X133475760Y-104071429D02*
X133513855Y-104128571D01*
X133513855Y-104128571D02*
X133513855Y-104300000D01*
X133513855Y-104300000D02*
X133475760Y-104357143D01*
X133475760Y-104357143D02*
X133437664Y-104385714D01*
X132713855Y-103642857D02*
X132713855Y-103585714D01*
X132713855Y-103585714D02*
X132751950Y-103528571D01*
X132751950Y-103528571D02*
X132790045Y-103500000D01*
X132790045Y-103500000D02*
X132866236Y-103471428D01*
X132866236Y-103471428D02*
X133018617Y-103442857D01*
X133018617Y-103442857D02*
X133209093Y-103442857D01*
X133209093Y-103442857D02*
X133361474Y-103471428D01*
X133361474Y-103471428D02*
X133437664Y-103500000D01*
X133437664Y-103500000D02*
X133475760Y-103528571D01*
X133475760Y-103528571D02*
X133513855Y-103585714D01*
X133513855Y-103585714D02*
X133513855Y-103642857D01*
X133513855Y-103642857D02*
X133475760Y-103700000D01*
X133475760Y-103700000D02*
X133437664Y-103728571D01*
X133437664Y-103728571D02*
X133361474Y-103757142D01*
X133361474Y-103757142D02*
X133209093Y-103785714D01*
X133209093Y-103785714D02*
X133018617Y-103785714D01*
X133018617Y-103785714D02*
X132866236Y-103757142D01*
X132866236Y-103757142D02*
X132790045Y-103728571D01*
X132790045Y-103728571D02*
X132751950Y-103700000D01*
X132751950Y-103700000D02*
X132713855Y-103642857D01*
X105099999Y-93963854D02*
X105099999Y-94535282D01*
X105099999Y-94535282D02*
X105071428Y-94649568D01*
X105071428Y-94649568D02*
X105014285Y-94725759D01*
X105014285Y-94725759D02*
X104928571Y-94763854D01*
X104928571Y-94763854D02*
X104871428Y-94763854D01*
X105671428Y-93963854D02*
X105385714Y-93963854D01*
X105385714Y-93963854D02*
X105357142Y-94344806D01*
X105357142Y-94344806D02*
X105385714Y-94306711D01*
X105385714Y-94306711D02*
X105442857Y-94268616D01*
X105442857Y-94268616D02*
X105585714Y-94268616D01*
X105585714Y-94268616D02*
X105642857Y-94306711D01*
X105642857Y-94306711D02*
X105671428Y-94344806D01*
X105671428Y-94344806D02*
X105699999Y-94420997D01*
X105699999Y-94420997D02*
X105699999Y-94611473D01*
X105699999Y-94611473D02*
X105671428Y-94687663D01*
X105671428Y-94687663D02*
X105642857Y-94725759D01*
X105642857Y-94725759D02*
X105585714Y-94763854D01*
X105585714Y-94763854D02*
X105442857Y-94763854D01*
X105442857Y-94763854D02*
X105385714Y-94725759D01*
X105385714Y-94725759D02*
X105357142Y-94687663D01*
X114487664Y-91560714D02*
X114525760Y-91589286D01*
X114525760Y-91589286D02*
X114563855Y-91675000D01*
X114563855Y-91675000D02*
X114563855Y-91732143D01*
X114563855Y-91732143D02*
X114525760Y-91817857D01*
X114525760Y-91817857D02*
X114449569Y-91875000D01*
X114449569Y-91875000D02*
X114373379Y-91903571D01*
X114373379Y-91903571D02*
X114220998Y-91932143D01*
X114220998Y-91932143D02*
X114106712Y-91932143D01*
X114106712Y-91932143D02*
X113954331Y-91903571D01*
X113954331Y-91903571D02*
X113878140Y-91875000D01*
X113878140Y-91875000D02*
X113801950Y-91817857D01*
X113801950Y-91817857D02*
X113763855Y-91732143D01*
X113763855Y-91732143D02*
X113763855Y-91675000D01*
X113763855Y-91675000D02*
X113801950Y-91589286D01*
X113801950Y-91589286D02*
X113840045Y-91560714D01*
X113840045Y-91332143D02*
X113801950Y-91303571D01*
X113801950Y-91303571D02*
X113763855Y-91246429D01*
X113763855Y-91246429D02*
X113763855Y-91103571D01*
X113763855Y-91103571D02*
X113801950Y-91046429D01*
X113801950Y-91046429D02*
X113840045Y-91017857D01*
X113840045Y-91017857D02*
X113916236Y-90989286D01*
X113916236Y-90989286D02*
X113992426Y-90989286D01*
X113992426Y-90989286D02*
X114106712Y-91017857D01*
X114106712Y-91017857D02*
X114563855Y-91360714D01*
X114563855Y-91360714D02*
X114563855Y-90989286D01*
X113763855Y-90446428D02*
X113763855Y-90732142D01*
X113763855Y-90732142D02*
X114144807Y-90760714D01*
X114144807Y-90760714D02*
X114106712Y-90732142D01*
X114106712Y-90732142D02*
X114068617Y-90675000D01*
X114068617Y-90675000D02*
X114068617Y-90532142D01*
X114068617Y-90532142D02*
X114106712Y-90475000D01*
X114106712Y-90475000D02*
X114144807Y-90446428D01*
X114144807Y-90446428D02*
X114220998Y-90417857D01*
X114220998Y-90417857D02*
X114411474Y-90417857D01*
X114411474Y-90417857D02*
X114487664Y-90446428D01*
X114487664Y-90446428D02*
X114525760Y-90475000D01*
X114525760Y-90475000D02*
X114563855Y-90532142D01*
X114563855Y-90532142D02*
X114563855Y-90675000D01*
X114563855Y-90675000D02*
X114525760Y-90732142D01*
X114525760Y-90732142D02*
X114487664Y-90760714D01*
X140213855Y-110692856D02*
X140861474Y-110692856D01*
X140861474Y-110692856D02*
X140937664Y-110664285D01*
X140937664Y-110664285D02*
X140975760Y-110635714D01*
X140975760Y-110635714D02*
X141013855Y-110578571D01*
X141013855Y-110578571D02*
X141013855Y-110464285D01*
X141013855Y-110464285D02*
X140975760Y-110407142D01*
X140975760Y-110407142D02*
X140937664Y-110378571D01*
X140937664Y-110378571D02*
X140861474Y-110349999D01*
X140861474Y-110349999D02*
X140213855Y-110349999D01*
X141013855Y-109750000D02*
X141013855Y-110092857D01*
X141013855Y-109921428D02*
X140213855Y-109921428D01*
X140213855Y-109921428D02*
X140328140Y-109978571D01*
X140328140Y-109978571D02*
X140404331Y-110035714D01*
X140404331Y-110035714D02*
X140442426Y-110092857D01*
X140480521Y-109235714D02*
X141013855Y-109235714D01*
X140175760Y-109378571D02*
X140747188Y-109521428D01*
X140747188Y-109521428D02*
X140747188Y-109149999D01*
X107400000Y-106287664D02*
X107371428Y-106325760D01*
X107371428Y-106325760D02*
X107285714Y-106363855D01*
X107285714Y-106363855D02*
X107228571Y-106363855D01*
X107228571Y-106363855D02*
X107142857Y-106325760D01*
X107142857Y-106325760D02*
X107085714Y-106249569D01*
X107085714Y-106249569D02*
X107057143Y-106173379D01*
X107057143Y-106173379D02*
X107028571Y-106020998D01*
X107028571Y-106020998D02*
X107028571Y-105906712D01*
X107028571Y-105906712D02*
X107057143Y-105754331D01*
X107057143Y-105754331D02*
X107085714Y-105678140D01*
X107085714Y-105678140D02*
X107142857Y-105601950D01*
X107142857Y-105601950D02*
X107228571Y-105563855D01*
X107228571Y-105563855D02*
X107285714Y-105563855D01*
X107285714Y-105563855D02*
X107371428Y-105601950D01*
X107371428Y-105601950D02*
X107400000Y-105640045D01*
X107600000Y-105563855D02*
X107971428Y-105563855D01*
X107971428Y-105563855D02*
X107771428Y-105868617D01*
X107771428Y-105868617D02*
X107857143Y-105868617D01*
X107857143Y-105868617D02*
X107914286Y-105906712D01*
X107914286Y-105906712D02*
X107942857Y-105944807D01*
X107942857Y-105944807D02*
X107971428Y-106020998D01*
X107971428Y-106020998D02*
X107971428Y-106211474D01*
X107971428Y-106211474D02*
X107942857Y-106287664D01*
X107942857Y-106287664D02*
X107914286Y-106325760D01*
X107914286Y-106325760D02*
X107857143Y-106363855D01*
X107857143Y-106363855D02*
X107685714Y-106363855D01*
X107685714Y-106363855D02*
X107628571Y-106325760D01*
X107628571Y-106325760D02*
X107600000Y-106287664D01*
X114082143Y-105438855D02*
X114082143Y-106086474D01*
X114082143Y-106086474D02*
X114110714Y-106162664D01*
X114110714Y-106162664D02*
X114139286Y-106200760D01*
X114139286Y-106200760D02*
X114196428Y-106238855D01*
X114196428Y-106238855D02*
X114310714Y-106238855D01*
X114310714Y-106238855D02*
X114367857Y-106200760D01*
X114367857Y-106200760D02*
X114396428Y-106162664D01*
X114396428Y-106162664D02*
X114425000Y-106086474D01*
X114425000Y-106086474D02*
X114425000Y-105438855D01*
X115024999Y-106238855D02*
X114682142Y-106238855D01*
X114853571Y-106238855D02*
X114853571Y-105438855D01*
X114853571Y-105438855D02*
X114796428Y-105553140D01*
X114796428Y-105553140D02*
X114739285Y-105629331D01*
X114739285Y-105629331D02*
X114682142Y-105667426D01*
X115596428Y-106238855D02*
X115253571Y-106238855D01*
X115425000Y-106238855D02*
X115425000Y-105438855D01*
X115425000Y-105438855D02*
X115367857Y-105553140D01*
X115367857Y-105553140D02*
X115310714Y-105629331D01*
X115310714Y-105629331D02*
X115253571Y-105667426D01*
%TO.C,R19*%
X117052500Y-109537258D02*
X117052500Y-109062742D01*
X118097500Y-109537258D02*
X118097500Y-109062742D01*
%TO.C,J3*%
X115940000Y-98060000D02*
X115940000Y-101940000D01*
X117910000Y-96890000D02*
X120410000Y-96890000D01*
X117910000Y-103110000D02*
X120410000Y-103110000D01*
X120410000Y-96890000D02*
X120410000Y-97940000D01*
X120410000Y-97940000D02*
X121400000Y-97940000D01*
X120410000Y-103110000D02*
X120410000Y-102060000D01*
%TO.C,C12*%
X133390000Y-92592164D02*
X133390000Y-92807836D01*
X134110000Y-92592164D02*
X134110000Y-92807836D01*
%TO.C,C28*%
X115857836Y-107915000D02*
X115642164Y-107915000D01*
X115857836Y-108635000D02*
X115642164Y-108635000D01*
%TO.C,C29*%
X116557836Y-93765000D02*
X116342164Y-93765000D01*
X116557836Y-94485000D02*
X116342164Y-94485000D01*
%TO.C,R15*%
X134345000Y-108996359D02*
X134345000Y-109303641D01*
X135105000Y-108996359D02*
X135105000Y-109303641D01*
%TO.C,R13*%
X116271359Y-94870000D02*
X116578641Y-94870000D01*
X116271359Y-95630000D02*
X116578641Y-95630000D01*
%TO.C,U6*%
X122350000Y-105315000D02*
X120150000Y-105315000D01*
X122350000Y-105315000D02*
X124550000Y-105315000D01*
X122350000Y-110785000D02*
X120150000Y-110785000D01*
X122350000Y-110785000D02*
X124550000Y-110785000D01*
X126210000Y-110325000D02*
X126540000Y-110565000D01*
X126540000Y-110085000D01*
X126210000Y-110325000D01*
G36*
X126540000Y-110565000D02*
G01*
X126210000Y-110325000D01*
X126540000Y-110085000D01*
X126540000Y-110565000D01*
G37*
%TO.C,R17*%
X115795000Y-109696359D02*
X115795000Y-110003641D01*
X116555000Y-109696359D02*
X116555000Y-110003641D01*
%TO.C,C36*%
X139567164Y-107690000D02*
X139782836Y-107690000D01*
X139567164Y-108410000D02*
X139782836Y-108410000D01*
%TO.C,D41*%
X136175000Y-104490000D02*
X135525000Y-104490000D01*
X136175000Y-104490000D02*
X136825000Y-104490000D01*
X136175000Y-107610000D02*
X135525000Y-107610000D01*
X136175000Y-107610000D02*
X136825000Y-107610000D01*
X137337500Y-107560000D02*
X137577500Y-107890000D01*
X137097500Y-107890000D01*
X137337500Y-107560000D01*
G36*
X137577500Y-107890000D02*
G01*
X137097500Y-107890000D01*
X137337500Y-107560000D01*
X137577500Y-107890000D01*
G37*
%TO.C,R40*%
X127097936Y-89415000D02*
X131452064Y-89415000D01*
X127097936Y-92835000D02*
X131452064Y-92835000D01*
%TO.C,J1*%
X139790000Y-93265000D02*
X139790000Y-95065000D01*
X139790000Y-104935000D02*
X138800000Y-104935000D01*
X139790000Y-106735000D02*
X139790000Y-104935000D01*
X141240000Y-93265000D02*
X139790000Y-93265000D01*
X141240000Y-106735000D02*
X139790000Y-106735000D01*
X144060000Y-105465000D02*
X144060000Y-94535000D01*
%TO.C,R30*%
X128047936Y-107165000D02*
X132402064Y-107165000D01*
X128047936Y-110585000D02*
X132402064Y-110585000D01*
%TO.C,C26*%
X144842164Y-91465000D02*
X145057836Y-91465000D01*
X144842164Y-92185000D02*
X145057836Y-92185000D01*
%TO.C,FB1*%
X138315000Y-91212779D02*
X138315000Y-90887221D01*
X139335000Y-91212779D02*
X139335000Y-90887221D01*
%TO.C,R2*%
X110197936Y-91690000D02*
X111652064Y-91690000D01*
X110197936Y-93510000D02*
X111652064Y-93510000D01*
%TO.C,U4*%
X124690000Y-96390000D02*
X124690000Y-96840000D01*
X124690000Y-103610000D02*
X124690000Y-103160000D01*
X125140000Y-96390000D02*
X124690000Y-96390000D01*
X125140000Y-103610000D02*
X124690000Y-103610000D01*
X131460000Y-96390000D02*
X131910000Y-96390000D01*
X131460000Y-103610000D02*
X131910000Y-103610000D01*
X131910000Y-96390000D02*
X131910000Y-96840000D01*
X131910000Y-103610000D02*
X131910000Y-103160000D01*
X124100000Y-96840000D02*
X123760000Y-96370000D01*
X124440000Y-96370000D01*
X124100000Y-96840000D01*
G36*
X124100000Y-96840000D02*
G01*
X123760000Y-96370000D01*
X124440000Y-96370000D01*
X124100000Y-96840000D01*
G37*
%TO.C,C13*%
X136311252Y-89540000D02*
X134888748Y-89540000D01*
X136311252Y-91360000D02*
X134888748Y-91360000D01*
%TO.C,U3*%
X141800000Y-89315000D02*
X141000000Y-89315000D01*
X141800000Y-89315000D02*
X142600000Y-89315000D01*
X141800000Y-92435000D02*
X141000000Y-92435000D01*
X141800000Y-92435000D02*
X142600000Y-92435000D01*
X143100000Y-92385000D02*
X143340000Y-92715000D01*
X142860000Y-92715000D01*
X143100000Y-92385000D01*
G36*
X143340000Y-92715000D02*
G01*
X142860000Y-92715000D01*
X143100000Y-92385000D01*
X143340000Y-92715000D01*
G37*
%TO.C,C24*%
X123190000Y-92786252D02*
X123190000Y-91363748D01*
X125010000Y-92786252D02*
X125010000Y-91363748D01*
%TO.C,C60*%
X119292164Y-104240000D02*
X119507836Y-104240000D01*
X119292164Y-104960000D02*
X119507836Y-104960000D01*
%TO.C,D51*%
X134540000Y-94025000D02*
X134540000Y-93375000D01*
X134540000Y-94025000D02*
X134540000Y-94675000D01*
X137660000Y-94025000D02*
X137660000Y-93375000D01*
X137660000Y-94025000D02*
X137660000Y-94675000D01*
X137610000Y-92862500D02*
X137940000Y-92622500D01*
X137940000Y-93102500D01*
X137610000Y-92862500D01*
G36*
X137940000Y-93102500D02*
G01*
X137610000Y-92862500D01*
X137940000Y-92622500D01*
X137940000Y-93102500D01*
G37*
%TO.C,J2*%
X107170000Y-100770000D02*
X107170000Y-101405000D01*
X107170000Y-101405000D02*
X106535000Y-101405000D01*
%TO.C,D40*%
X134540000Y-99710000D02*
X134540000Y-99500000D01*
X134540000Y-99710000D02*
X135440000Y-99710000D01*
X135450000Y-96490000D02*
X134840000Y-96490000D01*
X136850000Y-96490000D02*
X137760000Y-96490000D01*
X136850000Y-99710000D02*
X137760000Y-99710000D01*
X137760000Y-96490000D02*
X137760000Y-96710000D01*
X137760000Y-99710000D02*
X137760000Y-99490000D01*
X134540000Y-96490000D02*
X134300000Y-96160000D01*
X134780000Y-96160000D01*
X134540000Y-96490000D01*
G36*
X134540000Y-96490000D02*
G01*
X134300000Y-96160000D01*
X134780000Y-96160000D01*
X134540000Y-96490000D01*
G37*
%TO.C,R18*%
X121271359Y-104245000D02*
X121578641Y-104245000D01*
X121271359Y-105005000D02*
X121578641Y-105005000D01*
%TO.C,C27*%
X127734420Y-105565000D02*
X128015580Y-105565000D01*
X127734420Y-106585000D02*
X128015580Y-106585000D01*
%TO.C,U5*%
X118040000Y-91665000D02*
X118040000Y-91430000D01*
X118040000Y-95410000D02*
X118040000Y-94935000D01*
X118515000Y-91190000D02*
X118340000Y-91190000D01*
X118515000Y-95410000D02*
X118040000Y-95410000D01*
X121785000Y-91190000D02*
X122260000Y-91190000D01*
X121785000Y-95410000D02*
X122260000Y-95410000D01*
X122260000Y-91190000D02*
X122260000Y-91665000D01*
X122260000Y-95410000D02*
X122260000Y-94935000D01*
X118040000Y-91190000D02*
X117800000Y-90860000D01*
X118280000Y-90860000D01*
X118040000Y-91190000D01*
G36*
X118040000Y-91190000D02*
G01*
X117800000Y-90860000D01*
X118280000Y-90860000D01*
X118040000Y-91190000D01*
G37*
%TO.C,D30*%
X134540000Y-103810000D02*
X134540000Y-103600000D01*
X134540000Y-103810000D02*
X135440000Y-103810000D01*
X135450000Y-100590000D02*
X134840000Y-100590000D01*
X136850000Y-100590000D02*
X137760000Y-100590000D01*
X136850000Y-103810000D02*
X137760000Y-103810000D01*
X137760000Y-100590000D02*
X137760000Y-100810000D01*
X137760000Y-103810000D02*
X137760000Y-103590000D01*
X134540000Y-100590000D02*
X134300000Y-100260000D01*
X134780000Y-100260000D01*
X134540000Y-100590000D01*
G36*
X134540000Y-100590000D02*
G01*
X134300000Y-100260000D01*
X134780000Y-100260000D01*
X134540000Y-100590000D01*
G37*
%TO.C,C23*%
X113857836Y-107915000D02*
X113642164Y-107915000D01*
X113857836Y-108635000D02*
X113642164Y-108635000D01*
%TO.C,C25*%
X115290000Y-91886252D02*
X115290000Y-90463748D01*
X117110000Y-91886252D02*
X117110000Y-90463748D01*
%TO.C,C51*%
X131765580Y-93415000D02*
X131484420Y-93415000D01*
X131765580Y-94435000D02*
X131484420Y-94435000D01*
%TO.C,C22*%
X119265580Y-89265000D02*
X118984420Y-89265000D01*
X119265580Y-90285000D02*
X118984420Y-90285000D01*
%TO.C,U14*%
X138750000Y-108850000D02*
X136550000Y-108850000D01*
X138750000Y-111050000D02*
X136550000Y-111050000D01*
X135300000Y-109300000D02*
X135450000Y-109200000D01*
X135300000Y-109100000D01*
X135300000Y-109300000D01*
%TO.C,C3*%
X108661252Y-104290000D02*
X106338748Y-104290000D01*
X108661252Y-107710000D02*
X106338748Y-107710000D01*
%TO.C,R20*%
X114728641Y-109020000D02*
X114421359Y-109020000D01*
X114728641Y-109780000D02*
X114421359Y-109780000D01*
%TO.C,U11*%
X116325000Y-104255000D02*
X113325000Y-104255000D01*
X116325000Y-107495000D02*
X113325000Y-107495000D01*
X112825000Y-104425000D02*
X112585000Y-104095000D01*
X113065000Y-104095000D01*
X112825000Y-104425000D01*
G36*
X112825000Y-104425000D02*
G01*
X112585000Y-104095000D01*
X113065000Y-104095000D01*
X112825000Y-104425000D01*
G37*
%TO.C,C41*%
X132715579Y-105565000D02*
X132434419Y-105565000D01*
X132715579Y-106585000D02*
X132434419Y-106585000D01*
%TD*%
%LPC*%
D11*
%TO.C,R19*%
X117575000Y-110125000D03*
X117575000Y-108475000D03*
%TD*%
D12*
%TO.C,J3*%
X120625000Y-98500000D03*
X120625000Y-99500000D03*
X120625000Y-100500000D03*
X120625000Y-101500000D03*
D13*
X116750000Y-97200000D03*
X116750000Y-102800000D03*
%TD*%
D14*
%TO.C,C12*%
X133750000Y-92220000D03*
X133750000Y-93180000D03*
%TD*%
D15*
%TO.C,C28*%
X116230000Y-108275000D03*
X115270000Y-108275000D03*
%TD*%
%TO.C,C29*%
X116930000Y-94125000D03*
X115970000Y-94125000D03*
%TD*%
D16*
%TO.C,R15*%
X134725000Y-108640000D03*
X134725000Y-109660000D03*
%TD*%
D17*
%TO.C,R13*%
X115915000Y-95250000D03*
X116935000Y-95250000D03*
%TD*%
D18*
%TO.C,U6*%
X125212500Y-110325000D03*
X125212500Y-109675000D03*
X125212500Y-109025000D03*
X125212500Y-108375000D03*
X125212500Y-107725000D03*
X125212500Y-107075000D03*
X125212500Y-106425000D03*
X125212500Y-105775000D03*
X119487500Y-105775000D03*
X119487500Y-106425000D03*
X119487500Y-107075000D03*
X119487500Y-107725000D03*
X119487500Y-108375000D03*
X119487500Y-109025000D03*
X119487500Y-109675000D03*
X119487500Y-110325000D03*
%TD*%
D16*
%TO.C,R17*%
X116175000Y-109340000D03*
X116175000Y-110360000D03*
%TD*%
D19*
%TO.C,C36*%
X139195000Y-108050000D03*
X140155000Y-108050000D03*
%TD*%
D20*
%TO.C,D41*%
X137112500Y-107000000D03*
X137112500Y-105100000D03*
X135237500Y-106050000D03*
%TD*%
D21*
%TO.C,R40*%
X126312500Y-91125000D03*
X132237500Y-91125000D03*
%TD*%
D22*
%TO.C,J1*%
X139650000Y-104375000D03*
X139650000Y-103125000D03*
X139650000Y-101875000D03*
X139650000Y-100625000D03*
X139650000Y-99375000D03*
X139650000Y-98125000D03*
X139650000Y-96875000D03*
X139650000Y-95625000D03*
D23*
X142850000Y-106225000D03*
X142850000Y-93775000D03*
%TD*%
D21*
%TO.C,R30*%
X127262500Y-108875000D03*
X133187500Y-108875000D03*
%TD*%
D19*
%TO.C,C26*%
X144470000Y-91825000D03*
X145430000Y-91825000D03*
%TD*%
D24*
%TO.C,FB1*%
X138825000Y-91837500D03*
X138825000Y-90262500D03*
%TD*%
D25*
%TO.C,R2*%
X109462500Y-92600000D03*
X112387500Y-92600000D03*
%TD*%
D26*
%TO.C,U4*%
X124137500Y-97250000D03*
X124137500Y-97750000D03*
X124137500Y-98250000D03*
X124137500Y-98750000D03*
X124137500Y-99250000D03*
X124137500Y-99750000D03*
X124137500Y-100250000D03*
X124137500Y-100750000D03*
X124137500Y-101250000D03*
X124137500Y-101750000D03*
X124137500Y-102250000D03*
X124137500Y-102750000D03*
D27*
X125550000Y-104162500D03*
X126050000Y-104162500D03*
X126550000Y-104162500D03*
X127050000Y-104162500D03*
X127550000Y-104162500D03*
X128050000Y-104162500D03*
X128550000Y-104162500D03*
X129050000Y-104162500D03*
X129550000Y-104162500D03*
X130050000Y-104162500D03*
X130550000Y-104162500D03*
X131050000Y-104162500D03*
D26*
X132462500Y-102750000D03*
X132462500Y-102250000D03*
X132462500Y-101750000D03*
X132462500Y-101250000D03*
X132462500Y-100750000D03*
X132462500Y-100250000D03*
X132462500Y-99750000D03*
X132462500Y-99250000D03*
X132462500Y-98750000D03*
X132462500Y-98250000D03*
X132462500Y-97750000D03*
X132462500Y-97250000D03*
D27*
X131050000Y-95837500D03*
X130550000Y-95837500D03*
X130050000Y-95837500D03*
X129550000Y-95837500D03*
X129050000Y-95837500D03*
X128550000Y-95837500D03*
X128050000Y-95837500D03*
X127550000Y-95837500D03*
X127050000Y-95837500D03*
X126550000Y-95837500D03*
X126050000Y-95837500D03*
X125550000Y-95837500D03*
%TD*%
D28*
%TO.C,C13*%
X137075000Y-90450000D03*
X134125000Y-90450000D03*
%TD*%
D29*
%TO.C,U3*%
X142937500Y-91825000D03*
X142937500Y-90875000D03*
X142937500Y-89925000D03*
X140662500Y-89925000D03*
X140662500Y-91825000D03*
%TD*%
D30*
%TO.C,C24*%
X124100000Y-93550000D03*
X124100000Y-90600000D03*
%TD*%
D19*
%TO.C,C60*%
X118920000Y-104600000D03*
X119880000Y-104600000D03*
%TD*%
D31*
%TO.C,D51*%
X137050000Y-93087500D03*
X135150000Y-93087500D03*
X136100000Y-94962500D03*
%TD*%
D32*
%TO.C,J2*%
X105900000Y-102040000D03*
X104884000Y-96960000D03*
X106916000Y-96960000D03*
D33*
X106535000Y-100770000D03*
X105265000Y-100770000D03*
X106535000Y-99500000D03*
X105265000Y-99500000D03*
X106535000Y-98230000D03*
X105265000Y-98230000D03*
%TD*%
D34*
%TO.C,D40*%
X134750000Y-97125000D03*
X134750000Y-97775000D03*
X134750000Y-98425000D03*
X134750000Y-99075000D03*
X137550000Y-99075000D03*
X137550000Y-98425000D03*
X137550000Y-97775000D03*
X137550000Y-97125000D03*
D35*
X135825000Y-96912500D03*
X135825000Y-99287500D03*
D36*
X136150000Y-98100000D03*
D35*
X136475000Y-96912500D03*
X136475000Y-99287500D03*
%TD*%
D17*
%TO.C,R18*%
X120915000Y-104625000D03*
X121935000Y-104625000D03*
%TD*%
D37*
%TO.C,C27*%
X127100000Y-106075000D03*
X128650000Y-106075000D03*
%TD*%
D38*
%TO.C,U5*%
X118212500Y-92050000D03*
X118212500Y-92550000D03*
X118212500Y-93050000D03*
X118212500Y-93550000D03*
X118212500Y-94050000D03*
X118212500Y-94550000D03*
D39*
X118900000Y-95237500D03*
X119400000Y-95237500D03*
X119900000Y-95237500D03*
X120400000Y-95237500D03*
X120900000Y-95237500D03*
X121400000Y-95237500D03*
D38*
X122087500Y-94550000D03*
X122087500Y-94050000D03*
X122087500Y-93550000D03*
X122087500Y-93050000D03*
X122087500Y-92550000D03*
X122087500Y-92050000D03*
D39*
X121400000Y-91362500D03*
X120900000Y-91362500D03*
X120400000Y-91362500D03*
X119900000Y-91362500D03*
X119400000Y-91362500D03*
X118900000Y-91362500D03*
D40*
X120150000Y-93300000D03*
%TD*%
D34*
%TO.C,D30*%
X134750000Y-101225000D03*
X134750000Y-101875000D03*
X134750000Y-102525000D03*
X134750000Y-103175000D03*
X137550000Y-103175000D03*
X137550000Y-102525000D03*
X137550000Y-101875000D03*
X137550000Y-101225000D03*
D35*
X135825000Y-101012500D03*
X135825000Y-103387500D03*
D36*
X136150000Y-102200000D03*
D35*
X136475000Y-101012500D03*
X136475000Y-103387500D03*
%TD*%
D15*
%TO.C,C23*%
X114230000Y-108275000D03*
X113270000Y-108275000D03*
%TD*%
D41*
%TO.C,J5*%
X105300000Y-92600000D03*
%TD*%
D30*
%TO.C,C25*%
X116200000Y-92650000D03*
X116200000Y-89700000D03*
%TD*%
D42*
%TO.C,C51*%
X132400000Y-93925000D03*
X130850000Y-93925000D03*
%TD*%
%TO.C,C22*%
X119900000Y-89775000D03*
X118350000Y-89775000D03*
%TD*%
D43*
%TO.C,U14*%
X136100000Y-109200000D03*
X136100000Y-109700000D03*
X136100000Y-110200000D03*
X136100000Y-110700000D03*
X139200000Y-110700000D03*
X139200000Y-110200000D03*
X139200000Y-109700000D03*
X139200000Y-109200000D03*
%TD*%
D44*
%TO.C,C3*%
X109550000Y-106000000D03*
X105450000Y-106000000D03*
%TD*%
D45*
%TO.C,R20*%
X115085000Y-109400000D03*
X114065000Y-109400000D03*
%TD*%
D46*
%TO.C,U11*%
X112625000Y-104900000D03*
X112625000Y-105550000D03*
X112625000Y-106200000D03*
X112625000Y-106850000D03*
X117025000Y-106850000D03*
X117025000Y-106200000D03*
X117025000Y-105550000D03*
X117025000Y-104900000D03*
%TD*%
D42*
%TO.C,C41*%
X133349999Y-106075000D03*
X131799999Y-106075000D03*
%TD*%
%LPD*%
M02*
