%TF.GenerationSoftware,KiCad,Pcbnew,10.0.6*%
%TF.CreationDate,2026-10-02T14:30:50+09:00*%
%TF.ProjectId,HMT500(260313A),484d5435-3030-4283-9236-303331334129,A5*%
%TF.SameCoordinates,Original*%
%TF.FileFunction,Legend,Bot*%
%TF.FilePolarity,Positive*%
%FSLAX46Y46*%
G04 Gerber Fmt 4.6, Leading zero omitted, Abs format (unit mm)*
G04 Created by KiCad (PCBNEW 10.0.6) date 2026-10-02 14:30:50*
%MOMM*%
%LPD*%
G01*
G04 APERTURE LIST*
G04 Aperture macros list*
%AMRoundRect*
0 Rectangle with rounded corners*
0 $1 Rounding radius*
0 $2 $3 $4 $5 $6 $7 $8 $9 X,Y pos of 4 corners*
0 Add a 4 corners polygon primitive as box body*
4,1,4,$2,$3,$4,$5,$6,$7,$8,$9,$2,$3,0*
0 Add four circle primitives for the rounded corners*
1,1,$1+$1,$2,$3*
1,1,$1+$1,$4,$5*
1,1,$1+$1,$6,$7*
1,1,$1+$1,$8,$9*
0 Add four rect primitives between the rounded corners*
20,1,$1+$1,$2,$3,$4,$5,0*
20,1,$1+$1,$4,$5,$6,$7,0*
20,1,$1+$1,$6,$7,$8,$9,0*
20,1,$1+$1,$8,$9,$2,$3,0*%
G04 Aperture macros list end*
%ADD10C,0.120000*%
%ADD11C,0.990600*%
%ADD12C,1.600000*%
%ADD13RoundRect,0.250000X0.300000X-0.300000X0.300000X0.300000X-0.300000X0.300000X-0.300000X-0.300000X0*%
%ADD14RoundRect,0.135000X0.185000X-0.135000X0.185000X0.135000X-0.185000X0.135000X-0.185000X-0.135000X0*%
%ADD15RoundRect,0.140000X-0.140000X-0.170000X0.140000X-0.170000X0.140000X0.170000X-0.140000X0.170000X0*%
%ADD16RoundRect,0.200000X0.275000X-0.200000X0.275000X0.200000X-0.275000X0.200000X-0.275000X-0.200000X0*%
%ADD17RoundRect,0.135000X-0.135000X-0.185000X0.135000X-0.185000X0.135000X0.185000X-0.135000X0.185000X0*%
%ADD18RoundRect,0.140000X0.140000X0.170000X-0.140000X0.170000X-0.140000X-0.170000X0.140000X-0.170000X0*%
%ADD19RoundRect,0.119600X-0.105400X0.250400X-0.105400X-0.250400X0.105400X-0.250400X0.105400X0.250400X0*%
%ADD20RoundRect,0.120600X-0.461900X0.064400X-0.461900X-0.064400X0.461900X-0.064400X0.461900X0.064400X0*%
%ADD21RoundRect,0.121000X-0.824000X0.699000X-0.824000X-0.699000X0.824000X-0.699000X0.824000X0.699000X0*%
%ADD22RoundRect,0.135000X0.135000X0.185000X-0.135000X0.185000X-0.135000X-0.185000X0.135000X-0.185000X0*%
%ADD23RoundRect,0.100000X-0.100000X0.675000X-0.100000X-0.675000X0.100000X-0.675000X0.100000X0.675000X0*%
%ADD24R,5.000000X3.200000*%
%ADD25RoundRect,0.225000X0.250000X-0.225000X0.250000X0.225000X-0.250000X0.225000X-0.250000X-0.225000X0*%
%ADD26RoundRect,0.119600X-0.250400X-0.105400X0.250400X-0.105400X0.250400X0.105400X-0.250400X0.105400X0*%
%ADD27RoundRect,0.120600X-0.064400X-0.461900X0.064400X-0.461900X0.064400X0.461900X-0.064400X0.461900X0*%
%ADD28RoundRect,0.121000X-0.699000X-0.824000X0.699000X-0.824000X0.699000X0.824000X-0.699000X0.824000X0*%
%ADD29RoundRect,0.125000X0.537500X0.125000X-0.537500X0.125000X-0.537500X-0.125000X0.537500X-0.125000X0*%
%ADD30RoundRect,0.250000X-0.475000X0.250000X-0.475000X-0.250000X0.475000X-0.250000X0.475000X0.250000X0*%
%ADD31RoundRect,0.250000X-1.425000X0.362500X-1.425000X-0.362500X1.425000X-0.362500X1.425000X0.362500X0*%
%ADD32R,2.460000X2.310000*%
%ADD33RoundRect,0.100000X-0.687500X-0.100000X0.687500X-0.100000X0.687500X0.100000X-0.687500X0.100000X0*%
%ADD34RoundRect,0.250000X0.250000X0.475000X-0.250000X0.475000X-0.250000X-0.475000X0.250000X-0.475000X0*%
%ADD35RoundRect,0.150000X-0.512500X-0.150000X0.512500X-0.150000X0.512500X0.150000X-0.512500X0.150000X0*%
%ADD36RoundRect,0.150000X0.150000X-0.512500X0.150000X0.512500X-0.150000X0.512500X-0.150000X-0.512500X0*%
%ADD37RoundRect,0.125000X-0.537500X-0.125000X0.537500X-0.125000X0.537500X0.125000X-0.537500X0.125000X0*%
%ADD38RoundRect,0.225000X-0.250000X0.225000X-0.250000X-0.225000X0.250000X-0.225000X0.250000X0.225000X0*%
%ADD39R,1.300000X5.600000*%
%ADD40RoundRect,0.140000X0.170000X-0.140000X0.170000X0.140000X-0.170000X0.140000X-0.170000X-0.140000X0*%
%ADD41RoundRect,0.135000X-0.185000X0.135000X-0.185000X-0.135000X0.185000X-0.135000X0.185000X0.135000X0*%
%ADD42RoundRect,0.140000X-0.170000X0.140000X-0.170000X-0.140000X0.170000X-0.140000X0.170000X0.140000X0*%
%ADD43R,1.200000X2.000000*%
%ADD44R,3.300000X0.950000*%
%ADD45RoundRect,0.100000X0.100000X-0.675000X0.100000X0.675000X-0.100000X0.675000X-0.100000X-0.675000X0*%
%ADD46RoundRect,0.250000X-0.325000X-0.650000X0.325000X-0.650000X0.325000X0.650000X-0.325000X0.650000X0*%
%ADD47RoundRect,0.250000X-0.250000X-0.475000X0.250000X-0.475000X0.250000X0.475000X-0.250000X0.475000X0*%
%ADD48RoundRect,0.200000X-0.275000X0.200000X-0.275000X-0.200000X0.275000X-0.200000X0.275000X0.200000X0*%
%ADD49R,0.950000X3.300000*%
%ADD50RoundRect,0.250000X0.475000X-0.250000X0.475000X0.250000X-0.475000X0.250000X-0.475000X-0.250000X0*%
%ADD51RoundRect,0.150000X-0.150000X0.512500X-0.150000X-0.512500X0.150000X-0.512500X0.150000X0.512500X0*%
%ADD52RoundRect,0.250000X-0.325000X-1.100000X0.325000X-1.100000X0.325000X1.100000X-0.325000X1.100000X0*%
%ADD53RoundRect,0.200000X0.200000X0.275000X-0.200000X0.275000X-0.200000X-0.275000X0.200000X-0.275000X0*%
%ADD54RoundRect,0.250000X0.325000X0.650000X-0.325000X0.650000X-0.325000X-0.650000X0.325000X-0.650000X0*%
%ADD55RoundRect,0.225000X0.225000X0.250000X-0.225000X0.250000X-0.225000X-0.250000X0.225000X-0.250000X0*%
%ADD56RoundRect,0.200000X-0.200000X-0.275000X0.200000X-0.275000X0.200000X0.275000X-0.200000X0.275000X0*%
%ADD57RoundRect,0.250000X-1.000000X1.400000X-1.000000X-1.400000X1.000000X-1.400000X1.000000X1.400000X0*%
%ADD58RoundRect,0.250000X0.650000X-0.325000X0.650000X0.325000X-0.650000X0.325000X-0.650000X-0.325000X0*%
G04 APERTURE END LIST*
D10*
X130964285Y-99637664D02*
X131002381Y-99675760D01*
X131002381Y-99675760D02*
X131116666Y-99713855D01*
X131116666Y-99713855D02*
X131192857Y-99713855D01*
X131192857Y-99713855D02*
X131307143Y-99675760D01*
X131307143Y-99675760D02*
X131383333Y-99599569D01*
X131383333Y-99599569D02*
X131421428Y-99523379D01*
X131421428Y-99523379D02*
X131459524Y-99370998D01*
X131459524Y-99370998D02*
X131459524Y-99256712D01*
X131459524Y-99256712D02*
X131421428Y-99104331D01*
X131421428Y-99104331D02*
X131383333Y-99028140D01*
X131383333Y-99028140D02*
X131307143Y-98951950D01*
X131307143Y-98951950D02*
X131192857Y-98913855D01*
X131192857Y-98913855D02*
X131116666Y-98913855D01*
X131116666Y-98913855D02*
X131002381Y-98951950D01*
X131002381Y-98951950D02*
X130964285Y-98990045D01*
X130278571Y-99180521D02*
X130278571Y-99713855D01*
X130469047Y-98875760D02*
X130659524Y-99447188D01*
X130659524Y-99447188D02*
X130164285Y-99447188D01*
X129707142Y-98913855D02*
X129630952Y-98913855D01*
X129630952Y-98913855D02*
X129554761Y-98951950D01*
X129554761Y-98951950D02*
X129516666Y-98990045D01*
X129516666Y-98990045D02*
X129478571Y-99066236D01*
X129478571Y-99066236D02*
X129440476Y-99218617D01*
X129440476Y-99218617D02*
X129440476Y-99409093D01*
X129440476Y-99409093D02*
X129478571Y-99561474D01*
X129478571Y-99561474D02*
X129516666Y-99637664D01*
X129516666Y-99637664D02*
X129554761Y-99675760D01*
X129554761Y-99675760D02*
X129630952Y-99713855D01*
X129630952Y-99713855D02*
X129707142Y-99713855D01*
X129707142Y-99713855D02*
X129783333Y-99675760D01*
X129783333Y-99675760D02*
X129821428Y-99637664D01*
X129821428Y-99637664D02*
X129859523Y-99561474D01*
X129859523Y-99561474D02*
X129897619Y-99409093D01*
X129897619Y-99409093D02*
X129897619Y-99218617D01*
X129897619Y-99218617D02*
X129859523Y-99066236D01*
X129859523Y-99066236D02*
X129821428Y-98990045D01*
X129821428Y-98990045D02*
X129783333Y-98951950D01*
X129783333Y-98951950D02*
X129707142Y-98913855D01*
X151590475Y-107863855D02*
X151590475Y-107063855D01*
X151590475Y-107063855D02*
X151399999Y-107063855D01*
X151399999Y-107063855D02*
X151285713Y-107101950D01*
X151285713Y-107101950D02*
X151209523Y-107178140D01*
X151209523Y-107178140D02*
X151171428Y-107254331D01*
X151171428Y-107254331D02*
X151133332Y-107406712D01*
X151133332Y-107406712D02*
X151133332Y-107520998D01*
X151133332Y-107520998D02*
X151171428Y-107673379D01*
X151171428Y-107673379D02*
X151209523Y-107749569D01*
X151209523Y-107749569D02*
X151285713Y-107825760D01*
X151285713Y-107825760D02*
X151399999Y-107863855D01*
X151399999Y-107863855D02*
X151590475Y-107863855D01*
X150828571Y-107140045D02*
X150790475Y-107101950D01*
X150790475Y-107101950D02*
X150714285Y-107063855D01*
X150714285Y-107063855D02*
X150523809Y-107063855D01*
X150523809Y-107063855D02*
X150447618Y-107101950D01*
X150447618Y-107101950D02*
X150409523Y-107140045D01*
X150409523Y-107140045D02*
X150371428Y-107216236D01*
X150371428Y-107216236D02*
X150371428Y-107292426D01*
X150371428Y-107292426D02*
X150409523Y-107406712D01*
X150409523Y-107406712D02*
X150866666Y-107863855D01*
X150866666Y-107863855D02*
X150371428Y-107863855D01*
X128490475Y-98163855D02*
X128490475Y-98811474D01*
X128490475Y-98811474D02*
X128452380Y-98887664D01*
X128452380Y-98887664D02*
X128414285Y-98925760D01*
X128414285Y-98925760D02*
X128338094Y-98963855D01*
X128338094Y-98963855D02*
X128185713Y-98963855D01*
X128185713Y-98963855D02*
X128109523Y-98925760D01*
X128109523Y-98925760D02*
X128071428Y-98887664D01*
X128071428Y-98887664D02*
X128033332Y-98811474D01*
X128033332Y-98811474D02*
X128033332Y-98163855D01*
X127233333Y-98963855D02*
X127690476Y-98963855D01*
X127461904Y-98963855D02*
X127461904Y-98163855D01*
X127461904Y-98163855D02*
X127538095Y-98278140D01*
X127538095Y-98278140D02*
X127614285Y-98354331D01*
X127614285Y-98354331D02*
X127690476Y-98392426D01*
X126738094Y-98163855D02*
X126661904Y-98163855D01*
X126661904Y-98163855D02*
X126585713Y-98201950D01*
X126585713Y-98201950D02*
X126547618Y-98240045D01*
X126547618Y-98240045D02*
X126509523Y-98316236D01*
X126509523Y-98316236D02*
X126471428Y-98468617D01*
X126471428Y-98468617D02*
X126471428Y-98659093D01*
X126471428Y-98659093D02*
X126509523Y-98811474D01*
X126509523Y-98811474D02*
X126547618Y-98887664D01*
X126547618Y-98887664D02*
X126585713Y-98925760D01*
X126585713Y-98925760D02*
X126661904Y-98963855D01*
X126661904Y-98963855D02*
X126738094Y-98963855D01*
X126738094Y-98963855D02*
X126814285Y-98925760D01*
X126814285Y-98925760D02*
X126852380Y-98887664D01*
X126852380Y-98887664D02*
X126890475Y-98811474D01*
X126890475Y-98811474D02*
X126928571Y-98659093D01*
X126928571Y-98659093D02*
X126928571Y-98468617D01*
X126928571Y-98468617D02*
X126890475Y-98316236D01*
X126890475Y-98316236D02*
X126852380Y-98240045D01*
X126852380Y-98240045D02*
X126814285Y-98201950D01*
X126814285Y-98201950D02*
X126738094Y-98163855D01*
X123983332Y-92663855D02*
X124249999Y-92282902D01*
X124440475Y-92663855D02*
X124440475Y-91863855D01*
X124440475Y-91863855D02*
X124135713Y-91863855D01*
X124135713Y-91863855D02*
X124059523Y-91901950D01*
X124059523Y-91901950D02*
X124021428Y-91940045D01*
X124021428Y-91940045D02*
X123983332Y-92016236D01*
X123983332Y-92016236D02*
X123983332Y-92130521D01*
X123983332Y-92130521D02*
X124021428Y-92206712D01*
X124021428Y-92206712D02*
X124059523Y-92244807D01*
X124059523Y-92244807D02*
X124135713Y-92282902D01*
X124135713Y-92282902D02*
X124440475Y-92282902D01*
X123221428Y-92663855D02*
X123678571Y-92663855D01*
X123449999Y-92663855D02*
X123449999Y-91863855D01*
X123449999Y-91863855D02*
X123526190Y-91978140D01*
X123526190Y-91978140D02*
X123602380Y-92054331D01*
X123602380Y-92054331D02*
X123678571Y-92092426D01*
X115659523Y-94413855D02*
X115659523Y-95061474D01*
X115659523Y-95061474D02*
X115621428Y-95137664D01*
X115621428Y-95137664D02*
X115583333Y-95175760D01*
X115583333Y-95175760D02*
X115507142Y-95213855D01*
X115507142Y-95213855D02*
X115354761Y-95213855D01*
X115354761Y-95213855D02*
X115278571Y-95175760D01*
X115278571Y-95175760D02*
X115240476Y-95137664D01*
X115240476Y-95137664D02*
X115202380Y-95061474D01*
X115202380Y-95061474D02*
X115202380Y-94413855D01*
X114402381Y-95213855D02*
X114859524Y-95213855D01*
X114630952Y-95213855D02*
X114630952Y-94413855D01*
X114630952Y-94413855D02*
X114707143Y-94528140D01*
X114707143Y-94528140D02*
X114783333Y-94604331D01*
X114783333Y-94604331D02*
X114859524Y-94642426D01*
X141315475Y-96483855D02*
X141315475Y-97131474D01*
X141315475Y-97131474D02*
X141277380Y-97207664D01*
X141277380Y-97207664D02*
X141239285Y-97245760D01*
X141239285Y-97245760D02*
X141163094Y-97283855D01*
X141163094Y-97283855D02*
X141010713Y-97283855D01*
X141010713Y-97283855D02*
X140934523Y-97245760D01*
X140934523Y-97245760D02*
X140896428Y-97207664D01*
X140896428Y-97207664D02*
X140858332Y-97131474D01*
X140858332Y-97131474D02*
X140858332Y-96483855D01*
X140058333Y-97283855D02*
X140515476Y-97283855D01*
X140286904Y-97283855D02*
X140286904Y-96483855D01*
X140286904Y-96483855D02*
X140363095Y-96598140D01*
X140363095Y-96598140D02*
X140439285Y-96674331D01*
X140439285Y-96674331D02*
X140515476Y-96712426D01*
X139791666Y-96483855D02*
X139296428Y-96483855D01*
X139296428Y-96483855D02*
X139563094Y-96788617D01*
X139563094Y-96788617D02*
X139448809Y-96788617D01*
X139448809Y-96788617D02*
X139372618Y-96826712D01*
X139372618Y-96826712D02*
X139334523Y-96864807D01*
X139334523Y-96864807D02*
X139296428Y-96940998D01*
X139296428Y-96940998D02*
X139296428Y-97131474D01*
X139296428Y-97131474D02*
X139334523Y-97207664D01*
X139334523Y-97207664D02*
X139372618Y-97245760D01*
X139372618Y-97245760D02*
X139448809Y-97283855D01*
X139448809Y-97283855D02*
X139677380Y-97283855D01*
X139677380Y-97283855D02*
X139753571Y-97245760D01*
X139753571Y-97245760D02*
X139791666Y-97207664D01*
X145440475Y-109338854D02*
X145440475Y-109986473D01*
X145440475Y-109986473D02*
X145402380Y-110062663D01*
X145402380Y-110062663D02*
X145364285Y-110100759D01*
X145364285Y-110100759D02*
X145288094Y-110138854D01*
X145288094Y-110138854D02*
X145135713Y-110138854D01*
X145135713Y-110138854D02*
X145059523Y-110100759D01*
X145059523Y-110100759D02*
X145021428Y-110062663D01*
X145021428Y-110062663D02*
X144983332Y-109986473D01*
X144983332Y-109986473D02*
X144983332Y-109338854D01*
X144183333Y-110138854D02*
X144640476Y-110138854D01*
X144411904Y-110138854D02*
X144411904Y-109338854D01*
X144411904Y-109338854D02*
X144488095Y-109453139D01*
X144488095Y-109453139D02*
X144564285Y-109529330D01*
X144564285Y-109529330D02*
X144640476Y-109567425D01*
X143459523Y-109338854D02*
X143840475Y-109338854D01*
X143840475Y-109338854D02*
X143878571Y-109719806D01*
X143878571Y-109719806D02*
X143840475Y-109681711D01*
X143840475Y-109681711D02*
X143764285Y-109643616D01*
X143764285Y-109643616D02*
X143573809Y-109643616D01*
X143573809Y-109643616D02*
X143497618Y-109681711D01*
X143497618Y-109681711D02*
X143459523Y-109719806D01*
X143459523Y-109719806D02*
X143421428Y-109795997D01*
X143421428Y-109795997D02*
X143421428Y-109986473D01*
X143421428Y-109986473D02*
X143459523Y-110062663D01*
X143459523Y-110062663D02*
X143497618Y-110100759D01*
X143497618Y-110100759D02*
X143573809Y-110138854D01*
X143573809Y-110138854D02*
X143764285Y-110138854D01*
X143764285Y-110138854D02*
X143840475Y-110100759D01*
X143840475Y-110100759D02*
X143878571Y-110062663D01*
X107558332Y-93188855D02*
X107824999Y-92807902D01*
X108015475Y-93188855D02*
X108015475Y-92388855D01*
X108015475Y-92388855D02*
X107710713Y-92388855D01*
X107710713Y-92388855D02*
X107634523Y-92426950D01*
X107634523Y-92426950D02*
X107596428Y-92465045D01*
X107596428Y-92465045D02*
X107558332Y-92541236D01*
X107558332Y-92541236D02*
X107558332Y-92655521D01*
X107558332Y-92655521D02*
X107596428Y-92731712D01*
X107596428Y-92731712D02*
X107634523Y-92769807D01*
X107634523Y-92769807D02*
X107710713Y-92807902D01*
X107710713Y-92807902D02*
X108015475Y-92807902D01*
X106872618Y-92655521D02*
X106872618Y-93188855D01*
X107063094Y-92350760D02*
X107253571Y-92922188D01*
X107253571Y-92922188D02*
X106758332Y-92922188D01*
X131609522Y-100763855D02*
X131609522Y-101411474D01*
X131609522Y-101411474D02*
X131571427Y-101487664D01*
X131571427Y-101487664D02*
X131533332Y-101525760D01*
X131533332Y-101525760D02*
X131457141Y-101563855D01*
X131457141Y-101563855D02*
X131304760Y-101563855D01*
X131304760Y-101563855D02*
X131228570Y-101525760D01*
X131228570Y-101525760D02*
X131190475Y-101487664D01*
X131190475Y-101487664D02*
X131152379Y-101411474D01*
X131152379Y-101411474D02*
X131152379Y-100763855D01*
X130733332Y-101563855D02*
X130580951Y-101563855D01*
X130580951Y-101563855D02*
X130504761Y-101525760D01*
X130504761Y-101525760D02*
X130466665Y-101487664D01*
X130466665Y-101487664D02*
X130390475Y-101373379D01*
X130390475Y-101373379D02*
X130352380Y-101220998D01*
X130352380Y-101220998D02*
X130352380Y-100916236D01*
X130352380Y-100916236D02*
X130390475Y-100840045D01*
X130390475Y-100840045D02*
X130428570Y-100801950D01*
X130428570Y-100801950D02*
X130504761Y-100763855D01*
X130504761Y-100763855D02*
X130657142Y-100763855D01*
X130657142Y-100763855D02*
X130733332Y-100801950D01*
X130733332Y-100801950D02*
X130771427Y-100840045D01*
X130771427Y-100840045D02*
X130809523Y-100916236D01*
X130809523Y-100916236D02*
X130809523Y-101106712D01*
X130809523Y-101106712D02*
X130771427Y-101182902D01*
X130771427Y-101182902D02*
X130733332Y-101220998D01*
X130733332Y-101220998D02*
X130657142Y-101259093D01*
X130657142Y-101259093D02*
X130504761Y-101259093D01*
X130504761Y-101259093D02*
X130428570Y-101220998D01*
X130428570Y-101220998D02*
X130390475Y-101182902D01*
X130390475Y-101182902D02*
X130352380Y-101106712D01*
X121814285Y-94162664D02*
X121852381Y-94200760D01*
X121852381Y-94200760D02*
X121966666Y-94238855D01*
X121966666Y-94238855D02*
X122042857Y-94238855D01*
X122042857Y-94238855D02*
X122157143Y-94200760D01*
X122157143Y-94200760D02*
X122233333Y-94124569D01*
X122233333Y-94124569D02*
X122271428Y-94048379D01*
X122271428Y-94048379D02*
X122309524Y-93895998D01*
X122309524Y-93895998D02*
X122309524Y-93781712D01*
X122309524Y-93781712D02*
X122271428Y-93629331D01*
X122271428Y-93629331D02*
X122233333Y-93553140D01*
X122233333Y-93553140D02*
X122157143Y-93476950D01*
X122157143Y-93476950D02*
X122042857Y-93438855D01*
X122042857Y-93438855D02*
X121966666Y-93438855D01*
X121966666Y-93438855D02*
X121852381Y-93476950D01*
X121852381Y-93476950D02*
X121814285Y-93515045D01*
X121052381Y-94238855D02*
X121509524Y-94238855D01*
X121280952Y-94238855D02*
X121280952Y-93438855D01*
X121280952Y-93438855D02*
X121357143Y-93553140D01*
X121357143Y-93553140D02*
X121433333Y-93629331D01*
X121433333Y-93629331D02*
X121509524Y-93667426D01*
X120328571Y-93438855D02*
X120709523Y-93438855D01*
X120709523Y-93438855D02*
X120747619Y-93819807D01*
X120747619Y-93819807D02*
X120709523Y-93781712D01*
X120709523Y-93781712D02*
X120633333Y-93743617D01*
X120633333Y-93743617D02*
X120442857Y-93743617D01*
X120442857Y-93743617D02*
X120366666Y-93781712D01*
X120366666Y-93781712D02*
X120328571Y-93819807D01*
X120328571Y-93819807D02*
X120290476Y-93895998D01*
X120290476Y-93895998D02*
X120290476Y-94086474D01*
X120290476Y-94086474D02*
X120328571Y-94162664D01*
X120328571Y-94162664D02*
X120366666Y-94200760D01*
X120366666Y-94200760D02*
X120442857Y-94238855D01*
X120442857Y-94238855D02*
X120633333Y-94238855D01*
X120633333Y-94238855D02*
X120709523Y-94200760D01*
X120709523Y-94200760D02*
X120747619Y-94162664D01*
X135490475Y-102313855D02*
X135490475Y-102961474D01*
X135490475Y-102961474D02*
X135452380Y-103037664D01*
X135452380Y-103037664D02*
X135414285Y-103075760D01*
X135414285Y-103075760D02*
X135338094Y-103113855D01*
X135338094Y-103113855D02*
X135185713Y-103113855D01*
X135185713Y-103113855D02*
X135109523Y-103075760D01*
X135109523Y-103075760D02*
X135071428Y-103037664D01*
X135071428Y-103037664D02*
X135033332Y-102961474D01*
X135033332Y-102961474D02*
X135033332Y-102313855D01*
X134233333Y-103113855D02*
X134690476Y-103113855D01*
X134461904Y-103113855D02*
X134461904Y-102313855D01*
X134461904Y-102313855D02*
X134538095Y-102428140D01*
X134538095Y-102428140D02*
X134614285Y-102504331D01*
X134614285Y-102504331D02*
X134690476Y-102542426D01*
X133928571Y-102390045D02*
X133890475Y-102351950D01*
X133890475Y-102351950D02*
X133814285Y-102313855D01*
X133814285Y-102313855D02*
X133623809Y-102313855D01*
X133623809Y-102313855D02*
X133547618Y-102351950D01*
X133547618Y-102351950D02*
X133509523Y-102390045D01*
X133509523Y-102390045D02*
X133471428Y-102466236D01*
X133471428Y-102466236D02*
X133471428Y-102542426D01*
X133471428Y-102542426D02*
X133509523Y-102656712D01*
X133509523Y-102656712D02*
X133966666Y-103113855D01*
X133966666Y-103113855D02*
X133471428Y-103113855D01*
X152833333Y-97913855D02*
X153214285Y-97913855D01*
X153214285Y-97913855D02*
X153214285Y-97113855D01*
X152147619Y-97913855D02*
X152604762Y-97913855D01*
X152376190Y-97913855D02*
X152376190Y-97113855D01*
X152376190Y-97113855D02*
X152452381Y-97228140D01*
X152452381Y-97228140D02*
X152528571Y-97304331D01*
X152528571Y-97304331D02*
X152604762Y-97342426D01*
X146733333Y-104663855D02*
X147114285Y-104663855D01*
X147114285Y-104663855D02*
X147114285Y-103863855D01*
X146542857Y-103863855D02*
X146047619Y-103863855D01*
X146047619Y-103863855D02*
X146314285Y-104168617D01*
X146314285Y-104168617D02*
X146200000Y-104168617D01*
X146200000Y-104168617D02*
X146123809Y-104206712D01*
X146123809Y-104206712D02*
X146085714Y-104244807D01*
X146085714Y-104244807D02*
X146047619Y-104320998D01*
X146047619Y-104320998D02*
X146047619Y-104511474D01*
X146047619Y-104511474D02*
X146085714Y-104587664D01*
X146085714Y-104587664D02*
X146123809Y-104625760D01*
X146123809Y-104625760D02*
X146200000Y-104663855D01*
X146200000Y-104663855D02*
X146428571Y-104663855D01*
X146428571Y-104663855D02*
X146504762Y-104625760D01*
X146504762Y-104625760D02*
X146542857Y-104587664D01*
X115183332Y-93362664D02*
X115221428Y-93400760D01*
X115221428Y-93400760D02*
X115335713Y-93438855D01*
X115335713Y-93438855D02*
X115411904Y-93438855D01*
X115411904Y-93438855D02*
X115526190Y-93400760D01*
X115526190Y-93400760D02*
X115602380Y-93324569D01*
X115602380Y-93324569D02*
X115640475Y-93248379D01*
X115640475Y-93248379D02*
X115678571Y-93095998D01*
X115678571Y-93095998D02*
X115678571Y-92981712D01*
X115678571Y-92981712D02*
X115640475Y-92829331D01*
X115640475Y-92829331D02*
X115602380Y-92753140D01*
X115602380Y-92753140D02*
X115526190Y-92676950D01*
X115526190Y-92676950D02*
X115411904Y-92638855D01*
X115411904Y-92638855D02*
X115335713Y-92638855D01*
X115335713Y-92638855D02*
X115221428Y-92676950D01*
X115221428Y-92676950D02*
X115183332Y-92715045D01*
X114459523Y-92638855D02*
X114840475Y-92638855D01*
X114840475Y-92638855D02*
X114878571Y-93019807D01*
X114878571Y-93019807D02*
X114840475Y-92981712D01*
X114840475Y-92981712D02*
X114764285Y-92943617D01*
X114764285Y-92943617D02*
X114573809Y-92943617D01*
X114573809Y-92943617D02*
X114497618Y-92981712D01*
X114497618Y-92981712D02*
X114459523Y-93019807D01*
X114459523Y-93019807D02*
X114421428Y-93095998D01*
X114421428Y-93095998D02*
X114421428Y-93286474D01*
X114421428Y-93286474D02*
X114459523Y-93362664D01*
X114459523Y-93362664D02*
X114497618Y-93400760D01*
X114497618Y-93400760D02*
X114573809Y-93438855D01*
X114573809Y-93438855D02*
X114764285Y-93438855D01*
X114764285Y-93438855D02*
X114840475Y-93400760D01*
X114840475Y-93400760D02*
X114878571Y-93362664D01*
X147714285Y-109937664D02*
X147752381Y-109975760D01*
X147752381Y-109975760D02*
X147866666Y-110013855D01*
X147866666Y-110013855D02*
X147942857Y-110013855D01*
X147942857Y-110013855D02*
X148057143Y-109975760D01*
X148057143Y-109975760D02*
X148133333Y-109899569D01*
X148133333Y-109899569D02*
X148171428Y-109823379D01*
X148171428Y-109823379D02*
X148209524Y-109670998D01*
X148209524Y-109670998D02*
X148209524Y-109556712D01*
X148209524Y-109556712D02*
X148171428Y-109404331D01*
X148171428Y-109404331D02*
X148133333Y-109328140D01*
X148133333Y-109328140D02*
X148057143Y-109251950D01*
X148057143Y-109251950D02*
X147942857Y-109213855D01*
X147942857Y-109213855D02*
X147866666Y-109213855D01*
X147866666Y-109213855D02*
X147752381Y-109251950D01*
X147752381Y-109251950D02*
X147714285Y-109290045D01*
X147028571Y-109213855D02*
X147180952Y-109213855D01*
X147180952Y-109213855D02*
X147257143Y-109251950D01*
X147257143Y-109251950D02*
X147295238Y-109290045D01*
X147295238Y-109290045D02*
X147371428Y-109404331D01*
X147371428Y-109404331D02*
X147409524Y-109556712D01*
X147409524Y-109556712D02*
X147409524Y-109861474D01*
X147409524Y-109861474D02*
X147371428Y-109937664D01*
X147371428Y-109937664D02*
X147333333Y-109975760D01*
X147333333Y-109975760D02*
X147257143Y-110013855D01*
X147257143Y-110013855D02*
X147104762Y-110013855D01*
X147104762Y-110013855D02*
X147028571Y-109975760D01*
X147028571Y-109975760D02*
X146990476Y-109937664D01*
X146990476Y-109937664D02*
X146952381Y-109861474D01*
X146952381Y-109861474D02*
X146952381Y-109670998D01*
X146952381Y-109670998D02*
X146990476Y-109594807D01*
X146990476Y-109594807D02*
X147028571Y-109556712D01*
X147028571Y-109556712D02*
X147104762Y-109518617D01*
X147104762Y-109518617D02*
X147257143Y-109518617D01*
X147257143Y-109518617D02*
X147333333Y-109556712D01*
X147333333Y-109556712D02*
X147371428Y-109594807D01*
X147371428Y-109594807D02*
X147409524Y-109670998D01*
X146685714Y-109213855D02*
X146190476Y-109213855D01*
X146190476Y-109213855D02*
X146457142Y-109518617D01*
X146457142Y-109518617D02*
X146342857Y-109518617D01*
X146342857Y-109518617D02*
X146266666Y-109556712D01*
X146266666Y-109556712D02*
X146228571Y-109594807D01*
X146228571Y-109594807D02*
X146190476Y-109670998D01*
X146190476Y-109670998D02*
X146190476Y-109861474D01*
X146190476Y-109861474D02*
X146228571Y-109937664D01*
X146228571Y-109937664D02*
X146266666Y-109975760D01*
X146266666Y-109975760D02*
X146342857Y-110013855D01*
X146342857Y-110013855D02*
X146571428Y-110013855D01*
X146571428Y-110013855D02*
X146647619Y-109975760D01*
X146647619Y-109975760D02*
X146685714Y-109937664D01*
X144164284Y-99012664D02*
X144202380Y-99050760D01*
X144202380Y-99050760D02*
X144316665Y-99088855D01*
X144316665Y-99088855D02*
X144392856Y-99088855D01*
X144392856Y-99088855D02*
X144507142Y-99050760D01*
X144507142Y-99050760D02*
X144583332Y-98974569D01*
X144583332Y-98974569D02*
X144621427Y-98898379D01*
X144621427Y-98898379D02*
X144659523Y-98745998D01*
X144659523Y-98745998D02*
X144659523Y-98631712D01*
X144659523Y-98631712D02*
X144621427Y-98479331D01*
X144621427Y-98479331D02*
X144583332Y-98403140D01*
X144583332Y-98403140D02*
X144507142Y-98326950D01*
X144507142Y-98326950D02*
X144392856Y-98288855D01*
X144392856Y-98288855D02*
X144316665Y-98288855D01*
X144316665Y-98288855D02*
X144202380Y-98326950D01*
X144202380Y-98326950D02*
X144164284Y-98365045D01*
X143440475Y-98288855D02*
X143821427Y-98288855D01*
X143821427Y-98288855D02*
X143859523Y-98669807D01*
X143859523Y-98669807D02*
X143821427Y-98631712D01*
X143821427Y-98631712D02*
X143745237Y-98593617D01*
X143745237Y-98593617D02*
X143554761Y-98593617D01*
X143554761Y-98593617D02*
X143478570Y-98631712D01*
X143478570Y-98631712D02*
X143440475Y-98669807D01*
X143440475Y-98669807D02*
X143402380Y-98745998D01*
X143402380Y-98745998D02*
X143402380Y-98936474D01*
X143402380Y-98936474D02*
X143440475Y-99012664D01*
X143440475Y-99012664D02*
X143478570Y-99050760D01*
X143478570Y-99050760D02*
X143554761Y-99088855D01*
X143554761Y-99088855D02*
X143745237Y-99088855D01*
X143745237Y-99088855D02*
X143821427Y-99050760D01*
X143821427Y-99050760D02*
X143859523Y-99012664D01*
X142678570Y-98288855D02*
X143059522Y-98288855D01*
X143059522Y-98288855D02*
X143097618Y-98669807D01*
X143097618Y-98669807D02*
X143059522Y-98631712D01*
X143059522Y-98631712D02*
X142983332Y-98593617D01*
X142983332Y-98593617D02*
X142792856Y-98593617D01*
X142792856Y-98593617D02*
X142716665Y-98631712D01*
X142716665Y-98631712D02*
X142678570Y-98669807D01*
X142678570Y-98669807D02*
X142640475Y-98745998D01*
X142640475Y-98745998D02*
X142640475Y-98936474D01*
X142640475Y-98936474D02*
X142678570Y-99012664D01*
X142678570Y-99012664D02*
X142716665Y-99050760D01*
X142716665Y-99050760D02*
X142792856Y-99088855D01*
X142792856Y-99088855D02*
X142983332Y-99088855D01*
X142983332Y-99088855D02*
X143059522Y-99050760D01*
X143059522Y-99050760D02*
X143097618Y-99012664D01*
X121139285Y-110738855D02*
X121405952Y-110357902D01*
X121596428Y-110738855D02*
X121596428Y-109938855D01*
X121596428Y-109938855D02*
X121291666Y-109938855D01*
X121291666Y-109938855D02*
X121215476Y-109976950D01*
X121215476Y-109976950D02*
X121177381Y-110015045D01*
X121177381Y-110015045D02*
X121139285Y-110091236D01*
X121139285Y-110091236D02*
X121139285Y-110205521D01*
X121139285Y-110205521D02*
X121177381Y-110281712D01*
X121177381Y-110281712D02*
X121215476Y-110319807D01*
X121215476Y-110319807D02*
X121291666Y-110357902D01*
X121291666Y-110357902D02*
X121596428Y-110357902D01*
X120377381Y-110738855D02*
X120834524Y-110738855D01*
X120605952Y-110738855D02*
X120605952Y-109938855D01*
X120605952Y-109938855D02*
X120682143Y-110053140D01*
X120682143Y-110053140D02*
X120758333Y-110129331D01*
X120758333Y-110129331D02*
X120834524Y-110167426D01*
X120072619Y-110015045D02*
X120034523Y-109976950D01*
X120034523Y-109976950D02*
X119958333Y-109938855D01*
X119958333Y-109938855D02*
X119767857Y-109938855D01*
X119767857Y-109938855D02*
X119691666Y-109976950D01*
X119691666Y-109976950D02*
X119653571Y-110015045D01*
X119653571Y-110015045D02*
X119615476Y-110091236D01*
X119615476Y-110091236D02*
X119615476Y-110167426D01*
X119615476Y-110167426D02*
X119653571Y-110281712D01*
X119653571Y-110281712D02*
X120110714Y-110738855D01*
X120110714Y-110738855D02*
X119615476Y-110738855D01*
X103133333Y-107613855D02*
X103514285Y-107613855D01*
X103514285Y-107613855D02*
X103514285Y-106813855D01*
X102904762Y-106890045D02*
X102866666Y-106851950D01*
X102866666Y-106851950D02*
X102790476Y-106813855D01*
X102790476Y-106813855D02*
X102600000Y-106813855D01*
X102600000Y-106813855D02*
X102523809Y-106851950D01*
X102523809Y-106851950D02*
X102485714Y-106890045D01*
X102485714Y-106890045D02*
X102447619Y-106966236D01*
X102447619Y-106966236D02*
X102447619Y-107042426D01*
X102447619Y-107042426D02*
X102485714Y-107156712D01*
X102485714Y-107156712D02*
X102942857Y-107613855D01*
X102942857Y-107613855D02*
X102447619Y-107613855D01*
X148408332Y-98037664D02*
X148446428Y-98075760D01*
X148446428Y-98075760D02*
X148560713Y-98113855D01*
X148560713Y-98113855D02*
X148636904Y-98113855D01*
X148636904Y-98113855D02*
X148751190Y-98075760D01*
X148751190Y-98075760D02*
X148827380Y-97999569D01*
X148827380Y-97999569D02*
X148865475Y-97923379D01*
X148865475Y-97923379D02*
X148903571Y-97770998D01*
X148903571Y-97770998D02*
X148903571Y-97656712D01*
X148903571Y-97656712D02*
X148865475Y-97504331D01*
X148865475Y-97504331D02*
X148827380Y-97428140D01*
X148827380Y-97428140D02*
X148751190Y-97351950D01*
X148751190Y-97351950D02*
X148636904Y-97313855D01*
X148636904Y-97313855D02*
X148560713Y-97313855D01*
X148560713Y-97313855D02*
X148446428Y-97351950D01*
X148446428Y-97351950D02*
X148408332Y-97390045D01*
X147646428Y-98113855D02*
X148103571Y-98113855D01*
X147874999Y-98113855D02*
X147874999Y-97313855D01*
X147874999Y-97313855D02*
X147951190Y-97428140D01*
X147951190Y-97428140D02*
X148027380Y-97504331D01*
X148027380Y-97504331D02*
X148103571Y-97542426D01*
X114559522Y-107013854D02*
X114559522Y-107661473D01*
X114559522Y-107661473D02*
X114521427Y-107737663D01*
X114521427Y-107737663D02*
X114483332Y-107775759D01*
X114483332Y-107775759D02*
X114407141Y-107813854D01*
X114407141Y-107813854D02*
X114254760Y-107813854D01*
X114254760Y-107813854D02*
X114178570Y-107775759D01*
X114178570Y-107775759D02*
X114140475Y-107737663D01*
X114140475Y-107737663D02*
X114102379Y-107661473D01*
X114102379Y-107661473D02*
X114102379Y-107013854D01*
X113759523Y-107090044D02*
X113721427Y-107051949D01*
X113721427Y-107051949D02*
X113645237Y-107013854D01*
X113645237Y-107013854D02*
X113454761Y-107013854D01*
X113454761Y-107013854D02*
X113378570Y-107051949D01*
X113378570Y-107051949D02*
X113340475Y-107090044D01*
X113340475Y-107090044D02*
X113302380Y-107166235D01*
X113302380Y-107166235D02*
X113302380Y-107242425D01*
X113302380Y-107242425D02*
X113340475Y-107356711D01*
X113340475Y-107356711D02*
X113797618Y-107813854D01*
X113797618Y-107813854D02*
X113302380Y-107813854D01*
X104233332Y-102287664D02*
X104271428Y-102325760D01*
X104271428Y-102325760D02*
X104385713Y-102363855D01*
X104385713Y-102363855D02*
X104461904Y-102363855D01*
X104461904Y-102363855D02*
X104576190Y-102325760D01*
X104576190Y-102325760D02*
X104652380Y-102249569D01*
X104652380Y-102249569D02*
X104690475Y-102173379D01*
X104690475Y-102173379D02*
X104728571Y-102020998D01*
X104728571Y-102020998D02*
X104728571Y-101906712D01*
X104728571Y-101906712D02*
X104690475Y-101754331D01*
X104690475Y-101754331D02*
X104652380Y-101678140D01*
X104652380Y-101678140D02*
X104576190Y-101601950D01*
X104576190Y-101601950D02*
X104461904Y-101563855D01*
X104461904Y-101563855D02*
X104385713Y-101563855D01*
X104385713Y-101563855D02*
X104271428Y-101601950D01*
X104271428Y-101601950D02*
X104233332Y-101640045D01*
X103547618Y-101563855D02*
X103699999Y-101563855D01*
X103699999Y-101563855D02*
X103776190Y-101601950D01*
X103776190Y-101601950D02*
X103814285Y-101640045D01*
X103814285Y-101640045D02*
X103890475Y-101754331D01*
X103890475Y-101754331D02*
X103928571Y-101906712D01*
X103928571Y-101906712D02*
X103928571Y-102211474D01*
X103928571Y-102211474D02*
X103890475Y-102287664D01*
X103890475Y-102287664D02*
X103852380Y-102325760D01*
X103852380Y-102325760D02*
X103776190Y-102363855D01*
X103776190Y-102363855D02*
X103623809Y-102363855D01*
X103623809Y-102363855D02*
X103547618Y-102325760D01*
X103547618Y-102325760D02*
X103509523Y-102287664D01*
X103509523Y-102287664D02*
X103471428Y-102211474D01*
X103471428Y-102211474D02*
X103471428Y-102020998D01*
X103471428Y-102020998D02*
X103509523Y-101944807D01*
X103509523Y-101944807D02*
X103547618Y-101906712D01*
X103547618Y-101906712D02*
X103623809Y-101868617D01*
X103623809Y-101868617D02*
X103776190Y-101868617D01*
X103776190Y-101868617D02*
X103852380Y-101906712D01*
X103852380Y-101906712D02*
X103890475Y-101944807D01*
X103890475Y-101944807D02*
X103928571Y-102020998D01*
X145314285Y-97387664D02*
X145352381Y-97425760D01*
X145352381Y-97425760D02*
X145466666Y-97463855D01*
X145466666Y-97463855D02*
X145542857Y-97463855D01*
X145542857Y-97463855D02*
X145657143Y-97425760D01*
X145657143Y-97425760D02*
X145733333Y-97349569D01*
X145733333Y-97349569D02*
X145771428Y-97273379D01*
X145771428Y-97273379D02*
X145809524Y-97120998D01*
X145809524Y-97120998D02*
X145809524Y-97006712D01*
X145809524Y-97006712D02*
X145771428Y-96854331D01*
X145771428Y-96854331D02*
X145733333Y-96778140D01*
X145733333Y-96778140D02*
X145657143Y-96701950D01*
X145657143Y-96701950D02*
X145542857Y-96663855D01*
X145542857Y-96663855D02*
X145466666Y-96663855D01*
X145466666Y-96663855D02*
X145352381Y-96701950D01*
X145352381Y-96701950D02*
X145314285Y-96740045D01*
X144628571Y-96663855D02*
X144780952Y-96663855D01*
X144780952Y-96663855D02*
X144857143Y-96701950D01*
X144857143Y-96701950D02*
X144895238Y-96740045D01*
X144895238Y-96740045D02*
X144971428Y-96854331D01*
X144971428Y-96854331D02*
X145009524Y-97006712D01*
X145009524Y-97006712D02*
X145009524Y-97311474D01*
X145009524Y-97311474D02*
X144971428Y-97387664D01*
X144971428Y-97387664D02*
X144933333Y-97425760D01*
X144933333Y-97425760D02*
X144857143Y-97463855D01*
X144857143Y-97463855D02*
X144704762Y-97463855D01*
X144704762Y-97463855D02*
X144628571Y-97425760D01*
X144628571Y-97425760D02*
X144590476Y-97387664D01*
X144590476Y-97387664D02*
X144552381Y-97311474D01*
X144552381Y-97311474D02*
X144552381Y-97120998D01*
X144552381Y-97120998D02*
X144590476Y-97044807D01*
X144590476Y-97044807D02*
X144628571Y-97006712D01*
X144628571Y-97006712D02*
X144704762Y-96968617D01*
X144704762Y-96968617D02*
X144857143Y-96968617D01*
X144857143Y-96968617D02*
X144933333Y-97006712D01*
X144933333Y-97006712D02*
X144971428Y-97044807D01*
X144971428Y-97044807D02*
X145009524Y-97120998D01*
X143866666Y-96930521D02*
X143866666Y-97463855D01*
X144057142Y-96625760D02*
X144247619Y-97197188D01*
X144247619Y-97197188D02*
X143752380Y-97197188D01*
X115321428Y-110638854D02*
X115321428Y-109838854D01*
X115321428Y-109838854D02*
X115130952Y-109838854D01*
X115130952Y-109838854D02*
X115016666Y-109876949D01*
X115016666Y-109876949D02*
X114940476Y-109953139D01*
X114940476Y-109953139D02*
X114902381Y-110029330D01*
X114902381Y-110029330D02*
X114864285Y-110181711D01*
X114864285Y-110181711D02*
X114864285Y-110295997D01*
X114864285Y-110295997D02*
X114902381Y-110448378D01*
X114902381Y-110448378D02*
X114940476Y-110524568D01*
X114940476Y-110524568D02*
X115016666Y-110600759D01*
X115016666Y-110600759D02*
X115130952Y-110638854D01*
X115130952Y-110638854D02*
X115321428Y-110638854D01*
X114178571Y-109838854D02*
X114330952Y-109838854D01*
X114330952Y-109838854D02*
X114407143Y-109876949D01*
X114407143Y-109876949D02*
X114445238Y-109915044D01*
X114445238Y-109915044D02*
X114521428Y-110029330D01*
X114521428Y-110029330D02*
X114559524Y-110181711D01*
X114559524Y-110181711D02*
X114559524Y-110486473D01*
X114559524Y-110486473D02*
X114521428Y-110562663D01*
X114521428Y-110562663D02*
X114483333Y-110600759D01*
X114483333Y-110600759D02*
X114407143Y-110638854D01*
X114407143Y-110638854D02*
X114254762Y-110638854D01*
X114254762Y-110638854D02*
X114178571Y-110600759D01*
X114178571Y-110600759D02*
X114140476Y-110562663D01*
X114140476Y-110562663D02*
X114102381Y-110486473D01*
X114102381Y-110486473D02*
X114102381Y-110295997D01*
X114102381Y-110295997D02*
X114140476Y-110219806D01*
X114140476Y-110219806D02*
X114178571Y-110181711D01*
X114178571Y-110181711D02*
X114254762Y-110143616D01*
X114254762Y-110143616D02*
X114407143Y-110143616D01*
X114407143Y-110143616D02*
X114483333Y-110181711D01*
X114483333Y-110181711D02*
X114521428Y-110219806D01*
X114521428Y-110219806D02*
X114559524Y-110295997D01*
X113607142Y-109838854D02*
X113530952Y-109838854D01*
X113530952Y-109838854D02*
X113454761Y-109876949D01*
X113454761Y-109876949D02*
X113416666Y-109915044D01*
X113416666Y-109915044D02*
X113378571Y-109991235D01*
X113378571Y-109991235D02*
X113340476Y-110143616D01*
X113340476Y-110143616D02*
X113340476Y-110334092D01*
X113340476Y-110334092D02*
X113378571Y-110486473D01*
X113378571Y-110486473D02*
X113416666Y-110562663D01*
X113416666Y-110562663D02*
X113454761Y-110600759D01*
X113454761Y-110600759D02*
X113530952Y-110638854D01*
X113530952Y-110638854D02*
X113607142Y-110638854D01*
X113607142Y-110638854D02*
X113683333Y-110600759D01*
X113683333Y-110600759D02*
X113721428Y-110562663D01*
X113721428Y-110562663D02*
X113759523Y-110486473D01*
X113759523Y-110486473D02*
X113797619Y-110334092D01*
X113797619Y-110334092D02*
X113797619Y-110143616D01*
X113797619Y-110143616D02*
X113759523Y-109991235D01*
X113759523Y-109991235D02*
X113721428Y-109915044D01*
X113721428Y-109915044D02*
X113683333Y-109876949D01*
X113683333Y-109876949D02*
X113607142Y-109838854D01*
X115208332Y-91588855D02*
X115474999Y-91207902D01*
X115665475Y-91588855D02*
X115665475Y-90788855D01*
X115665475Y-90788855D02*
X115360713Y-90788855D01*
X115360713Y-90788855D02*
X115284523Y-90826950D01*
X115284523Y-90826950D02*
X115246428Y-90865045D01*
X115246428Y-90865045D02*
X115208332Y-90941236D01*
X115208332Y-90941236D02*
X115208332Y-91055521D01*
X115208332Y-91055521D02*
X115246428Y-91131712D01*
X115246428Y-91131712D02*
X115284523Y-91169807D01*
X115284523Y-91169807D02*
X115360713Y-91207902D01*
X115360713Y-91207902D02*
X115665475Y-91207902D01*
X114484523Y-90788855D02*
X114865475Y-90788855D01*
X114865475Y-90788855D02*
X114903571Y-91169807D01*
X114903571Y-91169807D02*
X114865475Y-91131712D01*
X114865475Y-91131712D02*
X114789285Y-91093617D01*
X114789285Y-91093617D02*
X114598809Y-91093617D01*
X114598809Y-91093617D02*
X114522618Y-91131712D01*
X114522618Y-91131712D02*
X114484523Y-91169807D01*
X114484523Y-91169807D02*
X114446428Y-91245998D01*
X114446428Y-91245998D02*
X114446428Y-91436474D01*
X114446428Y-91436474D02*
X114484523Y-91512664D01*
X114484523Y-91512664D02*
X114522618Y-91550760D01*
X114522618Y-91550760D02*
X114598809Y-91588855D01*
X114598809Y-91588855D02*
X114789285Y-91588855D01*
X114789285Y-91588855D02*
X114865475Y-91550760D01*
X114865475Y-91550760D02*
X114903571Y-91512664D01*
X144540475Y-94563855D02*
X144540475Y-93763855D01*
X144540475Y-93763855D02*
X144349999Y-93763855D01*
X144349999Y-93763855D02*
X144235713Y-93801950D01*
X144235713Y-93801950D02*
X144159523Y-93878140D01*
X144159523Y-93878140D02*
X144121428Y-93954331D01*
X144121428Y-93954331D02*
X144083332Y-94106712D01*
X144083332Y-94106712D02*
X144083332Y-94220998D01*
X144083332Y-94220998D02*
X144121428Y-94373379D01*
X144121428Y-94373379D02*
X144159523Y-94449569D01*
X144159523Y-94449569D02*
X144235713Y-94525760D01*
X144235713Y-94525760D02*
X144349999Y-94563855D01*
X144349999Y-94563855D02*
X144540475Y-94563855D01*
X143321428Y-94563855D02*
X143778571Y-94563855D01*
X143549999Y-94563855D02*
X143549999Y-93763855D01*
X143549999Y-93763855D02*
X143626190Y-93878140D01*
X143626190Y-93878140D02*
X143702380Y-93954331D01*
X143702380Y-93954331D02*
X143778571Y-93992426D01*
X107508332Y-94788855D02*
X107774999Y-94407902D01*
X107965475Y-94788855D02*
X107965475Y-93988855D01*
X107965475Y-93988855D02*
X107660713Y-93988855D01*
X107660713Y-93988855D02*
X107584523Y-94026950D01*
X107584523Y-94026950D02*
X107546428Y-94065045D01*
X107546428Y-94065045D02*
X107508332Y-94141236D01*
X107508332Y-94141236D02*
X107508332Y-94255521D01*
X107508332Y-94255521D02*
X107546428Y-94331712D01*
X107546428Y-94331712D02*
X107584523Y-94369807D01*
X107584523Y-94369807D02*
X107660713Y-94407902D01*
X107660713Y-94407902D02*
X107965475Y-94407902D01*
X107241666Y-93988855D02*
X106746428Y-93988855D01*
X106746428Y-93988855D02*
X107013094Y-94293617D01*
X107013094Y-94293617D02*
X106898809Y-94293617D01*
X106898809Y-94293617D02*
X106822618Y-94331712D01*
X106822618Y-94331712D02*
X106784523Y-94369807D01*
X106784523Y-94369807D02*
X106746428Y-94445998D01*
X106746428Y-94445998D02*
X106746428Y-94636474D01*
X106746428Y-94636474D02*
X106784523Y-94712664D01*
X106784523Y-94712664D02*
X106822618Y-94750760D01*
X106822618Y-94750760D02*
X106898809Y-94788855D01*
X106898809Y-94788855D02*
X107127380Y-94788855D01*
X107127380Y-94788855D02*
X107203571Y-94750760D01*
X107203571Y-94750760D02*
X107241666Y-94712664D01*
X127114285Y-100537664D02*
X127152381Y-100575760D01*
X127152381Y-100575760D02*
X127266666Y-100613855D01*
X127266666Y-100613855D02*
X127342857Y-100613855D01*
X127342857Y-100613855D02*
X127457143Y-100575760D01*
X127457143Y-100575760D02*
X127533333Y-100499569D01*
X127533333Y-100499569D02*
X127571428Y-100423379D01*
X127571428Y-100423379D02*
X127609524Y-100270998D01*
X127609524Y-100270998D02*
X127609524Y-100156712D01*
X127609524Y-100156712D02*
X127571428Y-100004331D01*
X127571428Y-100004331D02*
X127533333Y-99928140D01*
X127533333Y-99928140D02*
X127457143Y-99851950D01*
X127457143Y-99851950D02*
X127342857Y-99813855D01*
X127342857Y-99813855D02*
X127266666Y-99813855D01*
X127266666Y-99813855D02*
X127152381Y-99851950D01*
X127152381Y-99851950D02*
X127114285Y-99890045D01*
X126352381Y-100613855D02*
X126809524Y-100613855D01*
X126580952Y-100613855D02*
X126580952Y-99813855D01*
X126580952Y-99813855D02*
X126657143Y-99928140D01*
X126657143Y-99928140D02*
X126733333Y-100004331D01*
X126733333Y-100004331D02*
X126809524Y-100042426D01*
X125666666Y-100080521D02*
X125666666Y-100613855D01*
X125857142Y-99775760D02*
X126047619Y-100347188D01*
X126047619Y-100347188D02*
X125552380Y-100347188D01*
X121464285Y-92537664D02*
X121502381Y-92575760D01*
X121502381Y-92575760D02*
X121616666Y-92613855D01*
X121616666Y-92613855D02*
X121692857Y-92613855D01*
X121692857Y-92613855D02*
X121807143Y-92575760D01*
X121807143Y-92575760D02*
X121883333Y-92499569D01*
X121883333Y-92499569D02*
X121921428Y-92423379D01*
X121921428Y-92423379D02*
X121959524Y-92270998D01*
X121959524Y-92270998D02*
X121959524Y-92156712D01*
X121959524Y-92156712D02*
X121921428Y-92004331D01*
X121921428Y-92004331D02*
X121883333Y-91928140D01*
X121883333Y-91928140D02*
X121807143Y-91851950D01*
X121807143Y-91851950D02*
X121692857Y-91813855D01*
X121692857Y-91813855D02*
X121616666Y-91813855D01*
X121616666Y-91813855D02*
X121502381Y-91851950D01*
X121502381Y-91851950D02*
X121464285Y-91890045D01*
X120702381Y-92613855D02*
X121159524Y-92613855D01*
X120930952Y-92613855D02*
X120930952Y-91813855D01*
X120930952Y-91813855D02*
X121007143Y-91928140D01*
X121007143Y-91928140D02*
X121083333Y-92004331D01*
X121083333Y-92004331D02*
X121159524Y-92042426D01*
X120245238Y-92156712D02*
X120321428Y-92118617D01*
X120321428Y-92118617D02*
X120359523Y-92080521D01*
X120359523Y-92080521D02*
X120397619Y-92004331D01*
X120397619Y-92004331D02*
X120397619Y-91966236D01*
X120397619Y-91966236D02*
X120359523Y-91890045D01*
X120359523Y-91890045D02*
X120321428Y-91851950D01*
X120321428Y-91851950D02*
X120245238Y-91813855D01*
X120245238Y-91813855D02*
X120092857Y-91813855D01*
X120092857Y-91813855D02*
X120016666Y-91851950D01*
X120016666Y-91851950D02*
X119978571Y-91890045D01*
X119978571Y-91890045D02*
X119940476Y-91966236D01*
X119940476Y-91966236D02*
X119940476Y-92004331D01*
X119940476Y-92004331D02*
X119978571Y-92080521D01*
X119978571Y-92080521D02*
X120016666Y-92118617D01*
X120016666Y-92118617D02*
X120092857Y-92156712D01*
X120092857Y-92156712D02*
X120245238Y-92156712D01*
X120245238Y-92156712D02*
X120321428Y-92194807D01*
X120321428Y-92194807D02*
X120359523Y-92232902D01*
X120359523Y-92232902D02*
X120397619Y-92309093D01*
X120397619Y-92309093D02*
X120397619Y-92461474D01*
X120397619Y-92461474D02*
X120359523Y-92537664D01*
X120359523Y-92537664D02*
X120321428Y-92575760D01*
X120321428Y-92575760D02*
X120245238Y-92613855D01*
X120245238Y-92613855D02*
X120092857Y-92613855D01*
X120092857Y-92613855D02*
X120016666Y-92575760D01*
X120016666Y-92575760D02*
X119978571Y-92537664D01*
X119978571Y-92537664D02*
X119940476Y-92461474D01*
X119940476Y-92461474D02*
X119940476Y-92309093D01*
X119940476Y-92309093D02*
X119978571Y-92232902D01*
X119978571Y-92232902D02*
X120016666Y-92194807D01*
X120016666Y-92194807D02*
X120092857Y-92156712D01*
%TO.C,D3*%
X153300000Y-107160000D02*
X153300000Y-103300000D01*
X155300000Y-107160000D02*
X153300000Y-107160000D01*
X155300000Y-107160000D02*
X155300000Y-103300000D01*
%TO.C,R9*%
X112345000Y-102878641D02*
X112345000Y-102571359D01*
X113105000Y-102878641D02*
X113105000Y-102571359D01*
%TO.C,C40*%
X125542164Y-102190000D02*
X125757836Y-102190000D01*
X125542164Y-102910000D02*
X125757836Y-102910000D01*
%TO.C,R32*%
X122602500Y-100662258D02*
X122602500Y-100187742D01*
X123647500Y-100662258D02*
X123647500Y-100187742D01*
%TO.C,R33*%
X126396359Y-96595000D02*
X126703641Y-96595000D01*
X126396359Y-97355000D02*
X126703641Y-97355000D01*
%TO.C,C57*%
X135357836Y-97050000D02*
X135142164Y-97050000D01*
X135357836Y-97770000D02*
X135142164Y-97770000D01*
%TO.C,D2*%
X149390000Y-104000000D02*
X149390000Y-103390000D01*
X149390000Y-105400000D02*
X149390000Y-106310000D01*
X149390000Y-106310000D02*
X149610000Y-106310000D01*
X152610000Y-103090000D02*
X152400000Y-103090000D01*
X152610000Y-103090000D02*
X152610000Y-103990000D01*
X152610000Y-105400000D02*
X152610000Y-106310000D01*
X152610000Y-106310000D02*
X152390000Y-106310000D01*
X149390000Y-103090000D02*
X149060000Y-102850000D01*
X149060000Y-103330000D01*
X149390000Y-103090000D01*
G36*
X149390000Y-103090000D02*
G01*
X149060000Y-103330000D01*
X149060000Y-102850000D01*
X149390000Y-103090000D01*
G37*
%TO.C,R34*%
X132028641Y-102145000D02*
X131721359Y-102145000D01*
X132028641Y-102905000D02*
X131721359Y-102905000D01*
%TO.C,C21*%
X123757836Y-102190000D02*
X123542164Y-102190000D01*
X123757836Y-102910000D02*
X123542164Y-102910000D01*
%TO.C,U8*%
X130665000Y-92900000D02*
X130665000Y-90700000D01*
X130665000Y-92900000D02*
X130665000Y-95100000D01*
X138735000Y-92900000D02*
X138735000Y-90700000D01*
X138735000Y-92900000D02*
X138735000Y-95100000D01*
X131125000Y-88990000D02*
X130885000Y-88660000D01*
X131365000Y-88660000D01*
X131125000Y-88990000D01*
G36*
X131125000Y-88990000D02*
G01*
X130885000Y-88660000D01*
X131365000Y-88660000D01*
X131125000Y-88990000D01*
G37*
%TO.C,C56*%
X125515000Y-91365580D02*
X125515000Y-91084420D01*
X126535000Y-91365580D02*
X126535000Y-91084420D01*
%TO.C,D61*%
X116815000Y-102965000D02*
X116815000Y-103175000D01*
X116815000Y-102965000D02*
X117715000Y-102965000D01*
X117725000Y-106185000D02*
X117115000Y-106185000D01*
X119125000Y-102965000D02*
X120035000Y-102965000D01*
X119125000Y-106185000D02*
X120035000Y-106185000D01*
X120035000Y-102965000D02*
X120035000Y-103185000D01*
X120035000Y-106185000D02*
X120035000Y-105965000D01*
X116815000Y-106185000D02*
X116575000Y-106515000D01*
X117055000Y-106515000D01*
X116815000Y-106185000D01*
G36*
X117055000Y-106515000D02*
G01*
X116575000Y-106515000D01*
X116815000Y-106185000D01*
X117055000Y-106515000D01*
G37*
%TO.C,U10*%
X128300000Y-93040000D02*
X127500000Y-93040000D01*
X128300000Y-93040000D02*
X129100000Y-93040000D01*
X128300000Y-96160000D02*
X127500000Y-96160000D01*
X128300000Y-96160000D02*
X129100000Y-96160000D01*
X129600000Y-93115000D02*
X129840000Y-92785000D01*
X129360000Y-92785000D01*
X129600000Y-93115000D01*
G36*
X129600000Y-93115000D02*
G01*
X129360000Y-92785000D01*
X129840000Y-92785000D01*
X129600000Y-93115000D01*
G37*
%TO.C,C48*%
X127757836Y-102190000D02*
X127542164Y-102190000D01*
X127757836Y-102910000D02*
X127542164Y-102910000D01*
%TO.C,C42*%
X121740000Y-104913748D02*
X121740000Y-105436252D01*
X123210000Y-104913748D02*
X123210000Y-105436252D01*
%TO.C,R1*%
X119340000Y-90522936D02*
X119340000Y-94877064D01*
X122760000Y-90522936D02*
X122760000Y-94877064D01*
%TO.C,U1*%
X112650000Y-96090000D02*
X110450000Y-96090000D01*
X112650000Y-96090000D02*
X114850000Y-96090000D01*
X112650000Y-101610000D02*
X110450000Y-101610000D01*
X112650000Y-101610000D02*
X114850000Y-101610000D01*
X108740000Y-101125000D02*
X108410000Y-101365000D01*
X108410000Y-100885000D01*
X108740000Y-101125000D01*
G36*
X108740000Y-101125000D02*
G01*
X108410000Y-101365000D01*
X108410000Y-100885000D01*
X108740000Y-101125000D01*
G37*
%TO.C,C52*%
X128911252Y-90990000D02*
X128388748Y-90990000D01*
X128911252Y-92460000D02*
X128388748Y-92460000D01*
%TO.C,U13*%
X137525000Y-98160000D02*
X136725000Y-98160000D01*
X137525000Y-98160000D02*
X138325000Y-98160000D01*
X137525000Y-101280000D02*
X136725000Y-101280000D01*
X137525000Y-101280000D02*
X138325000Y-101280000D01*
X136225000Y-101230000D02*
X135985000Y-101560000D01*
X136465000Y-101560000D01*
X136225000Y-101230000D01*
G36*
X136465000Y-101560000D02*
G01*
X135985000Y-101560000D01*
X136225000Y-101230000D01*
X136465000Y-101560000D01*
G37*
%TO.C,C16*%
X111436252Y-106340000D02*
X110913748Y-106340000D01*
X111436252Y-107810000D02*
X110913748Y-107810000D01*
%TO.C,U15*%
X140890000Y-106975000D02*
X140890000Y-106175000D01*
X140890000Y-106975000D02*
X140890000Y-107775000D01*
X144010000Y-106975000D02*
X144010000Y-106175000D01*
X144010000Y-106975000D02*
X144010000Y-107775000D01*
X143960000Y-108275000D02*
X144290000Y-108515000D01*
X144290000Y-108035000D01*
X143960000Y-108275000D01*
G36*
X144290000Y-108515000D02*
G01*
X143960000Y-108275000D01*
X144290000Y-108035000D01*
X144290000Y-108515000D01*
G37*
%TO.C,R44*%
X129896359Y-97045000D02*
X130203641Y-97045000D01*
X129896359Y-97805000D02*
X130203641Y-97805000D01*
%TO.C,R4*%
X110502500Y-94662258D02*
X110502500Y-94187742D01*
X111547500Y-94662258D02*
X111547500Y-94187742D01*
%TO.C,U9*%
X134199999Y-103640000D02*
X133399999Y-103640000D01*
X134199999Y-103640000D02*
X134999999Y-103640000D01*
X134199999Y-106760000D02*
X133399999Y-106760000D01*
X134199999Y-106760000D02*
X134999999Y-106760000D01*
X132899999Y-106685000D02*
X132659999Y-107015000D01*
X133139999Y-107015000D01*
X132899999Y-106685000D01*
G36*
X133139999Y-107015000D02*
G01*
X132659999Y-107015000D01*
X132899999Y-106685000D01*
X133139999Y-107015000D01*
G37*
%TO.C,C46*%
X134840000Y-108434420D02*
X134840000Y-108715580D01*
X135860000Y-108434420D02*
X135860000Y-108715580D01*
%TO.C,R51*%
X139321359Y-107845000D02*
X139628641Y-107845000D01*
X139321359Y-108605000D02*
X139628641Y-108605000D01*
%TO.C,C15*%
X124140000Y-98382836D02*
X124140000Y-98167164D01*
X124860000Y-98382836D02*
X124860000Y-98167164D01*
%TO.C,R52*%
X139628641Y-106745000D02*
X139321359Y-106745000D01*
X139628641Y-107505000D02*
X139321359Y-107505000D01*
%TO.C,U12*%
X138500000Y-103190000D02*
X137700000Y-103190000D01*
X138500000Y-103190000D02*
X139300000Y-103190000D01*
X138500000Y-106310000D02*
X137700000Y-106310000D01*
X138500000Y-106310000D02*
X139300000Y-106310000D01*
X137200000Y-106260000D02*
X136960000Y-106590000D01*
X137440000Y-106590000D01*
X137200000Y-106260000D01*
G36*
X137440000Y-106590000D02*
G01*
X136960000Y-106590000D01*
X137200000Y-106260000D01*
X137440000Y-106590000D01*
G37*
%TO.C,R11*%
X138820000Y-109646359D02*
X138820000Y-109953641D01*
X139580000Y-109646359D02*
X139580000Y-109953641D01*
%TO.C,L1*%
X149600000Y-92850000D02*
X149600000Y-102250000D01*
X149600000Y-92850000D02*
X150500000Y-92850000D01*
X149600000Y-102250000D02*
X150500000Y-102250000D01*
X150500000Y-92650000D02*
X150500000Y-92750000D01*
X150500000Y-92850000D02*
X150500000Y-92650000D01*
X152400000Y-92650000D02*
X152400000Y-92850000D01*
X152400000Y-92850000D02*
X153000000Y-92850000D01*
X152400000Y-102250000D02*
X153000000Y-102250000D01*
X155800000Y-92850000D02*
X154900000Y-92850000D01*
X155800000Y-102250000D02*
X154900000Y-102250000D01*
X155800000Y-102250000D02*
X155800000Y-92850000D01*
%TO.C,C20*%
X124140000Y-100167164D02*
X124140000Y-100382836D01*
X124860000Y-100167164D02*
X124860000Y-100382836D01*
%TO.C,L3*%
X144500000Y-106300000D02*
X144500000Y-102300000D01*
X148700000Y-106300000D02*
X148700000Y-102300000D01*
%TO.C,R60*%
X113846359Y-105795000D02*
X114153641Y-105795000D01*
X113846359Y-106555000D02*
X114153641Y-106555000D01*
%TO.C,C47*%
X129757836Y-102190000D02*
X129542164Y-102190000D01*
X129757836Y-102910000D02*
X129542164Y-102910000D01*
%TO.C,U7*%
X123765000Y-107100000D02*
X123765000Y-104900000D01*
X123765000Y-107100000D02*
X123765000Y-109300000D01*
X131835000Y-107100000D02*
X131835000Y-104900000D01*
X131835000Y-107100000D02*
X131835000Y-109300000D01*
X131375000Y-111010000D02*
X131615000Y-111340000D01*
X131135000Y-111340000D01*
X131375000Y-111010000D01*
G36*
X131615000Y-111340000D02*
G01*
X131135000Y-111340000D01*
X131375000Y-111010000D01*
X131615000Y-111340000D01*
G37*
%TO.C,R41*%
X134420000Y-98996359D02*
X134420000Y-99303641D01*
X135180000Y-98996359D02*
X135180000Y-99303641D01*
%TO.C,C58*%
X132357836Y-97050000D02*
X132142164Y-97050000D01*
X132357836Y-97770000D02*
X132142164Y-97770000D01*
%TO.C,C5*%
X118338748Y-96965000D02*
X119761252Y-96965000D01*
X118338748Y-98785000D02*
X119761252Y-98785000D01*
%TO.C,C63*%
X144440000Y-107757836D02*
X144440000Y-107542164D01*
X145160000Y-107757836D02*
X145160000Y-107542164D01*
%TO.C,C55*%
X142188748Y-102790000D02*
X142711252Y-102790000D01*
X142188748Y-104260000D02*
X142711252Y-104260000D01*
%TO.C,R42*%
X132452500Y-99537742D02*
X132452500Y-100012258D01*
X133497500Y-99537742D02*
X133497500Y-100012258D01*
%TO.C,R12*%
X120471359Y-108395000D02*
X120778641Y-108395000D01*
X120471359Y-109155000D02*
X120778641Y-109155000D01*
%TO.C,R10*%
X149145000Y-107621359D02*
X149145000Y-107928641D01*
X149905000Y-107621359D02*
X149905000Y-107928641D01*
%TO.C,C8*%
X107640000Y-102992164D02*
X107640000Y-103207836D01*
X108360000Y-102992164D02*
X108360000Y-103207836D01*
%TO.C,R14*%
X133319999Y-107996359D02*
X133319999Y-108303641D01*
X134079999Y-107996359D02*
X134079999Y-108303641D01*
%TO.C,L2*%
X108200000Y-104350000D02*
X104200000Y-104350000D01*
X108200000Y-108550000D02*
X104200000Y-108550000D01*
%TO.C,C1*%
X147540000Y-100411252D02*
X147540000Y-99888748D01*
X149010000Y-100411252D02*
X149010000Y-99888748D01*
%TO.C,U2*%
X108790000Y-103850000D02*
X108790000Y-103050000D01*
X108790000Y-103850000D02*
X108790000Y-104650000D01*
X111910000Y-103850000D02*
X111910000Y-103050000D01*
X111910000Y-103850000D02*
X111910000Y-104650000D01*
X108840000Y-102550000D02*
X108510000Y-102310000D01*
X108510000Y-102790000D01*
X108840000Y-102550000D01*
G36*
X108840000Y-102550000D02*
G01*
X108510000Y-102790000D01*
X108510000Y-102310000D01*
X108840000Y-102550000D01*
G37*
%TO.C,R8*%
X114478641Y-102995000D02*
X114171359Y-102995000D01*
X114478641Y-103755000D02*
X114171359Y-103755000D01*
%TO.C,C61*%
X146888748Y-106990000D02*
X147411252Y-106990000D01*
X146888748Y-108460000D02*
X147411252Y-108460000D01*
%TO.C,C6*%
X105388748Y-98240000D02*
X106811252Y-98240000D01*
X105388748Y-100960000D02*
X106811252Y-100960000D01*
%TO.C,R6*%
X113962258Y-104252500D02*
X113487742Y-104252500D01*
X113962258Y-105297500D02*
X113487742Y-105297500D01*
%TO.C,C64*%
X145511252Y-99790000D02*
X144088748Y-99790000D01*
X145511252Y-101610000D02*
X144088748Y-101610000D01*
%TO.C,D60*%
X115940000Y-107975000D02*
X115940000Y-107365000D01*
X115940000Y-109375000D02*
X115940000Y-110285000D01*
X115940000Y-110285000D02*
X116160000Y-110285000D01*
X119160000Y-107065000D02*
X118950000Y-107065000D01*
X119160000Y-107065000D02*
X119160000Y-107965000D01*
X119160000Y-109375000D02*
X119160000Y-110285000D01*
X119160000Y-110285000D02*
X118940000Y-110285000D01*
X115940000Y-107065000D02*
X115610000Y-106825000D01*
X115610000Y-107305000D01*
X115940000Y-107065000D01*
G36*
X115940000Y-107065000D02*
G01*
X115610000Y-107305000D01*
X115610000Y-106825000D01*
X115940000Y-107065000D01*
G37*
%TO.C,R31*%
X137003641Y-101995000D02*
X136696359Y-101995000D01*
X137003641Y-102755000D02*
X136696359Y-102755000D01*
%TO.C,C62*%
X141815580Y-109440000D02*
X141534420Y-109440000D01*
X141815580Y-110460000D02*
X141534420Y-110460000D01*
%TO.C,R5*%
X110037742Y-91502500D02*
X110512258Y-91502500D01*
X110037742Y-92547500D02*
X110512258Y-92547500D01*
%TO.C,C4*%
X115132836Y-101890000D02*
X114917164Y-101890000D01*
X115132836Y-102610000D02*
X114917164Y-102610000D01*
%TO.C,C65*%
X140240000Y-100761252D02*
X140240000Y-99338748D01*
X142060000Y-100761252D02*
X142060000Y-99338748D01*
%TO.C,C50*%
X137332836Y-97050000D02*
X137117164Y-97050000D01*
X137332836Y-97770000D02*
X137117164Y-97770000D01*
%TO.C,C2*%
X118338748Y-99465000D02*
X119761252Y-99465000D01*
X118338748Y-102185000D02*
X119761252Y-102185000D01*
%TO.C,C30*%
X133339999Y-110067164D02*
X133339999Y-110282836D01*
X134059999Y-110067164D02*
X134059999Y-110282836D01*
%TO.C,R3*%
X108852500Y-94187742D02*
X108852500Y-94662258D01*
X109897500Y-94187742D02*
X109897500Y-94662258D01*
%TO.C,C14*%
X123040000Y-97957836D02*
X123040000Y-97742164D01*
X123760000Y-97957836D02*
X123760000Y-97742164D01*
%TO.C,C45*%
X136665000Y-108238748D02*
X136665000Y-108761252D01*
X138135000Y-108238748D02*
X138135000Y-108761252D01*
%TO.C,C54*%
X129557835Y-89465000D02*
X129342163Y-89465000D01*
X129557835Y-90185000D02*
X129342163Y-90185000D01*
%TO.C,C18*%
X123415000Y-95311252D02*
X123415000Y-94788748D01*
X124885000Y-95311252D02*
X124885000Y-94788748D01*
%TD*%
%LPC*%
D11*
%TO.C,J2*%
X105900000Y-102040000D03*
X104884000Y-96960000D03*
X106916000Y-96960000D03*
%TD*%
D12*
%TO.C,J5*%
X105300000Y-92600000D03*
%TD*%
D13*
%TO.C,D3*%
X154300000Y-106350000D03*
X154300000Y-103550000D03*
%TD*%
D14*
%TO.C,R9*%
X112725000Y-103235000D03*
X112725000Y-102215000D03*
%TD*%
D15*
%TO.C,C40*%
X125170000Y-102550000D03*
X126130000Y-102550000D03*
%TD*%
D16*
%TO.C,R32*%
X123125000Y-101250000D03*
X123125000Y-99600000D03*
%TD*%
D17*
%TO.C,R33*%
X126040000Y-96975000D03*
X127060000Y-96975000D03*
%TD*%
D18*
%TO.C,C57*%
X135730000Y-97410000D03*
X134770000Y-97410000D03*
%TD*%
D19*
%TO.C,D2*%
X150025000Y-103300000D03*
X150675000Y-103300000D03*
X151325000Y-103300000D03*
X151975000Y-103300000D03*
X151975000Y-106100000D03*
X151325000Y-106100000D03*
X150675000Y-106100000D03*
X150025000Y-106100000D03*
D20*
X152187500Y-104375000D03*
X149812500Y-104375000D03*
D21*
X151000000Y-104700000D03*
D20*
X152187500Y-105025000D03*
X149812500Y-105025000D03*
%TD*%
D22*
%TO.C,R34*%
X132385000Y-102525000D03*
X131365000Y-102525000D03*
%TD*%
D18*
%TO.C,C21*%
X124130000Y-102550000D03*
X123170000Y-102550000D03*
%TD*%
D23*
%TO.C,U8*%
X131125000Y-90025000D03*
X131775000Y-90025000D03*
X132425000Y-90025000D03*
X133075000Y-90025000D03*
X133725000Y-90025000D03*
X134375000Y-90025000D03*
X135025000Y-90025000D03*
X135675000Y-90025000D03*
X136325000Y-90025000D03*
X136975000Y-90025000D03*
X137625000Y-90025000D03*
X138275000Y-90025000D03*
X138275000Y-95775000D03*
X137625000Y-95775000D03*
X136975000Y-95775000D03*
X136325000Y-95775000D03*
X135675000Y-95775000D03*
X135025000Y-95775000D03*
X134375000Y-95775000D03*
X133725000Y-95775000D03*
X133075000Y-95775000D03*
X132425000Y-95775000D03*
X131775000Y-95775000D03*
X131125000Y-95775000D03*
D24*
X134700000Y-92900000D03*
%TD*%
D25*
%TO.C,C56*%
X126025000Y-92000000D03*
X126025000Y-90450000D03*
%TD*%
D26*
%TO.C,D61*%
X117025000Y-105550000D03*
X117025000Y-104900000D03*
X117025000Y-104250000D03*
X117025000Y-103600000D03*
X119825000Y-103600000D03*
X119825000Y-104250000D03*
X119825000Y-104900000D03*
X119825000Y-105550000D03*
D27*
X118100000Y-103387500D03*
X118100000Y-105762500D03*
D28*
X118425000Y-104575000D03*
D27*
X118750000Y-103387500D03*
X118750000Y-105762500D03*
%TD*%
D29*
%TO.C,U10*%
X129437500Y-93625000D03*
X129437500Y-94275000D03*
X129437500Y-94925000D03*
X129437500Y-95575000D03*
X127162500Y-95575000D03*
X127162500Y-94925000D03*
X127162500Y-94275000D03*
X127162500Y-93625000D03*
%TD*%
D18*
%TO.C,C48*%
X128130000Y-102550000D03*
X127170000Y-102550000D03*
%TD*%
D30*
%TO.C,C42*%
X122475000Y-104225000D03*
X122475000Y-106125000D03*
%TD*%
D31*
%TO.C,R1*%
X121050000Y-89737500D03*
X121050000Y-95662500D03*
%TD*%
D32*
%TO.C,U1*%
X112650000Y-98850000D03*
D33*
X109787500Y-101125000D03*
X109787500Y-100475000D03*
X109787500Y-99825000D03*
X109787500Y-99175000D03*
X109787500Y-98525000D03*
X109787500Y-97875000D03*
X109787500Y-97225000D03*
X109787500Y-96575000D03*
X115512500Y-96575000D03*
X115512500Y-97225000D03*
X115512500Y-97875000D03*
X115512500Y-98525000D03*
X115512500Y-99175000D03*
X115512500Y-99825000D03*
X115512500Y-100475000D03*
X115512500Y-101125000D03*
%TD*%
D34*
%TO.C,C52*%
X129600000Y-91725000D03*
X127700000Y-91725000D03*
%TD*%
D35*
%TO.C,U13*%
X136387500Y-100670000D03*
X136387500Y-99720000D03*
X136387500Y-98770000D03*
X138662500Y-98770000D03*
X138662500Y-100670000D03*
%TD*%
D34*
%TO.C,C16*%
X112125000Y-107075000D03*
X110225000Y-107075000D03*
%TD*%
D36*
%TO.C,U15*%
X143400000Y-108112500D03*
X142450000Y-108112500D03*
X141500000Y-108112500D03*
X141500000Y-105837500D03*
X142450000Y-105837500D03*
X143400000Y-105837500D03*
%TD*%
D17*
%TO.C,R44*%
X129540000Y-97425000D03*
X130560000Y-97425000D03*
%TD*%
D16*
%TO.C,R4*%
X111025000Y-95250000D03*
X111025000Y-93600000D03*
%TD*%
D37*
%TO.C,U9*%
X133062499Y-106175000D03*
X133062499Y-105525000D03*
X133062499Y-104875000D03*
X133062499Y-104225000D03*
X135337499Y-104225000D03*
X135337499Y-104875000D03*
X135337499Y-105525000D03*
X135337499Y-106175000D03*
%TD*%
D38*
%TO.C,C46*%
X135350000Y-107800000D03*
X135350000Y-109350000D03*
%TD*%
D17*
%TO.C,R51*%
X138965000Y-108225000D03*
X139985000Y-108225000D03*
%TD*%
D39*
%TO.C,GDT1*%
X113225000Y-92475000D03*
X117225000Y-92475000D03*
%TD*%
D40*
%TO.C,C15*%
X124500000Y-98755000D03*
X124500000Y-97795000D03*
%TD*%
D22*
%TO.C,R52*%
X139985000Y-107125000D03*
X138965000Y-107125000D03*
%TD*%
D35*
%TO.C,U12*%
X137362500Y-105700000D03*
X137362500Y-104750000D03*
X137362500Y-103800000D03*
X139637500Y-103800000D03*
X139637500Y-105700000D03*
%TD*%
D41*
%TO.C,R11*%
X139200000Y-109290000D03*
X139200000Y-110310000D03*
%TD*%
D42*
%TO.C,C44*%
X132600000Y-109820000D03*
X132600000Y-110780000D03*
%TD*%
D43*
%TO.C,L1*%
X151430000Y-93800000D03*
X153970000Y-93800000D03*
X153970000Y-101300000D03*
X151430000Y-101300000D03*
%TD*%
D42*
%TO.C,C20*%
X124500000Y-99795000D03*
X124500000Y-100755000D03*
%TD*%
D44*
%TO.C,L3*%
X146600000Y-105825000D03*
X146600000Y-102775000D03*
%TD*%
D17*
%TO.C,R60*%
X113490000Y-106175000D03*
X114510000Y-106175000D03*
%TD*%
D18*
%TO.C,C47*%
X130130000Y-102550000D03*
X129170000Y-102550000D03*
%TD*%
D45*
%TO.C,U7*%
X131375000Y-109975000D03*
X130725000Y-109975000D03*
X130075000Y-109975000D03*
X129425000Y-109975000D03*
X128775000Y-109975000D03*
X128125000Y-109975000D03*
X127475000Y-109975000D03*
X126825000Y-109975000D03*
X126175000Y-109975000D03*
X125525000Y-109975000D03*
X124875000Y-109975000D03*
X124225000Y-109975000D03*
X124225000Y-104225000D03*
X124875000Y-104225000D03*
X125525000Y-104225000D03*
X126175000Y-104225000D03*
X126825000Y-104225000D03*
X127475000Y-104225000D03*
X128125000Y-104225000D03*
X128775000Y-104225000D03*
X129425000Y-104225000D03*
X130075000Y-104225000D03*
X130725000Y-104225000D03*
X131375000Y-104225000D03*
D24*
X127800000Y-107100000D03*
%TD*%
D41*
%TO.C,R41*%
X134800000Y-98640000D03*
X134800000Y-99660000D03*
%TD*%
D18*
%TO.C,C58*%
X132730000Y-97410000D03*
X131770000Y-97410000D03*
%TD*%
D46*
%TO.C,C5*%
X117575000Y-97875000D03*
X120525000Y-97875000D03*
%TD*%
D40*
%TO.C,C63*%
X144800000Y-108130000D03*
X144800000Y-107170000D03*
%TD*%
D47*
%TO.C,C55*%
X141500000Y-103525000D03*
X143400000Y-103525000D03*
%TD*%
D48*
%TO.C,R42*%
X132975000Y-98950000D03*
X132975000Y-100600000D03*
%TD*%
D17*
%TO.C,R12*%
X120115000Y-108775000D03*
X121135000Y-108775000D03*
%TD*%
D41*
%TO.C,R10*%
X149525000Y-107265000D03*
X149525000Y-108285000D03*
%TD*%
D42*
%TO.C,C8*%
X108000000Y-102620000D03*
X108000000Y-103580000D03*
%TD*%
D41*
%TO.C,R14*%
X133699999Y-107640000D03*
X133699999Y-108660000D03*
%TD*%
D49*
%TO.C,L2*%
X107725000Y-106450000D03*
X104675000Y-106450000D03*
%TD*%
D50*
%TO.C,C1*%
X148275000Y-101100000D03*
X148275000Y-99200000D03*
%TD*%
D51*
%TO.C,U2*%
X109400000Y-102712500D03*
X110350000Y-102712500D03*
X111300000Y-102712500D03*
X111300000Y-104987500D03*
X110350000Y-104987500D03*
X109400000Y-104987500D03*
%TD*%
D22*
%TO.C,R8*%
X114835000Y-103375000D03*
X113815000Y-103375000D03*
%TD*%
D47*
%TO.C,C61*%
X146200000Y-107725000D03*
X148100000Y-107725000D03*
%TD*%
D52*
%TO.C,C6*%
X104625000Y-99600000D03*
X107575000Y-99600000D03*
%TD*%
D53*
%TO.C,R6*%
X114550000Y-104775000D03*
X112900000Y-104775000D03*
%TD*%
D54*
%TO.C,C64*%
X146275000Y-100700000D03*
X143325000Y-100700000D03*
%TD*%
D19*
%TO.C,D60*%
X116575000Y-107275000D03*
X117225000Y-107275000D03*
X117875000Y-107275000D03*
X118525000Y-107275000D03*
X118525000Y-110075000D03*
X117875000Y-110075000D03*
X117225000Y-110075000D03*
X116575000Y-110075000D03*
D20*
X118737500Y-108350000D03*
X116362500Y-108350000D03*
D21*
X117550000Y-108675000D03*
D20*
X118737500Y-109000000D03*
X116362500Y-109000000D03*
%TD*%
D22*
%TO.C,R31*%
X137360000Y-102375000D03*
X136340000Y-102375000D03*
%TD*%
D55*
%TO.C,C62*%
X142450000Y-109950000D03*
X140900000Y-109950000D03*
%TD*%
D56*
%TO.C,R5*%
X109450000Y-92025000D03*
X111100000Y-92025000D03*
%TD*%
D57*
%TO.C,D1*%
X140550000Y-94200000D03*
X147350000Y-94200000D03*
%TD*%
D18*
%TO.C,C4*%
X115505000Y-102250000D03*
X114545000Y-102250000D03*
%TD*%
D58*
%TO.C,C65*%
X141150000Y-101525000D03*
X141150000Y-98575000D03*
%TD*%
D18*
%TO.C,C50*%
X137705000Y-97410000D03*
X136745000Y-97410000D03*
%TD*%
D52*
%TO.C,C2*%
X117575000Y-100825000D03*
X120525000Y-100825000D03*
%TD*%
D42*
%TO.C,C30*%
X133699999Y-109695000D03*
X133699999Y-110655000D03*
%TD*%
D48*
%TO.C,R3*%
X109375000Y-93600000D03*
X109375000Y-95250000D03*
%TD*%
D40*
%TO.C,C14*%
X123400000Y-98330000D03*
X123400000Y-97370000D03*
%TD*%
D30*
%TO.C,C45*%
X137400000Y-107550000D03*
X137400000Y-109450000D03*
%TD*%
D18*
%TO.C,C54*%
X129929999Y-89825000D03*
X128969999Y-89825000D03*
%TD*%
D50*
%TO.C,C18*%
X124150000Y-96000000D03*
X124150000Y-94100000D03*
%TD*%
%LPD*%
M02*
