%TF.GenerationSoftware,KiCad,Pcbnew,10.0.6*%
%TF.CreationDate,2026-10-02T14:30:50+09:00*%
%TF.ProjectId,HMT500(260313A),484d5435-3030-4283-9236-303331334129,A5*%
%TF.SameCoordinates,Original*%
%TF.FileFunction,Legend,Top*%
%TF.FilePolarity,Positive*%
%FSLAX46Y46*%
G04 Gerber Fmt 4.6, Leading zero omitted, Abs format (unit mm)*
G04 Created by KiCad (PCBNEW 10.0.6) date 2026-10-02 14:30:50*
%MOMM*%
%LPD*%
G01*
G04 APERTURE LIST*
G04 Aperture macros list*
%AMRoundRect*
0 Rectangle with rounded corners*
0 $1 Rounding radius*
0 $2 $3 $4 $5 $6 $7 $8 $9 X,Y pos of 4 corners*
0 Add a 4 corners polygon primitive as box body*
4,1,4,$2,$3,$4,$5,$6,$7,$8,$9,$2,$3,0*
0 Add four circle primitives for the rounded corners*
1,1,$1+$1,$2,$3*
1,1,$1+$1,$4,$5*
1,1,$1+$1,$6,$7*
1,1,$1+$1,$8,$9*
0 Add four rect primitives between the rounded corners*
20,1,$1+$1,$2,$3,$4,$5,0*
20,1,$1+$1,$4,$5,$6,$7,0*
20,1,$1+$1,$6,$7,$8,$9,0*
20,1,$1+$1,$8,$9,$2,$3,0*%
G04 Aperture macros list end*
%ADD10C,0.120000*%
%ADD11RoundRect,0.150000X0.512500X0.150000X-0.512500X0.150000X-0.512500X-0.150000X0.512500X-0.150000X0*%
%ADD12RoundRect,0.250000X0.650000X-0.325000X0.650000X0.325000X-0.650000X0.325000X-0.650000X-0.325000X0*%
%ADD13RoundRect,0.140000X-0.140000X-0.170000X0.140000X-0.170000X0.140000X0.170000X-0.140000X0.170000X0*%
%ADD14RoundRect,0.150000X0.700000X-0.150000X0.700000X0.150000X-0.700000X0.150000X-0.700000X-0.150000X0*%
%ADD15RoundRect,0.250000X1.100000X-0.250000X1.100000X0.250000X-1.100000X0.250000X-1.100000X-0.250000X0*%
%ADD16RoundRect,0.135000X-0.135000X-0.185000X0.135000X-0.185000X0.135000X0.185000X-0.135000X0.185000X0*%
%ADD17R,0.800000X0.300000*%
%ADD18RoundRect,0.225000X0.225000X0.250000X-0.225000X0.250000X-0.225000X-0.250000X0.225000X-0.250000X0*%
%ADD19RoundRect,0.135000X-0.185000X0.135000X-0.185000X-0.135000X0.185000X-0.135000X0.185000X0.135000X0*%
%ADD20RoundRect,0.150000X-0.625000X0.150000X-0.625000X-0.150000X0.625000X-0.150000X0.625000X0.150000X0*%
%ADD21RoundRect,0.250000X-0.650000X0.350000X-0.650000X-0.350000X0.650000X-0.350000X0.650000X0.350000X0*%
%ADD22RoundRect,0.250000X-0.362500X-1.425000X0.362500X-1.425000X0.362500X1.425000X-0.362500X1.425000X0*%
%ADD23RoundRect,0.140000X0.140000X0.170000X-0.140000X0.170000X-0.140000X-0.170000X0.140000X-0.170000X0*%
%ADD24R,1.450000X0.450000*%
%ADD25RoundRect,0.250000X-0.312500X-0.625000X0.312500X-0.625000X0.312500X0.625000X-0.312500X0.625000X0*%
%ADD26RoundRect,0.075000X-0.662500X-0.075000X0.662500X-0.075000X0.662500X0.075000X-0.662500X0.075000X0*%
%ADD27RoundRect,0.075000X-0.075000X-0.662500X0.075000X-0.662500X0.075000X0.662500X-0.075000X0.662500X0*%
%ADD28RoundRect,0.250000X0.325000X0.650000X-0.325000X0.650000X-0.325000X-0.650000X0.325000X-0.650000X0*%
%ADD29RoundRect,0.135000X0.135000X0.185000X-0.135000X0.185000X-0.135000X-0.185000X0.135000X-0.185000X0*%
%ADD30RoundRect,0.062500X-0.350000X-0.062500X0.350000X-0.062500X0.350000X0.062500X-0.350000X0.062500X0*%
%ADD31RoundRect,0.062500X-0.062500X-0.350000X0.062500X-0.350000X0.062500X0.350000X-0.062500X0.350000X0*%
%ADD32R,2.600000X2.600000*%
%ADD33RoundRect,0.100000X0.637500X0.100000X-0.637500X0.100000X-0.637500X-0.100000X0.637500X-0.100000X0*%
%ADD34RoundRect,0.249999X0.450001X1.450001X-0.450001X1.450001X-0.450001X-1.450001X0.450001X-1.450001X0*%
%ADD35RoundRect,0.225000X-0.225000X-0.250000X0.225000X-0.250000X0.225000X0.250000X-0.225000X0.250000X0*%
%ADD36RoundRect,0.150000X-0.150000X0.587500X-0.150000X-0.587500X0.150000X-0.587500X0.150000X0.587500X0*%
%ADD37C,0.990600*%
%ADD38C,0.787400*%
%ADD39RoundRect,0.200000X0.275000X-0.200000X0.275000X0.200000X-0.275000X0.200000X-0.275000X-0.200000X0*%
%ADD40RoundRect,0.119600X-0.250400X-0.105400X0.250400X-0.105400X0.250400X0.105400X-0.250400X0.105400X0*%
%ADD41RoundRect,0.120600X-0.064400X-0.461900X0.064400X-0.461900X0.064400X0.461900X-0.064400X0.461900X0*%
%ADD42RoundRect,0.121000X-0.699000X-0.824000X0.699000X-0.824000X0.699000X0.824000X-0.699000X0.824000X0*%
%ADD43RoundRect,0.218750X0.256250X-0.218750X0.256250X0.218750X-0.256250X0.218750X-0.256250X-0.218750X0*%
%ADD44C,1.600000*%
%ADD45RoundRect,0.150000X0.587500X0.150000X-0.587500X0.150000X-0.587500X-0.150000X0.587500X-0.150000X0*%
%ADD46RoundRect,0.140000X-0.170000X0.140000X-0.170000X-0.140000X0.170000X-0.140000X0.170000X0.140000X0*%
G04 APERTURE END LIST*
D10*
X148838095Y-100363855D02*
X148838095Y-99563855D01*
X148838095Y-99944807D02*
X149295238Y-99944807D01*
X149295238Y-100363855D02*
X149295238Y-99563855D01*
X149676190Y-100363855D02*
X149676190Y-99563855D01*
X149676190Y-99563855D02*
X149942856Y-100135283D01*
X149942856Y-100135283D02*
X150209523Y-99563855D01*
X150209523Y-99563855D02*
X150209523Y-100363855D01*
X150476190Y-99563855D02*
X150933333Y-99563855D01*
X150704761Y-100363855D02*
X150704761Y-99563855D01*
X151580952Y-99563855D02*
X151200000Y-99563855D01*
X151200000Y-99563855D02*
X151161904Y-99944807D01*
X151161904Y-99944807D02*
X151200000Y-99906712D01*
X151200000Y-99906712D02*
X151276190Y-99868617D01*
X151276190Y-99868617D02*
X151466666Y-99868617D01*
X151466666Y-99868617D02*
X151542857Y-99906712D01*
X151542857Y-99906712D02*
X151580952Y-99944807D01*
X151580952Y-99944807D02*
X151619047Y-100020998D01*
X151619047Y-100020998D02*
X151619047Y-100211474D01*
X151619047Y-100211474D02*
X151580952Y-100287664D01*
X151580952Y-100287664D02*
X151542857Y-100325760D01*
X151542857Y-100325760D02*
X151466666Y-100363855D01*
X151466666Y-100363855D02*
X151276190Y-100363855D01*
X151276190Y-100363855D02*
X151200000Y-100325760D01*
X151200000Y-100325760D02*
X151161904Y-100287664D01*
X152114286Y-99563855D02*
X152190476Y-99563855D01*
X152190476Y-99563855D02*
X152266667Y-99601950D01*
X152266667Y-99601950D02*
X152304762Y-99640045D01*
X152304762Y-99640045D02*
X152342857Y-99716236D01*
X152342857Y-99716236D02*
X152380952Y-99868617D01*
X152380952Y-99868617D02*
X152380952Y-100059093D01*
X152380952Y-100059093D02*
X152342857Y-100211474D01*
X152342857Y-100211474D02*
X152304762Y-100287664D01*
X152304762Y-100287664D02*
X152266667Y-100325760D01*
X152266667Y-100325760D02*
X152190476Y-100363855D01*
X152190476Y-100363855D02*
X152114286Y-100363855D01*
X152114286Y-100363855D02*
X152038095Y-100325760D01*
X152038095Y-100325760D02*
X152000000Y-100287664D01*
X152000000Y-100287664D02*
X151961905Y-100211474D01*
X151961905Y-100211474D02*
X151923809Y-100059093D01*
X151923809Y-100059093D02*
X151923809Y-99868617D01*
X151923809Y-99868617D02*
X151961905Y-99716236D01*
X151961905Y-99716236D02*
X152000000Y-99640045D01*
X152000000Y-99640045D02*
X152038095Y-99601950D01*
X152038095Y-99601950D02*
X152114286Y-99563855D01*
X152876191Y-99563855D02*
X152952381Y-99563855D01*
X152952381Y-99563855D02*
X153028572Y-99601950D01*
X153028572Y-99601950D02*
X153066667Y-99640045D01*
X153066667Y-99640045D02*
X153104762Y-99716236D01*
X153104762Y-99716236D02*
X153142857Y-99868617D01*
X153142857Y-99868617D02*
X153142857Y-100059093D01*
X153142857Y-100059093D02*
X153104762Y-100211474D01*
X153104762Y-100211474D02*
X153066667Y-100287664D01*
X153066667Y-100287664D02*
X153028572Y-100325760D01*
X153028572Y-100325760D02*
X152952381Y-100363855D01*
X152952381Y-100363855D02*
X152876191Y-100363855D01*
X152876191Y-100363855D02*
X152800000Y-100325760D01*
X152800000Y-100325760D02*
X152761905Y-100287664D01*
X152761905Y-100287664D02*
X152723810Y-100211474D01*
X152723810Y-100211474D02*
X152685714Y-100059093D01*
X152685714Y-100059093D02*
X152685714Y-99868617D01*
X152685714Y-99868617D02*
X152723810Y-99716236D01*
X152723810Y-99716236D02*
X152761905Y-99640045D01*
X152761905Y-99640045D02*
X152800000Y-99601950D01*
X152800000Y-99601950D02*
X152876191Y-99563855D01*
X154057143Y-100135283D02*
X154438096Y-100135283D01*
X153980953Y-100363855D02*
X154247620Y-99563855D01*
X154247620Y-99563855D02*
X154514286Y-100363855D01*
X155161905Y-99563855D02*
X154780953Y-99563855D01*
X154780953Y-99563855D02*
X154742857Y-99944807D01*
X154742857Y-99944807D02*
X154780953Y-99906712D01*
X154780953Y-99906712D02*
X154857143Y-99868617D01*
X154857143Y-99868617D02*
X155047619Y-99868617D01*
X155047619Y-99868617D02*
X155123810Y-99906712D01*
X155123810Y-99906712D02*
X155161905Y-99944807D01*
X155161905Y-99944807D02*
X155200000Y-100020998D01*
X155200000Y-100020998D02*
X155200000Y-100211474D01*
X155200000Y-100211474D02*
X155161905Y-100287664D01*
X155161905Y-100287664D02*
X155123810Y-100325760D01*
X155123810Y-100325760D02*
X155047619Y-100363855D01*
X155047619Y-100363855D02*
X154857143Y-100363855D01*
X154857143Y-100363855D02*
X154780953Y-100325760D01*
X154780953Y-100325760D02*
X154742857Y-100287664D01*
X144390476Y-90038855D02*
X144390476Y-90686474D01*
X144390476Y-90686474D02*
X144428571Y-90762664D01*
X144428571Y-90762664D02*
X144466666Y-90800760D01*
X144466666Y-90800760D02*
X144542857Y-90838855D01*
X144542857Y-90838855D02*
X144695238Y-90838855D01*
X144695238Y-90838855D02*
X144771428Y-90800760D01*
X144771428Y-90800760D02*
X144809523Y-90762664D01*
X144809523Y-90762664D02*
X144847619Y-90686474D01*
X144847619Y-90686474D02*
X144847619Y-90038855D01*
X145152380Y-90038855D02*
X145647618Y-90038855D01*
X145647618Y-90038855D02*
X145380952Y-90343617D01*
X145380952Y-90343617D02*
X145495237Y-90343617D01*
X145495237Y-90343617D02*
X145571428Y-90381712D01*
X145571428Y-90381712D02*
X145609523Y-90419807D01*
X145609523Y-90419807D02*
X145647618Y-90495998D01*
X145647618Y-90495998D02*
X145647618Y-90686474D01*
X145647618Y-90686474D02*
X145609523Y-90762664D01*
X145609523Y-90762664D02*
X145571428Y-90800760D01*
X145571428Y-90800760D02*
X145495237Y-90838855D01*
X145495237Y-90838855D02*
X145266666Y-90838855D01*
X145266666Y-90838855D02*
X145190475Y-90800760D01*
X145190475Y-90800760D02*
X145152380Y-90762664D01*
X126385713Y-94362664D02*
X126347617Y-94400760D01*
X126347617Y-94400760D02*
X126233332Y-94438855D01*
X126233332Y-94438855D02*
X126157141Y-94438855D01*
X126157141Y-94438855D02*
X126042855Y-94400760D01*
X126042855Y-94400760D02*
X125966665Y-94324569D01*
X125966665Y-94324569D02*
X125928570Y-94248379D01*
X125928570Y-94248379D02*
X125890474Y-94095998D01*
X125890474Y-94095998D02*
X125890474Y-93981712D01*
X125890474Y-93981712D02*
X125928570Y-93829331D01*
X125928570Y-93829331D02*
X125966665Y-93753140D01*
X125966665Y-93753140D02*
X126042855Y-93676950D01*
X126042855Y-93676950D02*
X126157141Y-93638855D01*
X126157141Y-93638855D02*
X126233332Y-93638855D01*
X126233332Y-93638855D02*
X126347617Y-93676950D01*
X126347617Y-93676950D02*
X126385713Y-93715045D01*
X126690474Y-93715045D02*
X126728570Y-93676950D01*
X126728570Y-93676950D02*
X126804760Y-93638855D01*
X126804760Y-93638855D02*
X126995236Y-93638855D01*
X126995236Y-93638855D02*
X127071427Y-93676950D01*
X127071427Y-93676950D02*
X127109522Y-93715045D01*
X127109522Y-93715045D02*
X127147617Y-93791236D01*
X127147617Y-93791236D02*
X127147617Y-93867426D01*
X127147617Y-93867426D02*
X127109522Y-93981712D01*
X127109522Y-93981712D02*
X126652379Y-94438855D01*
X126652379Y-94438855D02*
X127147617Y-94438855D01*
X127833332Y-93905521D02*
X127833332Y-94438855D01*
X127642856Y-93600760D02*
X127452379Y-94172188D01*
X127452379Y-94172188D02*
X127947618Y-94172188D01*
X145235714Y-93712664D02*
X145197618Y-93750760D01*
X145197618Y-93750760D02*
X145083333Y-93788855D01*
X145083333Y-93788855D02*
X145007142Y-93788855D01*
X145007142Y-93788855D02*
X144892856Y-93750760D01*
X144892856Y-93750760D02*
X144816666Y-93674569D01*
X144816666Y-93674569D02*
X144778571Y-93598379D01*
X144778571Y-93598379D02*
X144740475Y-93445998D01*
X144740475Y-93445998D02*
X144740475Y-93331712D01*
X144740475Y-93331712D02*
X144778571Y-93179331D01*
X144778571Y-93179331D02*
X144816666Y-93103140D01*
X144816666Y-93103140D02*
X144892856Y-93026950D01*
X144892856Y-93026950D02*
X145007142Y-92988855D01*
X145007142Y-92988855D02*
X145083333Y-92988855D01*
X145083333Y-92988855D02*
X145197618Y-93026950D01*
X145197618Y-93026950D02*
X145235714Y-93065045D01*
X145540475Y-93065045D02*
X145578571Y-93026950D01*
X145578571Y-93026950D02*
X145654761Y-92988855D01*
X145654761Y-92988855D02*
X145845237Y-92988855D01*
X145845237Y-92988855D02*
X145921428Y-93026950D01*
X145921428Y-93026950D02*
X145959523Y-93065045D01*
X145959523Y-93065045D02*
X145997618Y-93141236D01*
X145997618Y-93141236D02*
X145997618Y-93217426D01*
X145997618Y-93217426D02*
X145959523Y-93331712D01*
X145959523Y-93331712D02*
X145502380Y-93788855D01*
X145502380Y-93788855D02*
X145997618Y-93788855D01*
X146683333Y-92988855D02*
X146530952Y-92988855D01*
X146530952Y-92988855D02*
X146454761Y-93026950D01*
X146454761Y-93026950D02*
X146416666Y-93065045D01*
X146416666Y-93065045D02*
X146340476Y-93179331D01*
X146340476Y-93179331D02*
X146302380Y-93331712D01*
X146302380Y-93331712D02*
X146302380Y-93636474D01*
X146302380Y-93636474D02*
X146340476Y-93712664D01*
X146340476Y-93712664D02*
X146378571Y-93750760D01*
X146378571Y-93750760D02*
X146454761Y-93788855D01*
X146454761Y-93788855D02*
X146607142Y-93788855D01*
X146607142Y-93788855D02*
X146683333Y-93750760D01*
X146683333Y-93750760D02*
X146721428Y-93712664D01*
X146721428Y-93712664D02*
X146759523Y-93636474D01*
X146759523Y-93636474D02*
X146759523Y-93445998D01*
X146759523Y-93445998D02*
X146721428Y-93369807D01*
X146721428Y-93369807D02*
X146683333Y-93331712D01*
X146683333Y-93331712D02*
X146607142Y-93293617D01*
X146607142Y-93293617D02*
X146454761Y-93293617D01*
X146454761Y-93293617D02*
X146378571Y-93331712D01*
X146378571Y-93331712D02*
X146340476Y-93369807D01*
X146340476Y-93369807D02*
X146302380Y-93445998D01*
X141633333Y-99563855D02*
X141633333Y-100135283D01*
X141633333Y-100135283D02*
X141595238Y-100249569D01*
X141595238Y-100249569D02*
X141519047Y-100325760D01*
X141519047Y-100325760D02*
X141404762Y-100363855D01*
X141404762Y-100363855D02*
X141328571Y-100363855D01*
X142433333Y-100363855D02*
X141976190Y-100363855D01*
X142204762Y-100363855D02*
X142204762Y-99563855D01*
X142204762Y-99563855D02*
X142128571Y-99678140D01*
X142128571Y-99678140D02*
X142052381Y-99754331D01*
X142052381Y-99754331D02*
X141976190Y-99792426D01*
X140259524Y-109513855D02*
X140259524Y-110161474D01*
X140259524Y-110161474D02*
X140297619Y-110237664D01*
X140297619Y-110237664D02*
X140335714Y-110275760D01*
X140335714Y-110275760D02*
X140411905Y-110313855D01*
X140411905Y-110313855D02*
X140564286Y-110313855D01*
X140564286Y-110313855D02*
X140640476Y-110275760D01*
X140640476Y-110275760D02*
X140678571Y-110237664D01*
X140678571Y-110237664D02*
X140716667Y-110161474D01*
X140716667Y-110161474D02*
X140716667Y-109513855D01*
X141516666Y-110313855D02*
X141059523Y-110313855D01*
X141288095Y-110313855D02*
X141288095Y-109513855D01*
X141288095Y-109513855D02*
X141211904Y-109628140D01*
X141211904Y-109628140D02*
X141135714Y-109704331D01*
X141135714Y-109704331D02*
X141059523Y-109742426D01*
X142202381Y-109780521D02*
X142202381Y-110313855D01*
X142011905Y-109475760D02*
X141821428Y-110047188D01*
X141821428Y-110047188D02*
X142316667Y-110047188D01*
X130460713Y-109962664D02*
X130422617Y-110000760D01*
X130422617Y-110000760D02*
X130308332Y-110038855D01*
X130308332Y-110038855D02*
X130232141Y-110038855D01*
X130232141Y-110038855D02*
X130117855Y-110000760D01*
X130117855Y-110000760D02*
X130041665Y-109924569D01*
X130041665Y-109924569D02*
X130003570Y-109848379D01*
X130003570Y-109848379D02*
X129965474Y-109695998D01*
X129965474Y-109695998D02*
X129965474Y-109581712D01*
X129965474Y-109581712D02*
X130003570Y-109429331D01*
X130003570Y-109429331D02*
X130041665Y-109353140D01*
X130041665Y-109353140D02*
X130117855Y-109276950D01*
X130117855Y-109276950D02*
X130232141Y-109238855D01*
X130232141Y-109238855D02*
X130308332Y-109238855D01*
X130308332Y-109238855D02*
X130422617Y-109276950D01*
X130422617Y-109276950D02*
X130460713Y-109315045D01*
X131146427Y-109505521D02*
X131146427Y-110038855D01*
X130955951Y-109200760D02*
X130765474Y-109772188D01*
X130765474Y-109772188D02*
X131260713Y-109772188D01*
X131984522Y-110038855D02*
X131527379Y-110038855D01*
X131755951Y-110038855D02*
X131755951Y-109238855D01*
X131755951Y-109238855D02*
X131679760Y-109353140D01*
X131679760Y-109353140D02*
X131603570Y-109429331D01*
X131603570Y-109429331D02*
X131527379Y-109467426D01*
X121285714Y-106487663D02*
X121247618Y-106525759D01*
X121247618Y-106525759D02*
X121133333Y-106563854D01*
X121133333Y-106563854D02*
X121057142Y-106563854D01*
X121057142Y-106563854D02*
X120942856Y-106525759D01*
X120942856Y-106525759D02*
X120866666Y-106449568D01*
X120866666Y-106449568D02*
X120828571Y-106373378D01*
X120828571Y-106373378D02*
X120790475Y-106220997D01*
X120790475Y-106220997D02*
X120790475Y-106106711D01*
X120790475Y-106106711D02*
X120828571Y-105954330D01*
X120828571Y-105954330D02*
X120866666Y-105878139D01*
X120866666Y-105878139D02*
X120942856Y-105801949D01*
X120942856Y-105801949D02*
X121057142Y-105763854D01*
X121057142Y-105763854D02*
X121133333Y-105763854D01*
X121133333Y-105763854D02*
X121247618Y-105801949D01*
X121247618Y-105801949D02*
X121285714Y-105840044D01*
X121971428Y-105763854D02*
X121819047Y-105763854D01*
X121819047Y-105763854D02*
X121742856Y-105801949D01*
X121742856Y-105801949D02*
X121704761Y-105840044D01*
X121704761Y-105840044D02*
X121628571Y-105954330D01*
X121628571Y-105954330D02*
X121590475Y-106106711D01*
X121590475Y-106106711D02*
X121590475Y-106411473D01*
X121590475Y-106411473D02*
X121628571Y-106487663D01*
X121628571Y-106487663D02*
X121666666Y-106525759D01*
X121666666Y-106525759D02*
X121742856Y-106563854D01*
X121742856Y-106563854D02*
X121895237Y-106563854D01*
X121895237Y-106563854D02*
X121971428Y-106525759D01*
X121971428Y-106525759D02*
X122009523Y-106487663D01*
X122009523Y-106487663D02*
X122047618Y-106411473D01*
X122047618Y-106411473D02*
X122047618Y-106220997D01*
X122047618Y-106220997D02*
X122009523Y-106144806D01*
X122009523Y-106144806D02*
X121971428Y-106106711D01*
X121971428Y-106106711D02*
X121895237Y-106068616D01*
X121895237Y-106068616D02*
X121742856Y-106068616D01*
X121742856Y-106068616D02*
X121666666Y-106106711D01*
X121666666Y-106106711D02*
X121628571Y-106144806D01*
X121628571Y-106144806D02*
X121590475Y-106220997D01*
X122542857Y-105763854D02*
X122619047Y-105763854D01*
X122619047Y-105763854D02*
X122695238Y-105801949D01*
X122695238Y-105801949D02*
X122733333Y-105840044D01*
X122733333Y-105840044D02*
X122771428Y-105916235D01*
X122771428Y-105916235D02*
X122809523Y-106068616D01*
X122809523Y-106068616D02*
X122809523Y-106259092D01*
X122809523Y-106259092D02*
X122771428Y-106411473D01*
X122771428Y-106411473D02*
X122733333Y-106487663D01*
X122733333Y-106487663D02*
X122695238Y-106525759D01*
X122695238Y-106525759D02*
X122619047Y-106563854D01*
X122619047Y-106563854D02*
X122542857Y-106563854D01*
X122542857Y-106563854D02*
X122466666Y-106525759D01*
X122466666Y-106525759D02*
X122428571Y-106487663D01*
X122428571Y-106487663D02*
X122390476Y-106411473D01*
X122390476Y-106411473D02*
X122352380Y-106259092D01*
X122352380Y-106259092D02*
X122352380Y-106068616D01*
X122352380Y-106068616D02*
X122390476Y-105916235D01*
X122390476Y-105916235D02*
X122428571Y-105840044D01*
X122428571Y-105840044D02*
X122466666Y-105801949D01*
X122466666Y-105801949D02*
X122542857Y-105763854D01*
X118358333Y-99563855D02*
X118358333Y-100135283D01*
X118358333Y-100135283D02*
X118320238Y-100249569D01*
X118320238Y-100249569D02*
X118244047Y-100325760D01*
X118244047Y-100325760D02*
X118129762Y-100363855D01*
X118129762Y-100363855D02*
X118053571Y-100363855D01*
X118663095Y-99563855D02*
X119158333Y-99563855D01*
X119158333Y-99563855D02*
X118891667Y-99868617D01*
X118891667Y-99868617D02*
X119005952Y-99868617D01*
X119005952Y-99868617D02*
X119082143Y-99906712D01*
X119082143Y-99906712D02*
X119120238Y-99944807D01*
X119120238Y-99944807D02*
X119158333Y-100020998D01*
X119158333Y-100020998D02*
X119158333Y-100211474D01*
X119158333Y-100211474D02*
X119120238Y-100287664D01*
X119120238Y-100287664D02*
X119082143Y-100325760D01*
X119082143Y-100325760D02*
X119005952Y-100363855D01*
X119005952Y-100363855D02*
X118777381Y-100363855D01*
X118777381Y-100363855D02*
X118701190Y-100325760D01*
X118701190Y-100325760D02*
X118663095Y-100287664D01*
X113510713Y-96413855D02*
X113244046Y-96032902D01*
X113053570Y-96413855D02*
X113053570Y-95613855D01*
X113053570Y-95613855D02*
X113358332Y-95613855D01*
X113358332Y-95613855D02*
X113434522Y-95651950D01*
X113434522Y-95651950D02*
X113472617Y-95690045D01*
X113472617Y-95690045D02*
X113510713Y-95766236D01*
X113510713Y-95766236D02*
X113510713Y-95880521D01*
X113510713Y-95880521D02*
X113472617Y-95956712D01*
X113472617Y-95956712D02*
X113434522Y-95994807D01*
X113434522Y-95994807D02*
X113358332Y-96032902D01*
X113358332Y-96032902D02*
X113053570Y-96032902D01*
X114272617Y-96413855D02*
X113815474Y-96413855D01*
X114044046Y-96413855D02*
X114044046Y-95613855D01*
X114044046Y-95613855D02*
X113967855Y-95728140D01*
X113967855Y-95728140D02*
X113891665Y-95804331D01*
X113891665Y-95804331D02*
X113815474Y-95842426D01*
X114539284Y-95613855D02*
X115034522Y-95613855D01*
X115034522Y-95613855D02*
X114767856Y-95918617D01*
X114767856Y-95918617D02*
X114882141Y-95918617D01*
X114882141Y-95918617D02*
X114958332Y-95956712D01*
X114958332Y-95956712D02*
X114996427Y-95994807D01*
X114996427Y-95994807D02*
X115034522Y-96070998D01*
X115034522Y-96070998D02*
X115034522Y-96261474D01*
X115034522Y-96261474D02*
X114996427Y-96337664D01*
X114996427Y-96337664D02*
X114958332Y-96375760D01*
X114958332Y-96375760D02*
X114882141Y-96413855D01*
X114882141Y-96413855D02*
X114653570Y-96413855D01*
X114653570Y-96413855D02*
X114577379Y-96375760D01*
X114577379Y-96375760D02*
X114539284Y-96337664D01*
X129510714Y-90612664D02*
X129472618Y-90650760D01*
X129472618Y-90650760D02*
X129358333Y-90688855D01*
X129358333Y-90688855D02*
X129282142Y-90688855D01*
X129282142Y-90688855D02*
X129167856Y-90650760D01*
X129167856Y-90650760D02*
X129091666Y-90574569D01*
X129091666Y-90574569D02*
X129053571Y-90498379D01*
X129053571Y-90498379D02*
X129015475Y-90345998D01*
X129015475Y-90345998D02*
X129015475Y-90231712D01*
X129015475Y-90231712D02*
X129053571Y-90079331D01*
X129053571Y-90079331D02*
X129091666Y-90003140D01*
X129091666Y-90003140D02*
X129167856Y-89926950D01*
X129167856Y-89926950D02*
X129282142Y-89888855D01*
X129282142Y-89888855D02*
X129358333Y-89888855D01*
X129358333Y-89888855D02*
X129472618Y-89926950D01*
X129472618Y-89926950D02*
X129510714Y-89965045D01*
X130234523Y-89888855D02*
X129853571Y-89888855D01*
X129853571Y-89888855D02*
X129815475Y-90269807D01*
X129815475Y-90269807D02*
X129853571Y-90231712D01*
X129853571Y-90231712D02*
X129929761Y-90193617D01*
X129929761Y-90193617D02*
X130120237Y-90193617D01*
X130120237Y-90193617D02*
X130196428Y-90231712D01*
X130196428Y-90231712D02*
X130234523Y-90269807D01*
X130234523Y-90269807D02*
X130272618Y-90345998D01*
X130272618Y-90345998D02*
X130272618Y-90536474D01*
X130272618Y-90536474D02*
X130234523Y-90612664D01*
X130234523Y-90612664D02*
X130196428Y-90650760D01*
X130196428Y-90650760D02*
X130120237Y-90688855D01*
X130120237Y-90688855D02*
X129929761Y-90688855D01*
X129929761Y-90688855D02*
X129853571Y-90650760D01*
X129853571Y-90650760D02*
X129815475Y-90612664D01*
X131034523Y-90688855D02*
X130577380Y-90688855D01*
X130805952Y-90688855D02*
X130805952Y-89888855D01*
X130805952Y-89888855D02*
X130729761Y-90003140D01*
X130729761Y-90003140D02*
X130653571Y-90079331D01*
X130653571Y-90079331D02*
X130577380Y-90117426D01*
X141560714Y-108337664D02*
X141522618Y-108375760D01*
X141522618Y-108375760D02*
X141408333Y-108413855D01*
X141408333Y-108413855D02*
X141332142Y-108413855D01*
X141332142Y-108413855D02*
X141217856Y-108375760D01*
X141217856Y-108375760D02*
X141141666Y-108299569D01*
X141141666Y-108299569D02*
X141103571Y-108223379D01*
X141103571Y-108223379D02*
X141065475Y-108070998D01*
X141065475Y-108070998D02*
X141065475Y-107956712D01*
X141065475Y-107956712D02*
X141103571Y-107804331D01*
X141103571Y-107804331D02*
X141141666Y-107728140D01*
X141141666Y-107728140D02*
X141217856Y-107651950D01*
X141217856Y-107651950D02*
X141332142Y-107613855D01*
X141332142Y-107613855D02*
X141408333Y-107613855D01*
X141408333Y-107613855D02*
X141522618Y-107651950D01*
X141522618Y-107651950D02*
X141560714Y-107690045D01*
X141827380Y-107613855D02*
X142322618Y-107613855D01*
X142322618Y-107613855D02*
X142055952Y-107918617D01*
X142055952Y-107918617D02*
X142170237Y-107918617D01*
X142170237Y-107918617D02*
X142246428Y-107956712D01*
X142246428Y-107956712D02*
X142284523Y-107994807D01*
X142284523Y-107994807D02*
X142322618Y-108070998D01*
X142322618Y-108070998D02*
X142322618Y-108261474D01*
X142322618Y-108261474D02*
X142284523Y-108337664D01*
X142284523Y-108337664D02*
X142246428Y-108375760D01*
X142246428Y-108375760D02*
X142170237Y-108413855D01*
X142170237Y-108413855D02*
X141941666Y-108413855D01*
X141941666Y-108413855D02*
X141865475Y-108375760D01*
X141865475Y-108375760D02*
X141827380Y-108337664D01*
X143008333Y-107613855D02*
X142855952Y-107613855D01*
X142855952Y-107613855D02*
X142779761Y-107651950D01*
X142779761Y-107651950D02*
X142741666Y-107690045D01*
X142741666Y-107690045D02*
X142665476Y-107804331D01*
X142665476Y-107804331D02*
X142627380Y-107956712D01*
X142627380Y-107956712D02*
X142627380Y-108261474D01*
X142627380Y-108261474D02*
X142665476Y-108337664D01*
X142665476Y-108337664D02*
X142703571Y-108375760D01*
X142703571Y-108375760D02*
X142779761Y-108413855D01*
X142779761Y-108413855D02*
X142932142Y-108413855D01*
X142932142Y-108413855D02*
X143008333Y-108375760D01*
X143008333Y-108375760D02*
X143046428Y-108337664D01*
X143046428Y-108337664D02*
X143084523Y-108261474D01*
X143084523Y-108261474D02*
X143084523Y-108070998D01*
X143084523Y-108070998D02*
X143046428Y-107994807D01*
X143046428Y-107994807D02*
X143008333Y-107956712D01*
X143008333Y-107956712D02*
X142932142Y-107918617D01*
X142932142Y-107918617D02*
X142779761Y-107918617D01*
X142779761Y-107918617D02*
X142703571Y-107956712D01*
X142703571Y-107956712D02*
X142665476Y-107994807D01*
X142665476Y-107994807D02*
X142627380Y-108070998D01*
X112885714Y-91062663D02*
X112847618Y-91100759D01*
X112847618Y-91100759D02*
X112733333Y-91138854D01*
X112733333Y-91138854D02*
X112657142Y-91138854D01*
X112657142Y-91138854D02*
X112542856Y-91100759D01*
X112542856Y-91100759D02*
X112466666Y-91024568D01*
X112466666Y-91024568D02*
X112428571Y-90948378D01*
X112428571Y-90948378D02*
X112390475Y-90795997D01*
X112390475Y-90795997D02*
X112390475Y-90681711D01*
X112390475Y-90681711D02*
X112428571Y-90529330D01*
X112428571Y-90529330D02*
X112466666Y-90453139D01*
X112466666Y-90453139D02*
X112542856Y-90376949D01*
X112542856Y-90376949D02*
X112657142Y-90338854D01*
X112657142Y-90338854D02*
X112733333Y-90338854D01*
X112733333Y-90338854D02*
X112847618Y-90376949D01*
X112847618Y-90376949D02*
X112885714Y-90415044D01*
X113190475Y-90415044D02*
X113228571Y-90376949D01*
X113228571Y-90376949D02*
X113304761Y-90338854D01*
X113304761Y-90338854D02*
X113495237Y-90338854D01*
X113495237Y-90338854D02*
X113571428Y-90376949D01*
X113571428Y-90376949D02*
X113609523Y-90415044D01*
X113609523Y-90415044D02*
X113647618Y-90491235D01*
X113647618Y-90491235D02*
X113647618Y-90567425D01*
X113647618Y-90567425D02*
X113609523Y-90681711D01*
X113609523Y-90681711D02*
X113152380Y-91138854D01*
X113152380Y-91138854D02*
X113647618Y-91138854D01*
X114371428Y-90338854D02*
X113990476Y-90338854D01*
X113990476Y-90338854D02*
X113952380Y-90719806D01*
X113952380Y-90719806D02*
X113990476Y-90681711D01*
X113990476Y-90681711D02*
X114066666Y-90643616D01*
X114066666Y-90643616D02*
X114257142Y-90643616D01*
X114257142Y-90643616D02*
X114333333Y-90681711D01*
X114333333Y-90681711D02*
X114371428Y-90719806D01*
X114371428Y-90719806D02*
X114409523Y-90795997D01*
X114409523Y-90795997D02*
X114409523Y-90986473D01*
X114409523Y-90986473D02*
X114371428Y-91062663D01*
X114371428Y-91062663D02*
X114333333Y-91100759D01*
X114333333Y-91100759D02*
X114257142Y-91138854D01*
X114257142Y-91138854D02*
X114066666Y-91138854D01*
X114066666Y-91138854D02*
X113990476Y-91100759D01*
X113990476Y-91100759D02*
X113952380Y-91062663D01*
X113034524Y-102638855D02*
X113034524Y-103286474D01*
X113034524Y-103286474D02*
X113072619Y-103362664D01*
X113072619Y-103362664D02*
X113110714Y-103400760D01*
X113110714Y-103400760D02*
X113186905Y-103438855D01*
X113186905Y-103438855D02*
X113339286Y-103438855D01*
X113339286Y-103438855D02*
X113415476Y-103400760D01*
X113415476Y-103400760D02*
X113453571Y-103362664D01*
X113453571Y-103362664D02*
X113491667Y-103286474D01*
X113491667Y-103286474D02*
X113491667Y-102638855D01*
X114291666Y-103438855D02*
X113834523Y-103438855D01*
X114063095Y-103438855D02*
X114063095Y-102638855D01*
X114063095Y-102638855D02*
X113986904Y-102753140D01*
X113986904Y-102753140D02*
X113910714Y-102829331D01*
X113910714Y-102829331D02*
X113834523Y-102867426D01*
X115053571Y-103438855D02*
X114596428Y-103438855D01*
X114825000Y-103438855D02*
X114825000Y-102638855D01*
X114825000Y-102638855D02*
X114748809Y-102753140D01*
X114748809Y-102753140D02*
X114672619Y-102829331D01*
X114672619Y-102829331D02*
X114596428Y-102867426D01*
X110791667Y-94963855D02*
X110525000Y-94582902D01*
X110334524Y-94963855D02*
X110334524Y-94163855D01*
X110334524Y-94163855D02*
X110639286Y-94163855D01*
X110639286Y-94163855D02*
X110715476Y-94201950D01*
X110715476Y-94201950D02*
X110753571Y-94240045D01*
X110753571Y-94240045D02*
X110791667Y-94316236D01*
X110791667Y-94316236D02*
X110791667Y-94430521D01*
X110791667Y-94430521D02*
X110753571Y-94506712D01*
X110753571Y-94506712D02*
X110715476Y-94544807D01*
X110715476Y-94544807D02*
X110639286Y-94582902D01*
X110639286Y-94582902D02*
X110334524Y-94582902D01*
X111096428Y-94240045D02*
X111134524Y-94201950D01*
X111134524Y-94201950D02*
X111210714Y-94163855D01*
X111210714Y-94163855D02*
X111401190Y-94163855D01*
X111401190Y-94163855D02*
X111477381Y-94201950D01*
X111477381Y-94201950D02*
X111515476Y-94240045D01*
X111515476Y-94240045D02*
X111553571Y-94316236D01*
X111553571Y-94316236D02*
X111553571Y-94392426D01*
X111553571Y-94392426D02*
X111515476Y-94506712D01*
X111515476Y-94506712D02*
X111058333Y-94963855D01*
X111058333Y-94963855D02*
X111553571Y-94963855D01*
X127690476Y-99563855D02*
X127690476Y-100211474D01*
X127690476Y-100211474D02*
X127728571Y-100287664D01*
X127728571Y-100287664D02*
X127766666Y-100325760D01*
X127766666Y-100325760D02*
X127842857Y-100363855D01*
X127842857Y-100363855D02*
X127995238Y-100363855D01*
X127995238Y-100363855D02*
X128071428Y-100325760D01*
X128071428Y-100325760D02*
X128109523Y-100287664D01*
X128109523Y-100287664D02*
X128147619Y-100211474D01*
X128147619Y-100211474D02*
X128147619Y-99563855D01*
X128871428Y-99830521D02*
X128871428Y-100363855D01*
X128680952Y-99525760D02*
X128490475Y-100097188D01*
X128490475Y-100097188D02*
X128985714Y-100097188D01*
X121140476Y-89263855D02*
X121140476Y-89911474D01*
X121140476Y-89911474D02*
X121178571Y-89987664D01*
X121178571Y-89987664D02*
X121216666Y-90025760D01*
X121216666Y-90025760D02*
X121292857Y-90063855D01*
X121292857Y-90063855D02*
X121445238Y-90063855D01*
X121445238Y-90063855D02*
X121521428Y-90025760D01*
X121521428Y-90025760D02*
X121559523Y-89987664D01*
X121559523Y-89987664D02*
X121597619Y-89911474D01*
X121597619Y-89911474D02*
X121597619Y-89263855D01*
X122359523Y-89263855D02*
X121978571Y-89263855D01*
X121978571Y-89263855D02*
X121940475Y-89644807D01*
X121940475Y-89644807D02*
X121978571Y-89606712D01*
X121978571Y-89606712D02*
X122054761Y-89568617D01*
X122054761Y-89568617D02*
X122245237Y-89568617D01*
X122245237Y-89568617D02*
X122321428Y-89606712D01*
X122321428Y-89606712D02*
X122359523Y-89644807D01*
X122359523Y-89644807D02*
X122397618Y-89720998D01*
X122397618Y-89720998D02*
X122397618Y-89911474D01*
X122397618Y-89911474D02*
X122359523Y-89987664D01*
X122359523Y-89987664D02*
X122321428Y-90025760D01*
X122321428Y-90025760D02*
X122245237Y-90063855D01*
X122245237Y-90063855D02*
X122054761Y-90063855D01*
X122054761Y-90063855D02*
X121978571Y-90025760D01*
X121978571Y-90025760D02*
X121940475Y-89987664D01*
X121740476Y-107613855D02*
X121740476Y-108261474D01*
X121740476Y-108261474D02*
X121778571Y-108337664D01*
X121778571Y-108337664D02*
X121816666Y-108375760D01*
X121816666Y-108375760D02*
X121892857Y-108413855D01*
X121892857Y-108413855D02*
X122045238Y-108413855D01*
X122045238Y-108413855D02*
X122121428Y-108375760D01*
X122121428Y-108375760D02*
X122159523Y-108337664D01*
X122159523Y-108337664D02*
X122197619Y-108261474D01*
X122197619Y-108261474D02*
X122197619Y-107613855D01*
X122921428Y-107613855D02*
X122769047Y-107613855D01*
X122769047Y-107613855D02*
X122692856Y-107651950D01*
X122692856Y-107651950D02*
X122654761Y-107690045D01*
X122654761Y-107690045D02*
X122578571Y-107804331D01*
X122578571Y-107804331D02*
X122540475Y-107956712D01*
X122540475Y-107956712D02*
X122540475Y-108261474D01*
X122540475Y-108261474D02*
X122578571Y-108337664D01*
X122578571Y-108337664D02*
X122616666Y-108375760D01*
X122616666Y-108375760D02*
X122692856Y-108413855D01*
X122692856Y-108413855D02*
X122845237Y-108413855D01*
X122845237Y-108413855D02*
X122921428Y-108375760D01*
X122921428Y-108375760D02*
X122959523Y-108337664D01*
X122959523Y-108337664D02*
X122997618Y-108261474D01*
X122997618Y-108261474D02*
X122997618Y-108070998D01*
X122997618Y-108070998D02*
X122959523Y-107994807D01*
X122959523Y-107994807D02*
X122921428Y-107956712D01*
X122921428Y-107956712D02*
X122845237Y-107918617D01*
X122845237Y-107918617D02*
X122692856Y-107918617D01*
X122692856Y-107918617D02*
X122616666Y-107956712D01*
X122616666Y-107956712D02*
X122578571Y-107994807D01*
X122578571Y-107994807D02*
X122540475Y-108070998D01*
X107366667Y-106287664D02*
X107328571Y-106325760D01*
X107328571Y-106325760D02*
X107214286Y-106363855D01*
X107214286Y-106363855D02*
X107138095Y-106363855D01*
X107138095Y-106363855D02*
X107023809Y-106325760D01*
X107023809Y-106325760D02*
X106947619Y-106249569D01*
X106947619Y-106249569D02*
X106909524Y-106173379D01*
X106909524Y-106173379D02*
X106871428Y-106020998D01*
X106871428Y-106020998D02*
X106871428Y-105906712D01*
X106871428Y-105906712D02*
X106909524Y-105754331D01*
X106909524Y-105754331D02*
X106947619Y-105678140D01*
X106947619Y-105678140D02*
X107023809Y-105601950D01*
X107023809Y-105601950D02*
X107138095Y-105563855D01*
X107138095Y-105563855D02*
X107214286Y-105563855D01*
X107214286Y-105563855D02*
X107328571Y-105601950D01*
X107328571Y-105601950D02*
X107366667Y-105640045D01*
X107633333Y-105563855D02*
X108128571Y-105563855D01*
X108128571Y-105563855D02*
X107861905Y-105868617D01*
X107861905Y-105868617D02*
X107976190Y-105868617D01*
X107976190Y-105868617D02*
X108052381Y-105906712D01*
X108052381Y-105906712D02*
X108090476Y-105944807D01*
X108090476Y-105944807D02*
X108128571Y-106020998D01*
X108128571Y-106020998D02*
X108128571Y-106211474D01*
X108128571Y-106211474D02*
X108090476Y-106287664D01*
X108090476Y-106287664D02*
X108052381Y-106325760D01*
X108052381Y-106325760D02*
X107976190Y-106363855D01*
X107976190Y-106363855D02*
X107747619Y-106363855D01*
X107747619Y-106363855D02*
X107671428Y-106325760D01*
X107671428Y-106325760D02*
X107633333Y-106287664D01*
X128960714Y-108362664D02*
X128922618Y-108400760D01*
X128922618Y-108400760D02*
X128808333Y-108438855D01*
X128808333Y-108438855D02*
X128732142Y-108438855D01*
X128732142Y-108438855D02*
X128617856Y-108400760D01*
X128617856Y-108400760D02*
X128541666Y-108324569D01*
X128541666Y-108324569D02*
X128503571Y-108248379D01*
X128503571Y-108248379D02*
X128465475Y-108095998D01*
X128465475Y-108095998D02*
X128465475Y-107981712D01*
X128465475Y-107981712D02*
X128503571Y-107829331D01*
X128503571Y-107829331D02*
X128541666Y-107753140D01*
X128541666Y-107753140D02*
X128617856Y-107676950D01*
X128617856Y-107676950D02*
X128732142Y-107638855D01*
X128732142Y-107638855D02*
X128808333Y-107638855D01*
X128808333Y-107638855D02*
X128922618Y-107676950D01*
X128922618Y-107676950D02*
X128960714Y-107715045D01*
X129265475Y-107715045D02*
X129303571Y-107676950D01*
X129303571Y-107676950D02*
X129379761Y-107638855D01*
X129379761Y-107638855D02*
X129570237Y-107638855D01*
X129570237Y-107638855D02*
X129646428Y-107676950D01*
X129646428Y-107676950D02*
X129684523Y-107715045D01*
X129684523Y-107715045D02*
X129722618Y-107791236D01*
X129722618Y-107791236D02*
X129722618Y-107867426D01*
X129722618Y-107867426D02*
X129684523Y-107981712D01*
X129684523Y-107981712D02*
X129227380Y-108438855D01*
X129227380Y-108438855D02*
X129722618Y-108438855D01*
X129989285Y-107638855D02*
X130522619Y-107638855D01*
X130522619Y-107638855D02*
X130179761Y-108438855D01*
X103233333Y-99063855D02*
X103233333Y-99635283D01*
X103233333Y-99635283D02*
X103195238Y-99749569D01*
X103195238Y-99749569D02*
X103119047Y-99825760D01*
X103119047Y-99825760D02*
X103004762Y-99863855D01*
X103004762Y-99863855D02*
X102928571Y-99863855D01*
X103576190Y-99140045D02*
X103614286Y-99101950D01*
X103614286Y-99101950D02*
X103690476Y-99063855D01*
X103690476Y-99063855D02*
X103880952Y-99063855D01*
X103880952Y-99063855D02*
X103957143Y-99101950D01*
X103957143Y-99101950D02*
X103995238Y-99140045D01*
X103995238Y-99140045D02*
X104033333Y-99216236D01*
X104033333Y-99216236D02*
X104033333Y-99292426D01*
X104033333Y-99292426D02*
X103995238Y-99406712D01*
X103995238Y-99406712D02*
X103538095Y-99863855D01*
X103538095Y-99863855D02*
X104033333Y-99863855D01*
X121460714Y-110063855D02*
X121194047Y-109682902D01*
X121003571Y-110063855D02*
X121003571Y-109263855D01*
X121003571Y-109263855D02*
X121308333Y-109263855D01*
X121308333Y-109263855D02*
X121384523Y-109301950D01*
X121384523Y-109301950D02*
X121422618Y-109340045D01*
X121422618Y-109340045D02*
X121460714Y-109416236D01*
X121460714Y-109416236D02*
X121460714Y-109530521D01*
X121460714Y-109530521D02*
X121422618Y-109606712D01*
X121422618Y-109606712D02*
X121384523Y-109644807D01*
X121384523Y-109644807D02*
X121308333Y-109682902D01*
X121308333Y-109682902D02*
X121003571Y-109682902D01*
X122222618Y-110063855D02*
X121765475Y-110063855D01*
X121994047Y-110063855D02*
X121994047Y-109263855D01*
X121994047Y-109263855D02*
X121917856Y-109378140D01*
X121917856Y-109378140D02*
X121841666Y-109454331D01*
X121841666Y-109454331D02*
X121765475Y-109492426D01*
X122603571Y-110063855D02*
X122755952Y-110063855D01*
X122755952Y-110063855D02*
X122832142Y-110025760D01*
X122832142Y-110025760D02*
X122870238Y-109987664D01*
X122870238Y-109987664D02*
X122946428Y-109873379D01*
X122946428Y-109873379D02*
X122984523Y-109720998D01*
X122984523Y-109720998D02*
X122984523Y-109416236D01*
X122984523Y-109416236D02*
X122946428Y-109340045D01*
X122946428Y-109340045D02*
X122908333Y-109301950D01*
X122908333Y-109301950D02*
X122832142Y-109263855D01*
X122832142Y-109263855D02*
X122679761Y-109263855D01*
X122679761Y-109263855D02*
X122603571Y-109301950D01*
X122603571Y-109301950D02*
X122565476Y-109340045D01*
X122565476Y-109340045D02*
X122527380Y-109416236D01*
X122527380Y-109416236D02*
X122527380Y-109606712D01*
X122527380Y-109606712D02*
X122565476Y-109682902D01*
X122565476Y-109682902D02*
X122603571Y-109720998D01*
X122603571Y-109720998D02*
X122679761Y-109759093D01*
X122679761Y-109759093D02*
X122832142Y-109759093D01*
X122832142Y-109759093D02*
X122908333Y-109720998D01*
X122908333Y-109720998D02*
X122946428Y-109682902D01*
X122946428Y-109682902D02*
X122984523Y-109606712D01*
X113535714Y-94812664D02*
X113497618Y-94850760D01*
X113497618Y-94850760D02*
X113383333Y-94888855D01*
X113383333Y-94888855D02*
X113307142Y-94888855D01*
X113307142Y-94888855D02*
X113192856Y-94850760D01*
X113192856Y-94850760D02*
X113116666Y-94774569D01*
X113116666Y-94774569D02*
X113078571Y-94698379D01*
X113078571Y-94698379D02*
X113040475Y-94545998D01*
X113040475Y-94545998D02*
X113040475Y-94431712D01*
X113040475Y-94431712D02*
X113078571Y-94279331D01*
X113078571Y-94279331D02*
X113116666Y-94203140D01*
X113116666Y-94203140D02*
X113192856Y-94126950D01*
X113192856Y-94126950D02*
X113307142Y-94088855D01*
X113307142Y-94088855D02*
X113383333Y-94088855D01*
X113383333Y-94088855D02*
X113497618Y-94126950D01*
X113497618Y-94126950D02*
X113535714Y-94165045D01*
X113840475Y-94165045D02*
X113878571Y-94126950D01*
X113878571Y-94126950D02*
X113954761Y-94088855D01*
X113954761Y-94088855D02*
X114145237Y-94088855D01*
X114145237Y-94088855D02*
X114221428Y-94126950D01*
X114221428Y-94126950D02*
X114259523Y-94165045D01*
X114259523Y-94165045D02*
X114297618Y-94241236D01*
X114297618Y-94241236D02*
X114297618Y-94317426D01*
X114297618Y-94317426D02*
X114259523Y-94431712D01*
X114259523Y-94431712D02*
X113802380Y-94888855D01*
X113802380Y-94888855D02*
X114297618Y-94888855D01*
X114678571Y-94888855D02*
X114830952Y-94888855D01*
X114830952Y-94888855D02*
X114907142Y-94850760D01*
X114907142Y-94850760D02*
X114945238Y-94812664D01*
X114945238Y-94812664D02*
X115021428Y-94698379D01*
X115021428Y-94698379D02*
X115059523Y-94545998D01*
X115059523Y-94545998D02*
X115059523Y-94241236D01*
X115059523Y-94241236D02*
X115021428Y-94165045D01*
X115021428Y-94165045D02*
X114983333Y-94126950D01*
X114983333Y-94126950D02*
X114907142Y-94088855D01*
X114907142Y-94088855D02*
X114754761Y-94088855D01*
X114754761Y-94088855D02*
X114678571Y-94126950D01*
X114678571Y-94126950D02*
X114640476Y-94165045D01*
X114640476Y-94165045D02*
X114602380Y-94241236D01*
X114602380Y-94241236D02*
X114602380Y-94431712D01*
X114602380Y-94431712D02*
X114640476Y-94507902D01*
X114640476Y-94507902D02*
X114678571Y-94545998D01*
X114678571Y-94545998D02*
X114754761Y-94584093D01*
X114754761Y-94584093D02*
X114907142Y-94584093D01*
X114907142Y-94584093D02*
X114983333Y-94545998D01*
X114983333Y-94545998D02*
X115021428Y-94507902D01*
X115021428Y-94507902D02*
X115059523Y-94431712D01*
X141358332Y-95394807D02*
X141091666Y-95394807D01*
X141091666Y-95813855D02*
X141091666Y-95013855D01*
X141091666Y-95013855D02*
X141472618Y-95013855D01*
X142044046Y-95394807D02*
X142158332Y-95432902D01*
X142158332Y-95432902D02*
X142196427Y-95470998D01*
X142196427Y-95470998D02*
X142234523Y-95547188D01*
X142234523Y-95547188D02*
X142234523Y-95661474D01*
X142234523Y-95661474D02*
X142196427Y-95737664D01*
X142196427Y-95737664D02*
X142158332Y-95775760D01*
X142158332Y-95775760D02*
X142082142Y-95813855D01*
X142082142Y-95813855D02*
X141777380Y-95813855D01*
X141777380Y-95813855D02*
X141777380Y-95013855D01*
X141777380Y-95013855D02*
X142044046Y-95013855D01*
X142044046Y-95013855D02*
X142120237Y-95051950D01*
X142120237Y-95051950D02*
X142158332Y-95090045D01*
X142158332Y-95090045D02*
X142196427Y-95166236D01*
X142196427Y-95166236D02*
X142196427Y-95242426D01*
X142196427Y-95242426D02*
X142158332Y-95318617D01*
X142158332Y-95318617D02*
X142120237Y-95356712D01*
X142120237Y-95356712D02*
X142044046Y-95394807D01*
X142044046Y-95394807D02*
X141777380Y-95394807D01*
X142996427Y-95813855D02*
X142539284Y-95813855D01*
X142767856Y-95813855D02*
X142767856Y-95013855D01*
X142767856Y-95013855D02*
X142691665Y-95128140D01*
X142691665Y-95128140D02*
X142615475Y-95204331D01*
X142615475Y-95204331D02*
X142539284Y-95242426D01*
X103033333Y-92163855D02*
X103033333Y-92735283D01*
X103033333Y-92735283D02*
X102995238Y-92849569D01*
X102995238Y-92849569D02*
X102919047Y-92925760D01*
X102919047Y-92925760D02*
X102804762Y-92963855D01*
X102804762Y-92963855D02*
X102728571Y-92963855D01*
X103795238Y-92163855D02*
X103414286Y-92163855D01*
X103414286Y-92163855D02*
X103376190Y-92544807D01*
X103376190Y-92544807D02*
X103414286Y-92506712D01*
X103414286Y-92506712D02*
X103490476Y-92468617D01*
X103490476Y-92468617D02*
X103680952Y-92468617D01*
X103680952Y-92468617D02*
X103757143Y-92506712D01*
X103757143Y-92506712D02*
X103795238Y-92544807D01*
X103795238Y-92544807D02*
X103833333Y-92620998D01*
X103833333Y-92620998D02*
X103833333Y-92811474D01*
X103833333Y-92811474D02*
X103795238Y-92887664D01*
X103795238Y-92887664D02*
X103757143Y-92925760D01*
X103757143Y-92925760D02*
X103680952Y-92963855D01*
X103680952Y-92963855D02*
X103490476Y-92963855D01*
X103490476Y-92963855D02*
X103414286Y-92925760D01*
X103414286Y-92925760D02*
X103376190Y-92887664D01*
X131978571Y-104963855D02*
X131978571Y-104163855D01*
X131978571Y-104163855D02*
X132169047Y-104163855D01*
X132169047Y-104163855D02*
X132283333Y-104201950D01*
X132283333Y-104201950D02*
X132359523Y-104278140D01*
X132359523Y-104278140D02*
X132397618Y-104354331D01*
X132397618Y-104354331D02*
X132435714Y-104506712D01*
X132435714Y-104506712D02*
X132435714Y-104620998D01*
X132435714Y-104620998D02*
X132397618Y-104773379D01*
X132397618Y-104773379D02*
X132359523Y-104849569D01*
X132359523Y-104849569D02*
X132283333Y-104925760D01*
X132283333Y-104925760D02*
X132169047Y-104963855D01*
X132169047Y-104963855D02*
X131978571Y-104963855D01*
X132702380Y-104163855D02*
X133197618Y-104163855D01*
X133197618Y-104163855D02*
X132930952Y-104468617D01*
X132930952Y-104468617D02*
X133045237Y-104468617D01*
X133045237Y-104468617D02*
X133121428Y-104506712D01*
X133121428Y-104506712D02*
X133159523Y-104544807D01*
X133159523Y-104544807D02*
X133197618Y-104620998D01*
X133197618Y-104620998D02*
X133197618Y-104811474D01*
X133197618Y-104811474D02*
X133159523Y-104887664D01*
X133159523Y-104887664D02*
X133121428Y-104925760D01*
X133121428Y-104925760D02*
X133045237Y-104963855D01*
X133045237Y-104963855D02*
X132816666Y-104963855D01*
X132816666Y-104963855D02*
X132740475Y-104925760D01*
X132740475Y-104925760D02*
X132702380Y-104887664D01*
X133692857Y-104163855D02*
X133769047Y-104163855D01*
X133769047Y-104163855D02*
X133845238Y-104201950D01*
X133845238Y-104201950D02*
X133883333Y-104240045D01*
X133883333Y-104240045D02*
X133921428Y-104316236D01*
X133921428Y-104316236D02*
X133959523Y-104468617D01*
X133959523Y-104468617D02*
X133959523Y-104659093D01*
X133959523Y-104659093D02*
X133921428Y-104811474D01*
X133921428Y-104811474D02*
X133883333Y-104887664D01*
X133883333Y-104887664D02*
X133845238Y-104925760D01*
X133845238Y-104925760D02*
X133769047Y-104963855D01*
X133769047Y-104963855D02*
X133692857Y-104963855D01*
X133692857Y-104963855D02*
X133616666Y-104925760D01*
X133616666Y-104925760D02*
X133578571Y-104887664D01*
X133578571Y-104887664D02*
X133540476Y-104811474D01*
X133540476Y-104811474D02*
X133502380Y-104659093D01*
X133502380Y-104659093D02*
X133502380Y-104468617D01*
X133502380Y-104468617D02*
X133540476Y-104316236D01*
X133540476Y-104316236D02*
X133578571Y-104240045D01*
X133578571Y-104240045D02*
X133616666Y-104201950D01*
X133616666Y-104201950D02*
X133692857Y-104163855D01*
X129235714Y-92187664D02*
X129197618Y-92225760D01*
X129197618Y-92225760D02*
X129083333Y-92263855D01*
X129083333Y-92263855D02*
X129007142Y-92263855D01*
X129007142Y-92263855D02*
X128892856Y-92225760D01*
X128892856Y-92225760D02*
X128816666Y-92149569D01*
X128816666Y-92149569D02*
X128778571Y-92073379D01*
X128778571Y-92073379D02*
X128740475Y-91920998D01*
X128740475Y-91920998D02*
X128740475Y-91806712D01*
X128740475Y-91806712D02*
X128778571Y-91654331D01*
X128778571Y-91654331D02*
X128816666Y-91578140D01*
X128816666Y-91578140D02*
X128892856Y-91501950D01*
X128892856Y-91501950D02*
X129007142Y-91463855D01*
X129007142Y-91463855D02*
X129083333Y-91463855D01*
X129083333Y-91463855D02*
X129197618Y-91501950D01*
X129197618Y-91501950D02*
X129235714Y-91540045D01*
X129997618Y-92263855D02*
X129540475Y-92263855D01*
X129769047Y-92263855D02*
X129769047Y-91463855D01*
X129769047Y-91463855D02*
X129692856Y-91578140D01*
X129692856Y-91578140D02*
X129616666Y-91654331D01*
X129616666Y-91654331D02*
X129540475Y-91692426D01*
X130302380Y-91540045D02*
X130340476Y-91501950D01*
X130340476Y-91501950D02*
X130416666Y-91463855D01*
X130416666Y-91463855D02*
X130607142Y-91463855D01*
X130607142Y-91463855D02*
X130683333Y-91501950D01*
X130683333Y-91501950D02*
X130721428Y-91540045D01*
X130721428Y-91540045D02*
X130759523Y-91616236D01*
X130759523Y-91616236D02*
X130759523Y-91692426D01*
X130759523Y-91692426D02*
X130721428Y-91806712D01*
X130721428Y-91806712D02*
X130264285Y-92263855D01*
X130264285Y-92263855D02*
X130759523Y-92263855D01*
%TO.C,U3*%
X141800000Y-89315000D02*
X141000000Y-89315000D01*
X141800000Y-89315000D02*
X142600000Y-89315000D01*
X141800000Y-92435000D02*
X141000000Y-92435000D01*
X141800000Y-92435000D02*
X142600000Y-92435000D01*
X143100000Y-92385000D02*
X143340000Y-92715000D01*
X142860000Y-92715000D01*
X143100000Y-92385000D01*
G36*
X143340000Y-92715000D02*
G01*
X142860000Y-92715000D01*
X143100000Y-92385000D01*
X143340000Y-92715000D01*
G37*
%TO.C,C24*%
X123190000Y-92786252D02*
X123190000Y-91363748D01*
X125010000Y-92786252D02*
X125010000Y-91363748D01*
%TO.C,C26*%
X144842164Y-91465000D02*
X145057836Y-91465000D01*
X144842164Y-92185000D02*
X145057836Y-92185000D01*
%TO.C,J1*%
X139790000Y-93265000D02*
X139790000Y-95065000D01*
X139790000Y-104935000D02*
X138800000Y-104935000D01*
X139790000Y-106735000D02*
X139790000Y-104935000D01*
X141240000Y-93265000D02*
X139790000Y-93265000D01*
X141240000Y-106735000D02*
X139790000Y-106735000D01*
X144060000Y-105465000D02*
X144060000Y-94535000D01*
%TO.C,R18*%
X121271359Y-104245000D02*
X121578641Y-104245000D01*
X121271359Y-105005000D02*
X121578641Y-105005000D01*
%TO.C,U14*%
X138750000Y-108850000D02*
X136550000Y-108850000D01*
X138750000Y-111050000D02*
X136550000Y-111050000D01*
X135300000Y-109300000D02*
X135450000Y-109200000D01*
X135300000Y-109100000D01*
X135300000Y-109300000D01*
%TO.C,C41*%
X132715579Y-105565000D02*
X132434419Y-105565000D01*
X132715579Y-106585000D02*
X132434419Y-106585000D01*
%TO.C,C22*%
X119265580Y-89265000D02*
X118984420Y-89265000D01*
X119265580Y-90285000D02*
X118984420Y-90285000D01*
%TO.C,C60*%
X119292164Y-104240000D02*
X119507836Y-104240000D01*
X119292164Y-104960000D02*
X119507836Y-104960000D01*
%TO.C,R17*%
X115795000Y-109696359D02*
X115795000Y-110003641D01*
X116555000Y-109696359D02*
X116555000Y-110003641D01*
%TO.C,J3*%
X115940000Y-98060000D02*
X115940000Y-101940000D01*
X117910000Y-96890000D02*
X120410000Y-96890000D01*
X117910000Y-103110000D02*
X120410000Y-103110000D01*
X120410000Y-96890000D02*
X120410000Y-97940000D01*
X120410000Y-97940000D02*
X121400000Y-97940000D01*
X120410000Y-103110000D02*
X120410000Y-102060000D01*
%TO.C,R13*%
X116271359Y-94870000D02*
X116578641Y-94870000D01*
X116271359Y-95630000D02*
X116578641Y-95630000D01*
%TO.C,C51*%
X131765580Y-93415000D02*
X131484420Y-93415000D01*
X131765580Y-94435000D02*
X131484420Y-94435000D01*
%TO.C,R30*%
X128047936Y-107165000D02*
X132402064Y-107165000D01*
X128047936Y-110585000D02*
X132402064Y-110585000D01*
%TO.C,C36*%
X139567164Y-107690000D02*
X139782836Y-107690000D01*
X139567164Y-108410000D02*
X139782836Y-108410000D01*
%TO.C,C23*%
X113857836Y-107915000D02*
X113642164Y-107915000D01*
X113857836Y-108635000D02*
X113642164Y-108635000D01*
%TO.C,C28*%
X115857836Y-107915000D02*
X115642164Y-107915000D01*
X115857836Y-108635000D02*
X115642164Y-108635000D01*
%TO.C,C25*%
X115290000Y-91886252D02*
X115290000Y-90463748D01*
X117110000Y-91886252D02*
X117110000Y-90463748D01*
%TO.C,U11*%
X116325000Y-104255000D02*
X113325000Y-104255000D01*
X116325000Y-107495000D02*
X113325000Y-107495000D01*
X112825000Y-104425000D02*
X112585000Y-104095000D01*
X113065000Y-104095000D01*
X112825000Y-104425000D01*
G36*
X112825000Y-104425000D02*
G01*
X112585000Y-104095000D01*
X113065000Y-104095000D01*
X112825000Y-104425000D01*
G37*
%TO.C,R2*%
X110197936Y-91690000D02*
X111652064Y-91690000D01*
X110197936Y-93510000D02*
X111652064Y-93510000D01*
%TO.C,U4*%
X124690000Y-96390000D02*
X124690000Y-96840000D01*
X124690000Y-103610000D02*
X124690000Y-103160000D01*
X125140000Y-96390000D02*
X124690000Y-96390000D01*
X125140000Y-103610000D02*
X124690000Y-103610000D01*
X131460000Y-96390000D02*
X131910000Y-96390000D01*
X131460000Y-103610000D02*
X131910000Y-103610000D01*
X131910000Y-96390000D02*
X131910000Y-96840000D01*
X131910000Y-103610000D02*
X131910000Y-103160000D01*
X124100000Y-96840000D02*
X123760000Y-96370000D01*
X124440000Y-96370000D01*
X124100000Y-96840000D01*
G36*
X124100000Y-96840000D02*
G01*
X123760000Y-96370000D01*
X124440000Y-96370000D01*
X124100000Y-96840000D01*
G37*
%TO.C,R40*%
X127097936Y-89415000D02*
X131452064Y-89415000D01*
X127097936Y-92835000D02*
X131452064Y-92835000D01*
%TO.C,C13*%
X136311252Y-89540000D02*
X134888748Y-89540000D01*
X136311252Y-91360000D02*
X134888748Y-91360000D01*
%TO.C,R20*%
X114728641Y-109020000D02*
X114421359Y-109020000D01*
X114728641Y-109780000D02*
X114421359Y-109780000D01*
%TO.C,U5*%
X118040000Y-91665000D02*
X118040000Y-91430000D01*
X118040000Y-95410000D02*
X118040000Y-94935000D01*
X118515000Y-91190000D02*
X118340000Y-91190000D01*
X118515000Y-95410000D02*
X118040000Y-95410000D01*
X121785000Y-91190000D02*
X122260000Y-91190000D01*
X121785000Y-95410000D02*
X122260000Y-95410000D01*
X122260000Y-91190000D02*
X122260000Y-91665000D01*
X122260000Y-95410000D02*
X122260000Y-94935000D01*
X118040000Y-91190000D02*
X117800000Y-90860000D01*
X118280000Y-90860000D01*
X118040000Y-91190000D01*
G36*
X118040000Y-91190000D02*
G01*
X117800000Y-90860000D01*
X118280000Y-90860000D01*
X118040000Y-91190000D01*
G37*
%TO.C,U6*%
X122350000Y-105315000D02*
X120150000Y-105315000D01*
X122350000Y-105315000D02*
X124550000Y-105315000D01*
X122350000Y-110785000D02*
X120150000Y-110785000D01*
X122350000Y-110785000D02*
X124550000Y-110785000D01*
X126210000Y-110325000D02*
X126540000Y-110565000D01*
X126540000Y-110085000D01*
X126210000Y-110325000D01*
G36*
X126540000Y-110565000D02*
G01*
X126210000Y-110325000D01*
X126540000Y-110085000D01*
X126540000Y-110565000D01*
G37*
%TO.C,C3*%
X108661252Y-104290000D02*
X106338748Y-104290000D01*
X108661252Y-107710000D02*
X106338748Y-107710000D01*
%TO.C,C27*%
X127734420Y-105565000D02*
X128015580Y-105565000D01*
X127734420Y-106585000D02*
X128015580Y-106585000D01*
%TO.C,D51*%
X134540000Y-94025000D02*
X134540000Y-93375000D01*
X134540000Y-94025000D02*
X134540000Y-94675000D01*
X137660000Y-94025000D02*
X137660000Y-93375000D01*
X137660000Y-94025000D02*
X137660000Y-94675000D01*
X137610000Y-92862500D02*
X137940000Y-92622500D01*
X137940000Y-93102500D01*
X137610000Y-92862500D01*
G36*
X137940000Y-93102500D02*
G01*
X137610000Y-92862500D01*
X137940000Y-92622500D01*
X137940000Y-93102500D01*
G37*
%TO.C,J2*%
X107170000Y-100770000D02*
X107170000Y-101405000D01*
X107170000Y-101405000D02*
X106535000Y-101405000D01*
%TO.C,R19*%
X117052500Y-109537258D02*
X117052500Y-109062742D01*
X118097500Y-109537258D02*
X118097500Y-109062742D01*
%TO.C,C29*%
X116557836Y-93765000D02*
X116342164Y-93765000D01*
X116557836Y-94485000D02*
X116342164Y-94485000D01*
%TO.C,R15*%
X134345000Y-108996359D02*
X134345000Y-109303641D01*
X135105000Y-108996359D02*
X135105000Y-109303641D01*
%TO.C,D40*%
X134540000Y-99710000D02*
X134540000Y-99500000D01*
X134540000Y-99710000D02*
X135440000Y-99710000D01*
X135450000Y-96490000D02*
X134840000Y-96490000D01*
X136850000Y-96490000D02*
X137760000Y-96490000D01*
X136850000Y-99710000D02*
X137760000Y-99710000D01*
X137760000Y-96490000D02*
X137760000Y-96710000D01*
X137760000Y-99710000D02*
X137760000Y-99490000D01*
X134540000Y-96490000D02*
X134300000Y-96160000D01*
X134780000Y-96160000D01*
X134540000Y-96490000D01*
G36*
X134540000Y-96490000D02*
G01*
X134300000Y-96160000D01*
X134780000Y-96160000D01*
X134540000Y-96490000D01*
G37*
%TO.C,FB1*%
X138315000Y-91212779D02*
X138315000Y-90887221D01*
X139335000Y-91212779D02*
X139335000Y-90887221D01*
%TO.C,D30*%
X134540000Y-103810000D02*
X134540000Y-103600000D01*
X134540000Y-103810000D02*
X135440000Y-103810000D01*
X135450000Y-100590000D02*
X134840000Y-100590000D01*
X136850000Y-100590000D02*
X137760000Y-100590000D01*
X136850000Y-103810000D02*
X137760000Y-103810000D01*
X137760000Y-100590000D02*
X137760000Y-100810000D01*
X137760000Y-103810000D02*
X137760000Y-103590000D01*
X134540000Y-100590000D02*
X134300000Y-100260000D01*
X134780000Y-100260000D01*
X134540000Y-100590000D01*
G36*
X134540000Y-100590000D02*
G01*
X134300000Y-100260000D01*
X134780000Y-100260000D01*
X134540000Y-100590000D01*
G37*
%TO.C,D41*%
X136175000Y-104490000D02*
X135525000Y-104490000D01*
X136175000Y-104490000D02*
X136825000Y-104490000D01*
X136175000Y-107610000D02*
X135525000Y-107610000D01*
X136175000Y-107610000D02*
X136825000Y-107610000D01*
X137337500Y-107560000D02*
X137577500Y-107890000D01*
X137097500Y-107890000D01*
X137337500Y-107560000D01*
G36*
X137577500Y-107890000D02*
G01*
X137097500Y-107890000D01*
X137337500Y-107560000D01*
X137577500Y-107890000D01*
G37*
%TO.C,C12*%
X133390000Y-92592164D02*
X133390000Y-92807836D01*
X134110000Y-92592164D02*
X134110000Y-92807836D01*
%TD*%
%LPC*%
D11*
%TO.C,U3*%
X142937500Y-91825000D03*
X142937500Y-90875000D03*
X142937500Y-89925000D03*
X140662500Y-89925000D03*
X140662500Y-91825000D03*
%TD*%
D12*
%TO.C,C24*%
X124100000Y-93550000D03*
X124100000Y-90600000D03*
%TD*%
D13*
%TO.C,C26*%
X144470000Y-91825000D03*
X145430000Y-91825000D03*
%TD*%
D14*
%TO.C,J1*%
X139650000Y-104375000D03*
X139650000Y-103125000D03*
X139650000Y-101875000D03*
X139650000Y-100625000D03*
X139650000Y-99375000D03*
X139650000Y-98125000D03*
X139650000Y-96875000D03*
X139650000Y-95625000D03*
D15*
X142850000Y-106225000D03*
X142850000Y-93775000D03*
%TD*%
D16*
%TO.C,R18*%
X120915000Y-104625000D03*
X121935000Y-104625000D03*
%TD*%
D17*
%TO.C,U14*%
X136100000Y-109200000D03*
X136100000Y-109700000D03*
X136100000Y-110200000D03*
X136100000Y-110700000D03*
X139200000Y-110700000D03*
X139200000Y-110200000D03*
X139200000Y-109700000D03*
X139200000Y-109200000D03*
%TD*%
D18*
%TO.C,C41*%
X133349999Y-106075000D03*
X131799999Y-106075000D03*
%TD*%
%TO.C,C22*%
X119900000Y-89775000D03*
X118350000Y-89775000D03*
%TD*%
D13*
%TO.C,C60*%
X118920000Y-104600000D03*
X119880000Y-104600000D03*
%TD*%
D19*
%TO.C,R17*%
X116175000Y-109340000D03*
X116175000Y-110360000D03*
%TD*%
D20*
%TO.C,J3*%
X120625000Y-98500000D03*
X120625000Y-99500000D03*
X120625000Y-100500000D03*
X120625000Y-101500000D03*
D21*
X116750000Y-97200000D03*
X116750000Y-102800000D03*
%TD*%
D16*
%TO.C,R13*%
X115915000Y-95250000D03*
X116935000Y-95250000D03*
%TD*%
D18*
%TO.C,C51*%
X132400000Y-93925000D03*
X130850000Y-93925000D03*
%TD*%
D22*
%TO.C,R30*%
X127262500Y-108875000D03*
X133187500Y-108875000D03*
%TD*%
D13*
%TO.C,C36*%
X139195000Y-108050000D03*
X140155000Y-108050000D03*
%TD*%
D23*
%TO.C,C23*%
X114230000Y-108275000D03*
X113270000Y-108275000D03*
%TD*%
%TO.C,C28*%
X116230000Y-108275000D03*
X115270000Y-108275000D03*
%TD*%
D12*
%TO.C,C25*%
X116200000Y-92650000D03*
X116200000Y-89700000D03*
%TD*%
D24*
%TO.C,U11*%
X112625000Y-104900000D03*
X112625000Y-105550000D03*
X112625000Y-106200000D03*
X112625000Y-106850000D03*
X117025000Y-106850000D03*
X117025000Y-106200000D03*
X117025000Y-105550000D03*
X117025000Y-104900000D03*
%TD*%
D25*
%TO.C,R2*%
X109462500Y-92600000D03*
X112387500Y-92600000D03*
%TD*%
D26*
%TO.C,U4*%
X124137500Y-97250000D03*
X124137500Y-97750000D03*
X124137500Y-98250000D03*
X124137500Y-98750000D03*
X124137500Y-99250000D03*
X124137500Y-99750000D03*
X124137500Y-100250000D03*
X124137500Y-100750000D03*
X124137500Y-101250000D03*
X124137500Y-101750000D03*
X124137500Y-102250000D03*
X124137500Y-102750000D03*
D27*
X125550000Y-104162500D03*
X126050000Y-104162500D03*
X126550000Y-104162500D03*
X127050000Y-104162500D03*
X127550000Y-104162500D03*
X128050000Y-104162500D03*
X128550000Y-104162500D03*
X129050000Y-104162500D03*
X129550000Y-104162500D03*
X130050000Y-104162500D03*
X130550000Y-104162500D03*
X131050000Y-104162500D03*
D26*
X132462500Y-102750000D03*
X132462500Y-102250000D03*
X132462500Y-101750000D03*
X132462500Y-101250000D03*
X132462500Y-100750000D03*
X132462500Y-100250000D03*
X132462500Y-99750000D03*
X132462500Y-99250000D03*
X132462500Y-98750000D03*
X132462500Y-98250000D03*
X132462500Y-97750000D03*
X132462500Y-97250000D03*
D27*
X131050000Y-95837500D03*
X130550000Y-95837500D03*
X130050000Y-95837500D03*
X129550000Y-95837500D03*
X129050000Y-95837500D03*
X128550000Y-95837500D03*
X128050000Y-95837500D03*
X127550000Y-95837500D03*
X127050000Y-95837500D03*
X126550000Y-95837500D03*
X126050000Y-95837500D03*
X125550000Y-95837500D03*
%TD*%
D22*
%TO.C,R40*%
X126312500Y-91125000D03*
X132237500Y-91125000D03*
%TD*%
D28*
%TO.C,C13*%
X137075000Y-90450000D03*
X134125000Y-90450000D03*
%TD*%
D29*
%TO.C,R20*%
X115085000Y-109400000D03*
X114065000Y-109400000D03*
%TD*%
D30*
%TO.C,U5*%
X118212500Y-92050000D03*
X118212500Y-92550000D03*
X118212500Y-93050000D03*
X118212500Y-93550000D03*
X118212500Y-94050000D03*
X118212500Y-94550000D03*
D31*
X118900000Y-95237500D03*
X119400000Y-95237500D03*
X119900000Y-95237500D03*
X120400000Y-95237500D03*
X120900000Y-95237500D03*
X121400000Y-95237500D03*
D30*
X122087500Y-94550000D03*
X122087500Y-94050000D03*
X122087500Y-93550000D03*
X122087500Y-93050000D03*
X122087500Y-92550000D03*
X122087500Y-92050000D03*
D31*
X121400000Y-91362500D03*
X120900000Y-91362500D03*
X120400000Y-91362500D03*
X119900000Y-91362500D03*
X119400000Y-91362500D03*
X118900000Y-91362500D03*
D32*
X120150000Y-93300000D03*
%TD*%
D33*
%TO.C,U6*%
X125212500Y-110325000D03*
X125212500Y-109675000D03*
X125212500Y-109025000D03*
X125212500Y-108375000D03*
X125212500Y-107725000D03*
X125212500Y-107075000D03*
X125212500Y-106425000D03*
X125212500Y-105775000D03*
X119487500Y-105775000D03*
X119487500Y-106425000D03*
X119487500Y-107075000D03*
X119487500Y-107725000D03*
X119487500Y-108375000D03*
X119487500Y-109025000D03*
X119487500Y-109675000D03*
X119487500Y-110325000D03*
%TD*%
D34*
%TO.C,C3*%
X109550000Y-106000000D03*
X105450000Y-106000000D03*
%TD*%
D35*
%TO.C,C27*%
X127100000Y-106075000D03*
X128650000Y-106075000D03*
%TD*%
D36*
%TO.C,D51*%
X137050000Y-93087500D03*
X135150000Y-93087500D03*
X136100000Y-94962500D03*
%TD*%
D37*
%TO.C,J2*%
X105900000Y-102040000D03*
X104884000Y-96960000D03*
X106916000Y-96960000D03*
D38*
X106535000Y-100770000D03*
X105265000Y-100770000D03*
X106535000Y-99500000D03*
X105265000Y-99500000D03*
X106535000Y-98230000D03*
X105265000Y-98230000D03*
%TD*%
D39*
%TO.C,R19*%
X117575000Y-110125000D03*
X117575000Y-108475000D03*
%TD*%
D23*
%TO.C,C29*%
X116930000Y-94125000D03*
X115970000Y-94125000D03*
%TD*%
D19*
%TO.C,R15*%
X134725000Y-108640000D03*
X134725000Y-109660000D03*
%TD*%
D40*
%TO.C,D40*%
X134750000Y-97125000D03*
X134750000Y-97775000D03*
X134750000Y-98425000D03*
X134750000Y-99075000D03*
X137550000Y-99075000D03*
X137550000Y-98425000D03*
X137550000Y-97775000D03*
X137550000Y-97125000D03*
D41*
X135825000Y-96912500D03*
X135825000Y-99287500D03*
D42*
X136150000Y-98100000D03*
D41*
X136475000Y-96912500D03*
X136475000Y-99287500D03*
%TD*%
D43*
%TO.C,FB1*%
X138825000Y-91837500D03*
X138825000Y-90262500D03*
%TD*%
D44*
%TO.C,J5*%
X105300000Y-92600000D03*
%TD*%
D40*
%TO.C,D30*%
X134750000Y-101225000D03*
X134750000Y-101875000D03*
X134750000Y-102525000D03*
X134750000Y-103175000D03*
X137550000Y-103175000D03*
X137550000Y-102525000D03*
X137550000Y-101875000D03*
X137550000Y-101225000D03*
D41*
X135825000Y-101012500D03*
X135825000Y-103387500D03*
D42*
X136150000Y-102200000D03*
D41*
X136475000Y-101012500D03*
X136475000Y-103387500D03*
%TD*%
D45*
%TO.C,D41*%
X137112500Y-107000000D03*
X137112500Y-105100000D03*
X135237500Y-106050000D03*
%TD*%
D46*
%TO.C,C12*%
X133750000Y-92220000D03*
X133750000Y-93180000D03*
%TD*%
%LPD*%
M02*
