%TF.GenerationSoftware,KiCad,Pcbnew,10.0.6*%
%TF.CreationDate,2026-10-03T06:07:59+09:00*%
%TF.ProjectId,HMT500(ED260313A),484d5435-3030-4284-9544-323630333133,A5-R3*%
%TF.SameCoordinates,Original*%
%TF.FileFunction,Legend,Bot*%
%TF.FilePolarity,Positive*%
%FSLAX46Y46*%
G04 Gerber Fmt 4.6, Leading zero omitted, Abs format (unit mm)*
G04 Created by KiCad (PCBNEW 10.0.6) date 2026-10-03 06:07:59*
%MOMM*%
%LPD*%
G01*
G04 APERTURE LIST*
G04 Aperture macros list*
%AMRoundRect*
0 Rectangle with rounded corners*
0 $1 Rounding radius*
0 $2 $3 $4 $5 $6 $7 $8 $9 X,Y pos of 4 corners*
0 Add a 4 corners polygon primitive as box body*
4,1,4,$2,$3,$4,$5,$6,$7,$8,$9,$2,$3,0*
0 Add four circle primitives for the rounded corners*
1,1,$1+$1,$2,$3*
1,1,$1+$1,$4,$5*
1,1,$1+$1,$6,$7*
1,1,$1+$1,$8,$9*
0 Add four rect primitives between the rounded corners*
20,1,$1+$1,$2,$3,$4,$5,0*
20,1,$1+$1,$4,$5,$6,$7,0*
20,1,$1+$1,$6,$7,$8,$9,0*
20,1,$1+$1,$8,$9,$2,$3,0*%
G04 Aperture macros list end*
%ADD10C,0.100000*%
%ADD11C,0.120000*%
%ADD12C,0.990600*%
%ADD13C,1.600000*%
%ADD14RoundRect,0.250000X-0.325000X-1.100000X0.325000X-1.100000X0.325000X1.100000X-0.325000X1.100000X0*%
%ADD15RoundRect,0.100000X0.100000X-0.675000X0.100000X0.675000X-0.100000X0.675000X-0.100000X-0.675000X0*%
%ADD16R,5.000000X3.200000*%
%ADD17RoundRect,0.250000X-0.325000X-0.650000X0.325000X-0.650000X0.325000X0.650000X-0.325000X0.650000X0*%
%ADD18RoundRect,0.119600X-0.105400X0.250400X-0.105400X-0.250400X0.105400X-0.250400X0.105400X0.250400X0*%
%ADD19RoundRect,0.120600X-0.461900X0.064400X-0.461900X-0.064400X0.461900X-0.064400X0.461900X0.064400X0*%
%ADD20RoundRect,0.121000X-0.824000X0.699000X-0.824000X-0.699000X0.824000X-0.699000X0.824000X0.699000X0*%
%ADD21RoundRect,0.135000X0.135000X0.185000X-0.135000X0.185000X-0.135000X-0.185000X0.135000X-0.185000X0*%
%ADD22RoundRect,0.150000X-0.150000X0.512500X-0.150000X-0.512500X0.150000X-0.512500X0.150000X0.512500X0*%
%ADD23RoundRect,0.150000X-0.512500X-0.150000X0.512500X-0.150000X0.512500X0.150000X-0.512500X0.150000X0*%
%ADD24R,3.300000X0.950000*%
%ADD25RoundRect,0.200000X0.275000X-0.200000X0.275000X0.200000X-0.275000X0.200000X-0.275000X-0.200000X0*%
%ADD26RoundRect,0.225000X0.250000X-0.225000X0.250000X0.225000X-0.250000X0.225000X-0.250000X-0.225000X0*%
%ADD27R,0.950000X3.300000*%
%ADD28RoundRect,0.135000X-0.135000X-0.185000X0.135000X-0.185000X0.135000X0.185000X-0.135000X0.185000X0*%
%ADD29RoundRect,0.200000X-0.275000X0.200000X-0.275000X-0.200000X0.275000X-0.200000X0.275000X0.200000X0*%
%ADD30RoundRect,0.140000X0.140000X0.170000X-0.140000X0.170000X-0.140000X-0.170000X0.140000X-0.170000X0*%
%ADD31RoundRect,0.250000X0.475000X-0.250000X0.475000X0.250000X-0.475000X0.250000X-0.475000X-0.250000X0*%
%ADD32RoundRect,0.250000X0.250000X0.475000X-0.250000X0.475000X-0.250000X-0.475000X0.250000X-0.475000X0*%
%ADD33RoundRect,0.135000X-0.185000X0.135000X-0.185000X-0.135000X0.185000X-0.135000X0.185000X0.135000X0*%
%ADD34R,2.460000X2.310000*%
%ADD35RoundRect,0.100000X-0.687500X-0.100000X0.687500X-0.100000X0.687500X0.100000X-0.687500X0.100000X0*%
%ADD36RoundRect,0.225000X0.225000X0.250000X-0.225000X0.250000X-0.225000X-0.250000X0.225000X-0.250000X0*%
%ADD37RoundRect,0.140000X-0.170000X0.140000X-0.170000X-0.140000X0.170000X-0.140000X0.170000X0.140000X0*%
%ADD38RoundRect,0.200000X-0.200000X-0.275000X0.200000X-0.275000X0.200000X0.275000X-0.200000X0.275000X0*%
%ADD39RoundRect,0.125000X0.537500X0.125000X-0.537500X0.125000X-0.537500X-0.125000X0.537500X-0.125000X0*%
%ADD40RoundRect,0.135000X0.185000X-0.135000X0.185000X0.135000X-0.185000X0.135000X-0.185000X-0.135000X0*%
%ADD41RoundRect,0.125000X-0.537500X-0.125000X0.537500X-0.125000X0.537500X0.125000X-0.537500X0.125000X0*%
%ADD42RoundRect,0.200000X0.200000X0.275000X-0.200000X0.275000X-0.200000X-0.275000X0.200000X-0.275000X0*%
%ADD43RoundRect,0.250000X-1.425000X0.362500X-1.425000X-0.362500X1.425000X-0.362500X1.425000X0.362500X0*%
%ADD44RoundRect,0.225000X-0.250000X0.225000X-0.250000X-0.225000X0.250000X-0.225000X0.250000X0.225000X0*%
%ADD45RoundRect,0.140000X-0.140000X-0.170000X0.140000X-0.170000X0.140000X0.170000X-0.140000X0.170000X0*%
%ADD46R,1.300000X5.600000*%
%ADD47RoundRect,0.250000X0.300000X-0.300000X0.300000X0.300000X-0.300000X0.300000X-0.300000X-0.300000X0*%
%ADD48RoundRect,0.250000X-0.250000X-0.475000X0.250000X-0.475000X0.250000X0.475000X-0.250000X0.475000X0*%
%ADD49RoundRect,0.250000X-1.000000X1.400000X-1.000000X-1.400000X1.000000X-1.400000X1.000000X1.400000X0*%
%ADD50R,1.200000X2.000000*%
%ADD51RoundRect,0.140000X0.170000X-0.140000X0.170000X0.140000X-0.170000X0.140000X-0.170000X-0.140000X0*%
%ADD52RoundRect,0.250000X0.650000X-0.325000X0.650000X0.325000X-0.650000X0.325000X-0.650000X-0.325000X0*%
%ADD53RoundRect,0.100000X-0.100000X0.675000X-0.100000X-0.675000X0.100000X-0.675000X0.100000X0.675000X0*%
%ADD54RoundRect,0.119600X-0.250400X-0.105400X0.250400X-0.105400X0.250400X0.105400X-0.250400X0.105400X0*%
%ADD55RoundRect,0.120600X-0.064400X-0.461900X0.064400X-0.461900X0.064400X0.461900X-0.064400X0.461900X0*%
%ADD56RoundRect,0.121000X-0.699000X-0.824000X0.699000X-0.824000X0.699000X0.824000X-0.699000X0.824000X0*%
%ADD57RoundRect,0.250000X0.325000X0.650000X-0.325000X0.650000X-0.325000X-0.650000X0.325000X-0.650000X0*%
%ADD58RoundRect,0.150000X0.150000X-0.512500X0.150000X0.512500X-0.150000X0.512500X-0.150000X-0.512500X0*%
%ADD59RoundRect,0.250000X-0.475000X0.250000X-0.475000X-0.250000X0.475000X-0.250000X0.475000X0.250000X0*%
G04 APERTURE END LIST*
D10*
X108094405Y-95583500D02*
X108094405Y-95950000D01*
X108094405Y-95950000D02*
X110222500Y-95950000D01*
X121484005Y-99208499D02*
X121399999Y-99075000D01*
X125670000Y-96115000D02*
X125670000Y-96315000D01*
X125711000Y-101266190D02*
X125711000Y-101950000D01*
X125711000Y-101950000D02*
X123927500Y-101950000D01*
X126300000Y-93084333D02*
X126900000Y-92750000D01*
X126440000Y-99415000D02*
X125140000Y-99415000D01*
X126784026Y-101809999D02*
X126710000Y-101910000D01*
X132952582Y-108915000D02*
X133059999Y-109115000D01*
X133399999Y-103160000D02*
X133399999Y-103360000D01*
X134190000Y-100150000D02*
X134190000Y-98050000D01*
X134840000Y-101630000D02*
X134840000Y-100230000D01*
X138340000Y-110720000D02*
X138540000Y-110720000D01*
X148665000Y-108999878D02*
X148865000Y-108855000D01*
X150656500Y-106690000D02*
X148990000Y-106690000D01*
X150656500Y-106807618D02*
X150656500Y-106690000D01*
X121066666Y-103156728D02*
X121085714Y-103185300D01*
X121085714Y-103185300D02*
X121142856Y-103213871D01*
X121142856Y-103213871D02*
X121180952Y-103213871D01*
X121180952Y-103213871D02*
X121238095Y-103185300D01*
X121238095Y-103185300D02*
X121276190Y-103128157D01*
X121276190Y-103128157D02*
X121295237Y-103071014D01*
X121295237Y-103071014D02*
X121314285Y-102956728D01*
X121314285Y-102956728D02*
X121314285Y-102871014D01*
X121314285Y-102871014D02*
X121295237Y-102756728D01*
X121295237Y-102756728D02*
X121276190Y-102699585D01*
X121276190Y-102699585D02*
X121238095Y-102642442D01*
X121238095Y-102642442D02*
X121180952Y-102613871D01*
X121180952Y-102613871D02*
X121142856Y-102613871D01*
X121142856Y-102613871D02*
X121085714Y-102642442D01*
X121085714Y-102642442D02*
X121066666Y-102671014D01*
X120914285Y-102671014D02*
X120895237Y-102642442D01*
X120895237Y-102642442D02*
X120857142Y-102613871D01*
X120857142Y-102613871D02*
X120761904Y-102613871D01*
X120761904Y-102613871D02*
X120723809Y-102642442D01*
X120723809Y-102642442D02*
X120704761Y-102671014D01*
X120704761Y-102671014D02*
X120685714Y-102728157D01*
X120685714Y-102728157D02*
X120685714Y-102785300D01*
X120685714Y-102785300D02*
X120704761Y-102871014D01*
X120704761Y-102871014D02*
X120933333Y-103213871D01*
X120933333Y-103213871D02*
X120685714Y-103213871D01*
X123350951Y-108514895D02*
X123350951Y-109162514D01*
X123350951Y-109162514D02*
X123327141Y-109238704D01*
X123327141Y-109238704D02*
X123303332Y-109276800D01*
X123303332Y-109276800D02*
X123255713Y-109314895D01*
X123255713Y-109314895D02*
X123160475Y-109314895D01*
X123160475Y-109314895D02*
X123112856Y-109276800D01*
X123112856Y-109276800D02*
X123089046Y-109238704D01*
X123089046Y-109238704D02*
X123065237Y-109162514D01*
X123065237Y-109162514D02*
X123065237Y-108514895D01*
X122874760Y-108514895D02*
X122541427Y-108514895D01*
X122541427Y-108514895D02*
X122755712Y-109314895D01*
X121907142Y-99990227D02*
X121926190Y-100018799D01*
X121926190Y-100018799D02*
X121983332Y-100047370D01*
X121983332Y-100047370D02*
X122021428Y-100047370D01*
X122021428Y-100047370D02*
X122078571Y-100018799D01*
X122078571Y-100018799D02*
X122116666Y-99961656D01*
X122116666Y-99961656D02*
X122135713Y-99904513D01*
X122135713Y-99904513D02*
X122154761Y-99790227D01*
X122154761Y-99790227D02*
X122154761Y-99704513D01*
X122154761Y-99704513D02*
X122135713Y-99590227D01*
X122135713Y-99590227D02*
X122116666Y-99533084D01*
X122116666Y-99533084D02*
X122078571Y-99475941D01*
X122078571Y-99475941D02*
X122021428Y-99447370D01*
X122021428Y-99447370D02*
X121983332Y-99447370D01*
X121983332Y-99447370D02*
X121926190Y-99475941D01*
X121926190Y-99475941D02*
X121907142Y-99504513D01*
X121545237Y-99447370D02*
X121735713Y-99447370D01*
X121735713Y-99447370D02*
X121754761Y-99733084D01*
X121754761Y-99733084D02*
X121735713Y-99704513D01*
X121735713Y-99704513D02*
X121697618Y-99675941D01*
X121697618Y-99675941D02*
X121602380Y-99675941D01*
X121602380Y-99675941D02*
X121564285Y-99704513D01*
X121564285Y-99704513D02*
X121545237Y-99733084D01*
X121545237Y-99733084D02*
X121526190Y-99790227D01*
X121526190Y-99790227D02*
X121526190Y-99933084D01*
X121526190Y-99933084D02*
X121545237Y-99990227D01*
X121545237Y-99990227D02*
X121564285Y-100018799D01*
X121564285Y-100018799D02*
X121602380Y-100047370D01*
X121602380Y-100047370D02*
X121697618Y-100047370D01*
X121697618Y-100047370D02*
X121735713Y-100018799D01*
X121735713Y-100018799D02*
X121754761Y-99990227D01*
X152364895Y-106859047D02*
X151564895Y-106859047D01*
X151564895Y-106859047D02*
X151564895Y-106978095D01*
X151564895Y-106978095D02*
X151602990Y-107049523D01*
X151602990Y-107049523D02*
X151679180Y-107097142D01*
X151679180Y-107097142D02*
X151755371Y-107120952D01*
X151755371Y-107120952D02*
X151907752Y-107144761D01*
X151907752Y-107144761D02*
X152022038Y-107144761D01*
X152022038Y-107144761D02*
X152174419Y-107120952D01*
X152174419Y-107120952D02*
X152250609Y-107097142D01*
X152250609Y-107097142D02*
X152326800Y-107049523D01*
X152326800Y-107049523D02*
X152364895Y-106978095D01*
X152364895Y-106978095D02*
X152364895Y-106859047D01*
X151641085Y-107335238D02*
X151602990Y-107359047D01*
X151602990Y-107359047D02*
X151564895Y-107406666D01*
X151564895Y-107406666D02*
X151564895Y-107525714D01*
X151564895Y-107525714D02*
X151602990Y-107573333D01*
X151602990Y-107573333D02*
X151641085Y-107597142D01*
X151641085Y-107597142D02*
X151717276Y-107620952D01*
X151717276Y-107620952D02*
X151793466Y-107620952D01*
X151793466Y-107620952D02*
X151907752Y-107597142D01*
X151907752Y-107597142D02*
X152364895Y-107311428D01*
X152364895Y-107311428D02*
X152364895Y-107620952D01*
X150928871Y-107243332D02*
X150928871Y-107052856D01*
X150928871Y-107052856D02*
X150328871Y-107052856D01*
X150328871Y-107338570D02*
X150328871Y-107586189D01*
X150328871Y-107586189D02*
X150557442Y-107452856D01*
X150557442Y-107452856D02*
X150557442Y-107509999D01*
X150557442Y-107509999D02*
X150586014Y-107548094D01*
X150586014Y-107548094D02*
X150614585Y-107567142D01*
X150614585Y-107567142D02*
X150671728Y-107586189D01*
X150671728Y-107586189D02*
X150814585Y-107586189D01*
X150814585Y-107586189D02*
X150871728Y-107567142D01*
X150871728Y-107567142D02*
X150900300Y-107548094D01*
X150900300Y-107548094D02*
X150928871Y-107509999D01*
X150928871Y-107509999D02*
X150928871Y-107395713D01*
X150928871Y-107395713D02*
X150900300Y-107357618D01*
X150900300Y-107357618D02*
X150871728Y-107338570D01*
X126075895Y-100078571D02*
X125694942Y-99911905D01*
X126075895Y-99792857D02*
X125275895Y-99792857D01*
X125275895Y-99792857D02*
X125275895Y-99983333D01*
X125275895Y-99983333D02*
X125313990Y-100030952D01*
X125313990Y-100030952D02*
X125352085Y-100054762D01*
X125352085Y-100054762D02*
X125428276Y-100078571D01*
X125428276Y-100078571D02*
X125542561Y-100078571D01*
X125542561Y-100078571D02*
X125618752Y-100054762D01*
X125618752Y-100054762D02*
X125656847Y-100030952D01*
X125656847Y-100030952D02*
X125694942Y-99983333D01*
X125694942Y-99983333D02*
X125694942Y-99792857D01*
X125275895Y-100245238D02*
X125275895Y-100554762D01*
X125275895Y-100554762D02*
X125580657Y-100388095D01*
X125580657Y-100388095D02*
X125580657Y-100459524D01*
X125580657Y-100459524D02*
X125618752Y-100507143D01*
X125618752Y-100507143D02*
X125656847Y-100530952D01*
X125656847Y-100530952D02*
X125733038Y-100554762D01*
X125733038Y-100554762D02*
X125923514Y-100554762D01*
X125923514Y-100554762D02*
X125999704Y-100530952D01*
X125999704Y-100530952D02*
X126037800Y-100507143D01*
X126037800Y-100507143D02*
X126075895Y-100459524D01*
X126075895Y-100459524D02*
X126075895Y-100316667D01*
X126075895Y-100316667D02*
X126037800Y-100269048D01*
X126037800Y-100269048D02*
X125999704Y-100245238D01*
X125352085Y-100745238D02*
X125313990Y-100769047D01*
X125313990Y-100769047D02*
X125275895Y-100816666D01*
X125275895Y-100816666D02*
X125275895Y-100935714D01*
X125275895Y-100935714D02*
X125313990Y-100983333D01*
X125313990Y-100983333D02*
X125352085Y-101007142D01*
X125352085Y-101007142D02*
X125428276Y-101030952D01*
X125428276Y-101030952D02*
X125504466Y-101030952D01*
X125504466Y-101030952D02*
X125618752Y-101007142D01*
X125618752Y-101007142D02*
X126075895Y-100721428D01*
X126075895Y-100721428D02*
X126075895Y-101030952D01*
X124940204Y-90778571D02*
X124978300Y-90754762D01*
X124978300Y-90754762D02*
X125016395Y-90683333D01*
X125016395Y-90683333D02*
X125016395Y-90635714D01*
X125016395Y-90635714D02*
X124978300Y-90564286D01*
X124978300Y-90564286D02*
X124902109Y-90516667D01*
X124902109Y-90516667D02*
X124825919Y-90492857D01*
X124825919Y-90492857D02*
X124673538Y-90469048D01*
X124673538Y-90469048D02*
X124559252Y-90469048D01*
X124559252Y-90469048D02*
X124406871Y-90492857D01*
X124406871Y-90492857D02*
X124330680Y-90516667D01*
X124330680Y-90516667D02*
X124254490Y-90564286D01*
X124254490Y-90564286D02*
X124216395Y-90635714D01*
X124216395Y-90635714D02*
X124216395Y-90683333D01*
X124216395Y-90683333D02*
X124254490Y-90754762D01*
X124254490Y-90754762D02*
X124292585Y-90778571D01*
X124216395Y-91230952D02*
X124216395Y-90992857D01*
X124216395Y-90992857D02*
X124597347Y-90969048D01*
X124597347Y-90969048D02*
X124559252Y-90992857D01*
X124559252Y-90992857D02*
X124521157Y-91040476D01*
X124521157Y-91040476D02*
X124521157Y-91159524D01*
X124521157Y-91159524D02*
X124559252Y-91207143D01*
X124559252Y-91207143D02*
X124597347Y-91230952D01*
X124597347Y-91230952D02*
X124673538Y-91254762D01*
X124673538Y-91254762D02*
X124864014Y-91254762D01*
X124864014Y-91254762D02*
X124940204Y-91230952D01*
X124940204Y-91230952D02*
X124978300Y-91207143D01*
X124978300Y-91207143D02*
X125016395Y-91159524D01*
X125016395Y-91159524D02*
X125016395Y-91040476D01*
X125016395Y-91040476D02*
X124978300Y-90992857D01*
X124978300Y-90992857D02*
X124940204Y-90969048D01*
X124216395Y-91683333D02*
X124216395Y-91588095D01*
X124216395Y-91588095D02*
X124254490Y-91540476D01*
X124254490Y-91540476D02*
X124292585Y-91516666D01*
X124292585Y-91516666D02*
X124406871Y-91469047D01*
X124406871Y-91469047D02*
X124559252Y-91445238D01*
X124559252Y-91445238D02*
X124864014Y-91445238D01*
X124864014Y-91445238D02*
X124940204Y-91469047D01*
X124940204Y-91469047D02*
X124978300Y-91492857D01*
X124978300Y-91492857D02*
X125016395Y-91540476D01*
X125016395Y-91540476D02*
X125016395Y-91635714D01*
X125016395Y-91635714D02*
X124978300Y-91683333D01*
X124978300Y-91683333D02*
X124940204Y-91707142D01*
X124940204Y-91707142D02*
X124864014Y-91730952D01*
X124864014Y-91730952D02*
X124673538Y-91730952D01*
X124673538Y-91730952D02*
X124597347Y-91707142D01*
X124597347Y-91707142D02*
X124559252Y-91683333D01*
X124559252Y-91683333D02*
X124521157Y-91635714D01*
X124521157Y-91635714D02*
X124521157Y-91540476D01*
X124521157Y-91540476D02*
X124559252Y-91492857D01*
X124559252Y-91492857D02*
X124597347Y-91469047D01*
X124597347Y-91469047D02*
X124673538Y-91445238D01*
X103412856Y-107024895D02*
X103650951Y-107024895D01*
X103650951Y-107024895D02*
X103650951Y-106224895D01*
X103269998Y-106301085D02*
X103246189Y-106262990D01*
X103246189Y-106262990D02*
X103198570Y-106224895D01*
X103198570Y-106224895D02*
X103079522Y-106224895D01*
X103079522Y-106224895D02*
X103031903Y-106262990D01*
X103031903Y-106262990D02*
X103008094Y-106301085D01*
X103008094Y-106301085D02*
X102984284Y-106377276D01*
X102984284Y-106377276D02*
X102984284Y-106453466D01*
X102984284Y-106453466D02*
X103008094Y-106567752D01*
X103008094Y-106567752D02*
X103293808Y-107024895D01*
X103293808Y-107024895D02*
X102984284Y-107024895D01*
X120966428Y-110383395D02*
X121133094Y-110002442D01*
X121252142Y-110383395D02*
X121252142Y-109583395D01*
X121252142Y-109583395D02*
X121061666Y-109583395D01*
X121061666Y-109583395D02*
X121014047Y-109621490D01*
X121014047Y-109621490D02*
X120990237Y-109659585D01*
X120990237Y-109659585D02*
X120966428Y-109735776D01*
X120966428Y-109735776D02*
X120966428Y-109850061D01*
X120966428Y-109850061D02*
X120990237Y-109926252D01*
X120990237Y-109926252D02*
X121014047Y-109964347D01*
X121014047Y-109964347D02*
X121061666Y-110002442D01*
X121061666Y-110002442D02*
X121252142Y-110002442D01*
X120490237Y-110383395D02*
X120775951Y-110383395D01*
X120633094Y-110383395D02*
X120633094Y-109583395D01*
X120633094Y-109583395D02*
X120680713Y-109697680D01*
X120680713Y-109697680D02*
X120728332Y-109773871D01*
X120728332Y-109773871D02*
X120775951Y-109811966D01*
X120299761Y-109659585D02*
X120275952Y-109621490D01*
X120275952Y-109621490D02*
X120228333Y-109583395D01*
X120228333Y-109583395D02*
X120109285Y-109583395D01*
X120109285Y-109583395D02*
X120061666Y-109621490D01*
X120061666Y-109621490D02*
X120037857Y-109659585D01*
X120037857Y-109659585D02*
X120014047Y-109735776D01*
X120014047Y-109735776D02*
X120014047Y-109811966D01*
X120014047Y-109811966D02*
X120037857Y-109926252D01*
X120037857Y-109926252D02*
X120323571Y-110383395D01*
X120323571Y-110383395D02*
X120014047Y-110383395D01*
X131798690Y-100222371D02*
X131932023Y-99936657D01*
X132027261Y-100222371D02*
X132027261Y-99622371D01*
X132027261Y-99622371D02*
X131874880Y-99622371D01*
X131874880Y-99622371D02*
X131836785Y-99650942D01*
X131836785Y-99650942D02*
X131817738Y-99679514D01*
X131817738Y-99679514D02*
X131798690Y-99736657D01*
X131798690Y-99736657D02*
X131798690Y-99822371D01*
X131798690Y-99822371D02*
X131817738Y-99879514D01*
X131817738Y-99879514D02*
X131836785Y-99908085D01*
X131836785Y-99908085D02*
X131874880Y-99936657D01*
X131874880Y-99936657D02*
X132027261Y-99936657D01*
X131455833Y-99822371D02*
X131455833Y-100222371D01*
X131551071Y-99593800D02*
X131646309Y-100022371D01*
X131646309Y-100022371D02*
X131398690Y-100022371D01*
X131265357Y-99679514D02*
X131246309Y-99650942D01*
X131246309Y-99650942D02*
X131208214Y-99622371D01*
X131208214Y-99622371D02*
X131112976Y-99622371D01*
X131112976Y-99622371D02*
X131074881Y-99650942D01*
X131074881Y-99650942D02*
X131055833Y-99679514D01*
X131055833Y-99679514D02*
X131036786Y-99736657D01*
X131036786Y-99736657D02*
X131036786Y-99793800D01*
X131036786Y-99793800D02*
X131055833Y-99879514D01*
X131055833Y-99879514D02*
X131284405Y-100222371D01*
X131284405Y-100222371D02*
X131036786Y-100222371D01*
X125942371Y-95126905D02*
X125656657Y-94993572D01*
X125942371Y-94898334D02*
X125342371Y-94898334D01*
X125342371Y-94898334D02*
X125342371Y-95050715D01*
X125342371Y-95050715D02*
X125370942Y-95088810D01*
X125370942Y-95088810D02*
X125399514Y-95107857D01*
X125399514Y-95107857D02*
X125456657Y-95126905D01*
X125456657Y-95126905D02*
X125542371Y-95126905D01*
X125542371Y-95126905D02*
X125599514Y-95107857D01*
X125599514Y-95107857D02*
X125628085Y-95088810D01*
X125628085Y-95088810D02*
X125656657Y-95050715D01*
X125656657Y-95050715D02*
X125656657Y-94898334D01*
X125342371Y-95260238D02*
X125342371Y-95507857D01*
X125342371Y-95507857D02*
X125570942Y-95374524D01*
X125570942Y-95374524D02*
X125570942Y-95431667D01*
X125570942Y-95431667D02*
X125599514Y-95469762D01*
X125599514Y-95469762D02*
X125628085Y-95488810D01*
X125628085Y-95488810D02*
X125685228Y-95507857D01*
X125685228Y-95507857D02*
X125828085Y-95507857D01*
X125828085Y-95507857D02*
X125885228Y-95488810D01*
X125885228Y-95488810D02*
X125913800Y-95469762D01*
X125913800Y-95469762D02*
X125942371Y-95431667D01*
X125942371Y-95431667D02*
X125942371Y-95317381D01*
X125942371Y-95317381D02*
X125913800Y-95279286D01*
X125913800Y-95279286D02*
X125885228Y-95260238D01*
X125342371Y-95641190D02*
X125342371Y-95888809D01*
X125342371Y-95888809D02*
X125570942Y-95755476D01*
X125570942Y-95755476D02*
X125570942Y-95812619D01*
X125570942Y-95812619D02*
X125599514Y-95850714D01*
X125599514Y-95850714D02*
X125628085Y-95869762D01*
X125628085Y-95869762D02*
X125685228Y-95888809D01*
X125685228Y-95888809D02*
X125828085Y-95888809D01*
X125828085Y-95888809D02*
X125885228Y-95869762D01*
X125885228Y-95869762D02*
X125913800Y-95850714D01*
X125913800Y-95850714D02*
X125942371Y-95812619D01*
X125942371Y-95812619D02*
X125942371Y-95698333D01*
X125942371Y-95698333D02*
X125913800Y-95660238D01*
X125913800Y-95660238D02*
X125885228Y-95641190D01*
X146805238Y-99188704D02*
X146829047Y-99226800D01*
X146829047Y-99226800D02*
X146900476Y-99264895D01*
X146900476Y-99264895D02*
X146948095Y-99264895D01*
X146948095Y-99264895D02*
X147019523Y-99226800D01*
X147019523Y-99226800D02*
X147067142Y-99150609D01*
X147067142Y-99150609D02*
X147090952Y-99074419D01*
X147090952Y-99074419D02*
X147114761Y-98922038D01*
X147114761Y-98922038D02*
X147114761Y-98807752D01*
X147114761Y-98807752D02*
X147090952Y-98655371D01*
X147090952Y-98655371D02*
X147067142Y-98579180D01*
X147067142Y-98579180D02*
X147019523Y-98502990D01*
X147019523Y-98502990D02*
X146948095Y-98464895D01*
X146948095Y-98464895D02*
X146900476Y-98464895D01*
X146900476Y-98464895D02*
X146829047Y-98502990D01*
X146829047Y-98502990D02*
X146805238Y-98541085D01*
X146329047Y-99264895D02*
X146614761Y-99264895D01*
X146471904Y-99264895D02*
X146471904Y-98464895D01*
X146471904Y-98464895D02*
X146519523Y-98579180D01*
X146519523Y-98579180D02*
X146567142Y-98655371D01*
X146567142Y-98655371D02*
X146614761Y-98693466D01*
X115912142Y-103687371D02*
X116045475Y-103401657D01*
X116140713Y-103687371D02*
X116140713Y-103087371D01*
X116140713Y-103087371D02*
X115988332Y-103087371D01*
X115988332Y-103087371D02*
X115950237Y-103115942D01*
X115950237Y-103115942D02*
X115931190Y-103144514D01*
X115931190Y-103144514D02*
X115912142Y-103201657D01*
X115912142Y-103201657D02*
X115912142Y-103287371D01*
X115912142Y-103287371D02*
X115931190Y-103344514D01*
X115931190Y-103344514D02*
X115950237Y-103373085D01*
X115950237Y-103373085D02*
X115988332Y-103401657D01*
X115988332Y-103401657D02*
X116140713Y-103401657D01*
X115683571Y-103344514D02*
X115721666Y-103315942D01*
X115721666Y-103315942D02*
X115740713Y-103287371D01*
X115740713Y-103287371D02*
X115759761Y-103230228D01*
X115759761Y-103230228D02*
X115759761Y-103201657D01*
X115759761Y-103201657D02*
X115740713Y-103144514D01*
X115740713Y-103144514D02*
X115721666Y-103115942D01*
X115721666Y-103115942D02*
X115683571Y-103087371D01*
X115683571Y-103087371D02*
X115607380Y-103087371D01*
X115607380Y-103087371D02*
X115569285Y-103115942D01*
X115569285Y-103115942D02*
X115550237Y-103144514D01*
X115550237Y-103144514D02*
X115531190Y-103201657D01*
X115531190Y-103201657D02*
X115531190Y-103230228D01*
X115531190Y-103230228D02*
X115550237Y-103287371D01*
X115550237Y-103287371D02*
X115569285Y-103315942D01*
X115569285Y-103315942D02*
X115607380Y-103344514D01*
X115607380Y-103344514D02*
X115683571Y-103344514D01*
X115683571Y-103344514D02*
X115721666Y-103373085D01*
X115721666Y-103373085D02*
X115740713Y-103401657D01*
X115740713Y-103401657D02*
X115759761Y-103458800D01*
X115759761Y-103458800D02*
X115759761Y-103573085D01*
X115759761Y-103573085D02*
X115740713Y-103630228D01*
X115740713Y-103630228D02*
X115721666Y-103658800D01*
X115721666Y-103658800D02*
X115683571Y-103687371D01*
X115683571Y-103687371D02*
X115607380Y-103687371D01*
X115607380Y-103687371D02*
X115569285Y-103658800D01*
X115569285Y-103658800D02*
X115550237Y-103630228D01*
X115550237Y-103630228D02*
X115531190Y-103573085D01*
X115531190Y-103573085D02*
X115531190Y-103458800D01*
X115531190Y-103458800D02*
X115550237Y-103401657D01*
X115550237Y-103401657D02*
X115569285Y-103373085D01*
X115569285Y-103373085D02*
X115607380Y-103344514D01*
X125948727Y-93142857D02*
X125977299Y-93123809D01*
X125977299Y-93123809D02*
X126005870Y-93066667D01*
X126005870Y-93066667D02*
X126005870Y-93028571D01*
X126005870Y-93028571D02*
X125977299Y-92971428D01*
X125977299Y-92971428D02*
X125920156Y-92933333D01*
X125920156Y-92933333D02*
X125863013Y-92914286D01*
X125863013Y-92914286D02*
X125748727Y-92895238D01*
X125748727Y-92895238D02*
X125663013Y-92895238D01*
X125663013Y-92895238D02*
X125548727Y-92914286D01*
X125548727Y-92914286D02*
X125491584Y-92933333D01*
X125491584Y-92933333D02*
X125434441Y-92971428D01*
X125434441Y-92971428D02*
X125405870Y-93028571D01*
X125405870Y-93028571D02*
X125405870Y-93066667D01*
X125405870Y-93066667D02*
X125434441Y-93123809D01*
X125434441Y-93123809D02*
X125463013Y-93142857D01*
X125405870Y-93504762D02*
X125405870Y-93314286D01*
X125405870Y-93314286D02*
X125691584Y-93295238D01*
X125691584Y-93295238D02*
X125663013Y-93314286D01*
X125663013Y-93314286D02*
X125634441Y-93352381D01*
X125634441Y-93352381D02*
X125634441Y-93447619D01*
X125634441Y-93447619D02*
X125663013Y-93485714D01*
X125663013Y-93485714D02*
X125691584Y-93504762D01*
X125691584Y-93504762D02*
X125748727Y-93523809D01*
X125748727Y-93523809D02*
X125891584Y-93523809D01*
X125891584Y-93523809D02*
X125948727Y-93504762D01*
X125948727Y-93504762D02*
X125977299Y-93485714D01*
X125977299Y-93485714D02*
X126005870Y-93447619D01*
X126005870Y-93447619D02*
X126005870Y-93352381D01*
X126005870Y-93352381D02*
X125977299Y-93314286D01*
X125977299Y-93314286D02*
X125948727Y-93295238D01*
X125463013Y-93676190D02*
X125434441Y-93695238D01*
X125434441Y-93695238D02*
X125405870Y-93733333D01*
X125405870Y-93733333D02*
X125405870Y-93828571D01*
X125405870Y-93828571D02*
X125434441Y-93866666D01*
X125434441Y-93866666D02*
X125463013Y-93885714D01*
X125463013Y-93885714D02*
X125520156Y-93904761D01*
X125520156Y-93904761D02*
X125577299Y-93904761D01*
X125577299Y-93904761D02*
X125663013Y-93885714D01*
X125663013Y-93885714D02*
X126005870Y-93657142D01*
X126005870Y-93657142D02*
X126005870Y-93904761D01*
X148346395Y-109173571D02*
X147965442Y-109006905D01*
X148346395Y-108887857D02*
X147546395Y-108887857D01*
X147546395Y-108887857D02*
X147546395Y-109078333D01*
X147546395Y-109078333D02*
X147584490Y-109125952D01*
X147584490Y-109125952D02*
X147622585Y-109149762D01*
X147622585Y-109149762D02*
X147698776Y-109173571D01*
X147698776Y-109173571D02*
X147813061Y-109173571D01*
X147813061Y-109173571D02*
X147889252Y-109149762D01*
X147889252Y-109149762D02*
X147927347Y-109125952D01*
X147927347Y-109125952D02*
X147965442Y-109078333D01*
X147965442Y-109078333D02*
X147965442Y-108887857D01*
X148346395Y-109649762D02*
X148346395Y-109364048D01*
X148346395Y-109506905D02*
X147546395Y-109506905D01*
X147546395Y-109506905D02*
X147660680Y-109459286D01*
X147660680Y-109459286D02*
X147736871Y-109411667D01*
X147736871Y-109411667D02*
X147774966Y-109364048D01*
X147546395Y-109959285D02*
X147546395Y-110006904D01*
X147546395Y-110006904D02*
X147584490Y-110054523D01*
X147584490Y-110054523D02*
X147622585Y-110078333D01*
X147622585Y-110078333D02*
X147698776Y-110102142D01*
X147698776Y-110102142D02*
X147851157Y-110125952D01*
X147851157Y-110125952D02*
X148041633Y-110125952D01*
X148041633Y-110125952D02*
X148194014Y-110102142D01*
X148194014Y-110102142D02*
X148270204Y-110078333D01*
X148270204Y-110078333D02*
X148308300Y-110054523D01*
X148308300Y-110054523D02*
X148346395Y-110006904D01*
X148346395Y-110006904D02*
X148346395Y-109959285D01*
X148346395Y-109959285D02*
X148308300Y-109911666D01*
X148308300Y-109911666D02*
X148270204Y-109887857D01*
X148270204Y-109887857D02*
X148194014Y-109864047D01*
X148194014Y-109864047D02*
X148041633Y-109840238D01*
X148041633Y-109840238D02*
X147851157Y-109840238D01*
X147851157Y-109840238D02*
X147698776Y-109864047D01*
X147698776Y-109864047D02*
X147622585Y-109887857D01*
X147622585Y-109887857D02*
X147584490Y-109911666D01*
X147584490Y-109911666D02*
X147546395Y-109959285D01*
X108554761Y-97032370D02*
X108554761Y-97518084D01*
X108554761Y-97518084D02*
X108535714Y-97575227D01*
X108535714Y-97575227D02*
X108516666Y-97603799D01*
X108516666Y-97603799D02*
X108478571Y-97632370D01*
X108478571Y-97632370D02*
X108402380Y-97632370D01*
X108402380Y-97632370D02*
X108364285Y-97603799D01*
X108364285Y-97603799D02*
X108345238Y-97575227D01*
X108345238Y-97575227D02*
X108326190Y-97518084D01*
X108326190Y-97518084D02*
X108326190Y-97032370D01*
X107926190Y-97632370D02*
X108154761Y-97632370D01*
X108040475Y-97632370D02*
X108040475Y-97032370D01*
X108040475Y-97032370D02*
X108078571Y-97118084D01*
X108078571Y-97118084D02*
X108116666Y-97175227D01*
X108116666Y-97175227D02*
X108154761Y-97203799D01*
X144072204Y-109638571D02*
X144110300Y-109614762D01*
X144110300Y-109614762D02*
X144148395Y-109543333D01*
X144148395Y-109543333D02*
X144148395Y-109495714D01*
X144148395Y-109495714D02*
X144110300Y-109424286D01*
X144110300Y-109424286D02*
X144034109Y-109376667D01*
X144034109Y-109376667D02*
X143957919Y-109352857D01*
X143957919Y-109352857D02*
X143805538Y-109329048D01*
X143805538Y-109329048D02*
X143691252Y-109329048D01*
X143691252Y-109329048D02*
X143538871Y-109352857D01*
X143538871Y-109352857D02*
X143462680Y-109376667D01*
X143462680Y-109376667D02*
X143386490Y-109424286D01*
X143386490Y-109424286D02*
X143348395Y-109495714D01*
X143348395Y-109495714D02*
X143348395Y-109543333D01*
X143348395Y-109543333D02*
X143386490Y-109614762D01*
X143386490Y-109614762D02*
X143424585Y-109638571D01*
X143348395Y-110067143D02*
X143348395Y-109971905D01*
X143348395Y-109971905D02*
X143386490Y-109924286D01*
X143386490Y-109924286D02*
X143424585Y-109900476D01*
X143424585Y-109900476D02*
X143538871Y-109852857D01*
X143538871Y-109852857D02*
X143691252Y-109829048D01*
X143691252Y-109829048D02*
X143996014Y-109829048D01*
X143996014Y-109829048D02*
X144072204Y-109852857D01*
X144072204Y-109852857D02*
X144110300Y-109876667D01*
X144110300Y-109876667D02*
X144148395Y-109924286D01*
X144148395Y-109924286D02*
X144148395Y-110019524D01*
X144148395Y-110019524D02*
X144110300Y-110067143D01*
X144110300Y-110067143D02*
X144072204Y-110090952D01*
X144072204Y-110090952D02*
X143996014Y-110114762D01*
X143996014Y-110114762D02*
X143805538Y-110114762D01*
X143805538Y-110114762D02*
X143729347Y-110090952D01*
X143729347Y-110090952D02*
X143691252Y-110067143D01*
X143691252Y-110067143D02*
X143653157Y-110019524D01*
X143653157Y-110019524D02*
X143653157Y-109924286D01*
X143653157Y-109924286D02*
X143691252Y-109876667D01*
X143691252Y-109876667D02*
X143729347Y-109852857D01*
X143729347Y-109852857D02*
X143805538Y-109829048D01*
X143424585Y-110305238D02*
X143386490Y-110329047D01*
X143386490Y-110329047D02*
X143348395Y-110376666D01*
X143348395Y-110376666D02*
X143348395Y-110495714D01*
X143348395Y-110495714D02*
X143386490Y-110543333D01*
X143386490Y-110543333D02*
X143424585Y-110567142D01*
X143424585Y-110567142D02*
X143500776Y-110590952D01*
X143500776Y-110590952D02*
X143576966Y-110590952D01*
X143576966Y-110590952D02*
X143691252Y-110567142D01*
X143691252Y-110567142D02*
X144148395Y-110281428D01*
X144148395Y-110281428D02*
X144148395Y-110590952D01*
X128095202Y-89463571D02*
X128133298Y-89439762D01*
X128133298Y-89439762D02*
X128171393Y-89368333D01*
X128171393Y-89368333D02*
X128171393Y-89320714D01*
X128171393Y-89320714D02*
X128133298Y-89249286D01*
X128133298Y-89249286D02*
X128057107Y-89201667D01*
X128057107Y-89201667D02*
X127980917Y-89177857D01*
X127980917Y-89177857D02*
X127828536Y-89154048D01*
X127828536Y-89154048D02*
X127714250Y-89154048D01*
X127714250Y-89154048D02*
X127561869Y-89177857D01*
X127561869Y-89177857D02*
X127485678Y-89201667D01*
X127485678Y-89201667D02*
X127409488Y-89249286D01*
X127409488Y-89249286D02*
X127371393Y-89320714D01*
X127371393Y-89320714D02*
X127371393Y-89368333D01*
X127371393Y-89368333D02*
X127409488Y-89439762D01*
X127409488Y-89439762D02*
X127447583Y-89463571D01*
X127371393Y-89915952D02*
X127371393Y-89677857D01*
X127371393Y-89677857D02*
X127752345Y-89654048D01*
X127752345Y-89654048D02*
X127714250Y-89677857D01*
X127714250Y-89677857D02*
X127676155Y-89725476D01*
X127676155Y-89725476D02*
X127676155Y-89844524D01*
X127676155Y-89844524D02*
X127714250Y-89892143D01*
X127714250Y-89892143D02*
X127752345Y-89915952D01*
X127752345Y-89915952D02*
X127828536Y-89939762D01*
X127828536Y-89939762D02*
X128019012Y-89939762D01*
X128019012Y-89939762D02*
X128095202Y-89915952D01*
X128095202Y-89915952D02*
X128133298Y-89892143D01*
X128133298Y-89892143D02*
X128171393Y-89844524D01*
X128171393Y-89844524D02*
X128171393Y-89725476D01*
X128171393Y-89725476D02*
X128133298Y-89677857D01*
X128133298Y-89677857D02*
X128095202Y-89654048D01*
X127638059Y-90368333D02*
X128171393Y-90368333D01*
X127333298Y-90249285D02*
X127904726Y-90130238D01*
X127904726Y-90130238D02*
X127904726Y-90439761D01*
X131716428Y-101646395D02*
X131883094Y-101265442D01*
X132002142Y-101646395D02*
X132002142Y-100846395D01*
X132002142Y-100846395D02*
X131811666Y-100846395D01*
X131811666Y-100846395D02*
X131764047Y-100884490D01*
X131764047Y-100884490D02*
X131740237Y-100922585D01*
X131740237Y-100922585D02*
X131716428Y-100998776D01*
X131716428Y-100998776D02*
X131716428Y-101113061D01*
X131716428Y-101113061D02*
X131740237Y-101189252D01*
X131740237Y-101189252D02*
X131764047Y-101227347D01*
X131764047Y-101227347D02*
X131811666Y-101265442D01*
X131811666Y-101265442D02*
X132002142Y-101265442D01*
X131549761Y-100846395D02*
X131240237Y-100846395D01*
X131240237Y-100846395D02*
X131406904Y-101151157D01*
X131406904Y-101151157D02*
X131335475Y-101151157D01*
X131335475Y-101151157D02*
X131287856Y-101189252D01*
X131287856Y-101189252D02*
X131264047Y-101227347D01*
X131264047Y-101227347D02*
X131240237Y-101303538D01*
X131240237Y-101303538D02*
X131240237Y-101494014D01*
X131240237Y-101494014D02*
X131264047Y-101570204D01*
X131264047Y-101570204D02*
X131287856Y-101608300D01*
X131287856Y-101608300D02*
X131335475Y-101646395D01*
X131335475Y-101646395D02*
X131478332Y-101646395D01*
X131478332Y-101646395D02*
X131525951Y-101608300D01*
X131525951Y-101608300D02*
X131549761Y-101570204D01*
X130811666Y-101113061D02*
X130811666Y-101646395D01*
X130930714Y-100808300D02*
X131049761Y-101379728D01*
X131049761Y-101379728D02*
X130740238Y-101379728D01*
X129911427Y-101615204D02*
X129935236Y-101653300D01*
X129935236Y-101653300D02*
X130006665Y-101691395D01*
X130006665Y-101691395D02*
X130054284Y-101691395D01*
X130054284Y-101691395D02*
X130125712Y-101653300D01*
X130125712Y-101653300D02*
X130173331Y-101577109D01*
X130173331Y-101577109D02*
X130197141Y-101500919D01*
X130197141Y-101500919D02*
X130220950Y-101348538D01*
X130220950Y-101348538D02*
X130220950Y-101234252D01*
X130220950Y-101234252D02*
X130197141Y-101081871D01*
X130197141Y-101081871D02*
X130173331Y-101005680D01*
X130173331Y-101005680D02*
X130125712Y-100929490D01*
X130125712Y-100929490D02*
X130054284Y-100891395D01*
X130054284Y-100891395D02*
X130006665Y-100891395D01*
X130006665Y-100891395D02*
X129935236Y-100929490D01*
X129935236Y-100929490D02*
X129911427Y-100967585D01*
X129482855Y-101158061D02*
X129482855Y-101691395D01*
X129601903Y-100853300D02*
X129720950Y-101424728D01*
X129720950Y-101424728D02*
X129411427Y-101424728D01*
X129268570Y-100891395D02*
X128935237Y-100891395D01*
X128935237Y-100891395D02*
X129149522Y-101691395D01*
X106915237Y-103728704D02*
X106939046Y-103766800D01*
X106939046Y-103766800D02*
X107010475Y-103804895D01*
X107010475Y-103804895D02*
X107058094Y-103804895D01*
X107058094Y-103804895D02*
X107129522Y-103766800D01*
X107129522Y-103766800D02*
X107177141Y-103690609D01*
X107177141Y-103690609D02*
X107200951Y-103614419D01*
X107200951Y-103614419D02*
X107224760Y-103462038D01*
X107224760Y-103462038D02*
X107224760Y-103347752D01*
X107224760Y-103347752D02*
X107200951Y-103195371D01*
X107200951Y-103195371D02*
X107177141Y-103119180D01*
X107177141Y-103119180D02*
X107129522Y-103042990D01*
X107129522Y-103042990D02*
X107058094Y-103004895D01*
X107058094Y-103004895D02*
X107010475Y-103004895D01*
X107010475Y-103004895D02*
X106939046Y-103042990D01*
X106939046Y-103042990D02*
X106915237Y-103081085D01*
X106629522Y-103347752D02*
X106677141Y-103309657D01*
X106677141Y-103309657D02*
X106700951Y-103271561D01*
X106700951Y-103271561D02*
X106724760Y-103195371D01*
X106724760Y-103195371D02*
X106724760Y-103157276D01*
X106724760Y-103157276D02*
X106700951Y-103081085D01*
X106700951Y-103081085D02*
X106677141Y-103042990D01*
X106677141Y-103042990D02*
X106629522Y-103004895D01*
X106629522Y-103004895D02*
X106534284Y-103004895D01*
X106534284Y-103004895D02*
X106486665Y-103042990D01*
X106486665Y-103042990D02*
X106462856Y-103081085D01*
X106462856Y-103081085D02*
X106439046Y-103157276D01*
X106439046Y-103157276D02*
X106439046Y-103195371D01*
X106439046Y-103195371D02*
X106462856Y-103271561D01*
X106462856Y-103271561D02*
X106486665Y-103309657D01*
X106486665Y-103309657D02*
X106534284Y-103347752D01*
X106534284Y-103347752D02*
X106629522Y-103347752D01*
X106629522Y-103347752D02*
X106677141Y-103385847D01*
X106677141Y-103385847D02*
X106700951Y-103423942D01*
X106700951Y-103423942D02*
X106724760Y-103500133D01*
X106724760Y-103500133D02*
X106724760Y-103652514D01*
X106724760Y-103652514D02*
X106700951Y-103728704D01*
X106700951Y-103728704D02*
X106677141Y-103766800D01*
X106677141Y-103766800D02*
X106629522Y-103804895D01*
X106629522Y-103804895D02*
X106534284Y-103804895D01*
X106534284Y-103804895D02*
X106486665Y-103766800D01*
X106486665Y-103766800D02*
X106462856Y-103728704D01*
X106462856Y-103728704D02*
X106439046Y-103652514D01*
X106439046Y-103652514D02*
X106439046Y-103500133D01*
X106439046Y-103500133D02*
X106462856Y-103423942D01*
X106462856Y-103423942D02*
X106486665Y-103385847D01*
X106486665Y-103385847D02*
X106534284Y-103347752D01*
X108305237Y-92387395D02*
X108471903Y-92006442D01*
X108590951Y-92387395D02*
X108590951Y-91587395D01*
X108590951Y-91587395D02*
X108400475Y-91587395D01*
X108400475Y-91587395D02*
X108352856Y-91625490D01*
X108352856Y-91625490D02*
X108329046Y-91663585D01*
X108329046Y-91663585D02*
X108305237Y-91739776D01*
X108305237Y-91739776D02*
X108305237Y-91854061D01*
X108305237Y-91854061D02*
X108329046Y-91930252D01*
X108329046Y-91930252D02*
X108352856Y-91968347D01*
X108352856Y-91968347D02*
X108400475Y-92006442D01*
X108400475Y-92006442D02*
X108590951Y-92006442D01*
X107852856Y-91587395D02*
X108090951Y-91587395D01*
X108090951Y-91587395D02*
X108114760Y-91968347D01*
X108114760Y-91968347D02*
X108090951Y-91930252D01*
X108090951Y-91930252D02*
X108043332Y-91892157D01*
X108043332Y-91892157D02*
X107924284Y-91892157D01*
X107924284Y-91892157D02*
X107876665Y-91930252D01*
X107876665Y-91930252D02*
X107852856Y-91968347D01*
X107852856Y-91968347D02*
X107829046Y-92044538D01*
X107829046Y-92044538D02*
X107829046Y-92235014D01*
X107829046Y-92235014D02*
X107852856Y-92311204D01*
X107852856Y-92311204D02*
X107876665Y-92349300D01*
X107876665Y-92349300D02*
X107924284Y-92387395D01*
X107924284Y-92387395D02*
X108043332Y-92387395D01*
X108043332Y-92387395D02*
X108090951Y-92349300D01*
X108090951Y-92349300D02*
X108114760Y-92311204D01*
X128795237Y-96578871D02*
X128795237Y-97064585D01*
X128795237Y-97064585D02*
X128776190Y-97121728D01*
X128776190Y-97121728D02*
X128757142Y-97150300D01*
X128757142Y-97150300D02*
X128719047Y-97178871D01*
X128719047Y-97178871D02*
X128642856Y-97178871D01*
X128642856Y-97178871D02*
X128604761Y-97150300D01*
X128604761Y-97150300D02*
X128585714Y-97121728D01*
X128585714Y-97121728D02*
X128566666Y-97064585D01*
X128566666Y-97064585D02*
X128566666Y-96578871D01*
X128166666Y-97178871D02*
X128395237Y-97178871D01*
X128280951Y-97178871D02*
X128280951Y-96578871D01*
X128280951Y-96578871D02*
X128319047Y-96664585D01*
X128319047Y-96664585D02*
X128357142Y-96721728D01*
X128357142Y-96721728D02*
X128395237Y-96750300D01*
X127919047Y-96578871D02*
X127880952Y-96578871D01*
X127880952Y-96578871D02*
X127842856Y-96607442D01*
X127842856Y-96607442D02*
X127823809Y-96636014D01*
X127823809Y-96636014D02*
X127804761Y-96693157D01*
X127804761Y-96693157D02*
X127785714Y-96807442D01*
X127785714Y-96807442D02*
X127785714Y-96950300D01*
X127785714Y-96950300D02*
X127804761Y-97064585D01*
X127804761Y-97064585D02*
X127823809Y-97121728D01*
X127823809Y-97121728D02*
X127842856Y-97150300D01*
X127842856Y-97150300D02*
X127880952Y-97178871D01*
X127880952Y-97178871D02*
X127919047Y-97178871D01*
X127919047Y-97178871D02*
X127957142Y-97150300D01*
X127957142Y-97150300D02*
X127976190Y-97121728D01*
X127976190Y-97121728D02*
X127995237Y-97064585D01*
X127995237Y-97064585D02*
X128014285Y-96950300D01*
X128014285Y-96950300D02*
X128014285Y-96807442D01*
X128014285Y-96807442D02*
X127995237Y-96693157D01*
X127995237Y-96693157D02*
X127976190Y-96636014D01*
X127976190Y-96636014D02*
X127957142Y-96607442D01*
X127957142Y-96607442D02*
X127919047Y-96578871D01*
X108127737Y-93864895D02*
X108294403Y-93483942D01*
X108413451Y-93864895D02*
X108413451Y-93064895D01*
X108413451Y-93064895D02*
X108222975Y-93064895D01*
X108222975Y-93064895D02*
X108175356Y-93102990D01*
X108175356Y-93102990D02*
X108151546Y-93141085D01*
X108151546Y-93141085D02*
X108127737Y-93217276D01*
X108127737Y-93217276D02*
X108127737Y-93331561D01*
X108127737Y-93331561D02*
X108151546Y-93407752D01*
X108151546Y-93407752D02*
X108175356Y-93445847D01*
X108175356Y-93445847D02*
X108222975Y-93483942D01*
X108222975Y-93483942D02*
X108413451Y-93483942D01*
X107961070Y-93064895D02*
X107651546Y-93064895D01*
X107651546Y-93064895D02*
X107818213Y-93369657D01*
X107818213Y-93369657D02*
X107746784Y-93369657D01*
X107746784Y-93369657D02*
X107699165Y-93407752D01*
X107699165Y-93407752D02*
X107675356Y-93445847D01*
X107675356Y-93445847D02*
X107651546Y-93522038D01*
X107651546Y-93522038D02*
X107651546Y-93712514D01*
X107651546Y-93712514D02*
X107675356Y-93788704D01*
X107675356Y-93788704D02*
X107699165Y-93826800D01*
X107699165Y-93826800D02*
X107746784Y-93864895D01*
X107746784Y-93864895D02*
X107889641Y-93864895D01*
X107889641Y-93864895D02*
X107937260Y-93826800D01*
X107937260Y-93826800D02*
X107961070Y-93788704D01*
X133072370Y-102305238D02*
X133558084Y-102305238D01*
X133558084Y-102305238D02*
X133615227Y-102324285D01*
X133615227Y-102324285D02*
X133643799Y-102343333D01*
X133643799Y-102343333D02*
X133672370Y-102381428D01*
X133672370Y-102381428D02*
X133672370Y-102457619D01*
X133672370Y-102457619D02*
X133643799Y-102495714D01*
X133643799Y-102495714D02*
X133615227Y-102514761D01*
X133615227Y-102514761D02*
X133558084Y-102533809D01*
X133558084Y-102533809D02*
X133072370Y-102533809D01*
X133672370Y-102743333D02*
X133672370Y-102819524D01*
X133672370Y-102819524D02*
X133643799Y-102857619D01*
X133643799Y-102857619D02*
X133615227Y-102876667D01*
X133615227Y-102876667D02*
X133529513Y-102914762D01*
X133529513Y-102914762D02*
X133415227Y-102933809D01*
X133415227Y-102933809D02*
X133186656Y-102933809D01*
X133186656Y-102933809D02*
X133129513Y-102914762D01*
X133129513Y-102914762D02*
X133100941Y-102895714D01*
X133100941Y-102895714D02*
X133072370Y-102857619D01*
X133072370Y-102857619D02*
X133072370Y-102781428D01*
X133072370Y-102781428D02*
X133100941Y-102743333D01*
X133100941Y-102743333D02*
X133129513Y-102724286D01*
X133129513Y-102724286D02*
X133186656Y-102705238D01*
X133186656Y-102705238D02*
X133329513Y-102705238D01*
X133329513Y-102705238D02*
X133386656Y-102724286D01*
X133386656Y-102724286D02*
X133415227Y-102743333D01*
X133415227Y-102743333D02*
X133443799Y-102781428D01*
X133443799Y-102781428D02*
X133443799Y-102857619D01*
X133443799Y-102857619D02*
X133415227Y-102895714D01*
X133415227Y-102895714D02*
X133386656Y-102914762D01*
X133386656Y-102914762D02*
X133329513Y-102933809D01*
X115861428Y-105137395D02*
X116028094Y-104756442D01*
X116147142Y-105137395D02*
X116147142Y-104337395D01*
X116147142Y-104337395D02*
X115956666Y-104337395D01*
X115956666Y-104337395D02*
X115909047Y-104375490D01*
X115909047Y-104375490D02*
X115885237Y-104413585D01*
X115885237Y-104413585D02*
X115861428Y-104489776D01*
X115861428Y-104489776D02*
X115861428Y-104604061D01*
X115861428Y-104604061D02*
X115885237Y-104680252D01*
X115885237Y-104680252D02*
X115909047Y-104718347D01*
X115909047Y-104718347D02*
X115956666Y-104756442D01*
X115956666Y-104756442D02*
X116147142Y-104756442D01*
X115432856Y-104337395D02*
X115528094Y-104337395D01*
X115528094Y-104337395D02*
X115575713Y-104375490D01*
X115575713Y-104375490D02*
X115599523Y-104413585D01*
X115599523Y-104413585D02*
X115647142Y-104527871D01*
X115647142Y-104527871D02*
X115670951Y-104680252D01*
X115670951Y-104680252D02*
X115670951Y-104985014D01*
X115670951Y-104985014D02*
X115647142Y-105061204D01*
X115647142Y-105061204D02*
X115623332Y-105099300D01*
X115623332Y-105099300D02*
X115575713Y-105137395D01*
X115575713Y-105137395D02*
X115480475Y-105137395D01*
X115480475Y-105137395D02*
X115432856Y-105099300D01*
X115432856Y-105099300D02*
X115409047Y-105061204D01*
X115409047Y-105061204D02*
X115385237Y-104985014D01*
X115385237Y-104985014D02*
X115385237Y-104794538D01*
X115385237Y-104794538D02*
X115409047Y-104718347D01*
X115409047Y-104718347D02*
X115432856Y-104680252D01*
X115432856Y-104680252D02*
X115480475Y-104642157D01*
X115480475Y-104642157D02*
X115575713Y-104642157D01*
X115575713Y-104642157D02*
X115623332Y-104680252D01*
X115623332Y-104680252D02*
X115647142Y-104718347D01*
X115647142Y-104718347D02*
X115670951Y-104794538D01*
X103305237Y-99838704D02*
X103329046Y-99876800D01*
X103329046Y-99876800D02*
X103400475Y-99914895D01*
X103400475Y-99914895D02*
X103448094Y-99914895D01*
X103448094Y-99914895D02*
X103519522Y-99876800D01*
X103519522Y-99876800D02*
X103567141Y-99800609D01*
X103567141Y-99800609D02*
X103590951Y-99724419D01*
X103590951Y-99724419D02*
X103614760Y-99572038D01*
X103614760Y-99572038D02*
X103614760Y-99457752D01*
X103614760Y-99457752D02*
X103590951Y-99305371D01*
X103590951Y-99305371D02*
X103567141Y-99229180D01*
X103567141Y-99229180D02*
X103519522Y-99152990D01*
X103519522Y-99152990D02*
X103448094Y-99114895D01*
X103448094Y-99114895D02*
X103400475Y-99114895D01*
X103400475Y-99114895D02*
X103329046Y-99152990D01*
X103329046Y-99152990D02*
X103305237Y-99191085D01*
X102876665Y-99114895D02*
X102971903Y-99114895D01*
X102971903Y-99114895D02*
X103019522Y-99152990D01*
X103019522Y-99152990D02*
X103043332Y-99191085D01*
X103043332Y-99191085D02*
X103090951Y-99305371D01*
X103090951Y-99305371D02*
X103114760Y-99457752D01*
X103114760Y-99457752D02*
X103114760Y-99762514D01*
X103114760Y-99762514D02*
X103090951Y-99838704D01*
X103090951Y-99838704D02*
X103067141Y-99876800D01*
X103067141Y-99876800D02*
X103019522Y-99914895D01*
X103019522Y-99914895D02*
X102924284Y-99914895D01*
X102924284Y-99914895D02*
X102876665Y-99876800D01*
X102876665Y-99876800D02*
X102852856Y-99838704D01*
X102852856Y-99838704D02*
X102829046Y-99762514D01*
X102829046Y-99762514D02*
X102829046Y-99572038D01*
X102829046Y-99572038D02*
X102852856Y-99495847D01*
X102852856Y-99495847D02*
X102876665Y-99457752D01*
X102876665Y-99457752D02*
X102924284Y-99419657D01*
X102924284Y-99419657D02*
X103019522Y-99419657D01*
X103019522Y-99419657D02*
X103067141Y-99457752D01*
X103067141Y-99457752D02*
X103090951Y-99495847D01*
X103090951Y-99495847D02*
X103114760Y-99572038D01*
X123651428Y-89889895D02*
X123818094Y-89508942D01*
X123937142Y-89889895D02*
X123937142Y-89089895D01*
X123937142Y-89089895D02*
X123746666Y-89089895D01*
X123746666Y-89089895D02*
X123699047Y-89127990D01*
X123699047Y-89127990D02*
X123675237Y-89166085D01*
X123675237Y-89166085D02*
X123651428Y-89242276D01*
X123651428Y-89242276D02*
X123651428Y-89356561D01*
X123651428Y-89356561D02*
X123675237Y-89432752D01*
X123675237Y-89432752D02*
X123699047Y-89470847D01*
X123699047Y-89470847D02*
X123746666Y-89508942D01*
X123746666Y-89508942D02*
X123937142Y-89508942D01*
X123175237Y-89889895D02*
X123460951Y-89889895D01*
X123318094Y-89889895D02*
X123318094Y-89089895D01*
X123318094Y-89089895D02*
X123365713Y-89204180D01*
X123365713Y-89204180D02*
X123413332Y-89280371D01*
X123413332Y-89280371D02*
X123460951Y-89318466D01*
X135617142Y-110781728D02*
X135636190Y-110810300D01*
X135636190Y-110810300D02*
X135693332Y-110838871D01*
X135693332Y-110838871D02*
X135731428Y-110838871D01*
X135731428Y-110838871D02*
X135788571Y-110810300D01*
X135788571Y-110810300D02*
X135826666Y-110753157D01*
X135826666Y-110753157D02*
X135845713Y-110696014D01*
X135845713Y-110696014D02*
X135864761Y-110581728D01*
X135864761Y-110581728D02*
X135864761Y-110496014D01*
X135864761Y-110496014D02*
X135845713Y-110381728D01*
X135845713Y-110381728D02*
X135826666Y-110324585D01*
X135826666Y-110324585D02*
X135788571Y-110267442D01*
X135788571Y-110267442D02*
X135731428Y-110238871D01*
X135731428Y-110238871D02*
X135693332Y-110238871D01*
X135693332Y-110238871D02*
X135636190Y-110267442D01*
X135636190Y-110267442D02*
X135617142Y-110296014D01*
X135274285Y-110438871D02*
X135274285Y-110838871D01*
X135369523Y-110210300D02*
X135464761Y-110638871D01*
X135464761Y-110638871D02*
X135217142Y-110638871D01*
X134893333Y-110238871D02*
X134969523Y-110238871D01*
X134969523Y-110238871D02*
X135007619Y-110267442D01*
X135007619Y-110267442D02*
X135026666Y-110296014D01*
X135026666Y-110296014D02*
X135064761Y-110381728D01*
X135064761Y-110381728D02*
X135083809Y-110496014D01*
X135083809Y-110496014D02*
X135083809Y-110724585D01*
X135083809Y-110724585D02*
X135064761Y-110781728D01*
X135064761Y-110781728D02*
X135045714Y-110810300D01*
X135045714Y-110810300D02*
X135007619Y-110838871D01*
X135007619Y-110838871D02*
X134931428Y-110838871D01*
X134931428Y-110838871D02*
X134893333Y-110810300D01*
X134893333Y-110810300D02*
X134874285Y-110781728D01*
X134874285Y-110781728D02*
X134855238Y-110724585D01*
X134855238Y-110724585D02*
X134855238Y-110581728D01*
X134855238Y-110581728D02*
X134874285Y-110524585D01*
X134874285Y-110524585D02*
X134893333Y-110496014D01*
X134893333Y-110496014D02*
X134931428Y-110467442D01*
X134931428Y-110467442D02*
X135007619Y-110467442D01*
X135007619Y-110467442D02*
X135045714Y-110496014D01*
X135045714Y-110496014D02*
X135064761Y-110524585D01*
X135064761Y-110524585D02*
X135083809Y-110581728D01*
X115331395Y-108367857D02*
X114531395Y-108367857D01*
X114531395Y-108367857D02*
X114531395Y-108486905D01*
X114531395Y-108486905D02*
X114569490Y-108558333D01*
X114569490Y-108558333D02*
X114645680Y-108605952D01*
X114645680Y-108605952D02*
X114721871Y-108629762D01*
X114721871Y-108629762D02*
X114874252Y-108653571D01*
X114874252Y-108653571D02*
X114988538Y-108653571D01*
X114988538Y-108653571D02*
X115140919Y-108629762D01*
X115140919Y-108629762D02*
X115217109Y-108605952D01*
X115217109Y-108605952D02*
X115293300Y-108558333D01*
X115293300Y-108558333D02*
X115331395Y-108486905D01*
X115331395Y-108486905D02*
X115331395Y-108367857D01*
X114531395Y-109082143D02*
X114531395Y-108986905D01*
X114531395Y-108986905D02*
X114569490Y-108939286D01*
X114569490Y-108939286D02*
X114607585Y-108915476D01*
X114607585Y-108915476D02*
X114721871Y-108867857D01*
X114721871Y-108867857D02*
X114874252Y-108844048D01*
X114874252Y-108844048D02*
X115179014Y-108844048D01*
X115179014Y-108844048D02*
X115255204Y-108867857D01*
X115255204Y-108867857D02*
X115293300Y-108891667D01*
X115293300Y-108891667D02*
X115331395Y-108939286D01*
X115331395Y-108939286D02*
X115331395Y-109034524D01*
X115331395Y-109034524D02*
X115293300Y-109082143D01*
X115293300Y-109082143D02*
X115255204Y-109105952D01*
X115255204Y-109105952D02*
X115179014Y-109129762D01*
X115179014Y-109129762D02*
X114988538Y-109129762D01*
X114988538Y-109129762D02*
X114912347Y-109105952D01*
X114912347Y-109105952D02*
X114874252Y-109082143D01*
X114874252Y-109082143D02*
X114836157Y-109034524D01*
X114836157Y-109034524D02*
X114836157Y-108939286D01*
X114836157Y-108939286D02*
X114874252Y-108891667D01*
X114874252Y-108891667D02*
X114912347Y-108867857D01*
X114912347Y-108867857D02*
X114988538Y-108844048D01*
X114531395Y-109439285D02*
X114531395Y-109486904D01*
X114531395Y-109486904D02*
X114569490Y-109534523D01*
X114569490Y-109534523D02*
X114607585Y-109558333D01*
X114607585Y-109558333D02*
X114683776Y-109582142D01*
X114683776Y-109582142D02*
X114836157Y-109605952D01*
X114836157Y-109605952D02*
X115026633Y-109605952D01*
X115026633Y-109605952D02*
X115179014Y-109582142D01*
X115179014Y-109582142D02*
X115255204Y-109558333D01*
X115255204Y-109558333D02*
X115293300Y-109534523D01*
X115293300Y-109534523D02*
X115331395Y-109486904D01*
X115331395Y-109486904D02*
X115331395Y-109439285D01*
X115331395Y-109439285D02*
X115293300Y-109391666D01*
X115293300Y-109391666D02*
X115255204Y-109367857D01*
X115255204Y-109367857D02*
X115179014Y-109344047D01*
X115179014Y-109344047D02*
X115026633Y-109320238D01*
X115026633Y-109320238D02*
X114836157Y-109320238D01*
X114836157Y-109320238D02*
X114683776Y-109344047D01*
X114683776Y-109344047D02*
X114607585Y-109367857D01*
X114607585Y-109367857D02*
X114569490Y-109391666D01*
X114569490Y-109391666D02*
X114531395Y-109439285D01*
X124446428Y-93005204D02*
X124470237Y-93043300D01*
X124470237Y-93043300D02*
X124541666Y-93081395D01*
X124541666Y-93081395D02*
X124589285Y-93081395D01*
X124589285Y-93081395D02*
X124660713Y-93043300D01*
X124660713Y-93043300D02*
X124708332Y-92967109D01*
X124708332Y-92967109D02*
X124732142Y-92890919D01*
X124732142Y-92890919D02*
X124755951Y-92738538D01*
X124755951Y-92738538D02*
X124755951Y-92624252D01*
X124755951Y-92624252D02*
X124732142Y-92471871D01*
X124732142Y-92471871D02*
X124708332Y-92395680D01*
X124708332Y-92395680D02*
X124660713Y-92319490D01*
X124660713Y-92319490D02*
X124589285Y-92281395D01*
X124589285Y-92281395D02*
X124541666Y-92281395D01*
X124541666Y-92281395D02*
X124470237Y-92319490D01*
X124470237Y-92319490D02*
X124446428Y-92357585D01*
X123970237Y-93081395D02*
X124255951Y-93081395D01*
X124113094Y-93081395D02*
X124113094Y-92281395D01*
X124113094Y-92281395D02*
X124160713Y-92395680D01*
X124160713Y-92395680D02*
X124208332Y-92471871D01*
X124208332Y-92471871D02*
X124255951Y-92509966D01*
X123684523Y-92624252D02*
X123732142Y-92586157D01*
X123732142Y-92586157D02*
X123755952Y-92548061D01*
X123755952Y-92548061D02*
X123779761Y-92471871D01*
X123779761Y-92471871D02*
X123779761Y-92433776D01*
X123779761Y-92433776D02*
X123755952Y-92357585D01*
X123755952Y-92357585D02*
X123732142Y-92319490D01*
X123732142Y-92319490D02*
X123684523Y-92281395D01*
X123684523Y-92281395D02*
X123589285Y-92281395D01*
X123589285Y-92281395D02*
X123541666Y-92319490D01*
X123541666Y-92319490D02*
X123517857Y-92357585D01*
X123517857Y-92357585D02*
X123494047Y-92433776D01*
X123494047Y-92433776D02*
X123494047Y-92471871D01*
X123494047Y-92471871D02*
X123517857Y-92548061D01*
X123517857Y-92548061D02*
X123541666Y-92586157D01*
X123541666Y-92586157D02*
X123589285Y-92624252D01*
X123589285Y-92624252D02*
X123684523Y-92624252D01*
X123684523Y-92624252D02*
X123732142Y-92662347D01*
X123732142Y-92662347D02*
X123755952Y-92700442D01*
X123755952Y-92700442D02*
X123779761Y-92776633D01*
X123779761Y-92776633D02*
X123779761Y-92929014D01*
X123779761Y-92929014D02*
X123755952Y-93005204D01*
X123755952Y-93005204D02*
X123732142Y-93043300D01*
X123732142Y-93043300D02*
X123684523Y-93081395D01*
X123684523Y-93081395D02*
X123589285Y-93081395D01*
X123589285Y-93081395D02*
X123541666Y-93043300D01*
X123541666Y-93043300D02*
X123517857Y-93005204D01*
X123517857Y-93005204D02*
X123494047Y-92929014D01*
X123494047Y-92929014D02*
X123494047Y-92776633D01*
X123494047Y-92776633D02*
X123517857Y-92700442D01*
X123517857Y-92700442D02*
X123541666Y-92662347D01*
X123541666Y-92662347D02*
X123589285Y-92624252D01*
X112846427Y-108972204D02*
X112870236Y-109010300D01*
X112870236Y-109010300D02*
X112941665Y-109048395D01*
X112941665Y-109048395D02*
X112989284Y-109048395D01*
X112989284Y-109048395D02*
X113060712Y-109010300D01*
X113060712Y-109010300D02*
X113108331Y-108934109D01*
X113108331Y-108934109D02*
X113132141Y-108857919D01*
X113132141Y-108857919D02*
X113155950Y-108705538D01*
X113155950Y-108705538D02*
X113155950Y-108591252D01*
X113155950Y-108591252D02*
X113132141Y-108438871D01*
X113132141Y-108438871D02*
X113108331Y-108362680D01*
X113108331Y-108362680D02*
X113060712Y-108286490D01*
X113060712Y-108286490D02*
X112989284Y-108248395D01*
X112989284Y-108248395D02*
X112941665Y-108248395D01*
X112941665Y-108248395D02*
X112870236Y-108286490D01*
X112870236Y-108286490D02*
X112846427Y-108324585D01*
X112370236Y-109048395D02*
X112655950Y-109048395D01*
X112513093Y-109048395D02*
X112513093Y-108248395D01*
X112513093Y-108248395D02*
X112560712Y-108362680D01*
X112560712Y-108362680D02*
X112608331Y-108438871D01*
X112608331Y-108438871D02*
X112655950Y-108476966D01*
X111941665Y-108248395D02*
X112036903Y-108248395D01*
X112036903Y-108248395D02*
X112084522Y-108286490D01*
X112084522Y-108286490D02*
X112108332Y-108324585D01*
X112108332Y-108324585D02*
X112155951Y-108438871D01*
X112155951Y-108438871D02*
X112179760Y-108591252D01*
X112179760Y-108591252D02*
X112179760Y-108896014D01*
X112179760Y-108896014D02*
X112155951Y-108972204D01*
X112155951Y-108972204D02*
X112132141Y-109010300D01*
X112132141Y-109010300D02*
X112084522Y-109048395D01*
X112084522Y-109048395D02*
X111989284Y-109048395D01*
X111989284Y-109048395D02*
X111941665Y-109010300D01*
X111941665Y-109010300D02*
X111917856Y-108972204D01*
X111917856Y-108972204D02*
X111894046Y-108896014D01*
X111894046Y-108896014D02*
X111894046Y-108705538D01*
X111894046Y-108705538D02*
X111917856Y-108629347D01*
X111917856Y-108629347D02*
X111941665Y-108591252D01*
X111941665Y-108591252D02*
X111989284Y-108553157D01*
X111989284Y-108553157D02*
X112084522Y-108553157D01*
X112084522Y-108553157D02*
X112132141Y-108591252D01*
X112132141Y-108591252D02*
X112155951Y-108629347D01*
X112155951Y-108629347D02*
X112179760Y-108705538D01*
X131711428Y-98922204D02*
X131735237Y-98960300D01*
X131735237Y-98960300D02*
X131806666Y-98998395D01*
X131806666Y-98998395D02*
X131854285Y-98998395D01*
X131854285Y-98998395D02*
X131925713Y-98960300D01*
X131925713Y-98960300D02*
X131973332Y-98884109D01*
X131973332Y-98884109D02*
X131997142Y-98807919D01*
X131997142Y-98807919D02*
X132020951Y-98655538D01*
X132020951Y-98655538D02*
X132020951Y-98541252D01*
X132020951Y-98541252D02*
X131997142Y-98388871D01*
X131997142Y-98388871D02*
X131973332Y-98312680D01*
X131973332Y-98312680D02*
X131925713Y-98236490D01*
X131925713Y-98236490D02*
X131854285Y-98198395D01*
X131854285Y-98198395D02*
X131806666Y-98198395D01*
X131806666Y-98198395D02*
X131735237Y-98236490D01*
X131735237Y-98236490D02*
X131711428Y-98274585D01*
X131259047Y-98198395D02*
X131497142Y-98198395D01*
X131497142Y-98198395D02*
X131520951Y-98579347D01*
X131520951Y-98579347D02*
X131497142Y-98541252D01*
X131497142Y-98541252D02*
X131449523Y-98503157D01*
X131449523Y-98503157D02*
X131330475Y-98503157D01*
X131330475Y-98503157D02*
X131282856Y-98541252D01*
X131282856Y-98541252D02*
X131259047Y-98579347D01*
X131259047Y-98579347D02*
X131235237Y-98655538D01*
X131235237Y-98655538D02*
X131235237Y-98846014D01*
X131235237Y-98846014D02*
X131259047Y-98922204D01*
X131259047Y-98922204D02*
X131282856Y-98960300D01*
X131282856Y-98960300D02*
X131330475Y-98998395D01*
X131330475Y-98998395D02*
X131449523Y-98998395D01*
X131449523Y-98998395D02*
X131497142Y-98960300D01*
X131497142Y-98960300D02*
X131520951Y-98922204D01*
X130949523Y-98541252D02*
X130997142Y-98503157D01*
X130997142Y-98503157D02*
X131020952Y-98465061D01*
X131020952Y-98465061D02*
X131044761Y-98388871D01*
X131044761Y-98388871D02*
X131044761Y-98350776D01*
X131044761Y-98350776D02*
X131020952Y-98274585D01*
X131020952Y-98274585D02*
X130997142Y-98236490D01*
X130997142Y-98236490D02*
X130949523Y-98198395D01*
X130949523Y-98198395D02*
X130854285Y-98198395D01*
X130854285Y-98198395D02*
X130806666Y-98236490D01*
X130806666Y-98236490D02*
X130782857Y-98274585D01*
X130782857Y-98274585D02*
X130759047Y-98350776D01*
X130759047Y-98350776D02*
X130759047Y-98388871D01*
X130759047Y-98388871D02*
X130782857Y-98465061D01*
X130782857Y-98465061D02*
X130806666Y-98503157D01*
X130806666Y-98503157D02*
X130854285Y-98541252D01*
X130854285Y-98541252D02*
X130949523Y-98541252D01*
X130949523Y-98541252D02*
X130997142Y-98579347D01*
X130997142Y-98579347D02*
X131020952Y-98617442D01*
X131020952Y-98617442D02*
X131044761Y-98693633D01*
X131044761Y-98693633D02*
X131044761Y-98846014D01*
X131044761Y-98846014D02*
X131020952Y-98922204D01*
X131020952Y-98922204D02*
X130997142Y-98960300D01*
X130997142Y-98960300D02*
X130949523Y-98998395D01*
X130949523Y-98998395D02*
X130854285Y-98998395D01*
X130854285Y-98998395D02*
X130806666Y-98960300D01*
X130806666Y-98960300D02*
X130782857Y-98922204D01*
X130782857Y-98922204D02*
X130759047Y-98846014D01*
X130759047Y-98846014D02*
X130759047Y-98693633D01*
X130759047Y-98693633D02*
X130782857Y-98617442D01*
X130782857Y-98617442D02*
X130806666Y-98579347D01*
X130806666Y-98579347D02*
X130854285Y-98541252D01*
X135161428Y-102678395D02*
X135328094Y-102297442D01*
X135447142Y-102678395D02*
X135447142Y-101878395D01*
X135447142Y-101878395D02*
X135256666Y-101878395D01*
X135256666Y-101878395D02*
X135209047Y-101916490D01*
X135209047Y-101916490D02*
X135185237Y-101954585D01*
X135185237Y-101954585D02*
X135161428Y-102030776D01*
X135161428Y-102030776D02*
X135161428Y-102145061D01*
X135161428Y-102145061D02*
X135185237Y-102221252D01*
X135185237Y-102221252D02*
X135209047Y-102259347D01*
X135209047Y-102259347D02*
X135256666Y-102297442D01*
X135256666Y-102297442D02*
X135447142Y-102297442D01*
X134732856Y-102145061D02*
X134732856Y-102678395D01*
X134851904Y-101840300D02*
X134970951Y-102411728D01*
X134970951Y-102411728D02*
X134661428Y-102411728D01*
X134209047Y-102678395D02*
X134494761Y-102678395D01*
X134351904Y-102678395D02*
X134351904Y-101878395D01*
X134351904Y-101878395D02*
X134399523Y-101992680D01*
X134399523Y-101992680D02*
X134447142Y-102068871D01*
X134447142Y-102068871D02*
X134494761Y-102106966D01*
X127611428Y-101415204D02*
X127635237Y-101453300D01*
X127635237Y-101453300D02*
X127706666Y-101491395D01*
X127706666Y-101491395D02*
X127754285Y-101491395D01*
X127754285Y-101491395D02*
X127825713Y-101453300D01*
X127825713Y-101453300D02*
X127873332Y-101377109D01*
X127873332Y-101377109D02*
X127897142Y-101300919D01*
X127897142Y-101300919D02*
X127920951Y-101148538D01*
X127920951Y-101148538D02*
X127920951Y-101034252D01*
X127920951Y-101034252D02*
X127897142Y-100881871D01*
X127897142Y-100881871D02*
X127873332Y-100805680D01*
X127873332Y-100805680D02*
X127825713Y-100729490D01*
X127825713Y-100729490D02*
X127754285Y-100691395D01*
X127754285Y-100691395D02*
X127706666Y-100691395D01*
X127706666Y-100691395D02*
X127635237Y-100729490D01*
X127635237Y-100729490D02*
X127611428Y-100767585D01*
X127182856Y-100958061D02*
X127182856Y-101491395D01*
X127301904Y-100653300D02*
X127420951Y-101224728D01*
X127420951Y-101224728D02*
X127111428Y-101224728D01*
X126825714Y-100691395D02*
X126778095Y-100691395D01*
X126778095Y-100691395D02*
X126730476Y-100729490D01*
X126730476Y-100729490D02*
X126706666Y-100767585D01*
X126706666Y-100767585D02*
X126682857Y-100843776D01*
X126682857Y-100843776D02*
X126659047Y-100996157D01*
X126659047Y-100996157D02*
X126659047Y-101186633D01*
X126659047Y-101186633D02*
X126682857Y-101339014D01*
X126682857Y-101339014D02*
X126706666Y-101415204D01*
X126706666Y-101415204D02*
X126730476Y-101453300D01*
X126730476Y-101453300D02*
X126778095Y-101491395D01*
X126778095Y-101491395D02*
X126825714Y-101491395D01*
X126825714Y-101491395D02*
X126873333Y-101453300D01*
X126873333Y-101453300D02*
X126897142Y-101415204D01*
X126897142Y-101415204D02*
X126920952Y-101339014D01*
X126920952Y-101339014D02*
X126944761Y-101186633D01*
X126944761Y-101186633D02*
X126944761Y-100996157D01*
X126944761Y-100996157D02*
X126920952Y-100843776D01*
X126920952Y-100843776D02*
X126897142Y-100767585D01*
X126897142Y-100767585D02*
X126873333Y-100729490D01*
X126873333Y-100729490D02*
X126825714Y-100691395D01*
X122338728Y-102352857D02*
X122367300Y-102333809D01*
X122367300Y-102333809D02*
X122395871Y-102276667D01*
X122395871Y-102276667D02*
X122395871Y-102238571D01*
X122395871Y-102238571D02*
X122367300Y-102181428D01*
X122367300Y-102181428D02*
X122310157Y-102143333D01*
X122310157Y-102143333D02*
X122253014Y-102124286D01*
X122253014Y-102124286D02*
X122138728Y-102105238D01*
X122138728Y-102105238D02*
X122053014Y-102105238D01*
X122053014Y-102105238D02*
X121938728Y-102124286D01*
X121938728Y-102124286D02*
X121881585Y-102143333D01*
X121881585Y-102143333D02*
X121824442Y-102181428D01*
X121824442Y-102181428D02*
X121795871Y-102238571D01*
X121795871Y-102238571D02*
X121795871Y-102276667D01*
X121795871Y-102276667D02*
X121824442Y-102333809D01*
X121824442Y-102333809D02*
X121853014Y-102352857D01*
X121853014Y-102505238D02*
X121824442Y-102524286D01*
X121824442Y-102524286D02*
X121795871Y-102562381D01*
X121795871Y-102562381D02*
X121795871Y-102657619D01*
X121795871Y-102657619D02*
X121824442Y-102695714D01*
X121824442Y-102695714D02*
X121853014Y-102714762D01*
X121853014Y-102714762D02*
X121910157Y-102733809D01*
X121910157Y-102733809D02*
X121967300Y-102733809D01*
X121967300Y-102733809D02*
X122053014Y-102714762D01*
X122053014Y-102714762D02*
X122395871Y-102486190D01*
X122395871Y-102486190D02*
X122395871Y-102733809D01*
X122395871Y-103114761D02*
X122395871Y-102886190D01*
X122395871Y-103000476D02*
X121795871Y-103000476D01*
X121795871Y-103000476D02*
X121881585Y-102962380D01*
X121881585Y-102962380D02*
X121938728Y-102924285D01*
X121938728Y-102924285D02*
X121967300Y-102886190D01*
X114641428Y-107783395D02*
X114808094Y-107402442D01*
X114927142Y-107783395D02*
X114927142Y-106983395D01*
X114927142Y-106983395D02*
X114736666Y-106983395D01*
X114736666Y-106983395D02*
X114689047Y-107021490D01*
X114689047Y-107021490D02*
X114665237Y-107059585D01*
X114665237Y-107059585D02*
X114641428Y-107135776D01*
X114641428Y-107135776D02*
X114641428Y-107250061D01*
X114641428Y-107250061D02*
X114665237Y-107326252D01*
X114665237Y-107326252D02*
X114689047Y-107364347D01*
X114689047Y-107364347D02*
X114736666Y-107402442D01*
X114736666Y-107402442D02*
X114927142Y-107402442D01*
X114212856Y-106983395D02*
X114308094Y-106983395D01*
X114308094Y-106983395D02*
X114355713Y-107021490D01*
X114355713Y-107021490D02*
X114379523Y-107059585D01*
X114379523Y-107059585D02*
X114427142Y-107173871D01*
X114427142Y-107173871D02*
X114450951Y-107326252D01*
X114450951Y-107326252D02*
X114450951Y-107631014D01*
X114450951Y-107631014D02*
X114427142Y-107707204D01*
X114427142Y-107707204D02*
X114403332Y-107745300D01*
X114403332Y-107745300D02*
X114355713Y-107783395D01*
X114355713Y-107783395D02*
X114260475Y-107783395D01*
X114260475Y-107783395D02*
X114212856Y-107745300D01*
X114212856Y-107745300D02*
X114189047Y-107707204D01*
X114189047Y-107707204D02*
X114165237Y-107631014D01*
X114165237Y-107631014D02*
X114165237Y-107440538D01*
X114165237Y-107440538D02*
X114189047Y-107364347D01*
X114189047Y-107364347D02*
X114212856Y-107326252D01*
X114212856Y-107326252D02*
X114260475Y-107288157D01*
X114260475Y-107288157D02*
X114355713Y-107288157D01*
X114355713Y-107288157D02*
X114403332Y-107326252D01*
X114403332Y-107326252D02*
X114427142Y-107364347D01*
X114427142Y-107364347D02*
X114450951Y-107440538D01*
X113855714Y-106983395D02*
X113808095Y-106983395D01*
X113808095Y-106983395D02*
X113760476Y-107021490D01*
X113760476Y-107021490D02*
X113736666Y-107059585D01*
X113736666Y-107059585D02*
X113712857Y-107135776D01*
X113712857Y-107135776D02*
X113689047Y-107288157D01*
X113689047Y-107288157D02*
X113689047Y-107478633D01*
X113689047Y-107478633D02*
X113712857Y-107631014D01*
X113712857Y-107631014D02*
X113736666Y-107707204D01*
X113736666Y-107707204D02*
X113760476Y-107745300D01*
X113760476Y-107745300D02*
X113808095Y-107783395D01*
X113808095Y-107783395D02*
X113855714Y-107783395D01*
X113855714Y-107783395D02*
X113903333Y-107745300D01*
X113903333Y-107745300D02*
X113927142Y-107707204D01*
X113927142Y-107707204D02*
X113950952Y-107631014D01*
X113950952Y-107631014D02*
X113974761Y-107478633D01*
X113974761Y-107478633D02*
X113974761Y-107288157D01*
X113974761Y-107288157D02*
X113950952Y-107135776D01*
X113950952Y-107135776D02*
X113927142Y-107059585D01*
X113927142Y-107059585D02*
X113903333Y-107021490D01*
X113903333Y-107021490D02*
X113855714Y-106983395D01*
X117813095Y-95742442D02*
X117851190Y-95713871D01*
X117851190Y-95713871D02*
X117908333Y-95713871D01*
X117908333Y-95713871D02*
X117965476Y-95742442D01*
X117965476Y-95742442D02*
X118003571Y-95799585D01*
X118003571Y-95799585D02*
X118022618Y-95856728D01*
X118022618Y-95856728D02*
X118041666Y-95971014D01*
X118041666Y-95971014D02*
X118041666Y-96056728D01*
X118041666Y-96056728D02*
X118022618Y-96171014D01*
X118022618Y-96171014D02*
X118003571Y-96228157D01*
X118003571Y-96228157D02*
X117965476Y-96285300D01*
X117965476Y-96285300D02*
X117908333Y-96313871D01*
X117908333Y-96313871D02*
X117870237Y-96313871D01*
X117870237Y-96313871D02*
X117813095Y-96285300D01*
X117813095Y-96285300D02*
X117794047Y-96256728D01*
X117794047Y-96256728D02*
X117794047Y-96056728D01*
X117794047Y-96056728D02*
X117870237Y-96056728D01*
X117622618Y-96313871D02*
X117622618Y-95713871D01*
X117622618Y-95713871D02*
X117527380Y-95713871D01*
X117527380Y-95713871D02*
X117470237Y-95742442D01*
X117470237Y-95742442D02*
X117432142Y-95799585D01*
X117432142Y-95799585D02*
X117413095Y-95856728D01*
X117413095Y-95856728D02*
X117394047Y-95971014D01*
X117394047Y-95971014D02*
X117394047Y-96056728D01*
X117394047Y-96056728D02*
X117413095Y-96171014D01*
X117413095Y-96171014D02*
X117432142Y-96228157D01*
X117432142Y-96228157D02*
X117470237Y-96285300D01*
X117470237Y-96285300D02*
X117527380Y-96313871D01*
X117527380Y-96313871D02*
X117622618Y-96313871D01*
X117279761Y-95713871D02*
X117051190Y-95713871D01*
X117165476Y-96313871D02*
X117165476Y-95713871D01*
X116708333Y-96313871D02*
X116936904Y-96313871D01*
X116822618Y-96313871D02*
X116822618Y-95713871D01*
X116822618Y-95713871D02*
X116860714Y-95799585D01*
X116860714Y-95799585D02*
X116898809Y-95856728D01*
X116898809Y-95856728D02*
X116936904Y-95885300D01*
X154674895Y-107559047D02*
X153874895Y-107559047D01*
X153874895Y-107559047D02*
X153874895Y-107678095D01*
X153874895Y-107678095D02*
X153912990Y-107749523D01*
X153912990Y-107749523D02*
X153989180Y-107797142D01*
X153989180Y-107797142D02*
X154065371Y-107820952D01*
X154065371Y-107820952D02*
X154217752Y-107844761D01*
X154217752Y-107844761D02*
X154332038Y-107844761D01*
X154332038Y-107844761D02*
X154484419Y-107820952D01*
X154484419Y-107820952D02*
X154560609Y-107797142D01*
X154560609Y-107797142D02*
X154636800Y-107749523D01*
X154636800Y-107749523D02*
X154674895Y-107678095D01*
X154674895Y-107678095D02*
X154674895Y-107559047D01*
X153874895Y-108011428D02*
X153874895Y-108320952D01*
X153874895Y-108320952D02*
X154179657Y-108154285D01*
X154179657Y-108154285D02*
X154179657Y-108225714D01*
X154179657Y-108225714D02*
X154217752Y-108273333D01*
X154217752Y-108273333D02*
X154255847Y-108297142D01*
X154255847Y-108297142D02*
X154332038Y-108320952D01*
X154332038Y-108320952D02*
X154522514Y-108320952D01*
X154522514Y-108320952D02*
X154598704Y-108297142D01*
X154598704Y-108297142D02*
X154636800Y-108273333D01*
X154636800Y-108273333D02*
X154674895Y-108225714D01*
X154674895Y-108225714D02*
X154674895Y-108082857D01*
X154674895Y-108082857D02*
X154636800Y-108035238D01*
X154636800Y-108035238D02*
X154598704Y-108011428D01*
X144304895Y-89652856D02*
X143504895Y-89652856D01*
X143504895Y-89652856D02*
X143504895Y-89771904D01*
X143504895Y-89771904D02*
X143542990Y-89843332D01*
X143542990Y-89843332D02*
X143619180Y-89890951D01*
X143619180Y-89890951D02*
X143695371Y-89914761D01*
X143695371Y-89914761D02*
X143847752Y-89938570D01*
X143847752Y-89938570D02*
X143962038Y-89938570D01*
X143962038Y-89938570D02*
X144114419Y-89914761D01*
X144114419Y-89914761D02*
X144190609Y-89890951D01*
X144190609Y-89890951D02*
X144266800Y-89843332D01*
X144266800Y-89843332D02*
X144304895Y-89771904D01*
X144304895Y-89771904D02*
X144304895Y-89652856D01*
X144304895Y-90414761D02*
X144304895Y-90129047D01*
X144304895Y-90271904D02*
X143504895Y-90271904D01*
X143504895Y-90271904D02*
X143619180Y-90224285D01*
X143619180Y-90224285D02*
X143695371Y-90176666D01*
X143695371Y-90176666D02*
X143733466Y-90129047D01*
X153574895Y-91936189D02*
X153574895Y-91698094D01*
X153574895Y-91698094D02*
X152774895Y-91698094D01*
X153574895Y-92364761D02*
X153574895Y-92079047D01*
X153574895Y-92221904D02*
X152774895Y-92221904D01*
X152774895Y-92221904D02*
X152889180Y-92174285D01*
X152889180Y-92174285D02*
X152965371Y-92126666D01*
X152965371Y-92126666D02*
X153003466Y-92079047D01*
X122465203Y-97568571D02*
X122503299Y-97544762D01*
X122503299Y-97544762D02*
X122541394Y-97473333D01*
X122541394Y-97473333D02*
X122541394Y-97425714D01*
X122541394Y-97425714D02*
X122503299Y-97354286D01*
X122503299Y-97354286D02*
X122427108Y-97306667D01*
X122427108Y-97306667D02*
X122350918Y-97282857D01*
X122350918Y-97282857D02*
X122198537Y-97259048D01*
X122198537Y-97259048D02*
X122084251Y-97259048D01*
X122084251Y-97259048D02*
X121931870Y-97282857D01*
X121931870Y-97282857D02*
X121855679Y-97306667D01*
X121855679Y-97306667D02*
X121779489Y-97354286D01*
X121779489Y-97354286D02*
X121741394Y-97425714D01*
X121741394Y-97425714D02*
X121741394Y-97473333D01*
X121741394Y-97473333D02*
X121779489Y-97544762D01*
X121779489Y-97544762D02*
X121817584Y-97568571D01*
X122541394Y-98044762D02*
X122541394Y-97759048D01*
X122541394Y-97901905D02*
X121741394Y-97901905D01*
X121741394Y-97901905D02*
X121855679Y-97854286D01*
X121855679Y-97854286D02*
X121931870Y-97806667D01*
X121931870Y-97806667D02*
X121969965Y-97759048D01*
X122008060Y-98473333D02*
X122541394Y-98473333D01*
X121703299Y-98354285D02*
X122274727Y-98235238D01*
X122274727Y-98235238D02*
X122274727Y-98544761D01*
X145448704Y-109254761D02*
X145486800Y-109230952D01*
X145486800Y-109230952D02*
X145524895Y-109159523D01*
X145524895Y-109159523D02*
X145524895Y-109111904D01*
X145524895Y-109111904D02*
X145486800Y-109040476D01*
X145486800Y-109040476D02*
X145410609Y-108992857D01*
X145410609Y-108992857D02*
X145334419Y-108969047D01*
X145334419Y-108969047D02*
X145182038Y-108945238D01*
X145182038Y-108945238D02*
X145067752Y-108945238D01*
X145067752Y-108945238D02*
X144915371Y-108969047D01*
X144915371Y-108969047D02*
X144839180Y-108992857D01*
X144839180Y-108992857D02*
X144762990Y-109040476D01*
X144762990Y-109040476D02*
X144724895Y-109111904D01*
X144724895Y-109111904D02*
X144724895Y-109159523D01*
X144724895Y-109159523D02*
X144762990Y-109230952D01*
X144762990Y-109230952D02*
X144801085Y-109254761D01*
X144724895Y-109683333D02*
X144724895Y-109588095D01*
X144724895Y-109588095D02*
X144762990Y-109540476D01*
X144762990Y-109540476D02*
X144801085Y-109516666D01*
X144801085Y-109516666D02*
X144915371Y-109469047D01*
X144915371Y-109469047D02*
X145067752Y-109445238D01*
X145067752Y-109445238D02*
X145372514Y-109445238D01*
X145372514Y-109445238D02*
X145448704Y-109469047D01*
X145448704Y-109469047D02*
X145486800Y-109492857D01*
X145486800Y-109492857D02*
X145524895Y-109540476D01*
X145524895Y-109540476D02*
X145524895Y-109635714D01*
X145524895Y-109635714D02*
X145486800Y-109683333D01*
X145486800Y-109683333D02*
X145448704Y-109707142D01*
X145448704Y-109707142D02*
X145372514Y-109730952D01*
X145372514Y-109730952D02*
X145182038Y-109730952D01*
X145182038Y-109730952D02*
X145105847Y-109707142D01*
X145105847Y-109707142D02*
X145067752Y-109683333D01*
X145067752Y-109683333D02*
X145029657Y-109635714D01*
X145029657Y-109635714D02*
X145029657Y-109540476D01*
X145029657Y-109540476D02*
X145067752Y-109492857D01*
X145067752Y-109492857D02*
X145105847Y-109469047D01*
X145105847Y-109469047D02*
X145182038Y-109445238D01*
X144724895Y-109897618D02*
X144724895Y-110207142D01*
X144724895Y-110207142D02*
X145029657Y-110040475D01*
X145029657Y-110040475D02*
X145029657Y-110111904D01*
X145029657Y-110111904D02*
X145067752Y-110159523D01*
X145067752Y-110159523D02*
X145105847Y-110183332D01*
X145105847Y-110183332D02*
X145182038Y-110207142D01*
X145182038Y-110207142D02*
X145372514Y-110207142D01*
X145372514Y-110207142D02*
X145448704Y-110183332D01*
X145448704Y-110183332D02*
X145486800Y-110159523D01*
X145486800Y-110159523D02*
X145524895Y-110111904D01*
X145524895Y-110111904D02*
X145524895Y-109969047D01*
X145524895Y-109969047D02*
X145486800Y-109921428D01*
X145486800Y-109921428D02*
X145448704Y-109897618D01*
X143222204Y-98378571D02*
X143260300Y-98354762D01*
X143260300Y-98354762D02*
X143298395Y-98283333D01*
X143298395Y-98283333D02*
X143298395Y-98235714D01*
X143298395Y-98235714D02*
X143260300Y-98164286D01*
X143260300Y-98164286D02*
X143184109Y-98116667D01*
X143184109Y-98116667D02*
X143107919Y-98092857D01*
X143107919Y-98092857D02*
X142955538Y-98069048D01*
X142955538Y-98069048D02*
X142841252Y-98069048D01*
X142841252Y-98069048D02*
X142688871Y-98092857D01*
X142688871Y-98092857D02*
X142612680Y-98116667D01*
X142612680Y-98116667D02*
X142536490Y-98164286D01*
X142536490Y-98164286D02*
X142498395Y-98235714D01*
X142498395Y-98235714D02*
X142498395Y-98283333D01*
X142498395Y-98283333D02*
X142536490Y-98354762D01*
X142536490Y-98354762D02*
X142574585Y-98378571D01*
X142498395Y-98807143D02*
X142498395Y-98711905D01*
X142498395Y-98711905D02*
X142536490Y-98664286D01*
X142536490Y-98664286D02*
X142574585Y-98640476D01*
X142574585Y-98640476D02*
X142688871Y-98592857D01*
X142688871Y-98592857D02*
X142841252Y-98569048D01*
X142841252Y-98569048D02*
X143146014Y-98569048D01*
X143146014Y-98569048D02*
X143222204Y-98592857D01*
X143222204Y-98592857D02*
X143260300Y-98616667D01*
X143260300Y-98616667D02*
X143298395Y-98664286D01*
X143298395Y-98664286D02*
X143298395Y-98759524D01*
X143298395Y-98759524D02*
X143260300Y-98807143D01*
X143260300Y-98807143D02*
X143222204Y-98830952D01*
X143222204Y-98830952D02*
X143146014Y-98854762D01*
X143146014Y-98854762D02*
X142955538Y-98854762D01*
X142955538Y-98854762D02*
X142879347Y-98830952D01*
X142879347Y-98830952D02*
X142841252Y-98807143D01*
X142841252Y-98807143D02*
X142803157Y-98759524D01*
X142803157Y-98759524D02*
X142803157Y-98664286D01*
X142803157Y-98664286D02*
X142841252Y-98616667D01*
X142841252Y-98616667D02*
X142879347Y-98592857D01*
X142879347Y-98592857D02*
X142955538Y-98569048D01*
X142498395Y-99307142D02*
X142498395Y-99069047D01*
X142498395Y-99069047D02*
X142879347Y-99045238D01*
X142879347Y-99045238D02*
X142841252Y-99069047D01*
X142841252Y-99069047D02*
X142803157Y-99116666D01*
X142803157Y-99116666D02*
X142803157Y-99235714D01*
X142803157Y-99235714D02*
X142841252Y-99283333D01*
X142841252Y-99283333D02*
X142879347Y-99307142D01*
X142879347Y-99307142D02*
X142955538Y-99330952D01*
X142955538Y-99330952D02*
X143146014Y-99330952D01*
X143146014Y-99330952D02*
X143222204Y-99307142D01*
X143222204Y-99307142D02*
X143260300Y-99283333D01*
X143260300Y-99283333D02*
X143298395Y-99235714D01*
X143298395Y-99235714D02*
X143298395Y-99116666D01*
X143298395Y-99116666D02*
X143260300Y-99069047D01*
X143260300Y-99069047D02*
X143222204Y-99045238D01*
X132775227Y-107926905D02*
X132803799Y-107907857D01*
X132803799Y-107907857D02*
X132832370Y-107850715D01*
X132832370Y-107850715D02*
X132832370Y-107812619D01*
X132832370Y-107812619D02*
X132803799Y-107755476D01*
X132803799Y-107755476D02*
X132746656Y-107717381D01*
X132746656Y-107717381D02*
X132689513Y-107698334D01*
X132689513Y-107698334D02*
X132575227Y-107679286D01*
X132575227Y-107679286D02*
X132489513Y-107679286D01*
X132489513Y-107679286D02*
X132375227Y-107698334D01*
X132375227Y-107698334D02*
X132318084Y-107717381D01*
X132318084Y-107717381D02*
X132260941Y-107755476D01*
X132260941Y-107755476D02*
X132232370Y-107812619D01*
X132232370Y-107812619D02*
X132232370Y-107850715D01*
X132232370Y-107850715D02*
X132260941Y-107907857D01*
X132260941Y-107907857D02*
X132289513Y-107926905D01*
X132232370Y-108060238D02*
X132232370Y-108307857D01*
X132232370Y-108307857D02*
X132460941Y-108174524D01*
X132460941Y-108174524D02*
X132460941Y-108231667D01*
X132460941Y-108231667D02*
X132489513Y-108269762D01*
X132489513Y-108269762D02*
X132518084Y-108288810D01*
X132518084Y-108288810D02*
X132575227Y-108307857D01*
X132575227Y-108307857D02*
X132718084Y-108307857D01*
X132718084Y-108307857D02*
X132775227Y-108288810D01*
X132775227Y-108288810D02*
X132803799Y-108269762D01*
X132803799Y-108269762D02*
X132832370Y-108231667D01*
X132832370Y-108231667D02*
X132832370Y-108117381D01*
X132832370Y-108117381D02*
X132803799Y-108079286D01*
X132803799Y-108079286D02*
X132775227Y-108060238D01*
X132232370Y-108555476D02*
X132232370Y-108593571D01*
X132232370Y-108593571D02*
X132260941Y-108631667D01*
X132260941Y-108631667D02*
X132289513Y-108650714D01*
X132289513Y-108650714D02*
X132346656Y-108669762D01*
X132346656Y-108669762D02*
X132460941Y-108688809D01*
X132460941Y-108688809D02*
X132603799Y-108688809D01*
X132603799Y-108688809D02*
X132718084Y-108669762D01*
X132718084Y-108669762D02*
X132775227Y-108650714D01*
X132775227Y-108650714D02*
X132803799Y-108631667D01*
X132803799Y-108631667D02*
X132832370Y-108593571D01*
X132832370Y-108593571D02*
X132832370Y-108555476D01*
X132832370Y-108555476D02*
X132803799Y-108517381D01*
X132803799Y-108517381D02*
X132775227Y-108498333D01*
X132775227Y-108498333D02*
X132718084Y-108479286D01*
X132718084Y-108479286D02*
X132603799Y-108460238D01*
X132603799Y-108460238D02*
X132460941Y-108460238D01*
X132460941Y-108460238D02*
X132346656Y-108479286D01*
X132346656Y-108479286D02*
X132289513Y-108498333D01*
X132289513Y-108498333D02*
X132260941Y-108517381D01*
X132260941Y-108517381D02*
X132232370Y-108555476D01*
X134405228Y-100623809D02*
X134433800Y-100604761D01*
X134433800Y-100604761D02*
X134462371Y-100547619D01*
X134462371Y-100547619D02*
X134462371Y-100509523D01*
X134462371Y-100509523D02*
X134433800Y-100452380D01*
X134433800Y-100452380D02*
X134376657Y-100414285D01*
X134376657Y-100414285D02*
X134319514Y-100395238D01*
X134319514Y-100395238D02*
X134205228Y-100376190D01*
X134205228Y-100376190D02*
X134119514Y-100376190D01*
X134119514Y-100376190D02*
X134005228Y-100395238D01*
X134005228Y-100395238D02*
X133948085Y-100414285D01*
X133948085Y-100414285D02*
X133890942Y-100452380D01*
X133890942Y-100452380D02*
X133862371Y-100509523D01*
X133862371Y-100509523D02*
X133862371Y-100547619D01*
X133862371Y-100547619D02*
X133890942Y-100604761D01*
X133890942Y-100604761D02*
X133919514Y-100623809D01*
X133862371Y-100985714D02*
X133862371Y-100795238D01*
X133862371Y-100795238D02*
X134148085Y-100776190D01*
X134148085Y-100776190D02*
X134119514Y-100795238D01*
X134119514Y-100795238D02*
X134090942Y-100833333D01*
X134090942Y-100833333D02*
X134090942Y-100928571D01*
X134090942Y-100928571D02*
X134119514Y-100966666D01*
X134119514Y-100966666D02*
X134148085Y-100985714D01*
X134148085Y-100985714D02*
X134205228Y-101004761D01*
X134205228Y-101004761D02*
X134348085Y-101004761D01*
X134348085Y-101004761D02*
X134405228Y-100985714D01*
X134405228Y-100985714D02*
X134433800Y-100966666D01*
X134433800Y-100966666D02*
X134462371Y-100928571D01*
X134462371Y-100928571D02*
X134462371Y-100833333D01*
X134462371Y-100833333D02*
X134433800Y-100795238D01*
X134433800Y-100795238D02*
X134405228Y-100776190D01*
X133862371Y-101138094D02*
X133862371Y-101404761D01*
X133862371Y-101404761D02*
X134462371Y-101233332D01*
X126012204Y-98093571D02*
X126050300Y-98069762D01*
X126050300Y-98069762D02*
X126088395Y-97998333D01*
X126088395Y-97998333D02*
X126088395Y-97950714D01*
X126088395Y-97950714D02*
X126050300Y-97879286D01*
X126050300Y-97879286D02*
X125974109Y-97831667D01*
X125974109Y-97831667D02*
X125897919Y-97807857D01*
X125897919Y-97807857D02*
X125745538Y-97784048D01*
X125745538Y-97784048D02*
X125631252Y-97784048D01*
X125631252Y-97784048D02*
X125478871Y-97807857D01*
X125478871Y-97807857D02*
X125402680Y-97831667D01*
X125402680Y-97831667D02*
X125326490Y-97879286D01*
X125326490Y-97879286D02*
X125288395Y-97950714D01*
X125288395Y-97950714D02*
X125288395Y-97998333D01*
X125288395Y-97998333D02*
X125326490Y-98069762D01*
X125326490Y-98069762D02*
X125364585Y-98093571D01*
X126088395Y-98569762D02*
X126088395Y-98284048D01*
X126088395Y-98426905D02*
X125288395Y-98426905D01*
X125288395Y-98426905D02*
X125402680Y-98379286D01*
X125402680Y-98379286D02*
X125478871Y-98331667D01*
X125478871Y-98331667D02*
X125516966Y-98284048D01*
X125288395Y-99022142D02*
X125288395Y-98784047D01*
X125288395Y-98784047D02*
X125669347Y-98760238D01*
X125669347Y-98760238D02*
X125631252Y-98784047D01*
X125631252Y-98784047D02*
X125593157Y-98831666D01*
X125593157Y-98831666D02*
X125593157Y-98950714D01*
X125593157Y-98950714D02*
X125631252Y-98998333D01*
X125631252Y-98998333D02*
X125669347Y-99022142D01*
X125669347Y-99022142D02*
X125745538Y-99045952D01*
X125745538Y-99045952D02*
X125936014Y-99045952D01*
X125936014Y-99045952D02*
X126012204Y-99022142D01*
X126012204Y-99022142D02*
X126050300Y-98998333D01*
X126050300Y-98998333D02*
X126088395Y-98950714D01*
X126088395Y-98950714D02*
X126088395Y-98831666D01*
X126088395Y-98831666D02*
X126050300Y-98784047D01*
X126050300Y-98784047D02*
X126012204Y-98760238D01*
X139319047Y-101891395D02*
X139319047Y-102539014D01*
X139319047Y-102539014D02*
X139295237Y-102615204D01*
X139295237Y-102615204D02*
X139271428Y-102653300D01*
X139271428Y-102653300D02*
X139223809Y-102691395D01*
X139223809Y-102691395D02*
X139128571Y-102691395D01*
X139128571Y-102691395D02*
X139080952Y-102653300D01*
X139080952Y-102653300D02*
X139057142Y-102615204D01*
X139057142Y-102615204D02*
X139033333Y-102539014D01*
X139033333Y-102539014D02*
X139033333Y-101891395D01*
X138533332Y-102691395D02*
X138819046Y-102691395D01*
X138676189Y-102691395D02*
X138676189Y-101891395D01*
X138676189Y-101891395D02*
X138723808Y-102005680D01*
X138723808Y-102005680D02*
X138771427Y-102081871D01*
X138771427Y-102081871D02*
X138819046Y-102119966D01*
X138342856Y-101967585D02*
X138319047Y-101929490D01*
X138319047Y-101929490D02*
X138271428Y-101891395D01*
X138271428Y-101891395D02*
X138152380Y-101891395D01*
X138152380Y-101891395D02*
X138104761Y-101929490D01*
X138104761Y-101929490D02*
X138080952Y-101967585D01*
X138080952Y-101967585D02*
X138057142Y-102043776D01*
X138057142Y-102043776D02*
X138057142Y-102119966D01*
X138057142Y-102119966D02*
X138080952Y-102234252D01*
X138080952Y-102234252D02*
X138366666Y-102691395D01*
X138366666Y-102691395D02*
X138057142Y-102691395D01*
X108177738Y-95264895D02*
X108344404Y-94883942D01*
X108463452Y-95264895D02*
X108463452Y-94464895D01*
X108463452Y-94464895D02*
X108272976Y-94464895D01*
X108272976Y-94464895D02*
X108225357Y-94502990D01*
X108225357Y-94502990D02*
X108201547Y-94541085D01*
X108201547Y-94541085D02*
X108177738Y-94617276D01*
X108177738Y-94617276D02*
X108177738Y-94731561D01*
X108177738Y-94731561D02*
X108201547Y-94807752D01*
X108201547Y-94807752D02*
X108225357Y-94845847D01*
X108225357Y-94845847D02*
X108272976Y-94883942D01*
X108272976Y-94883942D02*
X108463452Y-94883942D01*
X107749166Y-94731561D02*
X107749166Y-95264895D01*
X107868214Y-94426800D02*
X107987261Y-94998228D01*
X107987261Y-94998228D02*
X107677738Y-94998228D01*
X139910951Y-89514895D02*
X139910951Y-90162514D01*
X139910951Y-90162514D02*
X139887141Y-90238704D01*
X139887141Y-90238704D02*
X139863332Y-90276800D01*
X139863332Y-90276800D02*
X139815713Y-90314895D01*
X139815713Y-90314895D02*
X139720475Y-90314895D01*
X139720475Y-90314895D02*
X139672856Y-90276800D01*
X139672856Y-90276800D02*
X139649046Y-90238704D01*
X139649046Y-90238704D02*
X139625237Y-90162514D01*
X139625237Y-90162514D02*
X139625237Y-89514895D01*
X139315712Y-89857752D02*
X139363331Y-89819657D01*
X139363331Y-89819657D02*
X139387141Y-89781561D01*
X139387141Y-89781561D02*
X139410950Y-89705371D01*
X139410950Y-89705371D02*
X139410950Y-89667276D01*
X139410950Y-89667276D02*
X139387141Y-89591085D01*
X139387141Y-89591085D02*
X139363331Y-89552990D01*
X139363331Y-89552990D02*
X139315712Y-89514895D01*
X139315712Y-89514895D02*
X139220474Y-89514895D01*
X139220474Y-89514895D02*
X139172855Y-89552990D01*
X139172855Y-89552990D02*
X139149046Y-89591085D01*
X139149046Y-89591085D02*
X139125236Y-89667276D01*
X139125236Y-89667276D02*
X139125236Y-89705371D01*
X139125236Y-89705371D02*
X139149046Y-89781561D01*
X139149046Y-89781561D02*
X139172855Y-89819657D01*
X139172855Y-89819657D02*
X139220474Y-89857752D01*
X139220474Y-89857752D02*
X139315712Y-89857752D01*
X139315712Y-89857752D02*
X139363331Y-89895847D01*
X139363331Y-89895847D02*
X139387141Y-89933942D01*
X139387141Y-89933942D02*
X139410950Y-90010133D01*
X139410950Y-90010133D02*
X139410950Y-90162514D01*
X139410950Y-90162514D02*
X139387141Y-90238704D01*
X139387141Y-90238704D02*
X139363331Y-90276800D01*
X139363331Y-90276800D02*
X139315712Y-90314895D01*
X139315712Y-90314895D02*
X139220474Y-90314895D01*
X139220474Y-90314895D02*
X139172855Y-90276800D01*
X139172855Y-90276800D02*
X139149046Y-90238704D01*
X139149046Y-90238704D02*
X139125236Y-90162514D01*
X139125236Y-90162514D02*
X139125236Y-90010133D01*
X139125236Y-90010133D02*
X139149046Y-89933942D01*
X139149046Y-89933942D02*
X139172855Y-89895847D01*
X139172855Y-89895847D02*
X139220474Y-89857752D01*
X129891428Y-99033395D02*
X130058094Y-98652442D01*
X130177142Y-99033395D02*
X130177142Y-98233395D01*
X130177142Y-98233395D02*
X129986666Y-98233395D01*
X129986666Y-98233395D02*
X129939047Y-98271490D01*
X129939047Y-98271490D02*
X129915237Y-98309585D01*
X129915237Y-98309585D02*
X129891428Y-98385776D01*
X129891428Y-98385776D02*
X129891428Y-98500061D01*
X129891428Y-98500061D02*
X129915237Y-98576252D01*
X129915237Y-98576252D02*
X129939047Y-98614347D01*
X129939047Y-98614347D02*
X129986666Y-98652442D01*
X129986666Y-98652442D02*
X130177142Y-98652442D01*
X129462856Y-98500061D02*
X129462856Y-99033395D01*
X129581904Y-98195300D02*
X129700951Y-98766728D01*
X129700951Y-98766728D02*
X129391428Y-98766728D01*
X128986666Y-98500061D02*
X128986666Y-99033395D01*
X129105714Y-98195300D02*
X129224761Y-98766728D01*
X129224761Y-98766728D02*
X128915238Y-98766728D01*
X120832142Y-107523395D02*
X120832142Y-106723395D01*
X120832142Y-106723395D02*
X120713094Y-106723395D01*
X120713094Y-106723395D02*
X120641666Y-106761490D01*
X120641666Y-106761490D02*
X120594047Y-106837680D01*
X120594047Y-106837680D02*
X120570237Y-106913871D01*
X120570237Y-106913871D02*
X120546428Y-107066252D01*
X120546428Y-107066252D02*
X120546428Y-107180538D01*
X120546428Y-107180538D02*
X120570237Y-107332919D01*
X120570237Y-107332919D02*
X120594047Y-107409109D01*
X120594047Y-107409109D02*
X120641666Y-107485300D01*
X120641666Y-107485300D02*
X120713094Y-107523395D01*
X120713094Y-107523395D02*
X120832142Y-107523395D01*
X120117856Y-106723395D02*
X120213094Y-106723395D01*
X120213094Y-106723395D02*
X120260713Y-106761490D01*
X120260713Y-106761490D02*
X120284523Y-106799585D01*
X120284523Y-106799585D02*
X120332142Y-106913871D01*
X120332142Y-106913871D02*
X120355951Y-107066252D01*
X120355951Y-107066252D02*
X120355951Y-107371014D01*
X120355951Y-107371014D02*
X120332142Y-107447204D01*
X120332142Y-107447204D02*
X120308332Y-107485300D01*
X120308332Y-107485300D02*
X120260713Y-107523395D01*
X120260713Y-107523395D02*
X120165475Y-107523395D01*
X120165475Y-107523395D02*
X120117856Y-107485300D01*
X120117856Y-107485300D02*
X120094047Y-107447204D01*
X120094047Y-107447204D02*
X120070237Y-107371014D01*
X120070237Y-107371014D02*
X120070237Y-107180538D01*
X120070237Y-107180538D02*
X120094047Y-107104347D01*
X120094047Y-107104347D02*
X120117856Y-107066252D01*
X120117856Y-107066252D02*
X120165475Y-107028157D01*
X120165475Y-107028157D02*
X120260713Y-107028157D01*
X120260713Y-107028157D02*
X120308332Y-107066252D01*
X120308332Y-107066252D02*
X120332142Y-107104347D01*
X120332142Y-107104347D02*
X120355951Y-107180538D01*
X119594047Y-107523395D02*
X119879761Y-107523395D01*
X119736904Y-107523395D02*
X119736904Y-106723395D01*
X119736904Y-106723395D02*
X119784523Y-106837680D01*
X119784523Y-106837680D02*
X119832142Y-106913871D01*
X119832142Y-106913871D02*
X119879761Y-106951966D01*
X145071428Y-99205204D02*
X145095237Y-99243300D01*
X145095237Y-99243300D02*
X145166666Y-99281395D01*
X145166666Y-99281395D02*
X145214285Y-99281395D01*
X145214285Y-99281395D02*
X145285713Y-99243300D01*
X145285713Y-99243300D02*
X145333332Y-99167109D01*
X145333332Y-99167109D02*
X145357142Y-99090919D01*
X145357142Y-99090919D02*
X145380951Y-98938538D01*
X145380951Y-98938538D02*
X145380951Y-98824252D01*
X145380951Y-98824252D02*
X145357142Y-98671871D01*
X145357142Y-98671871D02*
X145333332Y-98595680D01*
X145333332Y-98595680D02*
X145285713Y-98519490D01*
X145285713Y-98519490D02*
X145214285Y-98481395D01*
X145214285Y-98481395D02*
X145166666Y-98481395D01*
X145166666Y-98481395D02*
X145095237Y-98519490D01*
X145095237Y-98519490D02*
X145071428Y-98557585D01*
X144642856Y-98481395D02*
X144738094Y-98481395D01*
X144738094Y-98481395D02*
X144785713Y-98519490D01*
X144785713Y-98519490D02*
X144809523Y-98557585D01*
X144809523Y-98557585D02*
X144857142Y-98671871D01*
X144857142Y-98671871D02*
X144880951Y-98824252D01*
X144880951Y-98824252D02*
X144880951Y-99129014D01*
X144880951Y-99129014D02*
X144857142Y-99205204D01*
X144857142Y-99205204D02*
X144833332Y-99243300D01*
X144833332Y-99243300D02*
X144785713Y-99281395D01*
X144785713Y-99281395D02*
X144690475Y-99281395D01*
X144690475Y-99281395D02*
X144642856Y-99243300D01*
X144642856Y-99243300D02*
X144619047Y-99205204D01*
X144619047Y-99205204D02*
X144595237Y-99129014D01*
X144595237Y-99129014D02*
X144595237Y-98938538D01*
X144595237Y-98938538D02*
X144619047Y-98862347D01*
X144619047Y-98862347D02*
X144642856Y-98824252D01*
X144642856Y-98824252D02*
X144690475Y-98786157D01*
X144690475Y-98786157D02*
X144785713Y-98786157D01*
X144785713Y-98786157D02*
X144833332Y-98824252D01*
X144833332Y-98824252D02*
X144857142Y-98862347D01*
X144857142Y-98862347D02*
X144880951Y-98938538D01*
X144166666Y-98748061D02*
X144166666Y-99281395D01*
X144285714Y-98443300D02*
X144404761Y-99014728D01*
X144404761Y-99014728D02*
X144095238Y-99014728D01*
X127412204Y-99093571D02*
X127450300Y-99069762D01*
X127450300Y-99069762D02*
X127488395Y-98998333D01*
X127488395Y-98998333D02*
X127488395Y-98950714D01*
X127488395Y-98950714D02*
X127450300Y-98879286D01*
X127450300Y-98879286D02*
X127374109Y-98831667D01*
X127374109Y-98831667D02*
X127297919Y-98807857D01*
X127297919Y-98807857D02*
X127145538Y-98784048D01*
X127145538Y-98784048D02*
X127031252Y-98784048D01*
X127031252Y-98784048D02*
X126878871Y-98807857D01*
X126878871Y-98807857D02*
X126802680Y-98831667D01*
X126802680Y-98831667D02*
X126726490Y-98879286D01*
X126726490Y-98879286D02*
X126688395Y-98950714D01*
X126688395Y-98950714D02*
X126688395Y-98998333D01*
X126688395Y-98998333D02*
X126726490Y-99069762D01*
X126726490Y-99069762D02*
X126764585Y-99093571D01*
X126764585Y-99284048D02*
X126726490Y-99307857D01*
X126726490Y-99307857D02*
X126688395Y-99355476D01*
X126688395Y-99355476D02*
X126688395Y-99474524D01*
X126688395Y-99474524D02*
X126726490Y-99522143D01*
X126726490Y-99522143D02*
X126764585Y-99545952D01*
X126764585Y-99545952D02*
X126840776Y-99569762D01*
X126840776Y-99569762D02*
X126916966Y-99569762D01*
X126916966Y-99569762D02*
X127031252Y-99545952D01*
X127031252Y-99545952D02*
X127488395Y-99260238D01*
X127488395Y-99260238D02*
X127488395Y-99569762D01*
X126688395Y-99879285D02*
X126688395Y-99926904D01*
X126688395Y-99926904D02*
X126726490Y-99974523D01*
X126726490Y-99974523D02*
X126764585Y-99998333D01*
X126764585Y-99998333D02*
X126840776Y-100022142D01*
X126840776Y-100022142D02*
X126993157Y-100045952D01*
X126993157Y-100045952D02*
X127183633Y-100045952D01*
X127183633Y-100045952D02*
X127336014Y-100022142D01*
X127336014Y-100022142D02*
X127412204Y-99998333D01*
X127412204Y-99998333D02*
X127450300Y-99974523D01*
X127450300Y-99974523D02*
X127488395Y-99926904D01*
X127488395Y-99926904D02*
X127488395Y-99879285D01*
X127488395Y-99879285D02*
X127450300Y-99831666D01*
X127450300Y-99831666D02*
X127412204Y-99807857D01*
X127412204Y-99807857D02*
X127336014Y-99784047D01*
X127336014Y-99784047D02*
X127183633Y-99760238D01*
X127183633Y-99760238D02*
X126993157Y-99760238D01*
X126993157Y-99760238D02*
X126840776Y-99784047D01*
X126840776Y-99784047D02*
X126764585Y-99807857D01*
X126764585Y-99807857D02*
X126726490Y-99831666D01*
X126726490Y-99831666D02*
X126688395Y-99879285D01*
X146888704Y-109194761D02*
X146926800Y-109170952D01*
X146926800Y-109170952D02*
X146964895Y-109099523D01*
X146964895Y-109099523D02*
X146964895Y-109051904D01*
X146964895Y-109051904D02*
X146926800Y-108980476D01*
X146926800Y-108980476D02*
X146850609Y-108932857D01*
X146850609Y-108932857D02*
X146774419Y-108909047D01*
X146774419Y-108909047D02*
X146622038Y-108885238D01*
X146622038Y-108885238D02*
X146507752Y-108885238D01*
X146507752Y-108885238D02*
X146355371Y-108909047D01*
X146355371Y-108909047D02*
X146279180Y-108932857D01*
X146279180Y-108932857D02*
X146202990Y-108980476D01*
X146202990Y-108980476D02*
X146164895Y-109051904D01*
X146164895Y-109051904D02*
X146164895Y-109099523D01*
X146164895Y-109099523D02*
X146202990Y-109170952D01*
X146202990Y-109170952D02*
X146241085Y-109194761D01*
X146164895Y-109623333D02*
X146164895Y-109528095D01*
X146164895Y-109528095D02*
X146202990Y-109480476D01*
X146202990Y-109480476D02*
X146241085Y-109456666D01*
X146241085Y-109456666D02*
X146355371Y-109409047D01*
X146355371Y-109409047D02*
X146507752Y-109385238D01*
X146507752Y-109385238D02*
X146812514Y-109385238D01*
X146812514Y-109385238D02*
X146888704Y-109409047D01*
X146888704Y-109409047D02*
X146926800Y-109432857D01*
X146926800Y-109432857D02*
X146964895Y-109480476D01*
X146964895Y-109480476D02*
X146964895Y-109575714D01*
X146964895Y-109575714D02*
X146926800Y-109623333D01*
X146926800Y-109623333D02*
X146888704Y-109647142D01*
X146888704Y-109647142D02*
X146812514Y-109670952D01*
X146812514Y-109670952D02*
X146622038Y-109670952D01*
X146622038Y-109670952D02*
X146545847Y-109647142D01*
X146545847Y-109647142D02*
X146507752Y-109623333D01*
X146507752Y-109623333D02*
X146469657Y-109575714D01*
X146469657Y-109575714D02*
X146469657Y-109480476D01*
X146469657Y-109480476D02*
X146507752Y-109432857D01*
X146507752Y-109432857D02*
X146545847Y-109409047D01*
X146545847Y-109409047D02*
X146622038Y-109385238D01*
X146964895Y-110147142D02*
X146964895Y-109861428D01*
X146964895Y-110004285D02*
X146164895Y-110004285D01*
X146164895Y-110004285D02*
X146279180Y-109956666D01*
X146279180Y-109956666D02*
X146355371Y-109909047D01*
X146355371Y-109909047D02*
X146393466Y-109861428D01*
X137866190Y-110992371D02*
X137999523Y-110706657D01*
X138094761Y-110992371D02*
X138094761Y-110392371D01*
X138094761Y-110392371D02*
X137942380Y-110392371D01*
X137942380Y-110392371D02*
X137904285Y-110420942D01*
X137904285Y-110420942D02*
X137885238Y-110449514D01*
X137885238Y-110449514D02*
X137866190Y-110506657D01*
X137866190Y-110506657D02*
X137866190Y-110592371D01*
X137866190Y-110592371D02*
X137885238Y-110649514D01*
X137885238Y-110649514D02*
X137904285Y-110678085D01*
X137904285Y-110678085D02*
X137942380Y-110706657D01*
X137942380Y-110706657D02*
X138094761Y-110706657D01*
X137485238Y-110992371D02*
X137713809Y-110992371D01*
X137599523Y-110992371D02*
X137599523Y-110392371D01*
X137599523Y-110392371D02*
X137637619Y-110478085D01*
X137637619Y-110478085D02*
X137675714Y-110535228D01*
X137675714Y-110535228D02*
X137713809Y-110563800D01*
X137104286Y-110992371D02*
X137332857Y-110992371D01*
X137218571Y-110992371D02*
X137218571Y-110392371D01*
X137218571Y-110392371D02*
X137256667Y-110478085D01*
X137256667Y-110478085D02*
X137294762Y-110535228D01*
X137294762Y-110535228D02*
X137332857Y-110563800D01*
X122771428Y-107797204D02*
X122795237Y-107835300D01*
X122795237Y-107835300D02*
X122866666Y-107873395D01*
X122866666Y-107873395D02*
X122914285Y-107873395D01*
X122914285Y-107873395D02*
X122985713Y-107835300D01*
X122985713Y-107835300D02*
X123033332Y-107759109D01*
X123033332Y-107759109D02*
X123057142Y-107682919D01*
X123057142Y-107682919D02*
X123080951Y-107530538D01*
X123080951Y-107530538D02*
X123080951Y-107416252D01*
X123080951Y-107416252D02*
X123057142Y-107263871D01*
X123057142Y-107263871D02*
X123033332Y-107187680D01*
X123033332Y-107187680D02*
X122985713Y-107111490D01*
X122985713Y-107111490D02*
X122914285Y-107073395D01*
X122914285Y-107073395D02*
X122866666Y-107073395D01*
X122866666Y-107073395D02*
X122795237Y-107111490D01*
X122795237Y-107111490D02*
X122771428Y-107149585D01*
X122342856Y-107340061D02*
X122342856Y-107873395D01*
X122461904Y-107035300D02*
X122580951Y-107606728D01*
X122580951Y-107606728D02*
X122271428Y-107606728D01*
X122104761Y-107149585D02*
X122080952Y-107111490D01*
X122080952Y-107111490D02*
X122033333Y-107073395D01*
X122033333Y-107073395D02*
X121914285Y-107073395D01*
X121914285Y-107073395D02*
X121866666Y-107111490D01*
X121866666Y-107111490D02*
X121842857Y-107149585D01*
X121842857Y-107149585D02*
X121819047Y-107225776D01*
X121819047Y-107225776D02*
X121819047Y-107301966D01*
X121819047Y-107301966D02*
X121842857Y-107416252D01*
X121842857Y-107416252D02*
X122128571Y-107873395D01*
X122128571Y-107873395D02*
X121819047Y-107873395D01*
%TO.C,C2*%
D11*
X118338748Y-99465000D02*
X119761252Y-99465000D01*
X118338748Y-102185000D02*
X119761252Y-102185000D01*
%TO.C,U7*%
X123765000Y-107100000D02*
X123765000Y-104900000D01*
X123765000Y-107100000D02*
X123765000Y-109300000D01*
X131835000Y-107100000D02*
X131835000Y-104900000D01*
X131835000Y-107100000D02*
X131835000Y-109300000D01*
X131375000Y-111010000D02*
X131615000Y-111340000D01*
X131135000Y-111340000D01*
X131375000Y-111010000D01*
G36*
X131615000Y-111340000D02*
G01*
X131135000Y-111340000D01*
X131375000Y-111010000D01*
X131615000Y-111340000D01*
G37*
%TO.C,C5*%
X118338748Y-96965000D02*
X119761252Y-96965000D01*
X118338748Y-98785000D02*
X119761252Y-98785000D01*
%TO.C,D2*%
X149390000Y-104000000D02*
X149390000Y-103390000D01*
X149390000Y-105400000D02*
X149390000Y-106310000D01*
X149390000Y-106310000D02*
X149610000Y-106310000D01*
X152610000Y-103090000D02*
X152400000Y-103090000D01*
X152610000Y-103090000D02*
X152610000Y-103990000D01*
X152610000Y-105400000D02*
X152610000Y-106310000D01*
X152610000Y-106310000D02*
X152390000Y-106310000D01*
X149390000Y-103090000D02*
X149060000Y-102850000D01*
X149060000Y-103330000D01*
X149390000Y-103090000D01*
G36*
X149390000Y-103090000D02*
G01*
X149060000Y-103330000D01*
X149060000Y-102850000D01*
X149390000Y-103090000D01*
G37*
%TO.C,R31*%
X137003641Y-101995000D02*
X136696359Y-101995000D01*
X137003641Y-102755000D02*
X136696359Y-102755000D01*
%TO.C,U2*%
X108790000Y-103850000D02*
X108790000Y-103050000D01*
X108790000Y-103850000D02*
X108790000Y-104650000D01*
X111910000Y-103850000D02*
X111910000Y-103050000D01*
X111910000Y-103850000D02*
X111910000Y-104650000D01*
X108840000Y-102550000D02*
X108510000Y-102310000D01*
X108510000Y-102790000D01*
X108840000Y-102550000D01*
G36*
X108840000Y-102550000D02*
G01*
X108510000Y-102790000D01*
X108510000Y-102310000D01*
X108840000Y-102550000D01*
G37*
%TO.C,U13*%
X137525000Y-98160000D02*
X136725000Y-98160000D01*
X137525000Y-98160000D02*
X138325000Y-98160000D01*
X137525000Y-101280000D02*
X136725000Y-101280000D01*
X137525000Y-101280000D02*
X138325000Y-101280000D01*
X136225000Y-101230000D02*
X135985000Y-101560000D01*
X136465000Y-101560000D01*
X136225000Y-101230000D01*
G36*
X136465000Y-101560000D02*
G01*
X135985000Y-101560000D01*
X136225000Y-101230000D01*
X136465000Y-101560000D01*
G37*
%TO.C,L3*%
X144500000Y-106300000D02*
X144500000Y-102300000D01*
X148700000Y-106300000D02*
X148700000Y-102300000D01*
%TO.C,R32*%
X122602500Y-100662258D02*
X122602500Y-100187742D01*
X123647500Y-100662258D02*
X123647500Y-100187742D01*
%TO.C,C56*%
X125515000Y-91365580D02*
X125515000Y-91084420D01*
X126535000Y-91365580D02*
X126535000Y-91084420D01*
%TO.C,L2*%
X108200000Y-104350000D02*
X104200000Y-104350000D01*
X108200000Y-108550000D02*
X104200000Y-108550000D01*
%TO.C,R12*%
X120471359Y-108395000D02*
X120778641Y-108395000D01*
X120471359Y-109155000D02*
X120778641Y-109155000D01*
%TO.C,R42*%
X132452500Y-99537742D02*
X132452500Y-100012258D01*
X133497500Y-99537742D02*
X133497500Y-100012258D01*
%TO.C,C48*%
X127757836Y-102190000D02*
X127542164Y-102190000D01*
X127757836Y-102910000D02*
X127542164Y-102910000D01*
%TO.C,R33*%
X126396359Y-96595000D02*
X126703641Y-96595000D01*
X126396359Y-97355000D02*
X126703641Y-97355000D01*
%TO.C,C1*%
X147540000Y-100411252D02*
X147540000Y-99888748D01*
X149010000Y-100411252D02*
X149010000Y-99888748D01*
%TO.C,R8*%
X114478641Y-102995000D02*
X114171359Y-102995000D01*
X114478641Y-103755000D02*
X114171359Y-103755000D01*
%TO.C,C52*%
X128911252Y-90990000D02*
X128388748Y-90990000D01*
X128911252Y-92460000D02*
X128388748Y-92460000D01*
%TO.C,R10*%
X149145000Y-107621359D02*
X149145000Y-107928641D01*
X149905000Y-107621359D02*
X149905000Y-107928641D01*
%TO.C,U1*%
X112650000Y-96090000D02*
X110450000Y-96090000D01*
X112650000Y-96090000D02*
X114850000Y-96090000D01*
X112650000Y-101610000D02*
X110450000Y-101610000D01*
X112650000Y-101610000D02*
X114850000Y-101610000D01*
X108740000Y-101125000D02*
X108410000Y-101365000D01*
X108410000Y-100885000D01*
X108740000Y-101125000D01*
G36*
X108740000Y-101125000D02*
G01*
X108410000Y-101365000D01*
X108410000Y-100885000D01*
X108740000Y-101125000D01*
G37*
%TO.C,C62*%
X141815580Y-109440000D02*
X141534420Y-109440000D01*
X141815580Y-110460000D02*
X141534420Y-110460000D01*
%TO.C,C54*%
X129557835Y-89465000D02*
X129342163Y-89465000D01*
X129557835Y-90185000D02*
X129342163Y-90185000D01*
%TO.C,R34*%
X132028641Y-102145000D02*
X131721359Y-102145000D01*
X132028641Y-102905000D02*
X131721359Y-102905000D01*
%TO.C,C47*%
X129757836Y-102190000D02*
X129542164Y-102190000D01*
X129757836Y-102910000D02*
X129542164Y-102910000D01*
%TO.C,C8*%
X107640000Y-102992164D02*
X107640000Y-103207836D01*
X108360000Y-102992164D02*
X108360000Y-103207836D01*
%TO.C,R5*%
X110037742Y-91502500D02*
X110512258Y-91502500D01*
X110037742Y-92547500D02*
X110512258Y-92547500D01*
%TO.C,U10*%
X128300000Y-93040000D02*
X127500000Y-93040000D01*
X128300000Y-93040000D02*
X129100000Y-93040000D01*
X128300000Y-96160000D02*
X127500000Y-96160000D01*
X128300000Y-96160000D02*
X129100000Y-96160000D01*
X129600000Y-93115000D02*
X129840000Y-92785000D01*
X129360000Y-92785000D01*
X129600000Y-93115000D01*
G36*
X129600000Y-93115000D02*
G01*
X129360000Y-92785000D01*
X129840000Y-92785000D01*
X129600000Y-93115000D01*
G37*
%TO.C,R9*%
X112345000Y-102878641D02*
X112345000Y-102571359D01*
X113105000Y-102878641D02*
X113105000Y-102571359D01*
%TO.C,R3*%
X108852500Y-94187742D02*
X108852500Y-94662258D01*
X109897500Y-94187742D02*
X109897500Y-94662258D01*
%TO.C,U9*%
X134199999Y-103640000D02*
X133399999Y-103640000D01*
X134199999Y-103640000D02*
X134999999Y-103640000D01*
X134199999Y-106760000D02*
X133399999Y-106760000D01*
X134199999Y-106760000D02*
X134999999Y-106760000D01*
X132899999Y-106685000D02*
X132659999Y-107015000D01*
X133139999Y-107015000D01*
X132899999Y-106685000D01*
G36*
X133139999Y-107015000D02*
G01*
X132659999Y-107015000D01*
X132899999Y-106685000D01*
X133139999Y-107015000D01*
G37*
%TO.C,R6*%
X113962258Y-104252500D02*
X113487742Y-104252500D01*
X113962258Y-105297500D02*
X113487742Y-105297500D01*
%TO.C,C6*%
X105388748Y-98240000D02*
X106811252Y-98240000D01*
X105388748Y-100960000D02*
X106811252Y-100960000D01*
%TO.C,R1*%
X119340000Y-90522936D02*
X119340000Y-94877064D01*
X122760000Y-90522936D02*
X122760000Y-94877064D01*
%TO.C,C46*%
X134840000Y-108434420D02*
X134840000Y-108715580D01*
X135860000Y-108434420D02*
X135860000Y-108715580D01*
%TO.C,D60*%
X115940000Y-107975000D02*
X115940000Y-107365000D01*
X115940000Y-109375000D02*
X115940000Y-110285000D01*
X115940000Y-110285000D02*
X116160000Y-110285000D01*
X119160000Y-107065000D02*
X118950000Y-107065000D01*
X119160000Y-107065000D02*
X119160000Y-107965000D01*
X119160000Y-109375000D02*
X119160000Y-110285000D01*
X119160000Y-110285000D02*
X118940000Y-110285000D01*
X115940000Y-107065000D02*
X115610000Y-106825000D01*
X115610000Y-107305000D01*
X115940000Y-107065000D01*
G36*
X115940000Y-107065000D02*
G01*
X115610000Y-107305000D01*
X115610000Y-106825000D01*
X115940000Y-107065000D01*
G37*
%TO.C,R14*%
X133319999Y-107996359D02*
X133319999Y-108303641D01*
X134079999Y-107996359D02*
X134079999Y-108303641D01*
%TO.C,C18*%
X123415000Y-95311252D02*
X123415000Y-94788748D01*
X124885000Y-95311252D02*
X124885000Y-94788748D01*
%TO.C,C16*%
X111436252Y-106340000D02*
X110913748Y-106340000D01*
X111436252Y-107810000D02*
X110913748Y-107810000D01*
%TO.C,C58*%
X132357836Y-97050000D02*
X132142164Y-97050000D01*
X132357836Y-97770000D02*
X132142164Y-97770000D01*
%TO.C,R41*%
X134420000Y-98996359D02*
X134420000Y-99303641D01*
X135180000Y-98996359D02*
X135180000Y-99303641D01*
%TO.C,C40*%
X125542164Y-102190000D02*
X125757836Y-102190000D01*
X125542164Y-102910000D02*
X125757836Y-102910000D01*
%TO.C,C21*%
X123757836Y-102190000D02*
X123542164Y-102190000D01*
X123757836Y-102910000D02*
X123542164Y-102910000D01*
%TO.C,C4*%
X115132836Y-101890000D02*
X114917164Y-101890000D01*
X115132836Y-102610000D02*
X114917164Y-102610000D01*
%TO.C,R51*%
X139321359Y-107845000D02*
X139628641Y-107845000D01*
X139321359Y-108605000D02*
X139628641Y-108605000D01*
%TO.C,R60*%
X113846359Y-105795000D02*
X114153641Y-105795000D01*
X113846359Y-106555000D02*
X114153641Y-106555000D01*
%TO.C,D3*%
X153300000Y-107160000D02*
X153300000Y-103300000D01*
X155300000Y-107160000D02*
X153300000Y-107160000D01*
X155300000Y-107160000D02*
X155300000Y-103300000D01*
%TO.C,C55*%
X142188748Y-102790000D02*
X142711252Y-102790000D01*
X142188748Y-104260000D02*
X142711252Y-104260000D01*
%TO.C,R52*%
X139628641Y-106745000D02*
X139321359Y-106745000D01*
X139628641Y-107505000D02*
X139321359Y-107505000D01*
%TO.C,L1*%
X149600000Y-92850000D02*
X149600000Y-102250000D01*
X149600000Y-92850000D02*
X150500000Y-92850000D01*
X149600000Y-102250000D02*
X150500000Y-102250000D01*
X150500000Y-92650000D02*
X150500000Y-92750000D01*
X150500000Y-92850000D02*
X150500000Y-92650000D01*
X152400000Y-92650000D02*
X152400000Y-92850000D01*
X152400000Y-92850000D02*
X153000000Y-92850000D01*
X152400000Y-102250000D02*
X153000000Y-102250000D01*
X155800000Y-92850000D02*
X154900000Y-92850000D01*
X155800000Y-102250000D02*
X154900000Y-102250000D01*
X155800000Y-102250000D02*
X155800000Y-92850000D01*
%TO.C,C14*%
X123040000Y-97957836D02*
X123040000Y-97742164D01*
X123760000Y-97957836D02*
X123760000Y-97742164D01*
%TO.C,C63*%
X144440000Y-107757836D02*
X144440000Y-107542164D01*
X145160000Y-107757836D02*
X145160000Y-107542164D01*
%TO.C,C65*%
X140240000Y-100761252D02*
X140240000Y-99338748D01*
X142060000Y-100761252D02*
X142060000Y-99338748D01*
%TO.C,C30*%
X133339999Y-110067164D02*
X133339999Y-110282836D01*
X134059999Y-110067164D02*
X134059999Y-110282836D01*
%TO.C,C57*%
X135357836Y-97050000D02*
X135142164Y-97050000D01*
X135357836Y-97770000D02*
X135142164Y-97770000D01*
%TO.C,C15*%
X124140000Y-98382836D02*
X124140000Y-98167164D01*
X124860000Y-98382836D02*
X124860000Y-98167164D01*
%TO.C,U12*%
X138500000Y-103190000D02*
X137700000Y-103190000D01*
X138500000Y-103190000D02*
X139300000Y-103190000D01*
X138500000Y-106310000D02*
X137700000Y-106310000D01*
X138500000Y-106310000D02*
X139300000Y-106310000D01*
X137200000Y-106260000D02*
X136960000Y-106590000D01*
X137440000Y-106590000D01*
X137200000Y-106260000D01*
G36*
X137440000Y-106590000D02*
G01*
X136960000Y-106590000D01*
X137200000Y-106260000D01*
X137440000Y-106590000D01*
G37*
%TO.C,R4*%
X110502500Y-94662258D02*
X110502500Y-94187742D01*
X111547500Y-94662258D02*
X111547500Y-94187742D01*
%TO.C,U8*%
X130665000Y-92900000D02*
X130665000Y-90700000D01*
X130665000Y-92900000D02*
X130665000Y-95100000D01*
X138735000Y-92900000D02*
X138735000Y-90700000D01*
X138735000Y-92900000D02*
X138735000Y-95100000D01*
X131125000Y-88990000D02*
X130885000Y-88660000D01*
X131365000Y-88660000D01*
X131125000Y-88990000D01*
G36*
X131125000Y-88990000D02*
G01*
X130885000Y-88660000D01*
X131365000Y-88660000D01*
X131125000Y-88990000D01*
G37*
%TO.C,R44*%
X129896359Y-97045000D02*
X130203641Y-97045000D01*
X129896359Y-97805000D02*
X130203641Y-97805000D01*
%TO.C,D61*%
X116815000Y-102965000D02*
X116815000Y-103175000D01*
X116815000Y-102965000D02*
X117715000Y-102965000D01*
X117725000Y-106185000D02*
X117115000Y-106185000D01*
X119125000Y-102965000D02*
X120035000Y-102965000D01*
X119125000Y-106185000D02*
X120035000Y-106185000D01*
X120035000Y-102965000D02*
X120035000Y-103185000D01*
X120035000Y-106185000D02*
X120035000Y-105965000D01*
X116815000Y-106185000D02*
X116575000Y-106515000D01*
X117055000Y-106515000D01*
X116815000Y-106185000D01*
G36*
X117055000Y-106515000D02*
G01*
X116575000Y-106515000D01*
X116815000Y-106185000D01*
X117055000Y-106515000D01*
G37*
%TO.C,C64*%
X145511252Y-99790000D02*
X144088748Y-99790000D01*
X145511252Y-101610000D02*
X144088748Y-101610000D01*
%TO.C,C20*%
X124140000Y-100167164D02*
X124140000Y-100382836D01*
X124860000Y-100167164D02*
X124860000Y-100382836D01*
%TO.C,C61*%
X146888748Y-106990000D02*
X147411252Y-106990000D01*
X146888748Y-108460000D02*
X147411252Y-108460000D01*
%TO.C,C50*%
X137332836Y-97050000D02*
X137117164Y-97050000D01*
X137332836Y-97770000D02*
X137117164Y-97770000D01*
%TO.C,R11*%
X138820000Y-109646359D02*
X138820000Y-109953641D01*
X139580000Y-109646359D02*
X139580000Y-109953641D01*
%TO.C,U15*%
X140890000Y-106975000D02*
X140890000Y-106175000D01*
X140890000Y-106975000D02*
X140890000Y-107775000D01*
X144010000Y-106975000D02*
X144010000Y-106175000D01*
X144010000Y-106975000D02*
X144010000Y-107775000D01*
X143960000Y-108275000D02*
X144290000Y-108515000D01*
X144290000Y-108035000D01*
X143960000Y-108275000D01*
G36*
X144290000Y-108515000D02*
G01*
X143960000Y-108275000D01*
X144290000Y-108035000D01*
X144290000Y-108515000D01*
G37*
%TO.C,C45*%
X136665000Y-108238748D02*
X136665000Y-108761252D01*
X138135000Y-108238748D02*
X138135000Y-108761252D01*
%TO.C,C42*%
X121740000Y-104913748D02*
X121740000Y-105436252D01*
X123210000Y-104913748D02*
X123210000Y-105436252D01*
%TD*%
%LPC*%
D12*
%TO.C,J2*%
X105900000Y-102040000D03*
X104884000Y-96960000D03*
X106916000Y-96960000D03*
%TD*%
D13*
%TO.C,J5*%
X105300000Y-92600000D03*
%TD*%
D14*
%TO.C,C2*%
X117575000Y-100825000D03*
X120525000Y-100825000D03*
%TD*%
D15*
%TO.C,U7*%
X131375000Y-109975000D03*
X130725000Y-109975000D03*
X130075000Y-109975000D03*
X129425000Y-109975000D03*
X128775000Y-109975000D03*
X128125000Y-109975000D03*
X127475000Y-109975000D03*
X126825000Y-109975000D03*
X126175000Y-109975000D03*
X125525000Y-109975000D03*
X124875000Y-109975000D03*
X124225000Y-109975000D03*
X124225000Y-104225000D03*
X124875000Y-104225000D03*
X125525000Y-104225000D03*
X126175000Y-104225000D03*
X126825000Y-104225000D03*
X127475000Y-104225000D03*
X128125000Y-104225000D03*
X128775000Y-104225000D03*
X129425000Y-104225000D03*
X130075000Y-104225000D03*
X130725000Y-104225000D03*
X131375000Y-104225000D03*
D16*
X127800000Y-107100000D03*
%TD*%
D17*
%TO.C,C5*%
X117575000Y-97875000D03*
X120525000Y-97875000D03*
%TD*%
D18*
%TO.C,D2*%
X150025000Y-103300000D03*
X150675000Y-103300000D03*
X151325000Y-103300000D03*
X151975000Y-103300000D03*
X151975000Y-106100000D03*
X151325000Y-106100000D03*
X150675000Y-106100000D03*
X150025000Y-106100000D03*
D19*
X152187500Y-104375000D03*
X149812500Y-104375000D03*
D20*
X151000000Y-104700000D03*
D19*
X152187500Y-105025000D03*
X149812500Y-105025000D03*
%TD*%
D21*
%TO.C,R31*%
X137360000Y-102375000D03*
X136340000Y-102375000D03*
%TD*%
D22*
%TO.C,U2*%
X109400000Y-102712500D03*
X110350000Y-102712500D03*
X111300000Y-102712500D03*
X111300000Y-104987500D03*
X110350000Y-104987500D03*
X109400000Y-104987500D03*
%TD*%
D23*
%TO.C,U13*%
X136387500Y-100670000D03*
X136387500Y-99720000D03*
X136387500Y-98770000D03*
X138662500Y-98770000D03*
X138662500Y-100670000D03*
%TD*%
D24*
%TO.C,L3*%
X146600000Y-105825000D03*
X146600000Y-102775000D03*
%TD*%
D25*
%TO.C,R32*%
X123125000Y-101250000D03*
X123125000Y-99600000D03*
%TD*%
D26*
%TO.C,C56*%
X126025000Y-92000000D03*
X126025000Y-90450000D03*
%TD*%
D27*
%TO.C,L2*%
X107725000Y-106450000D03*
X104675000Y-106450000D03*
%TD*%
D28*
%TO.C,R12*%
X120115000Y-108775000D03*
X121135000Y-108775000D03*
%TD*%
D29*
%TO.C,R42*%
X132975000Y-98950000D03*
X132975000Y-100600000D03*
%TD*%
D30*
%TO.C,C48*%
X128130000Y-102550000D03*
X127170000Y-102550000D03*
%TD*%
D28*
%TO.C,R33*%
X126040000Y-96975000D03*
X127060000Y-96975000D03*
%TD*%
D31*
%TO.C,C1*%
X148275000Y-101100000D03*
X148275000Y-99200000D03*
%TD*%
D21*
%TO.C,R8*%
X114835000Y-103375000D03*
X113815000Y-103375000D03*
%TD*%
D32*
%TO.C,C52*%
X129600000Y-91725000D03*
X127700000Y-91725000D03*
%TD*%
D33*
%TO.C,R10*%
X149525000Y-107265000D03*
X149525000Y-108285000D03*
%TD*%
D34*
%TO.C,U1*%
X112650000Y-98850000D03*
D35*
X109787500Y-101125000D03*
X109787500Y-100475000D03*
X109787500Y-99825000D03*
X109787500Y-99175000D03*
X109787500Y-98525000D03*
X109787500Y-97875000D03*
X109787500Y-97225000D03*
X109787500Y-96575000D03*
X115512500Y-96575000D03*
X115512500Y-97225000D03*
X115512500Y-97875000D03*
X115512500Y-98525000D03*
X115512500Y-99175000D03*
X115512500Y-99825000D03*
X115512500Y-100475000D03*
X115512500Y-101125000D03*
%TD*%
D36*
%TO.C,C62*%
X142450000Y-109950000D03*
X140900000Y-109950000D03*
%TD*%
D30*
%TO.C,C54*%
X129929999Y-89825000D03*
X128969999Y-89825000D03*
%TD*%
D21*
%TO.C,R34*%
X132385000Y-102525000D03*
X131365000Y-102525000D03*
%TD*%
D30*
%TO.C,C47*%
X130130000Y-102550000D03*
X129170000Y-102550000D03*
%TD*%
D37*
%TO.C,C8*%
X108000000Y-102620000D03*
X108000000Y-103580000D03*
%TD*%
D38*
%TO.C,R5*%
X109450000Y-92025000D03*
X111100000Y-92025000D03*
%TD*%
D39*
%TO.C,U10*%
X129437500Y-93625000D03*
X129437500Y-94275000D03*
X129437500Y-94925000D03*
X129437500Y-95575000D03*
X127162500Y-95575000D03*
X127162500Y-94925000D03*
X127162500Y-94275000D03*
X127162500Y-93625000D03*
%TD*%
D40*
%TO.C,R9*%
X112725000Y-103235000D03*
X112725000Y-102215000D03*
%TD*%
D29*
%TO.C,R3*%
X109375000Y-93600000D03*
X109375000Y-95250000D03*
%TD*%
D41*
%TO.C,U9*%
X133062499Y-106175000D03*
X133062499Y-105525000D03*
X133062499Y-104875000D03*
X133062499Y-104225000D03*
X135337499Y-104225000D03*
X135337499Y-104875000D03*
X135337499Y-105525000D03*
X135337499Y-106175000D03*
%TD*%
D42*
%TO.C,R6*%
X114550000Y-104775000D03*
X112900000Y-104775000D03*
%TD*%
D14*
%TO.C,C6*%
X104625000Y-99600000D03*
X107575000Y-99600000D03*
%TD*%
D43*
%TO.C,R1*%
X121050000Y-89737500D03*
X121050000Y-95662500D03*
%TD*%
D44*
%TO.C,C46*%
X135350000Y-107800000D03*
X135350000Y-109350000D03*
%TD*%
D18*
%TO.C,D60*%
X116575000Y-107275000D03*
X117225000Y-107275000D03*
X117875000Y-107275000D03*
X118525000Y-107275000D03*
X118525000Y-110075000D03*
X117875000Y-110075000D03*
X117225000Y-110075000D03*
X116575000Y-110075000D03*
D19*
X118737500Y-108350000D03*
X116362500Y-108350000D03*
D20*
X117550000Y-108675000D03*
D19*
X118737500Y-109000000D03*
X116362500Y-109000000D03*
%TD*%
D33*
%TO.C,R14*%
X133699999Y-107640000D03*
X133699999Y-108660000D03*
%TD*%
D31*
%TO.C,C18*%
X124150000Y-96000000D03*
X124150000Y-94100000D03*
%TD*%
D32*
%TO.C,C16*%
X112125000Y-107075000D03*
X110225000Y-107075000D03*
%TD*%
D30*
%TO.C,C58*%
X132730000Y-97410000D03*
X131770000Y-97410000D03*
%TD*%
D33*
%TO.C,R41*%
X134800000Y-98640000D03*
X134800000Y-99660000D03*
%TD*%
D45*
%TO.C,C40*%
X125170000Y-102550000D03*
X126130000Y-102550000D03*
%TD*%
D30*
%TO.C,C21*%
X124130000Y-102550000D03*
X123170000Y-102550000D03*
%TD*%
%TO.C,C4*%
X115505000Y-102250000D03*
X114545000Y-102250000D03*
%TD*%
D37*
%TO.C,C44*%
X132600000Y-109820000D03*
X132600000Y-110780000D03*
%TD*%
D28*
%TO.C,R51*%
X138965000Y-108225000D03*
X139985000Y-108225000D03*
%TD*%
%TO.C,R60*%
X113490000Y-106175000D03*
X114510000Y-106175000D03*
%TD*%
D46*
%TO.C,GDT1*%
X113225000Y-92475000D03*
X117225000Y-92475000D03*
%TD*%
D47*
%TO.C,D3*%
X154300000Y-106350000D03*
X154300000Y-103550000D03*
%TD*%
D48*
%TO.C,C55*%
X141500000Y-103525000D03*
X143400000Y-103525000D03*
%TD*%
D21*
%TO.C,R52*%
X139985000Y-107125000D03*
X138965000Y-107125000D03*
%TD*%
D49*
%TO.C,D1*%
X140550000Y-94200000D03*
X147350000Y-94200000D03*
%TD*%
D50*
%TO.C,L1*%
X151430000Y-93800000D03*
X153970000Y-93800000D03*
X153970000Y-101300000D03*
X151430000Y-101300000D03*
%TD*%
D51*
%TO.C,C14*%
X123400000Y-98330000D03*
X123400000Y-97370000D03*
%TD*%
%TO.C,C63*%
X144800000Y-108130000D03*
X144800000Y-107170000D03*
%TD*%
D52*
%TO.C,C65*%
X141150000Y-101525000D03*
X141150000Y-98575000D03*
%TD*%
D37*
%TO.C,C30*%
X133699999Y-109695000D03*
X133699999Y-110655000D03*
%TD*%
D30*
%TO.C,C57*%
X135730000Y-97410000D03*
X134770000Y-97410000D03*
%TD*%
D51*
%TO.C,C15*%
X124500000Y-98755000D03*
X124500000Y-97795000D03*
%TD*%
D23*
%TO.C,U12*%
X137362500Y-105700000D03*
X137362500Y-104750000D03*
X137362500Y-103800000D03*
X139637500Y-103800000D03*
X139637500Y-105700000D03*
%TD*%
D25*
%TO.C,R4*%
X111025000Y-95250000D03*
X111025000Y-93600000D03*
%TD*%
D53*
%TO.C,U8*%
X131125000Y-90025000D03*
X131775000Y-90025000D03*
X132425000Y-90025000D03*
X133075000Y-90025000D03*
X133725000Y-90025000D03*
X134375000Y-90025000D03*
X135025000Y-90025000D03*
X135675000Y-90025000D03*
X136325000Y-90025000D03*
X136975000Y-90025000D03*
X137625000Y-90025000D03*
X138275000Y-90025000D03*
X138275000Y-95775000D03*
X137625000Y-95775000D03*
X136975000Y-95775000D03*
X136325000Y-95775000D03*
X135675000Y-95775000D03*
X135025000Y-95775000D03*
X134375000Y-95775000D03*
X133725000Y-95775000D03*
X133075000Y-95775000D03*
X132425000Y-95775000D03*
X131775000Y-95775000D03*
X131125000Y-95775000D03*
D16*
X134700000Y-92900000D03*
%TD*%
D28*
%TO.C,R44*%
X129540000Y-97425000D03*
X130560000Y-97425000D03*
%TD*%
D54*
%TO.C,D61*%
X117025000Y-105550000D03*
X117025000Y-104900000D03*
X117025000Y-104250000D03*
X117025000Y-103600000D03*
X119825000Y-103600000D03*
X119825000Y-104250000D03*
X119825000Y-104900000D03*
X119825000Y-105550000D03*
D55*
X118100000Y-103387500D03*
X118100000Y-105762500D03*
D56*
X118425000Y-104575000D03*
D55*
X118750000Y-103387500D03*
X118750000Y-105762500D03*
%TD*%
D57*
%TO.C,C64*%
X146275000Y-100700000D03*
X143325000Y-100700000D03*
%TD*%
D37*
%TO.C,C20*%
X124500000Y-99795000D03*
X124500000Y-100755000D03*
%TD*%
D48*
%TO.C,C61*%
X146200000Y-107725000D03*
X148100000Y-107725000D03*
%TD*%
D30*
%TO.C,C50*%
X137705000Y-97410000D03*
X136745000Y-97410000D03*
%TD*%
D33*
%TO.C,R11*%
X139200000Y-109290000D03*
X139200000Y-110310000D03*
%TD*%
D58*
%TO.C,U15*%
X143400000Y-108112500D03*
X142450000Y-108112500D03*
X141500000Y-108112500D03*
X141500000Y-105837500D03*
X142450000Y-105837500D03*
X143400000Y-105837500D03*
%TD*%
D59*
%TO.C,C45*%
X137400000Y-107550000D03*
X137400000Y-109450000D03*
%TD*%
%TO.C,C42*%
X122475000Y-104225000D03*
X122475000Y-106125000D03*
%TD*%
%LPD*%
M02*
