%TF.GenerationSoftware,KiCad,Pcbnew,10.0.6*%
%TF.CreationDate,2026-10-03T06:07:59+09:00*%
%TF.ProjectId,HMT500(ED260313A),484d5435-3030-4284-9544-323630333133,A5-R3*%
%TF.SameCoordinates,Original*%
%TF.FileFunction,Profile,NP*%
%FSLAX46Y46*%
G04 Gerber Fmt 4.6, Leading zero omitted, Abs format (unit mm)*
G04 Created by KiCad (PCBNEW 10.0.6) date 2026-10-03 06:07:59*
%MOMM*%
%LPD*%
G01*
G04 APERTURE LIST*
%TA.AperFunction,Profile*%
%ADD10C,0.100000*%
%TD*%
G04 APERTURE END LIST*
D10*
X100000000Y-92000000D02*
G75*
G02*
X101000000Y-91000000I1000000J0D01*
G01*
X100000000Y-108000000D02*
X100000000Y-92000000D01*
X101000000Y-91000000D02*
X110500000Y-91000000D01*
X101000000Y-109000000D02*
G75*
G02*
X100000000Y-108000000I0J1000000D01*
G01*
X102850000Y-95000000D02*
G75*
G02*
X100650000Y-95000000I-1100000J0D01*
G01*
X100650000Y-95000000D02*
G75*
G02*
X102850000Y-95000000I1100000J0D01*
G01*
X102850000Y-105000000D02*
G75*
G02*
X100650000Y-105000000I-1100000J0D01*
G01*
X100650000Y-105000000D02*
G75*
G02*
X102850000Y-105000000I1100000J0D01*
G01*
X110500000Y-109000000D02*
X101000000Y-109000000D01*
X110500000Y-109000000D02*
G75*
G02*
X111500000Y-110000000I0J-1000000D01*
G01*
X111500000Y-89500000D02*
G75*
G02*
X112500000Y-88500000I1000000J0D01*
G01*
X111500000Y-90000000D02*
G75*
G02*
X110500000Y-91000000I-1000000J0D01*
G01*
X111500000Y-90000000D02*
X111500000Y-89500000D01*
X111500000Y-110500000D02*
X111500000Y-110000000D01*
X112500000Y-88500000D02*
X147900000Y-88500000D01*
X112500000Y-111500000D02*
G75*
G02*
X111500000Y-110500000I0J1000000D01*
G01*
X147900000Y-88500000D02*
G75*
G02*
X148900000Y-89500000I0J-1000000D01*
G01*
X147900000Y-111500000D02*
X112500000Y-111500000D01*
X148900000Y-89500000D02*
X148900000Y-90000000D01*
X148900000Y-110000000D02*
X148900000Y-110500000D01*
X148900000Y-110000000D02*
G75*
G02*
X149900000Y-109000000I1000000J0D01*
G01*
X148900000Y-110500000D02*
G75*
G02*
X147900000Y-111500000I-1000000J0D01*
G01*
X149900000Y-91000000D02*
G75*
G02*
X148900000Y-90000000I0J1000000D01*
G01*
X149900000Y-91000000D02*
X155500000Y-91000000D01*
X155500000Y-91000000D02*
G75*
G02*
X156500000Y-92000000I0J-1000000D01*
G01*
X155500000Y-109000000D02*
X149900000Y-109000000D01*
X156500000Y-92000000D02*
X156500000Y-108000000D01*
X156500000Y-108000000D02*
G75*
G02*
X155500000Y-109000000I-1000000J0D01*
G01*
M02*
